<?xml version="1.0" standalone="no"?>
<!DOCTYPE svg PUBLIC "-//W3C//DTD SVG 1.1//EN" "http://www.w3.org/Graphics/SVG/1.1/DTD/svg11.dtd" >
<svg xmlns="http://www.w3.org/2000/svg" xmlns:xlink="http://www.w3.org/1999/xlink" version="1.1">
<metadata>
Created by FontForge 20201107 at Wed Oct 15 18:50:35 2025
 By 
Copyright (c) 2009 by Neil Summerour. All rights reserved.
</metadata>
<defs>
<font id="Magneta-Book" horiz-adv-x="1388" >
  <font-face 
    font-family="Magneta Book"
    font-weight="400"
    font-stretch="normal"
    units-per-em="2048"
    panose-1="2 0 5 3 8 0 0 2 0 3"
    ascent="1536"
    descent="-512"
    x-height="983"
    cap-height="1434"
    bbox="-283 -608.333 2730 2097.19"
    underline-thickness="102"
    underline-position="-204"
    unicode-range="U+0020-FB06"
  />
<missing-glyph horiz-adv-x="491" 
 />
    <glyph glyph-name="f_f" unicode="ff" horiz-adv-x="1318" 
d="M1057 983h233v-68h-233v-694q0 -50 4 -77.5t14.5 -50.5t34.5 -33t59 -14.5t93 -4.5v-41h-541v41q60 0 92.5 6t52 27.5t24.5 53.5t5 93v694h-498v-694q0 -50 4 -77.5t14.5 -50.5t34.5 -33t59 -14.5t93 -4.5v-41h-541v41q60 0 92.5 6t52.5 27.5t25 53.5t5 93v694h-154v68
h154v37q0 91 39 178t96.5 146t122.5 95t118 36q11 0 21.5 -1.5t25 -11t18.5 -26t-5.5 -50.5t-38.5 -81q-2 2 -13 11t-17 13t-17 12.5t-19.5 13t-19.5 9.5t-21 7.5t-20 2.5q-23 0 -41 -16.5t-34.5 -57t-25 -120.5t-8.5 -197h498v37q0 91 39 178t96.5 146t123 95t118.5 36
q7 0 14 -0.5t18 -4t18 -10t12 -19t3 -30t-13 -45t-32 -61.5q-2 2 -13 11t-17 13t-17 12.5t-19.5 13t-19.5 9.5t-21 7.5t-20 2.5q-23 0 -41 -16.5t-34 -57t-24.5 -120.5t-8.5 -197z" />
    <glyph glyph-name="f_i" unicode="fi" horiz-adv-x="1216" 
d="M958 1165q-73 51 -135 135q62 81 135 134q75 -55 136 -134q-51 -74 -136 -135zM731 915h-334v-694q0 -50 4 -77.5t14.5 -50.5t34.5 -33t59 -14.5t93 -4.5v-41h-541v41q60 0 92.5 6t52.5 27.5t25 53.5t5 93v694h-154v68h154v37q0 91 39 178t96.5 146t122.5 95t118 36
q11 0 21.5 -1.5t25 -11t18.5 -26t-5.5 -50.5t-38.5 -81q-2 2 -13 11t-17 13t-17 12.5t-19.5 13t-19.5 9.5t-21 7.5t-20 2.5q-23 0 -41 -16.5t-34.5 -57t-25 -120.5t-8.5 -197h656l-6 -201v-561q0 -42 1.5 -66.5t7 -47.5t14.5 -33.5t26.5 -19t40.5 -11t59 -2.5v-41h-475v41
q40 0 65 2.5t44.5 11t29.5 19t16 33.5t7.5 47.5t1.5 66.5v531q0 34 -0.5 50.5t-3 38t-9 30.5t-17 20t-27.5 14.5t-40.5 6.5t-56.5 3z" />
    <glyph glyph-name="f_l" unicode="fl" horiz-adv-x="1216" 
d="M1047 1454v-1233q0 -42 1.5 -66.5t7 -47.5t14.5 -33.5t26.5 -19t40.5 -11t59 -2.5v-41h-475v41q40 0 65 2.5t44.5 11t29.5 19t16 33.5t7.5 47.5t1.5 66.5v1131q-74 55 -203.5 58.5t-214.5 -48.5q-70 -63 -70 -379h234v-68h-234v-694q0 -50 4 -77.5t14.5 -50.5t34.5 -33
t59 -14.5t93 -4.5v-41h-541v41q60 0 92.5 6t52.5 27.5t25 53.5t5 93v694h-154v68h154v37q0 91 29.5 168t81 131t120.5 92t148.5 56t164.5 18q126 0 267 -31z" />
    <glyph glyph-name="f_f_i" unicode="ffi" horiz-adv-x="1875" 
d="M1391 915h-334v-694q0 -50 4 -77.5t14.5 -50.5t34.5 -33t59 -14.5t93 -4.5v-41h-541v41q60 0 92.5 6t52 27.5t24.5 53.5t5 93v694h-498v-694q0 -50 4 -77.5t14.5 -50.5t34.5 -33t59 -14.5t93 -4.5v-41h-541v41q60 0 92.5 6t52.5 27.5t25 53.5t5 93v694h-154v68h154v37
q0 91 39 178t96.5 146t122.5 95t118 36q11 0 21.5 -1.5t25 -11t18.5 -26t-5.5 -50.5t-38.5 -81q-2 2 -13 11t-17 13t-17 12.5t-19.5 13t-19.5 9.5t-21 7.5t-20 2.5q-23 0 -41 -16.5t-34.5 -57t-25 -120.5t-8.5 -197h498v37q0 91 39 178t96.5 146t123 95t118.5 36
q7 0 14 -0.5t18 -4t18 -10t12 -19t3 -30t-13 -45t-32 -61.5q-2 2 -13 11t-17 13t-17 12.5t-19.5 13t-19.5 9.5t-21 7.5t-20 2.5q-23 0 -41 -16.5t-34 -57t-24.5 -120.5t-8.5 -197h655l-6 -201v-561q0 -42 1.5 -66.5t7 -47.5t14.5 -33.5t26.5 -19t40.5 -11t59 -2.5v-41h-475
v41q40 0 65 2.5t44.5 11t29.5 19t16 33.5t7.5 47.5t1.5 66.5v531q0 40 -0.5 57.5t-5.5 41t-13.5 32t-26 18t-43 12t-64.5 2.5zM1618 1165q-73 51 -135 135q62 81 135 134q73 -53 135 -134q-52 -75 -135 -135z" />
    <glyph glyph-name="f_f_l" unicode="ffl" horiz-adv-x="1875" 
d="M1706 1454v-1233q0 -42 1.5 -66.5t7 -47.5t14.5 -33.5t26.5 -19t40.5 -11t59 -2.5v-41h-475v41q40 0 65 2.5t44.5 11t29.5 19t16 33.5t7.5 47.5t1.5 66.5v1131q-74 55 -203.5 58.5t-214.5 -48.5q-69 -62 -69 -379h233v-68h-233v-694q0 -50 4 -77.5t14.5 -50.5t34.5 -33
t59 -14.5t93 -4.5v-41h-541v41q60 0 92.5 6t52 27.5t24.5 53.5t5 93v694h-498v-694q0 -50 4 -77.5t14.5 -50.5t34.5 -33t59 -14.5t93 -4.5v-41h-541v41q60 0 92.5 6t52.5 27.5t25 53.5t5 93v694h-154v68h154v37q0 91 39 178t96.5 146t122.5 95t118 36q11 0 21.5 -1.5t25 -11
t18.5 -26t-5.5 -50.5t-38.5 -81q-2 2 -13 11t-17 13t-17 12.5t-19.5 13t-19.5 9.5t-21 7.5t-20 2.5q-23 0 -41 -16.5t-34.5 -57t-25 -120.5t-8.5 -197h498v37q0 113 45.5 204t122 146.5t173 85t204.5 29.5q125 0 266 -31z" />
    <glyph glyph-name="f_b" unicode="fb" horiz-adv-x="1763" 
d="M995 1454l-4 -602q70 68 157 110t177 42q151 0 253.5 -131.5t102.5 -342.5q0 -121 -27.5 -217.5t-71.5 -157.5t-103.5 -101.5t-119.5 -57t-124 -16.5q-175 0 -311 94l-52 -84h-38v1362q-74 55 -177.5 58.5t-189.5 -48.5q-70 -63 -70 -379h217v-68h-217v-694
q0 -50 4 -77.5t14.5 -50.5t34.5 -33t59 -14.5t93 -4.5v-41h-541v41q60 0 92.5 6t52.5 27.5t25 53.5t5 93v694h-154v68h154v37q0 108 43 197.5t115 146.5t163.5 88t190.5 31q105 0 247 -29zM1225 41q52 0 94.5 19t71.5 50t51.5 74t35 87t20.5 93.5t10.5 88.5t2.5 77
q0 62 -13.5 125.5t-41 122t-76 95t-110.5 36.5q-15 0 -33.5 -2.5t-59 -12.5t-89 -37.5t-93.5 -70.5v-520q0 -19 1 -33.5t5.5 -39.5t13 -43.5t25.5 -40t40.5 -35.5t61 -23.5t83.5 -9.5z" />
    <glyph glyph-name="f_f_b" unicode="ffb" horiz-adv-x="2422" 
d="M1655 1454l-4 -602q70 68 157 110t177 42q151 0 253.5 -131.5t102.5 -342.5q0 -121 -27.5 -217.5t-71.5 -157.5t-104 -101.5t-120 -57t-124 -16.5q-175 0 -311 94l-51 -84h-39v1362q-74 55 -177.5 58.5t-189.5 -48.5q-69 -62 -69 -379h217v-68h-217v-694q0 -50 4 -77.5
t14.5 -50.5t34.5 -33t59 -14.5t93 -4.5v-41h-541v41q60 0 92.5 6t52 27.5t24.5 53.5t5 93v694h-498v-694q0 -50 4 -77.5t14.5 -50.5t34.5 -33t59 -14.5t93 -4.5v-41h-541v41q60 0 92.5 6t52.5 27.5t25 53.5t5 93v694h-154v68h154v37q0 91 39 178t96.5 146t122.5 95t118 36
q11 0 21.5 -1.5t25 -11t18.5 -26t-5.5 -50.5t-38.5 -81q-2 2 -13 11t-17 13t-17 12.5t-19.5 13t-19.5 9.5t-21 7.5t-20 2.5q-23 0 -41 -16.5t-34.5 -57t-25 -120.5t-8.5 -197h498v37q0 108 43 197.5t115 146.5t163.5 88t190.5 31q106 0 248 -29zM1884 41q52 0 94.5 19
t71.5 50t51.5 74t35.5 87t21 93.5t10.5 88.5t2.5 77q0 62 -14 125.5t-41.5 122t-76 95t-110.5 36.5q-15 0 -33.5 -2.5t-58.5 -12.5t-88.5 -37.5t-93.5 -70.5v-520q0 -29 2 -50t14.5 -57t34.5 -59t68 -41t110 -18z" />
    <glyph glyph-name="f_h" unicode="fh" horiz-adv-x="1837" 
d="M1047 1454l-7 -672q66 97 184 159.5t218 62.5q94 0 152.5 -62t58.5 -186v-535q0 -63 4 -93.5t22 -52.5t48.5 -28t89.5 -6v-41h-474v41q35 0 58 2.5t40.5 11t26.5 19.5t14.5 33.5t7 47t1.5 66.5v484q0 97 -40.5 148.5t-104.5 51.5q-69 0 -154 -56t-145 -153v-475
q0 -42 1.5 -66.5t7 -47.5t14.5 -33.5t26.5 -19t40.5 -11t59 -2.5v-41h-475v41q40 0 65 2.5t44.5 11t29.5 19t16 33.5t7.5 47.5t1.5 66.5v1131q-74 55 -203.5 58.5t-214.5 -48.5q-70 -63 -70 -379h244v-68h-244v-694q0 -50 4 -77.5t14.5 -50.5t34.5 -33t59 -14.5t93 -4.5v-41
h-541v41q60 0 92.5 6t52.5 27.5t25 53.5t5 93v694h-154v68h154v37q0 91 29.5 168t81 131t120.5 92t148.5 56t164.5 18q126 0 267 -31z" />
    <glyph glyph-name="f_f_h" unicode="ffh" horiz-adv-x="2496" 
d="M1706 1454l-6 -672q66 98 183.5 160t217.5 62q94 0 152.5 -62t58.5 -186v-535q0 -63 4 -93.5t22 -52.5t48.5 -28t89.5 -6v-41h-473v41q53 0 80.5 6t43.5 28t19.5 52.5t3.5 93.5v484q0 97 -40.5 148.5t-104.5 51.5q-69 0 -154 -56t-145 -153v-475q0 -42 1.5 -66.5t7 -47.5
t14.5 -33.5t26.5 -19t40.5 -11t59 -2.5v-41h-475v41q40 0 65 2.5t44.5 11t29.5 19t16 33.5t7.5 47.5t1.5 66.5v1131q-74 55 -203.5 58.5t-214.5 -48.5q-69 -62 -69 -379h243v-68h-243v-694q0 -50 4 -77.5t14.5 -50.5t34.5 -33t59 -14.5t93 -4.5v-41h-541v41q60 0 92.5 6
t52 27.5t24.5 53.5t5 93v694h-498v-694q0 -50 4 -77.5t14.5 -50.5t34.5 -33t59 -14.5t93 -4.5v-41h-541v41q60 0 92.5 6t52.5 27.5t25 53.5t5 93v694h-154v68h154v37q0 91 39 178t96.5 146t122.5 95t118 36q11 0 21.5 -1.5t25 -11t18.5 -26t-5.5 -50.5t-38.5 -81
q-2 2 -13 11t-17 13t-17 12.5t-19.5 13t-19.5 9.5t-21 7.5t-20 2.5q-23 0 -41 -16.5t-34.5 -57t-25 -120.5t-8.5 -197h498v37q0 113 45.5 204t122 146.5t173 85t204.5 29.5q125 0 266 -31z" />
    <glyph glyph-name="f_j" unicode="fj" horiz-adv-x="1218" 
d="M733 915h-336v-694q0 -50 4 -77.5t14.5 -50.5t34.5 -33t59 -14.5t93 -4.5v-41h-541v41q60 0 92.5 6t52.5 27.5t25 53.5t5 93v694h-154v68h154v37q0 91 39 178t96.5 146t122.5 95t118 36q11 0 21.5 -1.5t25 -11t18.5 -26t-5.5 -50.5t-38.5 -81q-2 2 -13 11t-17 13
t-17 12.5t-19.5 13t-19.5 9.5t-21 7.5t-20 2.5q-23 0 -41 -16.5t-34.5 -57t-25 -120.5t-8.5 -197h658l-6 -201v-719q0 -86 -21 -161t-50.5 -128t-79 -105t-89 -83t-96.5 -71l-23 28q197 144 197 484v725q0 34 -0.5 50.5t-3 38t-9 30.5t-17 20t-27.5 14.5t-40.5 6.5t-56.5 3z
M958 1165q-73 51 -135 135q62 81 135 134q75 -55 136 -134q-51 -74 -136 -135z" />
    <glyph glyph-name="f_f_j" unicode="ffj" horiz-adv-x="1878" 
d="M1393 915h-336v-694q0 -50 4 -77.5t14.5 -50.5t34.5 -33t59 -14.5t93 -4.5v-41h-541v41q60 0 92.5 6t52 27.5t24.5 53.5t5 93v694h-498v-694q0 -50 4 -77.5t14.5 -50.5t34.5 -33t59 -14.5t93 -4.5v-41h-541v41q60 0 92.5 6t52.5 27.5t25 53.5t5 93v694h-154v68h154v37
q0 91 39 178t96.5 146t122.5 95t118 36q11 0 21.5 -1.5t25 -11t18.5 -26t-5.5 -50.5t-38.5 -81q-2 2 -13 11t-17 13t-17 12.5t-19.5 13t-19.5 9.5t-21 7.5t-20 2.5q-23 0 -41 -16.5t-34.5 -57t-25 -120.5t-8.5 -197h498v37q0 91 39 178t96.5 146t123 95t118.5 36
q7 0 14 -0.5t18 -4t18 -10t12 -19t3 -30t-13 -45t-32 -61.5q-2 2 -13 11t-17 13t-17 12.5t-19.5 13t-19.5 9.5t-21 7.5t-20 2.5q-23 0 -41 -16.5t-34 -57t-24.5 -120.5t-8.5 -197h657l-6 -201v-719q0 -86 -21 -161t-50.5 -128t-79 -105t-89 -83t-96.5 -71l-22 28
q196 143 196 484v725q0 40 -0.5 57.5t-5.5 41t-13.5 32t-26 18t-43 12t-64.5 2.5zM1618 1165q-73 51 -135 135q62 81 135 134q73 -53 135 -134q-52 -75 -135 -135z" />
    <glyph glyph-name="f_k" unicode="fk" horiz-adv-x="1802" 
d="M1047 1454v-936h57l305 316q22 24 29.5 42.5t0 34t-40.5 23.5t-91 8v41h432v-41q-91 0 -139 -20.5t-103 -81.5l-260 -273l322 -397q64 -78 111.5 -103.5t111.5 -25.5v-41h-318q-23 55 -112 168l-234 297h-71v-244q0 -42 1.5 -66.5t7 -47.5t14.5 -33.5t26.5 -19t40.5 -11
t59 -2.5v-41h-475v41q40 0 65 2.5t44.5 11t29.5 19t16 33.5t7.5 47.5t1.5 66.5v1131q-74 55 -203.5 58.5t-214.5 -48.5q-70 -63 -70 -379h234v-68h-234v-694q0 -50 4 -77.5t14.5 -50.5t34.5 -33t59 -14.5t93 -4.5v-41h-541v41q60 0 92.5 6t52.5 27.5t25 53.5t5 93v694h-154
v68h154v37q0 91 29.5 168t81 131t120.5 92t148.5 56t164.5 18q126 0 267 -31z" />
    <glyph glyph-name="f_f_k" unicode="ffk" horiz-adv-x="2461" 
d="M1706 1454v-936h57l305 316q22 24 29.5 42.5t0 34t-40.5 23.5t-91 8v41h432v-41q-91 0 -138.5 -20.5t-102.5 -81.5l-261 -273l322 -397q64 -78 111.5 -103.5t111.5 -25.5v-41h-317q-22 52 -113 168l-233 297h-72v-244q0 -42 1.5 -66.5t7 -47.5t14.5 -33.5t26.5 -19
t40.5 -11t59 -2.5v-41h-475v41q40 0 65 2.5t44.5 11t29.5 19t16 33.5t7.5 47.5t1.5 66.5v1131q-74 55 -203.5 58.5t-214.5 -48.5q-69 -62 -69 -379h233v-68h-233v-694q0 -50 4 -77.5t14.5 -50.5t34.5 -33t59 -14.5t93 -4.5v-41h-541v41q60 0 92.5 6t52 27.5t24.5 53.5t5 93
v694h-498v-694q0 -50 4 -77.5t14.5 -50.5t34.5 -33t59 -14.5t93 -4.5v-41h-541v41q60 0 92.5 6t52.5 27.5t25 53.5t5 93v694h-154v68h154v37q0 91 39 178t96.5 146t122.5 95t118 36q11 0 21.5 -1.5t25 -11t18.5 -26t-5.5 -50.5t-38.5 -81q-2 2 -13 11t-17 13t-17 12.5
t-19.5 13t-19.5 9.5t-21 7.5t-20 2.5q-23 0 -41 -16.5t-34.5 -57t-25 -120.5t-8.5 -197h498v37q0 113 45.5 204t122 146.5t173 85t204.5 29.5q125 0 266 -31z" />
    <glyph glyph-name="f_r" unicode="fr" horiz-adv-x="1497" 
d="M397 983h656l-6 -231q70 123 168.5 196t189.5 51q8 -2 19 -9.5t21 -24.5t10.5 -38.5t-18.5 -55t-59 -70.5q-24 15 -49 24.5t-60.5 11t-69.5 -11t-74.5 -48t-77.5 -93.5v-463q0 -50 4 -78t14.5 -50.5t34.5 -32.5t58 -14.5t91 -4.5v-41h-528v41q40 0 65 2.5t44.5 11
t29.5 19t16 33.5t7.5 47.5t1.5 66.5v592q0 48 -23 75t-84 27h-381v-694q0 -50 4 -77.5t14.5 -50.5t34.5 -33t59 -14.5t93 -4.5v-41h-541v41q60 0 92.5 6t52.5 27.5t25 53.5t5 93v694h-154v68h154v37q0 91 39 178t96.5 146t122.5 95t118 36q11 0 21.5 -1.5t25 -11t18.5 -26
t-5.5 -50.5t-38.5 -81q-2 2 -13 11t-17 13t-17 12.5t-19.5 13t-19.5 9.5t-21 7.5t-20 2.5q-23 0 -41 -16.5t-34.5 -57t-25 -120.5t-8.5 -197z" />
    <glyph glyph-name="f_f_r" unicode="ffr" horiz-adv-x="2156" 
d="M1057 983h655l-6 -231q70 123 168.5 196t189.5 51q8 -3 19 -10t21 -24t11 -38.5t-18 -55t-59 -70.5q-32 19 -65 28t-77.5 6t-94 -41t-95.5 -110v-463q0 -62 5.5 -93t28 -53t60.5 -28t109 -6v-41h-529v41q40 0 65 2.5t44.5 11t29.5 19t16 33.5t7.5 47.5t1.5 66.5v592
q0 49 -22.5 75.5t-83.5 26.5h-381v-694q0 -50 4 -77.5t14.5 -50.5t34.5 -33t59 -14.5t93 -4.5v-41h-541v41q60 0 92.5 6t52 27.5t24.5 53.5t5 93v694h-498v-694q0 -50 4 -77.5t14.5 -50.5t34.5 -33t59 -14.5t93 -4.5v-41h-541v41q60 0 92.5 6t52.5 27.5t25 53.5t5 93v694
h-154v68h154v37q0 91 39 178t96.5 146t122.5 95t118 36q11 0 21.5 -1.5t25 -11t18.5 -26t-5.5 -50.5t-38.5 -81q-2 2 -13 11t-17 13t-17 12.5t-19.5 13t-19.5 9.5t-21 7.5t-20 2.5q-23 0 -41 -16.5t-34.5 -57t-25 -120.5t-8.5 -197h498v37q0 91 39 178t96.5 146t123 95
t118.5 36q7 0 14 -0.5t18 -4t18 -10t12 -19t3 -30t-13 -45t-32 -61.5q-2 2 -13 11t-17 13t-17 12.5t-19.5 13t-19.5 9.5t-21 7.5t-20 2.5q-23 0 -41 -16.5t-34 -57t-24.5 -120.5t-8.5 -197z" />
    <glyph glyph-name="f_t" unicode="ft" horiz-adv-x="1337" 
d="M1006 1223v-240h264v-68h-264v-602q0 -126 36 -189.5t105 -67t170 37.5l20 -37q-97 -49 -176 -66.5t-129 -9.5t-87.5 37t-56 62t-29.5 75t-13 67t-2 48v645h-447v-694q0 -50 4 -77.5t14.5 -50.5t34.5 -33t59 -14.5t93 -4.5v-41h-541v41q60 0 92.5 6t52.5 27.5t25 53.5
t5 93v694h-154v68h154v37q0 91 39 178t96.5 146t122.5 95t118 36q11 0 21.5 -1.5t25 -11t18.5 -26t-5.5 -50.5t-38.5 -81q-2 2 -13 11t-17 13t-17 12.5t-19.5 13t-19.5 9.5t-21 7.5t-20 2.5q-23 0 -41 -16.5t-34.5 -57t-25 -120.5t-8.5 -197h412q68 18 106.5 74t69.5 166h21
z" />
    <glyph glyph-name="f_f_t" unicode="fft" horiz-adv-x="1996" 
d="M1665 1223v-240h264v-68h-264v-602q0 -126 36 -189.5t105 -67t170 37.5l21 -37q-76 -39 -141.5 -58t-112 -20.5t-84.5 11.5t-62.5 33t-43 49.5t-27.5 56.5t-15 57.5t-7 49t-1 34.5v645h-446v-694q0 -50 4 -77.5t14.5 -50.5t34.5 -33t59 -14.5t93 -4.5v-41h-541v41
q60 0 92.5 6t52 27.5t24.5 53.5t5 93v694h-498v-694q0 -50 4 -77.5t14.5 -50.5t34.5 -33t59 -14.5t93 -4.5v-41h-541v41q60 0 92.5 6t52.5 27.5t25 53.5t5 93v694h-154v68h154v37q0 91 39 178t96.5 146t122.5 95t118 36q11 0 21.5 -1.5t25 -11t18.5 -26t-5.5 -50.5
t-38.5 -81q-2 2 -13 11t-17 13t-17 12.5t-19.5 13t-19.5 9.5t-21 7.5t-20 2.5q-23 0 -41 -16.5t-34.5 -57t-25 -120.5t-8.5 -197h498v37q0 91 39 178t96.5 146t123 95t118.5 36q7 0 14 -0.5t18 -4t18 -10t12 -19t3 -30t-13 -45t-32 -61.5q-2 2 -13 11t-17 13t-17 12.5
t-19.5 13t-19.5 9.5t-21 7.5t-20 2.5q-23 0 -41 -16.5t-34 -57t-24.5 -120.5t-8.5 -197h411q68 18 107 74t70 166h20z" />
    <glyph glyph-name="f_t_y" unicode="fty" horiz-adv-x="2385" 
d="M1006 1223v-240h788v-41q-51 0 -79 -8t-35 -28.5t-2.5 -43.5t20.5 -65l207 -598l229 598q32 75 9 110t-118 35v41h340v-41q-25 0 -44 -3t-34 -12t-24 -15.5t-18.5 -24t-13.5 -26.5t-13.5 -33.5t-13.5 -34.5l-318 -803q-35 -88 -74 -165.5t-90.5 -154.5t-112.5 -122.5
t-122 -45.5q-8 0 -21 4.5t-27 18.5t-21 34.5t2 57t38 82.5q31 -9 58 -10.5t68.5 11t78.5 44.5t81.5 100.5t84.5 167.5l-354 903h-469v-602q0 -126 36 -189.5t105 -67t170 37.5l20 -37q-97 -49 -176 -66.5t-129 -9.5t-87.5 37t-56 62t-29.5 75t-13 67t-2 48v645h-447v-694
q0 -50 4 -77.5t14.5 -50.5t34.5 -33t59 -14.5t93 -4.5v-41h-541v41q60 0 92.5 6t52.5 27.5t25 53.5t5 93v694h-154v68h154v37q0 91 39 178t96.5 146t122.5 95t118 36q11 0 21.5 -1.5t25 -11t18.5 -26t-5.5 -50.5t-38.5 -81q-2 2 -13 11t-17 13t-17 12.5t-19.5 13t-19.5 9.5
t-21 7.5t-20 2.5q-23 0 -41 -16.5t-34.5 -57t-25 -120.5t-8.5 -197h412q68 18 106.5 74t69.5 166h21z" />
    <glyph glyph-name="t_t" unicode="tt" horiz-adv-x="1355" 
d="M346 1223v-240h481q68 18 107 74t70 166h20v-240h264v-68h-264v-602q0 -126 36 -189.5t105 -67t170 37.5l21 -37q-76 -39 -141.5 -58t-112 -20.5t-84.5 11.5t-62.5 33t-43 49.5t-27.5 56.5t-15 57.5t-7 49t-1 34.5v645h-516v-602q0 -126 36 -189.5t105 -67t170 37.5
l21 -37q-76 -39 -141.5 -58t-112 -20.5t-84.5 11.5t-62.5 33t-43 49.5t-27.5 56.5t-15 57.5t-7 49t-1 34.5v645h-123v58q116 0 171 56t94 194h20z" />
    <glyph glyph-name="t_f" unicode="tf" horiz-adv-x="1337" 
d="M346 1223v-240h567v37q0 91 39 178t96.5 146t123 95t118.5 36q11 0 21.5 -1.5t25 -11t18.5 -26t-5.5 -50.5t-38.5 -81q-2 2 -13 11t-17 13t-17 12.5t-19.5 13t-19.5 9.5t-21 7.5t-20 2.5q-23 0 -41 -16.5t-34.5 -57t-25 -120.5t-8.5 -197h234v-68h-234v-694
q0 -50 4 -77.5t14.5 -50.5t34.5 -33t59 -14.5t93 -4.5v-41h-541v41q60 0 92.5 6t52 27.5t24.5 53.5t5 93v694h-567v-602q0 -126 36 -189.5t105 -67t170 37.5l21 -37q-76 -39 -141.5 -58t-112 -20.5t-84.5 11.5t-62.5 33t-43 49.5t-27.5 56.5t-15 57.5t-7 49t-1 34.5v645
h-123v58q116 0 171 56t94 194h20z" />
    <glyph glyph-name="t_t_f" unicode="ttf" horiz-adv-x="2015" 
d="M346 1223v-240h481q68 18 107 74t70 166h20v-240h567v37q0 91 39 178t96.5 146t123 95t118.5 36q11 0 21.5 -1.5t25 -11t18.5 -26t-5.5 -50.5t-38.5 -81q-2 2 -13 11t-17 13t-17 12.5t-19.5 13t-19.5 9.5t-21 7.5t-20 2.5q-23 0 -41 -16.5t-34.5 -57t-25 -120.5
t-8.5 -197h234v-68h-234v-694q0 -50 4 -77.5t14.5 -50.5t34.5 -33t59 -14.5t93 -4.5v-41h-541v41q60 0 92.5 6t52 27.5t24.5 53.5t5 93v694h-567v-602q0 -126 36 -189.5t105 -67t170 37.5l21 -37q-76 -39 -141.5 -58t-112 -20.5t-84.5 11.5t-62.5 33t-43 49.5t-27.5 56.5
t-15 57.5t-7 49t-1 34.5v645h-516v-602q0 -126 36 -189.5t105 -67t170 37.5l21 -37q-76 -39 -141.5 -58t-112 -20.5t-84.5 11.5t-62.5 33t-43 49.5t-27.5 56.5t-15 57.5t-7 49t-1 34.5v645h-123v58q116 0 171 56t94 194h20z" />
    <glyph glyph-name="t_i" unicode="ti" horiz-adv-x="1234" 
d="M346 983h725l-6 -201v-561q0 -42 1.5 -66.5t7 -47.5t14.5 -33.5t26.5 -19t40.5 -11t59 -2.5v-41h-475v41q40 0 65 2.5t44.5 11t29.5 19t16 33.5t7.5 47.5t1.5 66.5v531q0 46 -0.5 65.5t-6 43.5t-12.5 30.5t-27 14.5t-42.5 8.5t-64.5 0.5h-404v-602q0 -126 36 -189.5
t105 -67t170 37.5l21 -37q-76 -39 -141.5 -58t-112 -20.5t-84.5 11.5t-62.5 33t-43 49.5t-27.5 56.5t-15 57.5t-7 49t-1 34.5v645h-123v58q116 0 171 56t94 194h20v-240zM977 1165q-73 51 -135 135q62 81 135 134q73 -53 135 -134q-52 -75 -135 -135z" />
    <glyph glyph-name="t_t_i" unicode="tti" horiz-adv-x="1912" 
d="M346 1223v-240h481q68 18 107 74t70 166h20v-240h725l-6 -201v-561q0 -42 1.5 -66.5t7 -47.5t14.5 -33.5t26.5 -19t40.5 -11t59 -2.5v-41h-475v41q40 0 65 2.5t44.5 11t29.5 19t16 33.5t7.5 47.5t1.5 66.5v531q0 45 -0.5 65.5t-6 43.5t-13 30t-27.5 14.5t-42.5 8.5
t-64.5 1h-403v-602q0 -126 36 -189.5t105 -67t170 37.5l21 -37q-76 -39 -141.5 -58t-112 -20.5t-84.5 11.5t-62.5 33t-43 49.5t-27.5 56.5t-15 57.5t-7 49t-1 34.5v645h-516v-602q0 -126 36 -189.5t105 -67t170 37.5l21 -37q-76 -39 -141.5 -58t-112 -20.5t-84.5 11.5
t-62.5 33t-43 49.5t-27.5 56.5t-15 57.5t-7 49t-1 34.5v645h-123v58q116 0 171 56t94 194h20zM1655 1165q-73 51 -135 135q62 81 135 134q73 -53 135 -134q-52 -75 -135 -135z" />
    <glyph glyph-name="t_r" unicode="tr" horiz-adv-x="1515" 
d="M750 915h-404v-602q0 -126 36 -189.5t105 -67t170 37.5l21 -37q-76 -39 -141.5 -58t-112 -20.5t-84.5 11.5t-62.5 33t-43 49.5t-27.5 56.5t-15 57.5t-7 49t-1 34.5v645h-123v58q116 0 171 56t94 194h20v-240h725l-6 -231q70 123 168.5 196t189.5 51q8 -3 19 -10t21 -24
t11 -38.5t-18 -55t-59 -70.5q-32 19 -65 28t-77.5 6t-94 -41t-95.5 -110v-463q0 -62 5.5 -93t28 -53t60.5 -28t109 -6v-41h-529v41q40 0 65 2.5t44.5 11t29.5 19t16 33.5t7.5 47.5t1.5 66.5v531q0 46 -0.5 65.5t-6 43.5t-12.5 30.5t-27 14.5t-42.5 8.5t-64.5 0.5z" />
    <glyph glyph-name="t_t_r" unicode="ttr" horiz-adv-x="2193" 
d="M346 1223v-240h481q68 18 107 74t70 166h20v-240h725l-6 -231q70 123 168.5 196t189.5 51q8 -3 19 -10t21 -24t11 -38.5t-18 -55t-59 -70.5q-32 19 -65 28t-77.5 6t-94 -41t-95.5 -110v-463q0 -62 5.5 -93t28 -53t60.5 -28t109 -6v-41h-529v41q40 0 65 2.5t44.5 11
t29.5 19t16 33.5t7.5 47.5t1.5 66.5v531q0 45 -0.5 65.5t-6 43.5t-13 30t-27.5 14.5t-42.5 8.5t-64.5 1h-403v-602q0 -126 36 -189.5t105 -67t170 37.5l21 -37q-76 -39 -141.5 -58t-112 -20.5t-84.5 11.5t-62.5 33t-43 49.5t-27.5 56.5t-15 57.5t-7 49t-1 34.5v645h-516
v-602q0 -126 36 -189.5t105 -67t170 37.5l21 -37q-76 -39 -141.5 -58t-112 -20.5t-84.5 11.5t-62.5 33t-43 49.5t-27.5 56.5t-15 57.5t-7 49t-1 34.5v645h-123v58q116 0 171 56t94 194h20z" />
    <glyph glyph-name="t_y" unicode="ty" horiz-adv-x="1726" 
d="M1544 793l-317 -803q-35 -88 -74 -165.5t-91 -154.5t-113 -122.5t-122 -45.5q-8 0 -20.5 4.5t-27 18.5t-21 34.5t2.5 57t38 82.5q21 -6 39.5 -8.5t46 0t52 12.5t55 33t58.5 57.5t59 90.5t60 128l-352 903h-471v-602q0 -126 36 -189.5t105 -67t170 37.5l21 -37
q-76 -39 -141.5 -58t-112 -20.5t-84.5 11.5t-62.5 33t-43 49.5t-27.5 56.5t-15 57.5t-7 49t-1 34.5v645h-123v58q116 0 171 56t94 194h20v-240h789v-41q-51 0 -79 -8t-35.5 -28.5t-3 -43.5t20.5 -65l207 -598l230 598q32 75 9 110t-118 35v41h340v-41q-22 0 -40 -3.5
t-30.5 -7.5t-24 -14t-18 -17t-14.5 -22.5t-11.5 -24.5t-11.5 -29.5t-12 -30.5z" />
    <glyph glyph-name="t_t_y" unicode="tty" horiz-adv-x="2404" 
d="M346 1223v-240h481q68 18 107 74t70 166h20v-240h788v-41q-51 0 -79 -8t-35 -28.5t-2.5 -43.5t20.5 -65l207 -598l229 598q33 75 10 110t-118 35v41h340v-41q-22 0 -40 -3.5t-30.5 -7.5t-24 -14t-18 -17t-14.5 -22.5t-11.5 -24.5t-11.5 -29.5t-12 -30.5l-317 -803
q-35 -88 -74 -165.5t-91 -154.5t-113 -122.5t-122 -45.5q-8 0 -20.5 4.5t-27 18.5t-21 34.5t2.5 57t38 82.5q21 -6 39.5 -8.5t46 0t52 12.5t55 33t58.5 57.5t59 90.5t60 128l-354 903h-469v-602q0 -126 36 -189.5t105 -67t170 37.5l21 -37q-76 -39 -141.5 -58t-112 -20.5
t-84.5 11.5t-62.5 33t-43 49.5t-27.5 56.5t-15 57.5t-7 49t-1 34.5v645h-516v-602q0 -126 36 -189.5t105 -67t170 37.5l21 -37q-76 -39 -141.5 -58t-112 -20.5t-84.5 11.5t-62.5 33t-43 49.5t-27.5 56.5t-15 57.5t-7 49t-1 34.5v645h-123v58q116 0 171 56t94 194h20z" />
    <glyph glyph-name="T_h" unicode="Th" horiz-adv-x="2254" 
d="M1614 41v-41h-475v41q40 0 65 2.5t44.5 11t29.5 19t16 33.5t7.5 47.5t1.5 66.5v1145h-527v-1137q0 -78 16.5 -115t68 -55t157.5 -18v-41h-651v41q64 0 106 6t69.5 18t41.5 35.5t19 52.5t5 76v1137h-237q-48 0 -73.5 -0.5t-57 -4t-47 -9t-34.5 -17t-28 -27t-19.5 -40
t-17 -54.5t-12.5 -73h-41l10 293h1098l315 20l-6 -672q66 97 184 159.5t218 62.5q94 0 152.5 -62t58.5 -186v-535q0 -63 4 -93.5t21.5 -52.5t48 -28t89.5 -6v-41h-473v41q35 0 58 2.5t40.5 11t26.5 19.5t14.5 33.5t7 47t1.5 66.5v484q0 97 -40.5 148.5t-105.5 51.5
q-69 0 -154 -56t-145 -153v-475q0 -42 1.5 -66.5t7 -47t15 -33.5t27 -19.5t40.5 -11t59 -2.5z" />
    <glyph glyph-name="T_h.caron" unicode="&#x164;h" horiz-adv-x="2254" 
d="M1614 41v-41h-475v41q40 0 65 2.5t44.5 11t29.5 19t16 33.5t7.5 47.5t1.5 66.5v1145h-527v-1137q0 -78 16.5 -115t68 -55t157.5 -18v-41h-651v41q64 0 106 6t69.5 18t41.5 35.5t19 52.5t5 76v1137h-237q-48 0 -73.5 -0.5t-57 -4t-47 -9t-34.5 -17t-28 -27t-19.5 -40
t-17 -54.5t-12.5 -73h-41l10 293h1098l315 20l-6 -672q66 97 184 159.5t218 62.5q94 0 152.5 -62t58.5 -186v-535q0 -63 4 -93.5t21.5 -52.5t48 -28t89.5 -6v-41h-473v41q35 0 58 2.5t40.5 11t26.5 19.5t14.5 33.5t7 47t1.5 66.5v484q0 97 -40.5 148.5t-105.5 51.5
q-69 0 -154 -56t-145 -153v-475q0 -42 1.5 -66.5t7 -47t15 -33.5t27 -19.5t40.5 -11t59 -2.5zM950 1870h51l-256 -342h-110l-252 342h49l258 -213z" />
    <glyph glyph-name="T_h.commaaccent" unicode="&#x162;h" horiz-adv-x="2254" 
d="M1614 41v-41h-475v41q40 0 65 2.5t44.5 11t29.5 19t16 33.5t7.5 47.5t1.5 66.5v1145h-527v-1137q0 -78 16.5 -115t68 -55t157.5 -18v-41h-651v41q64 0 106 6t69.5 18t41.5 35.5t19 52.5t5 76v1137h-237q-48 0 -73.5 -0.5t-57 -4t-47 -9t-34.5 -17t-28 -27t-19.5 -40
t-17 -54.5t-12.5 -73h-41l10 293h1098l315 20l-6 -672q66 97 184 159.5t218 62.5q94 0 152.5 -62t58.5 -186v-535q0 -63 4 -93.5t21.5 -52.5t48 -28t89.5 -6v-41h-473v41q35 0 58 2.5t40.5 11t26.5 19.5t14.5 33.5t7 47t1.5 66.5v484q0 97 -40.5 148.5t-105.5 51.5
q-69 0 -154 -56t-145 -153v-475q0 -42 1.5 -66.5t7 -47t15 -33.5t27 -19.5t40.5 -11t59 -2.5zM608 -590l-33 35q83 69 111 180q-64 48 -125 125q59 71 125 123q66 -52 125 -123q0 -194 -203 -340z" />
    <glyph glyph-name=".notdef" horiz-adv-x="491" 
 />
    <glyph glyph-name=".null" horiz-adv-x="0" 
 />
    <glyph glyph-name="nonmarkingreturn" horiz-adv-x="682" 
 />
    <glyph glyph-name="space" unicode=" " horiz-adv-x="491" 
 />
    <glyph glyph-name="exclam" unicode="!" horiz-adv-x="638" 
d="M344 412h-51q0 109 -44 533.5t-44 488.5h229q0 -64 -45 -488.5t-45 -533.5zM319 -20q-82 61 -155 155q73 91 155 154q85 -65 156 -154q-61 -82 -156 -155z" />
    <glyph glyph-name="quotedbl" unicode="&#x22;" horiz-adv-x="843" 
d="M303 969h-94l-45 536h184zM635 969h-94l-45 536h184z" />
    <glyph glyph-name="numbersign" unicode="#" horiz-adv-x="1155" 
d="M1098 881h-246l-59 -336h245l-16 -94h-246l-78 -437h-94l78 437h-299l-78 -437h-94l76 437h-246l16 94h246l59 336h-245l18 96h244l78 436h94l-76 -436h299l78 436h94l-78 -436h246zM698 545l60 336h-299l-60 -336h299z" />
    <glyph glyph-name="dollar" unicode="$" horiz-adv-x="1044" 
d="M551 -123h-68v139q-213 2 -381 109l13 272h41q7 -77 29 -134t52.5 -91.5t73.5 -55.5t85.5 -28.5t95.5 -7.5q134 0 205 75.5t71 184.5q0 72 -36.5 129t-94.5 95.5t-128.5 73t-140.5 71.5t-128 80t-94.5 109.5t-36.5 150.5t30 149.5t83 107.5t118 66.5t143 34.5v149h68
v-143q204 0 326 -67l-17 -248h-41q4 117 -71.5 184.5t-180.5 67.5q-73 0 -135.5 -28t-105.5 -90.5t-43 -148.5q0 -67 36.5 -119.5t94.5 -87.5t128 -66.5t140.5 -66.5t128.5 -77t94.5 -108t36.5 -150q0 -164 -104 -269.5t-287 -120.5v-141z" />
    <glyph glyph-name="percent" unicode="%" horiz-adv-x="1558" 
d="M301 6l887 1469l67 -41l-886 -1469zM1436 330q0 -148 -95 -249t-233 -101t-233 101t-95 249t95 249t233 101t233 -101t95 -249zM928 330q0 -289 180 -289t180 289q0 288 -180 288t-180 -288zM778 1104q0 -148 -94.5 -249t-232.5 -101t-233 101t-95 249t95 249t233 101
t232.5 -101t94.5 -249zM270 1104q0 -289 181 -289q180 0 180 289t-180 289q-181 0 -181 -289z" />
    <glyph glyph-name="ampersand" unicode="&#x26;" horiz-adv-x="1564" 
d="M946 1174q0 -107 -88.5 -185.5t-261.5 -157.5q79 -144 187.5 -290t217.5 -252q99 93 162 211t70 227q0 30 -23 45.5t-88 15.5v41h371v-41q-75 0 -113.5 -12.5t-46.5 -50.5q-64 -287 -264 -500q136 -114 234 -114q102 0 190 84l31 -21q-64 -94 -140 -140t-174 -46
q-115 0 -270 123q-185 -136 -375 -136q-107 0 -193 33.5t-139.5 90t-81.5 127.5t-28 149q0 130 65.5 236t221.5 200q-101 217 -101 336q0 50 21 99.5t59.5 92t103.5 69t144 26.5q88 0 151.5 -24.5t96 -65t47 -82.5t14.5 -88zM606 117q130 0 252 67q-113 108 -220 254
t-187 297q-63 -68 -108.5 -154t-45.5 -163q0 -139 84.5 -220t224.5 -81zM457 1208q0 -109 106 -313q236 136 236 281q0 30 -7.5 62.5t-24 67.5t-50.5 57.5t-80 22.5q-91 0 -135.5 -54.5t-44.5 -123.5z" />
    <glyph glyph-name="quotesingle" unicode="'" horiz-adv-x="512" 
d="M303 969h-94l-45 536h184z" />
    <glyph glyph-name="parenleft" unicode="(" horiz-adv-x="704" 
d="M164 549q0 296 114.5 545.5t305.5 390.5l39 -41q-150 -154 -238 -388t-88 -507t88 -506t238 -387l-39 -41q-191 140 -305.5 390t-114.5 544z" />
    <glyph glyph-name="parenright" unicode=")" horiz-adv-x="706" 
d="M543 549q0 -296 -114.5 -544t-307.5 -390l-39 41q150 154 238 387t88 506t-88 507t-238 388l39 41q192 -142 307 -391t115 -545z" />
    <glyph glyph-name="asterisk" unicode="*" horiz-adv-x="931" 
d="M498 729h-64l-18 289l-262 -129l-31 57l242 160l-242 162l31 55l262 -129l18 291h66l18 -291l260 129l31 -55l-242 -160l242 -162l-33 -55l-260 129z" />
    <glyph glyph-name="plus" unicode="+" horiz-adv-x="1214" 
d="M659 717h392v-103h-392v-393h-102v393h-393v103h393v393h102v-393z" />
    <glyph glyph-name="comma" unicode="," horiz-adv-x="638" 
d="M319 -20q-82 61 -155 155q73 91 155 154q85 -65 156 -154q0 -240 -252 -424l-41 43q102 84 137 226z" />
    <glyph glyph-name="hyphen" unicode="-" horiz-adv-x="913" 
d="M709 551l-23 -133h-481l22 133h482z" />
    <glyph glyph-name="period" unicode="." horiz-adv-x="638" 
d="M319 -20q-82 61 -155 155q73 91 155 154q85 -65 156 -154q-61 -82 -156 -155z" />
    <glyph glyph-name="slash" unicode="/" horiz-adv-x="909" 
d="M745 1466l-456 -1491h-125l457 1491h124z" />
    <glyph glyph-name="zero" unicode="0" horiz-adv-x="1222" 
d="M307 717q0 -184 38 -336.5t108.5 -243t158.5 -90.5t158 90.5t107.5 243t37.5 336.5q0 185 -37.5 338t-107.5 243.5t-158 90.5t-158.5 -90.5t-108.5 -243.5t-38 -338zM1100 717q0 -203 -60.5 -371t-173 -267t-254.5 -99q-144 0 -256.5 99t-172.5 266.5t-60 371.5
q0 205 60 372t172.5 266t256.5 99q142 0 254.5 -98.5t173 -266.5t60.5 -372z" />
    <glyph glyph-name="one" unicode="1" horiz-adv-x="763" 
d="M682 0h-600v41q62 0 99 5t63 15t37 33.5t15.5 53t4.5 81.5v945q0 59 -6.5 90t-31 53t-65.5 28.5t-116 6.5v41l346 51h41v-1215q0 -35 0.5 -54t4 -42t8.5 -33.5t16 -23t25.5 -17t38 -9.5t51.5 -6.5t69 -2.5v-41z" />
    <glyph glyph-name="two" unicode="2" horiz-adv-x="1120" 
d="M143 0l-41 41q202 191 230 219q276 274 373 491q61 138 61 267q0 138 -78.5 218.5t-206.5 80.5q-92 0 -179 -56t-140 -155l-37 18q59 152 184.5 241t265.5 89q180 0 276.5 -107t96.5 -282q0 -65 -23 -138t-58 -137.5t-88 -136.5t-101.5 -127.5t-112 -119.5t-105 -102.5
t-94 -86t-67.5 -61.5h719l-37 -156h-838z" />
    <glyph glyph-name="three" unicode="3" horiz-adv-x="1101" 
d="M555 1454q149 0 258 -91.5t109 -227.5q0 -130 -90 -236t-214 -141v-4q175 -22 268 -124t93 -231q0 -98 -44 -179t-116 -132.5t-161 -79.5t-183 -28q-97 0 -180 29.5t-138 92.5t-55 148q0 39 16 56t43 13.5t54 -15t57 -30.5q-29 -105 30.5 -169t174.5 -64
q100 0 173.5 53.5t108 133.5t34.5 171q0 86 -29.5 157t-93.5 117t-152 46h-108v61h79q114 0 188.5 80.5t74.5 200.5q0 119 -82 187.5t-193 68.5q-57 0 -107 -15t-81.5 -34.5t-62 -51.5t-44 -51t-32.5 -48q-5 -7 -7 -11l-37 18q47 134 172.5 232t276.5 98z" />
    <glyph glyph-name="four" unicode="4" horiz-adv-x="1169" 
d="M1036 373h-162v-144q0 -45 1.5 -70t9.5 -49.5t20.5 -35t38 -19.5t58.5 -11.5t85 -2.5v-41h-600v41q76 0 116.5 6t65.5 28.5t31.5 56t6.5 97.5v144h-625v123l698 948h94v-948h191zM174 496h533v721z" />
    <glyph glyph-name="five" unicode="5" horiz-adv-x="1107" 
d="M475 -20q-97 0 -180 29.5t-138 92.5t-55 148q0 39 16 56t43 13.5t54 -15t57 -30.5q-29 -105 30.5 -169t174.5 -64q41 0 85 10t91.5 36t84.5 64t61 100.5t24 139.5q0 83 -39.5 154.5t-101.5 122t-147 91t-167 65t-169 40.5l30 570h707l-37 -156h-596l-14 -311
q151 -10 273.5 -48t199.5 -91t129 -119.5t73 -129.5t21 -126q0 -97 -34 -178.5t-87.5 -134.5t-122 -90.5t-136 -53.5t-130.5 -16z" />
    <glyph glyph-name="six" unicode="6" horiz-adv-x="1148" 
d="M844 1454l20 -43q-445 -160 -549 -696q147 135 318 135q163 0 278 -119t115 -313q0 -101 -40.5 -186t-106.5 -139t-146.5 -83.5t-163.5 -29.5q-88 0 -162.5 32t-126 85t-87.5 122.5t-53 144.5t-17 152q0 139 36.5 267t97 224.5t136 177t157.5 135t156.5 88.5t137.5 46z
M551 754q-135 0 -244 -115q-8 -54 -9 -115.5t6 -130t27 -130.5t51 -112t82 -80t116 -30q42 0 84 15.5t85 50.5t70 105t27 165q0 168 -86 272.5t-209 104.5z" />
    <glyph glyph-name="seven" unicode="7" horiz-adv-x="1028" 
d="M881 1278h-600q-31 0 -45 -0.5t-35 -3t-30.5 -8t-22.5 -15.5t-20 -26t-14 -38.5t-12 -53.5h-41l31 301h864l41 -41l-538 -1393h-207z" />
    <glyph glyph-name="eight" unicode="8" horiz-adv-x="1112" 
d="M961 1128q0 -65 -24 -124t-64 -104t-84.5 -77.5t-94.5 -56.5q36 -17 70.5 -38.5t77 -59t73.5 -80t52.5 -104t21.5 -128.5q0 -162 -119.5 -269t-322.5 -107q-67 0 -125 9.5t-114.5 34.5t-96 64t-64 102.5t-24.5 145.5q0 71 26 134.5t72 112t97 84t112 62.5
q-37 20 -75.5 49t-84 75t-74 109.5t-28.5 131.5q0 108 62.5 192.5t155 126t192.5 41.5q71 0 138.5 -21t122.5 -60t88.5 -103t33.5 -142zM336 1137q0 -56 20.5 -106t47.5 -82.5t69.5 -63.5t69.5 -45.5t65 -32.5q183 120 183 330q0 62 -18 110t-43.5 74.5t-58 43t-57 21.5
t-45.5 5q-15 0 -37.5 -4t-58.5 -20.5t-65 -42t-50.5 -74.5t-21.5 -113zM555 41q44 0 87.5 16t84 48t65.5 90.5t25 134.5q0 49 -24 98.5t-58.5 87.5t-80.5 74.5t-82 58t-70 39.5q-86 -50 -146.5 -140t-60.5 -204q0 -74 24.5 -134t63.5 -95.5t83.5 -54.5t88.5 -19z" />
    <glyph glyph-name="nine" unicode="9" horiz-adv-x="1148" 
d="M305 -20l-20 43q445 160 549 696q-147 -135 -318 -135q-163 0 -278 119t-115 313q0 101 40.5 186t106.5 139t146.5 83.5t163.5 29.5q88 0 162.5 -32t126 -85t87.5 -122.5t53 -144.5t17 -152q0 -139 -36.5 -267t-97 -224.5t-136 -177t-157.5 -135t-156.5 -88.5t-137.5 -46
zM598 680q135 0 244 115q8 54 9 115.5t-6 130t-27 130.5t-51 112t-82 80t-116 30q-42 0 -84 -15.5t-85 -50.5t-70 -105t-27 -165q0 -168 86 -272.5t209 -104.5z" />
    <glyph glyph-name="colon" unicode=":" horiz-adv-x="638" 
d="M319 580q-82 61 -155 155q73 91 155 154q85 -65 156 -154q-61 -82 -156 -155zM319 -20q-82 61 -155 155q73 91 155 154q85 -65 156 -154q-61 -82 -156 -155z" />
    <glyph glyph-name="semicolon" unicode=";" horiz-adv-x="638" 
d="M319 -20q-82 61 -155 155q73 91 155 154q85 -65 156 -154q0 -240 -252 -424l-41 43q102 84 137 226zM319 580q-82 61 -155 155q73 91 155 154q85 -65 156 -154q-61 -82 -156 -155z" />
    <glyph glyph-name="less" unicode="&#x3c;" horiz-adv-x="1116" 
d="M952 201v-138l-788 381v170l788 381v-137l-698 -330z" />
    <glyph glyph-name="equal" unicode="=" horiz-adv-x="1214" 
d="M164 858h887v-102h-887v102zM164 483h887v-102h-887v102z" />
    <glyph glyph-name="greater" unicode="&#x3e;" horiz-adv-x="1116" 
d="M164 63v138l698 327l-698 330v137l788 -381v-170z" />
    <glyph glyph-name="question" unicode="?" horiz-adv-x="1060" 
d="M485 1454q106 0 201 -61.5t153 -169t58 -232.5q0 -51 -11.5 -96t-28 -78t-46 -63.5t-54 -50t-65.5 -42t-66.5 -34t-68.5 -29.5q-26 -11 -41 -30.5t-18.5 -43t-2.5 -43.5t4 -41.5t3 -27.5h-53l-68 336q105 0 201.5 37t158.5 106t62 153q0 54 -24 114.5t-64 113.5
t-101.5 88t-128.5 35q-114 0 -148.5 -60.5t-2.5 -175.5q-170 -108 -170 41q0 62 21 109.5t52.5 74t76.5 43t85 22t86 5.5zM475 -20q-85 63 -156 155q71 89 156 154q85 -65 156 -154q-61 -82 -156 -155z" />
    <glyph glyph-name="at" unicode="@" horiz-adv-x="1800" 
d="M1167 -10q-66 0 -97.5 31.5t-29.5 82.5t17 115q-21 -36 -49.5 -72t-67.5 -73.5t-87.5 -60.5t-96.5 -23q-92 0 -144.5 62t-52.5 173q0 91 34.5 185.5t93 171t143 125.5t176.5 49q22 0 45 -6.5t53.5 -29.5t50.5 -61l84 97h41l-135 -584q-15 -52 -9.5 -78.5t20.5 -34.5
t48 -8q107 0 188.5 62t121.5 159.5t40 212.5q0 81 -21 159t-67 149.5t-112 125.5t-163.5 86.5t-213.5 32.5q-126 0 -233.5 -38.5t-184 -104.5t-131 -153t-80.5 -185t-26 -201q0 -155 54 -283t145 -210t207.5 -126t244.5 -44q177 0 338 90l28 -35q-205 -121 -436 -121
q-146 0 -279 49.5t-235.5 139t-163.5 225t-61 295.5q0 116 32 227t99.5 210t162.5 174t229.5 119t291.5 44q162 0 291.5 -53.5t207 -141.5t118 -194.5t40.5 -220.5q0 -100 -31 -190.5t-88.5 -162.5t-148 -114.5t-201.5 -42.5zM1057 305l43 178q53 219 -111 219
q-64 0 -122 -54t-94.5 -131.5t-57.5 -155.5t-21 -132q0 -66 20 -112.5t68 -46.5q42 0 81.5 20t76.5 60.5t60 71.5t57 83z" />
    <glyph glyph-name="A" unicode="A" horiz-adv-x="1515" 
d="M1075 229l-69 189h-578l-72 -189q-33 -96 2.5 -142t157.5 -46v-41h-496v41q110 0 156 37t92 151l482 1225h24l479 -1225q23 -59 41 -91t45 -56.5t63 -32.5t93 -8v-41h-563v41q127 0 155 42.5t-12 145.5zM719 1188l-266 -703h526z" />
    <glyph glyph-name="B" unicode="B" horiz-adv-x="1300" 
d="M82 1434h600q181 0 289 -96t108 -226q0 -109 -78 -208t-227 -142v-4q97 0 175 -21t127.5 -54.5t82.5 -78.5t46.5 -90.5t13.5 -93.5q0 -68 -15.5 -125t-39.5 -97.5t-62.5 -73t-74 -52.5t-86 -35t-86 -21.5t-86 -10.5t-74.5 -4.5t-62 -0.5h-551v41q125 0 163 34.5t38 153.5
v975q0 120 -37.5 154.5t-163.5 34.5v41zM451 717v-475q0 -100 40.5 -135t135.5 -35q407 0 407 317q0 54 -13 101t-44 89.5t-78.5 72.5t-120 47.5t-164.5 17.5h-163zM907 1096q0 63 -16.5 112t-42 77.5t-60.5 46.5t-66.5 24t-66.5 6h-204v-580h163q33 0 69 8.5t77 31.5t73 57
t53 90.5t21 126.5z" />
    <glyph glyph-name="C" unicode="C" horiz-adv-x="1376" 
d="M102 717q0 153 39 277.5t106 209t158.5 141.5t193.5 83t214 26q267 0 487 -160l5 -354h-41q0 103 -28.5 183t-72.5 127.5t-104 78.5t-116 42t-116 11q-240 0 -390 -184t-150 -481t150 -481.5t390 -184.5q59 0 115.5 11t116.5 42t104 79t72.5 128t28.5 183h41l-5 -355
q-219 -159 -487 -159q-112 0 -214 26t-193.5 83t-158.5 141.5t-106 209t-39 277.5z" />
    <glyph glyph-name="D" unicode="D" horiz-adv-x="1609" 
d="M82 0v41q71 0 111.5 9t60.5 35t24.5 55.5t4.5 88.5v975q0 61 -6 93.5t-27.5 56.5t-60 31.5t-107.5 7.5v41h539q67 0 107.5 -1t119 -7.5t131.5 -18.5t128 -37t126 -59.5t107 -90t89.5 -124.5t55.5 -166t22 -213q0 -147 -40.5 -264.5t-99 -191t-148.5 -126.5t-163 -78
t-171 -39t-144 -16t-108 -2h-551zM637 68q55 0 87 0.5t94.5 6.5t103 17t98.5 33.5t96 54t81 81t68 112.5t41.5 151t16.5 193q0 104 -20 191.5t-51.5 149.5t-80 112t-94.5 81.5t-106.5 54.5t-105 33.5t-100.5 16.5t-82.5 7t-61.5 1h-170v-1122q0 -85 42 -129.5t144 -44.5z
" />
    <glyph glyph-name="E" unicode="E" horiz-adv-x="1273" 
d="M82 0v41q68 0 107.5 8t60.5 32.5t27 56.5t6 91v975q0 40 -1.5 61.5t-7.5 47t-18.5 37.5t-35 23.5t-56 15.5t-82.5 4v41h1028l10 -293h-41q-6 43 -12.5 73t-17 54.5t-19 40t-27.5 27t-34.5 17t-47 9t-57 4t-73.5 0.5h-340v-582h292q41 0 66 2t46 9.5t31.5 18.5t17.5 33
t9 48.5t2 69.5h41v-435h-41q0 44 -2 71.5t-9 50.5t-17.5 34t-31.5 19t-46 10t-66 2h-292v-475q0 -93 40 -132.5t146 -39.5h254q60 0 97 8t72 34t56.5 78t34.5 136h41l-21 -326h-1089z" />
    <glyph glyph-name="F" unicode="F" horiz-adv-x="1140" 
d="M692 0h-610v41q68 0 107.5 8t60.5 32.5t27 56.5t6 91v975q0 40 -1.5 61.5t-7.5 47t-18.5 37.5t-35 23.5t-56 15.5t-82.5 4v41h1028l10 -293h-41q-6 43 -12.5 73t-17 54.5t-19 40t-27.5 27t-34.5 17t-47 9t-57 4t-73.5 0.5h-340v-582h333q41 0 66 2t46 9.5t31.5 18.5
t17.5 33t9 48.5t2 69.5h41v-435h-41q0 44 -2 71.5t-9 50.5t-17.5 34t-31.5 19t-46 10t-66 2h-333v-488q0 -47 5 -76t19 -52.5t41.5 -35.5t69.5 -18t106 -6v-41z" />
    <glyph glyph-name="G" unicode="G" horiz-adv-x="1550" 
d="M1350 385v-203q-110 -94 -254 -148t-283 -54q-112 0 -214 26t-193.5 83t-158.5 141.5t-106 209t-39 277.5t39 277.5t106 209t158.5 141.5t193.5 83t214 26q267 0 487 -160l5 -354h-41q0 103 -28.5 183t-72.5 127.5t-104 78.5t-116 42t-116 11q-240 0 -390 -184t-150 -481
t150 -481.5t390 -184.5q243 0 355 180v154q0 78 -16.5 115t-68 55t-157.5 18v41h569v-41q-39 0 -65 -3.5t-44 -14t-27.5 -22t-15 -36t-6.5 -47.5t-1 -65z" />
    <glyph glyph-name="H" unicode="H" horiz-adv-x="1746" 
d="M1665 0h-569v41q46 0 77.5 3.5t54.5 13.5t36 22.5t20.5 35.5t9.5 48t2 65v480h-845v-480q0 -40 2 -65t9.5 -48t20.5 -35.5t36 -22.5t54.5 -13.5t77.5 -3.5v-41h-569v41q68 0 107.5 8t60.5 32.5t27 56.5t6 91v975q0 40 -1.5 61.5t-7.5 47t-18.5 37.5t-35 23.5t-56 15.5
t-82.5 4v41h569v-41q-49 0 -82.5 -4t-56 -15.5t-34.5 -23.5t-18 -37.5t-7.5 -46.5t-1.5 -62v-428h845v428q0 41 -1.5 62t-7.5 46.5t-18 37.5t-34.5 23.5t-56 15.5t-82.5 4v41h569v-41q-49 0 -82.5 -4t-56 -15.5t-35 -23.5t-18.5 -37.5t-7.5 -47t-1.5 -61.5v-975q0 -59 6 -91
t27 -56.5t60.5 -32.5t107.5 -8v-41z" />
    <glyph glyph-name="I" unicode="I" horiz-adv-x="733" 
d="M651 0h-569v41q68 0 107.5 8t60.5 32.5t27 56.5t6 91v975q0 40 -1.5 61.5t-7.5 47t-18.5 37.5t-35 23.5t-56 15.5t-82.5 4v41h569v-41q-49 0 -82.5 -4t-56 -15.5t-34.5 -23.5t-18 -37.5t-7.5 -46.5t-1.5 -62v-975q0 -40 2 -65t9.5 -48t20.5 -35.5t36 -22.5t54.5 -13.5
t77.5 -3.5v-41z" />
    <glyph glyph-name="J" unicode="J" horiz-adv-x="712" 
d="M451 1204v-1141q0 -86 -21.5 -161.5t-51.5 -128t-80.5 -104.5t-89.5 -83t-97 -71l-23 28q195 142 195 484v1177q0 40 -1.5 61.5t-7.5 47t-18.5 37.5t-35 23.5t-56 15.5t-82.5 4v41h569v-41q-49 0 -82.5 -4t-56 -15.5t-34.5 -23.5t-18 -37.5t-7.5 -46.5t-1.5 -62z" />
    <glyph glyph-name="K" unicode="K" horiz-adv-x="1472" 
d="M1010 176l-451 473h-108v-420q0 -59 5.5 -91.5t24.5 -56.5t54 -32t96 -8v-41h-549v41q68 0 107.5 8t60.5 32.5t27 56.5t6 91v975q0 40 -1.5 61.5t-7.5 47t-18.5 37.5t-35 23.5t-56 15.5t-82.5 4v41h549v-41q-44 0 -74 -4t-50 -15.5t-31 -23.5t-17 -37.5t-7 -47t-1 -61.5
v-495h57l536 567q13 15 20.5 30t6.5 31t-13 28t-42.5 20t-77.5 8v41h455v-41q-62 0 -102.5 -13.5t-66.5 -34.5t-77 -73l-479 -498l567 -594q79 -83 128.5 -111t109.5 -28v-41h-328q-41 78 -135 176z" />
    <glyph glyph-name="L" unicode="L" horiz-adv-x="1232" 
d="M692 1434v-41q-64 0 -106 -6t-69.5 -18t-41.5 -36t-19 -53t-5 -76v-962q0 -93 40 -132.5t146 -39.5h254q60 0 97 8t72 34t56.5 78t34.5 136h41l-21 -326h-1089v41q68 0 107.5 8t60.5 32.5t27 56.5t6 91v975q0 40 -1.5 61.5t-7.5 47t-18.5 37.5t-35 23.5t-56 15.5t-82.5 4
v41h610z" />
    <glyph glyph-name="M" unicode="M" horiz-adv-x="2037" 
d="M604 41v-41h-522v41q130 0 181.5 36.5t51.5 151.5v975q0 63 -8 97.5t-34.5 56.5t-69.5 28.5t-121 6.5v41h385l557 -1194l582 1194h350v-41q-130 0 -175.5 -36t-45.5 -153v-975q0 -117 45.5 -152.5t175.5 -35.5v-41h-588v41q89 0 129 14.5t55 52t15 121.5v947l-582 -1186
h-24l-564 1186v-947q0 -120 38 -154t169 -34z" />
    <glyph glyph-name="N" unicode="N" horiz-adv-x="1759" 
d="M1427 305v899q0 113 -42 151t-160 38v41h473v-41q-108 0 -148.5 -42t-40.5 -147v-1214h-34l-1074 1196v-957q0 -63 8 -97t35.5 -56t71 -28.5t123.5 -6.5v-41h-522v41q66 0 102.5 6.5t61.5 28t33 56.5t8 97v975q0 108 -51 148.5t-189 40.5v41h348z" />
    <glyph glyph-name="O" unicode="O" horiz-adv-x="1644" 
d="M823 -20q-154 0 -288.5 57.5t-229 155.5t-149 234.5t-54.5 289.5t54.5 289.5t149 234.5t229 155.5t288.5 57.5q123 0 235 -36.5t199 -104t151.5 -158t99 -203t34.5 -235.5t-34.5 -235.5t-99 -203t-151.5 -158t-199 -104t-235 -36.5zM823 51q146 0 269.5 89.5t194.5 242.5
t71 334q0 135 -42 258t-113.5 212.5t-171 142t-208.5 52.5q-146 0 -269.5 -89t-195 -242t-71.5 -334t71.5 -334t195 -242.5t269.5 -89.5z" />
    <glyph glyph-name="P" unicode="P" horiz-adv-x="1165" 
d="M526 586h-75v-357q0 -47 5 -76t19 -52.5t41.5 -35.5t69.5 -18t106 -6v-41h-610v41q68 0 107.5 8t60.5 32.5t27 56.5t6 91v975q0 40 -1.5 61.5t-7.5 47t-18.5 37.5t-35 23.5t-56 15.5t-82.5 4v41h479q584 0 584 -418q0 -219 -161 -324.5t-458 -105.5zM451 1366v-731h75
q435 0 435 381q0 87 -30 153.5t-76 104t-107 60.5t-116.5 29t-111.5 3h-69z" />
    <glyph glyph-name="Q" unicode="Q" horiz-adv-x="1644" 
d="M1542 717q0 -150 -52 -283.5t-142.5 -231t-219.5 -156.5t-278 -64q-66 -51 -115 -113q115 21 230 8.5t213 -47t168 -78.5t94 -86q4 -7 6.5 -20t-2 -32.5t-19.5 -35t-52.5 -25.5t-92.5 -8q-13 53 -66.5 108t-134 97.5t-181 59t-208.5 -8.5l-14 -28q-18 -39 -54 -25
q-30 12 -40 45q-7 26 10 47q75 92 176 142q-144 10 -268 71t-211.5 158t-137 228.5t-49.5 277.5q0 153 54.5 289.5t149 234.5t229 155.5t288.5 57.5q123 0 235 -36.5t199 -104t151.5 -158t99 -203t34.5 -235.5zM823 51q146 0 269.5 89.5t194.5 242.5t71 334q0 135 -42 258
t-113.5 212.5t-171 142t-208.5 52.5q-146 0 -269.5 -89t-195 -242t-71.5 -334t71.5 -334t195 -242.5t269.5 -89.5z" />
    <glyph glyph-name="R" unicode="R" horiz-adv-x="1425" 
d="M1145 1077q0 -134 -105 -249.5t-276 -176.5l424 -471q72 -84 123.5 -111.5t113.5 -27.5v-41h-327q-45 85 -121 176l-375 418h-151v-365q0 -47 5 -76t19 -52.5t41.5 -35.5t69.5 -18t106 -6v-41h-610v41q68 0 107.5 8t60.5 32.5t27 56.5t6 91v975q0 40 -1.5 61.5t-7.5 47
t-18.5 37.5t-35 23.5t-56 15.5t-82.5 4v41h479q154 0 269.5 -28t182.5 -78t99.5 -112.5t32.5 -138.5zM451 1366v-711h122q190 54 290 158t100 250q0 141 -111 222t-332 81h-69z" />
    <glyph glyph-name="S" unicode="S" horiz-adv-x="1054" 
d="M887 1386l-17 -247h-41q4 117 -71 184.5t-180 67.5q-53 0 -103 -17t-91 -48.5t-66 -84t-25 -117.5q0 -67 36.5 -124t94.5 -99t128 -82.5t140.5 -84t128.5 -93t94.5 -120t36.5 -154.5q0 -177 -120 -284.5t-328 -107.5q-215 0 -391 109l12 272h41q7 -77 29 -134t52.5 -91.5
t73.5 -55.5t85.5 -28.5t95.5 -7.5q134 0 205 75.5t71 184.5q0 72 -36.5 133.5t-94.5 107t-128.5 89t-140.5 89t-128 96t-94.5 121.5t-36.5 155q0 96 40 169t108 114t148 61t171 20q177 0 301 -68z" />
    <glyph glyph-name="T" unicode="T" horiz-adv-x="1384" 
d="M51 1434h1282l10 -293h-40q-6 43 -12.5 73t-17 54.5t-19.5 40t-28 27t-34.5 17t-47 9t-57 4t-73.5 0.5h-238v-1137q0 -78 16.5 -115t68 -55t157.5 -18v-41h-651v41q64 0 106 6t69.5 18t41.5 35.5t19 52.5t5 76v1137h-237q-48 0 -73.5 -0.5t-57 -4t-47 -9t-34.5 -17
t-28 -27t-19.5 -40t-17 -54.5t-12.5 -73h-41z" />
    <glyph glyph-name="U" unicode="U" horiz-adv-x="1560" 
d="M1337 1204v-686q0 -78 -10 -143t-33 -127.5t-64 -109.5t-100 -83.5t-144 -55.5t-193 -19q-119 0 -212.5 29t-154.5 79.5t-100.5 122.5t-56.5 152.5t-17 175.5v665q0 45 -3.5 71.5t-15 52t-34.5 38t-61.5 20t-96.5 7.5v41h571v-41q-47 0 -79.5 -4t-54 -16t-33 -24
t-17.5 -38t-7 -46.5t-1 -60.5v-596q0 -290 107.5 -420.5t310.5 -130.5q195 0 306 109t111 346v692q0 54 -7.5 86t-31 57.5t-68.5 35.5t-118 10v41h490v-41q-60 0 -96 -10t-55.5 -35t-25.5 -57t-6 -87z" />
    <glyph glyph-name="V" unicode="V" horiz-adv-x="1550" 
d="M446 1206l381 -966l363 966q16 44 20.5 74t-6 57.5t-48.5 41.5t-105 14v41h479v-41q-41 0 -74.5 -6.5t-57.5 -22t-40 -28.5t-30.5 -39t-20.5 -39t-17 -42q-3 -7 -4 -10l-473 -1216h-59l-502 1214q-35 85 -58 115q-57 74 -174 74v41h549v-41q-41 0 -70 -7t-45.5 -16.5
t-24 -27t-9.5 -31t3.5 -36.5t9.5 -35t13 -34z" />
    <glyph glyph-name="W" unicode="W" horiz-adv-x="2146" 
d="M1124 1206l340 -940l322 940q12 36 17 60t2 50t-19 41.5t-50.5 25.5t-88.5 10v41h479v-41q-37 0 -68 -6.5t-52.5 -15t-40.5 -26t-29.5 -29.5t-22.5 -36.5t-16.5 -36t-14.5 -37.5l-432 -1216h-59l-320 841l-299 -841h-59l-461 1214q-11 29 -15.5 40t-17 36.5t-22.5 36.5
t-28.5 29t-38 26t-48 14.5t-62.5 6.5v41h488v-41q-31 0 -51 -8t-27.5 -24.5t-10.5 -33t2.5 -41t10.5 -40.5t14 -40l340 -940l236 692l-92 246q-11 29 -15.5 40t-17 36.5t-22.5 36.5t-28.5 29t-38 26t-48 14.5t-62.5 6.5v41h549v-41q-55 0 -88.5 -13t-47 -28t-12 -45.5t6 -46
t16.5 -48.5q1 -4 2 -6z" />
    <glyph glyph-name="X" unicode="X" horiz-adv-x="1533" 
d="M1036 217l-301 424l-323 -430q-67 -83 -31.5 -126.5t184.5 -43.5v-41h-545v41q55 0 99.5 13t81.5 41t64.5 58.5t64.5 79.5l358 476l-389 495q-6 8 -28 36.5t-31 39.5t-30 34t-36 33t-37 23t-45 18t-49 5v41h573v-41q-61 0 -99 -10t-52.5 -26t-12 -39.5t15.5 -47t36 -53.5
l284 -377l289 385q126 168 -137 168v41h516v-41q-44 0 -81.5 -10t-63 -23t-55.5 -42.5t-47.5 -50.5t-51.5 -65l-323 -428l401 -543q3 -4 17.5 -24.5t22 -30.5t25 -30.5t31 -32t35.5 -27.5t42.5 -24t48 -14.5t56.5 -6.5v-41h-589v41q71 0 109.5 13t45.5 38.5t-4 55t-39 69.5z
" />
    <glyph glyph-name="Y" unicode="Y" 
d="M440 1231l295 -533l293 543q11 21 18 39t6.5 39.5t-12.5 37t-43.5 26t-81.5 10.5v41h453v-41q-97 0 -153 -39.5t-111 -136.5l-328 -603v-385q0 -117 49 -152.5t193 -35.5v-41h-651v41q72 0 114.5 7t73 27.5t42 56.5t11.5 97v385l-364 631q-45 79 -64 100q-42 43 -130 47
q-14 1 -30 1v41h527v-41q-108 0 -132 -36.5t25 -125.5z" />
    <glyph glyph-name="Z" unicode="Z" horiz-adv-x="1370" 
d="M1202 1434l41 -41l-926 -1305h594q74 0 122 6.5t86 21.5t61 46t39 74.5t28 111.5h41l-22 -348h-1143l-41 41l928 1307h-627q-33 0 -60.5 -4t-48 -9t-37 -17t-27.5 -21t-20.5 -28.5t-14.5 -31t-10.5 -37.5t-7.5 -39.5t-7 -44.5h-41l18 318h1075z" />
    <glyph glyph-name="bracketleft" unicode="[" horiz-adv-x="641" 
d="M305 1272v-1446q1 -113 46 -136.5t208 -23.5v-55h-395v1876h395v-55q-163 0 -208.5 -23.5t-45.5 -136.5z" />
    <glyph glyph-name="backslash" unicode="\" horiz-adv-x="909" 
d="M621 -25l-457 1491h125l456 -1491h-124z" />
    <glyph glyph-name="bracketright" unicode="]" horiz-adv-x="641" 
d="M336 -174v1446q0 113 -45.5 136.5t-208.5 23.5v55h395v-1876h-395v55q163 0 208.5 23.5t45.5 136.5z" />
    <glyph glyph-name="asciicircum" unicode="^" horiz-adv-x="1142" 
d="M625 1434l354 -729h-96l-312 571l-311 -571h-96l354 729h107z" />
    <glyph glyph-name="underscore" unicode="_" horiz-adv-x="1024" 
d="M1024 -250h-1024v127h1024v-127z" />
    <glyph glyph-name="grave" unicode="`" horiz-adv-x="536" 
d="M391 1077l-289 357q32 18 86 12.5t97 -33.5l149 -336h-43z" />
    <glyph glyph-name="a" unicode="a" horiz-adv-x="929" 
d="M889 57l20 -37q-87 -40 -161 -40q-111 0 -148 118q-154 -118 -291 -118q-98 0 -162.5 73t-64.5 193q0 35 17.5 63t44 46.5t69.5 33t80 22.5t91.5 14t88.5 8t84 5q27 1 39 2v326q0 87 -32.5 133.5t-108.5 46.5q-49 0 -88 -16t-60 -41t-34 -56t-11.5 -61.5t8.5 -56.5
q-34 -21 -61 -32t-44 -13.5t-29 3t-17.5 11.5t-8.5 18t-3.5 17t-0.5 14q0 67 67 131.5t162.5 102t180.5 37.5q64 0 110.5 -14t72 -34t40 -50t18 -55t3.5 -56v-648q0 -17 2 -31.5t9.5 -33.5t21.5 -26.5t37.5 -11t58.5 12.5zM248 227q12 -170 114 -170q56 0 122 25.5t112 67.5
v245q-174 -14 -214 -23q-97 -19 -122 -78q-12 -28 -12 -67z" />
    <glyph glyph-name="b" unicode="b" horiz-adv-x="1103" 
d="M336 1454l-4 -602q70 68 157 110t177 42q151 0 253.5 -131.5t102.5 -342.5q0 -121 -27.5 -217.5t-71.5 -157.5t-104 -101.5t-120 -57t-124 -16.5q-175 0 -311 94l-51 -84h-39v1233v51.5t-2.5 38.5t-6 31t-11.5 20.5t-18 15t-28 8t-38 5t-50 0.5v41zM565 41q52 0 94.5 19
t71.5 50t51.5 74t35.5 87t21 93.5t10.5 88.5t2.5 77q0 62 -14 125.5t-41.5 122t-76 95t-110.5 36.5q-15 0 -33.5 -2.5t-58.5 -12.5t-88.5 -37.5t-93.5 -70.5v-520q0 -29 2 -50t14.5 -57t34.5 -59t68 -41t110 -18z" />
    <glyph glyph-name="c" unicode="c" horiz-adv-x="933" 
d="M530 1004q46 0 86 -5.5t85 -22t77 -43t53 -74t21 -109.5q0 -149 -170 -41q32 115 -2.5 175t-149.5 60q-76 0 -134.5 -46.5t-90 -118.5t-46.5 -144t-15 -137q0 -116 33.5 -204.5t91 -137t131.5 -65t159 6t168 80.5l21 -37q-90 -80 -184 -120.5t-177.5 -40.5t-158.5 35.5
t-129 100.5t-85.5 162t-31.5 214q0 118 39 217t103 162t143.5 98t162.5 35z" />
    <glyph glyph-name="d" unicode="d" horiz-adv-x="1085" 
d="M911 1454v-1202q0 -35 0.5 -52t2.5 -40t5.5 -32.5t11.5 -22t18.5 -17t27.5 -9.5t37.5 -6t50.5 -1v-41l-315 -51v163q-128 -163 -318 -163q-151 0 -250.5 130.5t-99.5 342.5q0 121 26.5 217.5t70 157.5t102 102t118 57.5t123.5 16.5q125 0 228 -54v273v51.5t-2.5 38.5
t-6 31t-11.5 20.5t-18 15t-28 8t-38 5t-50 0.5v41zM514 63q87 0 159 60t77 133v461q0 87 -21 130q-46 95 -197 95q-52 0 -94.5 -19t-70.5 -50t-50 -74.5t-34 -86.5t-19 -93.5t-9.5 -88.5t-2.5 -77q0 -68 15.5 -134t45.5 -125t82 -95t119 -36z" />
    <glyph glyph-name="e" unicode="e" horiz-adv-x="935" 
d="M530 1004q42 0 83.5 -9t84.5 -29.5t75.5 -52.5t55 -78.5t23.5 -108t-18 -140.5l-588 -33q-7 -108 13 -195.5t60 -144.5t97 -90t123.5 -37t141 19t146.5 73l21 -37q-90 -80 -184 -120.5t-177.5 -40.5t-158.5 35.5t-129 100.5t-85.5 162t-31.5 214q0 118 39 217t103 162
t143.5 98t162.5 35zM530 944q-127 0 -202.5 -100t-77.5 -232l414 23q19 64 23 117t-8 97.5t-50 69.5t-99 25z" />
    <glyph glyph-name="f" unicode="f" horiz-adv-x="659" 
d="M397 983h234v-68h-234v-694q0 -50 4 -77.5t14.5 -50.5t34.5 -33t59 -14.5t93 -4.5v-41h-541v41q60 0 92.5 6t52.5 27.5t25 53.5t5 93v694h-154v68h154v37q0 91 39 178t96.5 146t122.5 95t118 36q11 0 21.5 -1.5t25 -11t18.5 -26t-5.5 -50.5t-38.5 -81q-2 2 -13 11t-17 13
t-17 12.5t-19.5 13t-19.5 9.5t-21 7.5t-20 2.5q-23 0 -41 -16.5t-34.5 -57t-25 -120.5t-8.5 -197z" />
    <glyph glyph-name="g" unicode="g" horiz-adv-x="1007" 
d="M885 635q0 -153 -116.5 -261t-281.5 -108q-108 -3 -191 -26t-83 -58q0 -43 41.5 -66.5t108 -31.5t146.5 -12t160 -14t146.5 -30.5t108 -69t41.5 -122.5q0 -79 -48 -144t-126 -105.5t-172 -62.5t-191 -22q-105 0 -190.5 24.5t-141 78t-55.5 127.5q0 117 188 248
q-106 52 -106 163q0 60 56 98t153 54q-109 42 -175.5 134t-66.5 206q0 153 116 261t281 108q83 0 156 -31q78 -8 131 42t60 113q153 19 153 -45q0 -41 -26 -72t-67 -47.5t-82.5 -25t-82.5 -10.5q72 -52 114 -129t42 -164zM803 -164q0 32 -35.5 50t-96 24.5t-127 10
t-144 13.5t-130.5 29q-77 -106 -77 -215q0 -87 67 -140.5t219 -53.5q84 0 149.5 27t102 70t54.5 90.5t18 94.5zM260 635q0 -132 56 -220.5t171 -88.5t171.5 88.5t56.5 220.5q0 83 -23.5 151.5t-76.5 113t-128 44.5t-127.5 -44.5t-76 -113t-23.5 -151.5z" />
    <glyph glyph-name="h" unicode="h" horiz-adv-x="1177" 
d="M537 41v-41h-476v41q40 0 65 2.5t44.5 11t29.5 19t16 33.5t7.5 47.5t1.5 66.5v1002v51t-2.5 37.5t-5.5 29t-12 18.5t-17.5 13t-27.5 6t-37.5 4h-50.5v41l315 31l-6 -672q66 98 183.5 160t217.5 62q94 0 152.5 -62t58.5 -186v-535q0 -63 4 -93.5t22 -52.5t48.5 -28
t89.5 -6v-41h-473v41q53 0 80.5 6t43.5 28t19.5 52.5t3.5 93.5v484q0 97 -40.5 148.5t-104.5 51.5q-69 0 -154 -56t-145 -153v-475q0 -42 1.5 -66.5t7 -47t15 -33.5t27 -19.5t40.5 -11t59 -2.5z" />
    <glyph glyph-name="i" unicode="i" horiz-adv-x="557" 
d="M537 41v-41h-476v41q40 0 65 2.5t44.5 11t29.5 19t16 33.5t7.5 47.5t1.5 66.5v531v42t-1 34.5t-3 29.5t-6 22.5t-9.5 18.5t-14 13t-19 10t-26 5.5t-33 4t-41.5 0.5v41l321 20l-6 -211v-561q0 -42 1.5 -66.5t7 -47t15 -33.5t27 -19.5t40.5 -11t59 -2.5zM299 1165
q-73 51 -135 135q62 81 135 134q73 -53 135 -134q-52 -75 -135 -135z" />
    <glyph glyph-name="j" unicode="j" horiz-adv-x="559" 
d="M389 782v-719q0 -86 -21 -161t-50.5 -128t-79 -105t-89 -83t-96.5 -71l-22 28q196 143 196 484v725v42t-1 34.5t-3 29.5t-6 22.5t-9.5 18.5t-14 13t-19 10t-26 5.5t-33 4t-41.5 0.5v41l321 20zM301 1165q-73 51 -135 135q62 81 135 134q73 -53 135 -134
q-52 -75 -135 -135z" />
    <glyph glyph-name="k" unicode="k" horiz-adv-x="1142" 
d="M537 41v-41h-476v41q40 0 65 2.5t44.5 11t29.5 19t16 33.5t7.5 47.5t1.5 66.5v1002q0 46 -0.5 66t-5.5 44.5t-13 32t-27 16.5t-42.5 10t-64.5 1v41l315 20v-936h57l306 316q22 24 29.5 42.5t-0.5 34t-41 23.5t-91 8v41h432v-41q-91 0 -138.5 -20.5t-102.5 -81.5
l-260 -273l321 -397q64 -78 111.5 -103.5t111.5 -25.5v-41h-317q-22 52 -113 168l-233 297h-72v-244q0 -42 1.5 -66.5t7 -47t15 -33.5t27 -19.5t40.5 -11t59 -2.5z" />
    <glyph glyph-name="l" unicode="l" horiz-adv-x="557" 
d="M537 41v-41h-476v41q40 0 65 2.5t44.5 11t29.5 19t16 33.5t7.5 47.5t1.5 66.5v1002q0 46 -0.5 66t-5.5 44.5t-13 32t-27 16.5t-42.5 10t-64.5 1v41l315 20v-1233q0 -42 1.5 -66.5t7 -47t15 -33.5t27 -19.5t40.5 -11t59 -2.5z" />
    <glyph glyph-name="m" unicode="m" horiz-adv-x="1726" 
d="M1124 41v-41h-465v41q35 0 57.5 2.5t39.5 11t25.5 19t14 34t6.5 47t1 66.5v484q0 99 -37 149.5t-100 50.5q-67 0 -142.5 -54.5t-136.5 -154.5v-475q0 -43 1 -66.5t6 -47t13.5 -34t26 -19t40 -11t58.5 -2.5v-41h-471v41q40 0 65 2.5t44.5 11t29.5 19t16 33.5t7.5 47.5
t1.5 66.5v531v42t-1 34.5t-3 29.5t-6 22.5t-9.5 18.5t-14 13t-19 10t-26 5.5t-33 4t-41.5 0.5v41l321 20l-6 -211q68 100 173 161t202 61q88 0 142.5 -56t60.5 -168q69 97 175 160.5t199 63.5t148 -61.5t55 -186.5v-535q0 -63 4 -93.5t22 -52.5t48.5 -28t89.5 -6v-41h-469
v41q35 0 57.5 2.5t39.5 11t25.5 19t13.5 34t6 47t1 66.5v484q0 99 -37 149.5t-100 50.5q-57 0 -137.5 -57t-140.5 -150v-477q0 -43 1 -66.5t7 -47t15 -34t28 -19t44 -11t64 -2.5z" />
    <glyph glyph-name="n" unicode="n" horiz-adv-x="1177" 
d="M537 41v-41h-476v41q40 0 65 2.5t44.5 11t29.5 19t16 33.5t7.5 47.5t1.5 66.5v531v42t-1 34.5t-3 29.5t-6 22.5t-9.5 18.5t-14 13t-19 10t-26 5.5t-33 4t-41.5 0.5v41l321 20l-6 -211q67 98 181.5 160t213.5 62q94 0 152.5 -62t58.5 -186v-535q0 -63 4 -93.5t22 -52.5
t48.5 -28t89.5 -6v-41h-473v41q53 0 80.5 6t43.5 28t19.5 52.5t3.5 93.5v484q0 97 -40.5 148.5t-104.5 51.5q-69 0 -154 -56t-145 -153v-475q0 -42 1.5 -66.5t7 -47t15 -33.5t27 -19.5t40.5 -11t59 -2.5z" />
    <glyph glyph-name="o" unicode="o" horiz-adv-x="1038" 
d="M526 1004q130 0 229 -69.5t150 -185t51 -257.5q0 -141 -55 -257.5t-157.5 -185.5t-233.5 -69q-130 0 -228.5 69.5t-149 184.5t-50.5 258q0 141 54.5 257.5t156.5 185.5t233 69zM518 39q74 0 127.5 35t83.5 98.5t43.5 142.5t13.5 177q0 78 -8 143.5t-28 123.5t-50 98
t-76.5 63.5t-105.5 23.5q-266 0 -266 -452q0 -453 266 -453z" />
    <glyph glyph-name="p" unicode="p" horiz-adv-x="1126" 
d="M383 993l-6 -153q129 164 317 164q150 0 250 -131t100 -343q0 -121 -26.5 -217.5t-70 -157.5t-102 -101.5t-118 -57t-123.5 -16.5q-123 0 -227 51v-289v-18v-36t1 -29.5t3.5 -26t7 -20t11 -17t17 -12t23.5 -9.5t31 -5.5t40 -4t50 -0.5v-41h-500v41q26 0 46 1t36 4t27 7.5
t19.5 11t12.5 15.5t7.5 20.5t4 26t1.5 31.5t0 38v23v1010q0 35 -0.5 52t-2.5 40t-5.5 32.5t-11.5 22t-18.5 17t-27.5 9.5t-37.5 6t-50.5 1v41zM612 920q-90 0 -162.5 -62.5t-72.5 -138.5v-488q1 -35 8.5 -63t28 -59.5t66.5 -49.5t114 -18q52 0 94.5 19t70.5 50t50 74.5
t34 86.5t19 93.5t9.5 88.5t2.5 77q0 68 -15.5 134t-45.5 125t-82 95t-119 36z" />
    <glyph glyph-name="q" unicode="q" horiz-adv-x="1058" 
d="M535 942q-60 0 -107.5 -24.5t-77 -67.5t-50.5 -92.5t-30.5 -108.5t-13.5 -104.5t-4 -91.5q0 -63 13 -126t39.5 -121.5t74.5 -95t110 -36.5q15 0 33 2.5t57.5 12.5t87.5 37.5t93 70.5v520q0 30 -1.5 50t-13.5 56.5t-33.5 59.5t-67 41t-109.5 18zM762 -256l2 387
q-155 -151 -330 -151q-151 0 -251.5 131t-100.5 342q0 121 27 217.5t70.5 157.5t102.5 102t118.5 57.5t123.5 16.5q170 0 307 -95l52 84h39v-1249q0 -45 1 -67t5.5 -46.5t12 -34t24 -19t38 -11.5t56.5 -2v-41h-469v41q49 0 78 4.5t49.5 14.5t29.5 33t12 50.5t3 77.5z" />
    <glyph glyph-name="r" unicode="r" horiz-adv-x="837" 
d="M590 41v-41h-529v41q40 0 65 2.5t44.5 11t29.5 19t16 33.5t7.5 47.5t1.5 66.5v531v42t-1 34.5t-3 29.5t-6 22.5t-9.5 18.5t-14 13t-19 10t-26 5.5t-33 4t-41.5 0.5v41l321 20l-6 -241q70 123 168.5 196t189.5 51q8 -3 19 -10t21 -24t11 -38.5t-18 -55t-59 -70.5
q-32 19 -65 28t-77.5 6t-94 -41t-95.5 -110v-463q0 -62 5.5 -93t28 -53t60.5 -28t109 -6z" />
    <glyph glyph-name="s" unicode="s" horiz-adv-x="811" 
d="M668 733h-41q12 211 -201 211q-69 0 -122.5 -44.5t-53.5 -113.5q0 -37 26.5 -73.5t68.5 -68t93 -64.5t102.5 -69t93.5 -74t68.5 -86.5t26.5 -100.5q0 -72 -34.5 -126.5t-90 -84.5t-115.5 -44.5t-120 -14.5q-81 0 -160 23.5t-127 64.5l10 225h41q14 -135 79.5 -194.5
t178.5 -59.5q75 0 125.5 47.5t50.5 101.5q0 51 -26.5 98t-68.5 83.5t-93.5 72t-102.5 70.5t-93 70.5t-68.5 79.5t-26.5 92q0 82 53 141t128.5 84t162.5 25q69 0 137 -18.5t111 -47.5z" />
    <glyph glyph-name="t" unicode="t" horiz-adv-x="677" 
d="M346 1223v-240h264v-68h-264v-602q0 -126 36 -189.5t105 -67t170 37.5l21 -37q-76 -39 -141.5 -58t-112 -20.5t-84.5 11.5t-62.5 33t-43 49.5t-27.5 56.5t-15 57.5t-7 49t-1 34.5v645h-123v58q116 0 171 56t94 194h20z" />
    <glyph glyph-name="u" unicode="u" horiz-adv-x="1097" 
d="M924 993v-741v-42t1 -34.5t3 -29.5t6 -22.5t9.5 -18.5t14 -13t19 -10t26 -5.5t33 -4t41.5 -0.5v-41l-315 -51v165q-84 -82 -164 -126t-178 -44q-117 0 -182.5 66.5t-65.5 183.5l2 527q0 35 -0.5 52t-2.5 40t-5.5 32.5t-11.5 22t-18.5 17t-27.5 9.5t-37.5 6t-50.5 1v41
l316 20v-690q0 -103 39.5 -160t140.5 -57q59 0 126.5 31.5t119.5 75.5v559q0 44 -1 66.5t-7 47t-16 34t-30.5 19t-48 11.5t-71.5 2v41z" />
    <glyph glyph-name="v" unicode="v" horiz-adv-x="1048" 
d="M866 793l-317 -803h-51l-312 803q-4 9 -12 30t-11 28t-10.5 23t-12.5 21t-14.5 16t-18.5 14.5t-22.5 8.5t-29 6.5t-35.5 1.5v41h437v-41q-51 0 -79 -8t-35.5 -28.5t-3 -43.5t20.5 -65l207 -588l230 588q32 75 9 110t-118 35v41h340v-41q-22 0 -40 -3.5t-30.5 -7.5
t-24 -14t-18 -17t-14.5 -22.5t-11.5 -24.5t-11.5 -29.5t-12 -30.5z" />
    <glyph glyph-name="w" unicode="w" horiz-adv-x="1572" 
d="M1391 793l-301 -803h-52l-247 708l-256 -708h-52l-297 803q-31 81 -43 100q-31 45 -106 49h-17v41h437v-41q-41 0 -66 -6t-37.5 -15.5t-13.5 -30t3.5 -39.5t16.5 -54l193 -588l268 774h43l244 -774l213 588q31 75 8.5 110t-117.5 35v41h340v-41q-22 0 -40 -3.5t-30.5 -7
t-24 -14.5t-18 -17t-14.5 -23t-11.5 -24t-11.5 -29.5t-11 -30.5z" />
    <glyph glyph-name="x" unicode="x" horiz-adv-x="1071" 
d="M680 123l-168 264l-184 -252q-17 -23 -22.5 -39t0 -29t30 -19.5t67.5 -6.5v-41h-350v41q94 0 160 84l258 326l-274 399q-39 57 -67.5 74.5t-88.5 17.5v41h426v-41q-69 0 -87.5 -21t9.5 -61l178 -278l185 266q35 51 18.5 72.5t-94.5 21.5v41h348v-41q-60 0 -93 -18
t-67 -64l-254 -342l264 -383q40 -59 70.5 -76.5t85.5 -17.5v-41h-426v41q32 0 51 2.5t32.5 10.5t11.5 25t-19 44z" />
    <glyph glyph-name="y" unicode="y" horiz-adv-x="1048" 
d="M866 793l-317 -803q-35 -88 -74 -165.5t-90.5 -154.5t-112.5 -122.5t-122 -45.5q-8 0 -21 4.5t-27 18.5t-21 34.5t2 57t38 82.5q31 -9 58 -10.5t68.5 11t78.5 44.5t81.5 100.5t84.5 167.5l-306 781q-2 6 -10 27t-10 25.5t-9.5 21.5t-11 20.5t-11.5 15.5t-15 14.5
t-17.5 10t-22 9t-26.5 3.5t-33 2v41h437v-41q-51 0 -79 -8t-35.5 -28.5t-3 -43.5t20.5 -65l207 -598l230 598q32 75 9 110t-118 35v41h340v-41q-22 0 -40 -3.5t-30.5 -7.5t-24 -14t-18 -17t-14.5 -22.5t-11.5 -24.5t-11.5 -29.5t-12 -30.5z" />
    <glyph glyph-name="z" unicode="z" horiz-adv-x="886" 
d="M807 967l-543 -899h322q109 0 148 49t50 174h41l-18 -291h-725l-21 27l541 888h-274q-112 0 -150 -38.5t-49 -157.5h-41l18 264h689z" />
    <glyph glyph-name="braceleft" unicode="{" horiz-adv-x="626" 
d="M207 553v-6q72 -8 110.5 -53t51.5 -148t-11 -274q-9 -72 -8.5 -130t7 -98.5t20.5 -71.5t30.5 -50t39 -33.5t42.5 -23t44 -17.5q8 -3 12 -4l-15 -56q-114 29 -186 73t-102 118q-15 35 -17 104.5t5 144t7 159t-9 154.5t-46 127.5t-100 80.5q63 26 99.5 84t45.5 128t9 154
t-7 157t-5 142.5t18 106.5q30 74 102 117.5t186 72.5l15 -55q-77 -28 -105 -49q-92 -67 -91 -254q1 -56 9 -125q24 -171 11 -274t-51.5 -148t-110.5 -53z" />
    <glyph glyph-name="bar" unicode="|" horiz-adv-x="442" 
d="M279 1575v-2081h-115v2081h115z" />
    <glyph glyph-name="braceright" unicode="}" horiz-adv-x="624" 
d="M418 547v6q-72 8 -110 53t-51 148t11 274q9 72 7.5 130.5t-5 97t-23 72t-28 49.5t-40.5 34.5t-40 22t-45 17.5q-8 3 -12 5l12 55q114 -29 186 -72t105 -118q16 -37 17.5 -106.5t-5.5 -142.5t-7 -157t8.5 -154t45 -128t99.5 -84q-63 -24 -99.5 -81t-45.5 -127t-9 -154.5
t7.5 -158.5t5.5 -143.5t-17 -105.5q-33 -75 -105 -118.5t-186 -72.5l-12 56q76 29 104 48q92 68 91 256q-1 56 -9 124q-24 171 -11 274t51 148t110 53z" />
    <glyph glyph-name="asciitilde" unicode="~" horiz-adv-x="1329" 
d="M1114 780l51 -32q-64 -99 -113 -145q-74 -68 -147 -68q-96 0 -272.5 34.5t-263.5 34.5q-90 0 -154 -80l-51 33q64 99 113 145q74 68 147 68q96 0 273 -35t264 -35q89 0 153 80z" />
    <glyph glyph-name="nbspace" unicode="&#xa0;" horiz-adv-x="245" 
 />
    <glyph glyph-name="exclamdown" unicode="&#xa1;" horiz-adv-x="638" 
d="M295 553h51q0 -109 44 -533.5t44 -488.5h-229q0 64 45 488.5t45 533.5zM319 985q83 -61 156 -156q-69 -87 -156 -153q-84 64 -155 153q64 86 155 156z" />
    <glyph glyph-name="cent" unicode="&#xa2;" horiz-adv-x="995" 
d="M598 70h-68v151q-176 -8 -291.5 127t-115.5 369q0 110 34 201.5t92 150.5t130 94t151 43v158h68v-156q295 -14 295 -254q0 -149 -170 -41q66 236 -152 236q-76 0 -134.5 -43.5t-90 -111.5t-46.5 -137t-15 -134q0 -145 51.5 -241.5t134.5 -131.5t187.5 -17t209.5 91
l21 -37q-145 -130 -291 -158v-159z" />
    <glyph glyph-name="sterling" unicode="&#xa3;" horiz-adv-x="1218" 
d="M242 715v67h202l35 217q15 91 69 178t122.5 146t140.5 95t125 36q66 0 54 -56q-8 -42 -64 -114q-2 1 -14 12.5t-17 16.5t-17.5 14.5t-21.5 14t-21.5 8.5t-23.5 4q-117 0 -178 -391l-29 -181h287v-67h-297l-31 -199q-7 -58 -46 -152t-97 -169q78 15 133 9t108 -27.5
t90.5 -44.5t80.5 -41.5t79 -18.5q44 0 70.5 23t26.5 57q0 30 -27 65q99 137 113 43q2 -13 2 -31q0 -44 -13 -86.5t-39 -80.5t-73.5 -61.5t-108.5 -23.5q-77 0 -158.5 21.5t-138 47.5t-120 47.5t-109.5 21.5q-45 -45 -96 -75.5t-125 -59.5q-33 14 -55.5 58.5t-16.5 92.5
q67 40 266 47q48 78 94 338l31 199h-192z" />
    <glyph glyph-name="currency" unicode="&#xa4;" horiz-adv-x="911" 
d="M129 508q0 59 24 118.5t62 104.5l-154 176l45 45l158 -178q80 62 191 62q107 0 190 -62l154 176l51 -39l-156 -178q90 -97 90 -225q0 -61 -24.5 -120.5t-63.5 -102.5q14 -16 46.5 -53t58.5 -66.5t45 -50.5l-47 -47l-154 174q-84 -62 -190 -62q-110 0 -191 62
q-87 -98 -151 -174l-47 47l149 170q-38 43 -62 103t-24 120zM190 508q0 -108 78.5 -186t186.5 -78q109 0 187.5 77.5t78.5 186.5t-78.5 187.5t-187.5 78.5q-107 0 -186 -79t-79 -187z" />
    <glyph glyph-name="yen" unicode="&#xa5;" horiz-adv-x="1531" 
d="M336 463v67h344v84l-51 95h-293v67h258l-248 469q-45 79 -64 99q-40 44 -127 48q-15 1 -32 1v41h526v-41q-107 0 -131 -36.5t25 -125.5l264 -533l262 543q11 21 18 39t6.5 39.5t-12.5 37t-43.5 26t-81.5 10.5v41h453v-41q-97 0 -153 -39.5t-111 -136.5l-217 -441h264v-67
h-299l-45 -95v-84h344v-67h-344v-234q0 -117 49 -152.5t193 -35.5v-41h-652v41q141 0 191.5 36t50.5 152v234h-344z" />
    <glyph glyph-name="brokenbar" unicode="&#xa6;" horiz-adv-x="442" 
d="M279 1755v-784h-115v784h115zM279 532v-784h-115v784h115z" />
    <glyph glyph-name="section" unicode="&#xa7;" horiz-adv-x="1097" 
d="M285 874q8 -78 41.5 -151.5t79.5 -131.5t99.5 -114.5t103.5 -111.5t89.5 -112t59 -126.5t10.5 -144.5q43 100 43 247q0 77 -29 149.5t-74.5 129.5t-100.5 113t-107.5 111.5t-94.5 113t-63.5 128.5t-11.5 148q-45 -105 -45 -248zM698 -211q-29 -57 -80 -93t-108 -46.5
t-116.5 1.5t-106.5 43t-77 86t-30 124q0 149 170 41q-20 -74 -21.5 -126.5t33.5 -81t111 -28.5q46 0 85.5 25.5t62.5 64t36 80t13 76.5q0 72 -28 140t-72.5 124.5t-98.5 112.5t-108 114t-98.5 117.5t-72.5 134t-28 154.5q0 241 233 463q29 57 80 93t108 46.5t116.5 -1.5
t106.5 -43t77 -86t30 -124q0 -149 -170 -41q20 74 22 126.5t-33 81t-111 28.5q-46 0 -85.5 -25.5t-62.5 -64t-36 -80t-13 -76.5q0 -70 28 -137.5t73 -123.5t99 -112.5t108 -115t99 -118.5t73 -135t28 -155q0 -241 -236 -463z" />
    <glyph glyph-name="dieresis" unicode="&#xa8;" horiz-adv-x="808" 
d="M215 1110q-61 42 -113 113q49 64 113 110q64 -46 113 -110q-43 -63 -113 -113zM594 1110q-61 42 -113 113q49 64 113 110q64 -46 113 -110q-43 -63 -113 -113z" />
    <glyph glyph-name="copyright" unicode="&#xa9;" horiz-adv-x="1740" 
d="M164 748q0 143 56 274t150.5 225.5t225.5 150.5t274 56t274 -56t226 -150.5t151 -225.5t56 -274q0 -191 -95 -354t-258 -258t-354 -95q-143 0 -274 56t-225.5 151t-150.5 226t-56 274zM244 748q0 -169 84 -313.5t228.5 -229t313.5 -84.5t313.5 84.5t229 229t84.5 313.5
t-84.5 313.5t-229 228.5t-313.5 84q-127 0 -242.5 -50t-199.5 -134t-134 -199.5t-50 -242.5zM420 748q0 115 39 204.5t106 143t150 81t176 27.5q144 0 274 -59v-189h-49q-1 43 -10.5 75t-33 59.5t-69 42t-112.5 14.5q-103 0 -179 -58.5t-111.5 -147t-35.5 -193.5t35.5 -194
t111.5 -147.5t179 -58.5q67 0 112.5 14.5t69 42t33 59.5t10.5 75h49v-189q-130 -59 -274 -59q-93 0 -176 27.5t-150 81.5t-106 143.5t-39 204.5z" />
    <glyph glyph-name="ordfeminine" unicode="&#xaa;" horiz-adv-x="741" 
d="M627 840l12 -25q-66 -27 -104 -27q-71 0 -97 78q-101 -78 -188 -78q-63 0 -105.5 48.5t-42.5 126.5q0 19 7 35t22.5 27.5t30.5 20.5t42 15.5t45 10.5t50 7.5t47.5 4.5t48.5 3t41 3v210q0 57 -21 87t-71 30q-77 0 -107 -50.5t-14 -98.5q-106 -68 -106 12q0 44 44 85
t105.5 65t116.5 24q51 0 85.5 -12.5t49.5 -34.5t20 -42t5 -46v-420q0 -91 84 -59zM209 950q8 -110 76 -110q35 0 78 16t73 43v160q-128 -9 -162 -20q-61 -29 -65 -89z" />
    <glyph glyph-name="guillemotleft" unicode="&#xab;" horiz-adv-x="1019" 
d="M164 506l344 336l39 -31l-191 -274q-17 -26 -17 -34.5t17 -31.5l191 -272l-39 -31zM473 506l344 336l39 -31l-190 -274q-17 -26 -17 -34.5t17 -31.5l190 -272l-39 -31z" />
    <glyph glyph-name="logicalnot" unicode="&#xac;" horiz-adv-x="1351" 
d="M164 688h1024v-489h-129v362h-895v127z" />
    <glyph glyph-name="registered" unicode="&#xae;" horiz-adv-x="1740" 
d="M164 748q0 143 56 274t150.5 225.5t225.5 150.5t274 56t274 -56t226 -150.5t151 -225.5t56 -274q0 -191 -95 -354t-258 -258t-354 -95q-143 0 -274 56t-225.5 151t-150.5 226t-56 274zM244 748q0 -169 84 -313.5t228.5 -229t313.5 -84.5t313.5 84.5t229 229t84.5 313.5
t-84.5 313.5t-229 228.5t-313.5 84q-127 0 -242.5 -50t-199.5 -134t-134 -199.5t-50 -242.5zM981 741l246 -393l-47 -29l-351 404h-59v-250q0 -24 2.5 -38.5t11.5 -30t30 -22.5t54 -7v-41h-325v41q33 0 53.5 7t29 22.5t11 29.5t2.5 39v551q0 20 -2.5 33.5t-10 31t-27.5 26.5
t-50 9v41h250q36 0 61.5 -1t66 -5t69 -11t61 -21.5t53 -34.5t34 -51t13.5 -70q0 -169 -176 -230zM770 1114v-340h59q95 0 143 45.5t48 145.5q0 38 -13.5 65.5t-34.5 43.5t-55 25t-67.5 12t-79.5 3z" />
    <glyph glyph-name="macron" unicode="&#xaf;" horiz-adv-x="843" 
d="M741 1272v-107h-639v107h639z" />
    <glyph glyph-name="degree" unicode="&#xb0;" horiz-adv-x="960" 
d="M164 1198q0 132 91.5 225t223.5 93t225 -93t93 -225t-93 -223.5t-225 -91.5t-223.5 91.5t-91.5 223.5zM250 1198q0 -95 67 -162t162 -67q96 0 164 67t68 162t-68.5 163.5t-163.5 68.5t-162 -68t-67 -164z" />
    <glyph glyph-name="plusminus" unicode="&#xb1;" horiz-adv-x="1214" 
d="M659 717h392v-103h-392v-393h-102v393h-393v103h393v393h102v-393zM164 102h887v-102h-887v102z" />
    <glyph glyph-name="twosuperior" unicode="&#xb2;" horiz-adv-x="786" 
d="M135 983l-20 25q146 126 202 184q179 185 179 338q0 76 -44 118t-114 42q-54 0 -104 -30.5t-82 -84.5l-25 12q40 84 112.5 132t159.5 48q107 0 168.5 -54.5t61.5 -151.5q0 -34 -13.5 -72.5t-32 -71t-51.5 -72t-58 -66.5t-67 -64.5t-62.5 -54.5t-59.5 -48.5t-45 -36.5h432
l-23 -92h-514z" />
    <glyph glyph-name="threesuperior" unicode="&#xb3;" horiz-adv-x="774" 
d="M387 1767q99 0 162 -50t63 -120t-54.5 -127t-143.5 -79v-2q109 -7 172 -63t63 -130q0 -57 -27.5 -101.5t-73.5 -70t-98.5 -38.5t-107.5 -13q-94 0 -161 43t-66 110q1 32 22.5 40t48 -1t52.5 -26q-19 -51 12 -89t94 -38q75 0 119.5 50.5t44.5 133.5q0 74 -41.5 123
t-116.5 49h-59v39h43q69 0 109 44t40 105q0 59 -42.5 96.5t-108.5 37.5q-117 0 -193 -115l-22 12q36 78 108 129t162 51z" />
    <glyph glyph-name="acute" unicode="&#xb4;" horiz-adv-x="536" 
d="M434 1434l-289 -357h-43l150 336q43 28 96 33.5t86 -12.5z" />
    <glyph glyph-name="mu" unicode="&#xb5;" horiz-adv-x="1208" 
d="M285 43v709q0 35 -0.5 52t-2.5 40t-5.5 32.5t-11.5 22t-18.5 17t-27.5 9.5t-37.5 6t-50.5 1v41l315 10v-680q0 -103 40 -160t141 -57q59 0 125.5 31.5t119.5 75.5v559q0 44 -1 66.5t-7 47t-16 34t-30.5 19t-48 11.5t-71.5 2v41l336 10v-731q0 -35 0.5 -52t2.5 -40
t5.5 -32.5t11.5 -22t18.5 -17t27.5 -9.5t37.5 -6t50.5 -1v-41l-316 -51v165q-233 -222 -428 -157q-4 -89 -44.5 -172.5t-97 -140t-119.5 -90.5t-115 -34q-11 0 -21.5 1.5t-25 11t-18.5 26t5.5 50.5t38.5 81q2 -2 13 -11t17 -13t17 -12.5t19.5 -13t19.5 -9.5t21 -7.5t20 -2.5
q23 0 41.5 16.5t35 57t25.5 120.5t9 197z" />
    <glyph glyph-name="mu" unicode="&#x3bc;" horiz-adv-x="1208" 
d="M285 43v709q0 35 -0.5 52t-2.5 40t-5.5 32.5t-11.5 22t-18.5 17t-27.5 9.5t-37.5 6t-50.5 1v41l315 10v-680q0 -103 40 -160t141 -57q59 0 125.5 31.5t119.5 75.5v559q0 44 -1 66.5t-7 47t-16 34t-30.5 19t-48 11.5t-71.5 2v41l336 10v-731q0 -35 0.5 -52t2.5 -40
t5.5 -32.5t11.5 -22t18.5 -17t27.5 -9.5t37.5 -6t50.5 -1v-41l-316 -51v165q-233 -222 -428 -157q-4 -89 -44.5 -172.5t-97 -140t-119.5 -90.5t-115 -34q-11 0 -21.5 1.5t-25 11t-18.5 26t5.5 50.5t38.5 81q2 -2 13 -11t17 -13t17 -12.5t19.5 -13t19.5 -9.5t21 -7.5t20 -2.5
q23 0 41.5 16.5t35 57t25.5 120.5t9 197z" />
    <glyph glyph-name="paragraph" unicode="&#xb6;" horiz-adv-x="1257" 
d="M934 1286v-1067q0 -91 -39 -178t-96.5 -146t-123 -95t-118.5 -36q-7 0 -14 0.5t-18 4t-18 10t-12 19t-3 30t13 45t32 61.5q2 -2 13 -11t17 -13t17 -12.5t19.5 -13t19.5 -9.5t21 -7.5t20 -2.5q23 0 41 16.5t34 57t24.5 120.5t8.5 197v410h-147q-236 0 -348.5 94.5
t-112.5 290.5q0 195 112.5 289t348.5 94h469v-41q-55 0 -89 -7t-48.5 -23.5t-18.5 -32.5t-4 -44z" />
    <glyph glyph-name="periodcentered" unicode="&#xb7;" horiz-adv-x="638" 
d="M319 424q-81 59 -155 156q71 89 155 153q87 -66 156 -153q-62 -85 -156 -156z" />
    <glyph glyph-name="cedilla" unicode="&#xb8;" horiz-adv-x="550" 
d="M184 0h52l-3 -70q-1 -23 21.5 -37t54 -22.5t63.5 -19.5t54.5 -36.5t22.5 -66.5q0 -52 -54.5 -95.5t-132.5 -64.5t-151 -16l-9 49q35 0 67.5 4t69 13.5t58.5 31.5t22 54q0 38 -15.5 58.5t-37 28t-42.5 14.5t-34.5 26.5t-11.5 54.5z" />
    <glyph glyph-name="onesuperior" unicode="&#xb9;" horiz-adv-x="581" 
d="M477 983h-373v29q82 0 103.5 18t21.5 80v502q0 61 -21.5 78.5t-103.5 17.5v27l224 28h30v-653q0 -35 2 -50t14.5 -28t35.5 -16.5t67 -3.5v-29z" />
    <glyph glyph-name="ordmasculine" unicode="&#xba;" horiz-adv-x="772" 
d="M391 1454q127 0 203 -95t76 -237q0 -141 -80.5 -237.5t-208.5 -96.5t-203.5 95.5t-75.5 238.5q0 141 80.5 236.5t208.5 95.5zM385 827q174 0 174 295t-174 295q-172 0 -172 -295t172 -295z" />
    <glyph glyph-name="guillemotright" unicode="&#xbb;" horiz-adv-x="1019" 
d="M203 842l344 -336l-344 -338l-39 31l190 272q17 23 17 31.5t-17 34.5l-190 274zM512 842l344 -336l-344 -338l-39 31l191 272q17 23 17 31.5t-17 34.5l-191 274z" />
    <glyph glyph-name="onequarter" unicode="&#xbc;" horiz-adv-x="1562" 
d="M457 614h-348v23q85 0 106 19t21 89v539q0 63 -22 81.5t-105 18.5v25l200 29h25v-693q0 -32 1.5 -47t7 -29t20 -19t35.5 -8.5t59 -4.5v-23zM301 6l887 1469l67 -41l-886 -1469zM1421 213h-92v-82q0 -50 7 -70t32 -29t84 -9v-23h-348v23q84 0 105.5 19t21.5 89v82h-363v70
l406 540h55v-540h111zM922 283h309v411z" />
    <glyph glyph-name="onehalf" unicode="&#xbd;" horiz-adv-x="1665" 
d="M457 614h-348v23q85 0 106 19t21 89v539q0 63 -22 81.5t-105 18.5v25l200 29h25v-693q0 -32 1.5 -47t7 -29t20 -19t35.5 -8.5t59 -4.5v-23zM301 6l887 1469l67 -41l-886 -1469zM1038 0l-24 23q142 132 187 179q198 210 198 378q0 79 -46 125.5t-120 46.5
q-52 0 -103 -32.5t-81 -88.5l-23 10q34 87 107 137.5t155 50.5q104 0 160.5 -61.5t56.5 -161.5q0 -49 -24 -106t-53.5 -101t-82 -102t-81 -85t-82 -75t-54.5 -49h416l-20 -88h-486z" />
    <glyph glyph-name="threequarters" unicode="&#xbe;" horiz-adv-x="1662" 
d="M401 6l887 1469l68 -41l-887 -1469zM1522 213h-92v-82q0 -39 2.5 -56.5t15.5 -31.5t36 -17t68 -3v-23h-348v23q84 0 105.5 19t21.5 89v82h-362v70l405 540h56v-540h110zM1022 283h309v411zM383 1444q86 0 149.5 -52.5t63.5 -129.5q0 -74 -52 -134.5t-124 -80.5v-3
q101 -13 155 -71t54 -131q0 -109 -88.5 -174.5t-202.5 -65.5q-89 0 -153 41.5t-64 114.5q0 22 9.5 31.5t24.5 7.5t31 -9t33 -18q-17 -60 18 -96.5t101 -36.5q85 0 133.5 61.5t48.5 143.5q0 76 -41.5 129t-116.5 53h-63v35h47q66 0 109 46t43 114t-47.5 107.5t-112.5 39.5
q-40 0 -72.5 -10.5t-57 -33.5t-33.5 -34t-25 -36q-4 -5 -5 -7l-22 10q28 76 100.5 132.5t159.5 56.5z" />
    <glyph glyph-name="questiondown" unicode="&#xbf;" horiz-adv-x="1060" 
d="M575 -489q-106 0 -201 61.5t-152.5 168.5t-57.5 232q0 51 11.5 96t28 78t46 64t54.5 50.5t65 41.5t66 34t69 30q26 11 41 30.5t18.5 43t2.5 43.5t-4 41.5t-3 27.5h53l68 -336q-105 0 -201.5 -37t-158.5 -106.5t-62 -153.5q0 -54 23.5 -114.5t64 -113.5t101.5 -87.5
t128 -34.5q115 0 149.5 60t2.5 175q170 108 170 -41q0 -62 -21 -109t-53 -74t-77 -43.5t-85 -21.5t-86 -5zM586 985q81 -59 155 -156q-71 -89 -155 -153q-87 66 -156 153q62 85 156 156z" />
    <glyph glyph-name="Agrave" unicode="&#xc0;" horiz-adv-x="1515" 
d="M1075 229l-69 189h-578l-72 -189q-33 -96 2.5 -142t157.5 -46v-41h-496v41q110 0 156 37t92 151l482 1225h24l479 -1225q23 -59 41 -91t45 -56.5t63 -32.5t93 -8v-41h-563v41q127 0 155 42.5t-12 145.5zM719 1188l-266 -703h526zM799 1528l-289 356q32 18 85.5 13
t96.5 -33l150 -336h-43z" />
    <glyph glyph-name="Aacute" unicode="&#xc1;" horiz-adv-x="1515" 
d="M1075 229l-69 189h-578l-72 -189q-33 -96 2.5 -142t157.5 -46v-41h-496v41q110 0 156 37t92 151l482 1225h24l479 -1225q23 -59 41 -91t45 -56.5t63 -32.5t93 -8v-41h-563v41q127 0 155 42.5t-12 145.5zM719 1188l-266 -703h526zM1022 1884l-289 -356h-43l150 336
q43 28 96.5 33t85.5 -13z" />
    <glyph glyph-name="Acircumflex" unicode="&#xc2;" horiz-adv-x="1515" 
d="M1075 229l-69 189h-578l-72 -189q-33 -96 2.5 -142t157.5 -46v-41h-496v41q110 0 156 37t92 151l482 1225h24l479 -1225q23 -59 41 -91t45 -56.5t63 -32.5t93 -8v-41h-563v41q127 0 155 42.5t-12 145.5zM719 1188l-266 -703h526zM1067 1528h-51l-260 213l-258 -213h-49
l251 342h111z" />
    <glyph glyph-name="Atilde" unicode="&#xc3;" horiz-adv-x="1515" 
d="M1075 229l-69 189h-578l-72 -189q-33 -96 2.5 -142t157.5 -46v-41h-496v41q110 0 156 37t92 151l482 1225h24l479 -1225q23 -59 41 -91t45 -56.5t63 -32.5t93 -8v-41h-563v41q127 0 155 42.5t-12 145.5zM719 1188l-266 -703h526zM461 1591l-33 23q10 19 26 41.5
t42.5 52.5t61 49t69.5 19q58 0 161 -33t154 -33q64 0 113 68l32 -23q-11 -20 -26.5 -42t-41.5 -52t-60.5 -49t-69.5 -19q-58 0 -161.5 33t-154.5 33q-63 0 -112 -68z" />
    <glyph glyph-name="Adieresis" unicode="&#xc4;" horiz-adv-x="1515" 
d="M1075 229l-69 189h-578l-72 -189q-33 -96 2.5 -142t157.5 -46v-41h-496v41q110 0 156 37t92 151l482 1225h24l479 -1225q23 -59 41 -91t45 -56.5t63 -32.5t93 -8v-41h-563v41q127 0 155 42.5t-12 145.5zM719 1188l-266 -703h526zM567 1561q-60 42 -112 112q52 68 112 111
q62 -45 113 -111q-42 -61 -113 -112zM946 1561q-60 42 -112 112q52 68 112 111q62 -45 113 -111q-42 -61 -113 -112z" />
    <glyph glyph-name="Aring" unicode="&#xc5;" horiz-adv-x="1515" 
d="M551 1585q0 86 60.5 146.5t146.5 60.5t146.5 -60.5t60.5 -146.5q0 -74 -46.5 -131t-117.5 -72l452 -1153q23 -59 41 -91t45 -56.5t63 -32.5t93 -8v-41h-563v41q127 0 155 42.5t-12 145.5l-69 189h-578l-72 -189q-33 -96 2.5 -142t157.5 -46v-41h-496v41q110 0 156 37
t92 151l453 1151q-74 14 -122 71.5t-48 133.5zM719 1188l-266 -703h526zM633 1585q0 -53 36.5 -89t88.5 -36q51 0 88 36.5t37 88.5q0 51 -37 88t-88 37q-52 0 -88.5 -37t-36.5 -88z" />
    <glyph glyph-name="AE" unicode="&#xc6;" horiz-adv-x="1904" 
d="M1741 1434l10 -293h-41q-6 43 -12.5 73t-17 54.5t-19.5 40t-28 27t-34.5 17t-47 9t-57 4t-73.5 0.5h-340v-582h293q41 0 66 2t46 9.5t31.5 18.5t17.5 33t9 48.5t2 69.5h41v-435h-41q0 44 -2 71.5t-9 50.5t-17.5 34t-31.5 19t-46 10t-66 2h-293v-475q0 -93 40.5 -132.5
t146.5 -39.5h254q60 0 97 8t72 34t56.5 78t34.5 136h41l-21 -326h-684q-41 0 -73 7t-53 17.5t-36.5 28.5t-23.5 35.5t-12.5 43.5t-5.5 46.5t-1 50.5v189h-467l-96 -189q-19 -39 -28.5 -62t-13.5 -49.5t7.5 -41t40.5 -24t78 -9.5v-43h-414v43q55 0 90.5 9t62.5 35t43.5 52
t44.5 80q3 7 5 10l621 1205h854zM481 485h432v848z" />
    <glyph glyph-name="Ccedilla" unicode="&#xc7;" horiz-adv-x="1376" 
d="M102 717q0 153 39 277.5t106 209t158.5 141.5t193.5 83t214 26q267 0 487 -160l5 -354h-41q0 103 -28.5 183t-72.5 127.5t-104 78.5t-116 42t-116 11q-240 0 -390 -184t-150 -481t150 -481.5t390 -184.5q59 0 115.5 11t116.5 42t104 79t72.5 128t28.5 183h41l-5 -355
q-209 -153 -471 -159v-50q-1 -23 21 -37t54 -22.5t63.5 -19.5t54 -36.5t22.5 -66.5q0 -52 -54 -95.5t-132 -64.5t-151 -16l-9 49q35 0 67.5 4t69 13.5t58.5 31.5t22 54q0 38 -15.5 58.5t-37 28t-42.5 14.5t-34.5 26.5t-11.5 54.5l4 74q-108 4 -205.5 32t-184.5 86.5
t-150 142.5t-99.5 206t-36.5 270z" />
    <glyph glyph-name="Egrave" unicode="&#xc8;" horiz-adv-x="1273" 
d="M82 0v41q68 0 107.5 8t60.5 32.5t27 56.5t6 91v975q0 40 -1.5 61.5t-7.5 47t-18.5 37.5t-35 23.5t-56 15.5t-82.5 4v41h1028l10 -293h-41q-6 43 -12.5 73t-17 54.5t-19 40t-27.5 27t-34.5 17t-47 9t-57 4t-73.5 0.5h-340v-582h292q41 0 66 2t46 9.5t31.5 18.5t17.5 33
t9 48.5t2 69.5h41v-435h-41q0 44 -2 71.5t-9 50.5t-17.5 34t-31.5 19t-46 10t-66 2h-292v-475q0 -93 40 -132.5t146 -39.5h254q60 0 97 8t72 34t56.5 78t34.5 136h41l-21 -326h-1089zM760 1528l-289 356q32 18 85.5 13t96.5 -33l150 -336h-43z" />
    <glyph glyph-name="Eacute" unicode="&#xc9;" horiz-adv-x="1273" 
d="M82 0v41q68 0 107.5 8t60.5 32.5t27 56.5t6 91v975q0 40 -1.5 61.5t-7.5 47t-18.5 37.5t-35 23.5t-56 15.5t-82.5 4v41h1028l10 -293h-41q-6 43 -12.5 73t-17 54.5t-19 40t-27.5 27t-34.5 17t-47 9t-57 4t-73.5 0.5h-340v-582h292q41 0 66 2t46 9.5t31.5 18.5t17.5 33
t9 48.5t2 69.5h41v-435h-41q0 44 -2 71.5t-9 50.5t-17.5 34t-31.5 19t-46 10t-66 2h-292v-475q0 -93 40 -132.5t146 -39.5h254q60 0 97 8t72 34t56.5 78t34.5 136h41l-21 -326h-1089zM803 1884l-289 -356h-43l150 336q43 28 96.5 33t85.5 -13z" />
    <glyph glyph-name="Ecircumflex" unicode="&#xca;" horiz-adv-x="1273" 
d="M82 0v41q68 0 107.5 8t60.5 32.5t27 56.5t6 91v975q0 40 -1.5 61.5t-7.5 47t-18.5 37.5t-35 23.5t-56 15.5t-82.5 4v41h1028l10 -293h-41q-6 43 -12.5 73t-17 54.5t-19 40t-27.5 27t-34.5 17t-47 9t-57 4t-73.5 0.5h-340v-582h292q41 0 66 2t46 9.5t31.5 18.5t17.5 33
t9 48.5t2 69.5h41v-435h-41q0 44 -2 71.5t-9 50.5t-17.5 34t-31.5 19t-46 10t-66 2h-292v-475q0 -93 40 -132.5t146 -39.5h254q60 0 97 8t72 34t56.5 78t34.5 136h41l-21 -326h-1089zM946 1528h-51l-260 213l-258 -213h-49l252 342h110z" />
    <glyph glyph-name="Edieresis" unicode="&#xcb;" horiz-adv-x="1273" 
d="M82 0v41q68 0 107.5 8t60.5 32.5t27 56.5t6 91v975q0 40 -1.5 61.5t-7.5 47t-18.5 37.5t-35 23.5t-56 15.5t-82.5 4v41h1028l10 -293h-41q-6 43 -12.5 73t-17 54.5t-19 40t-27.5 27t-34.5 17t-47 9t-57 4t-73.5 0.5h-340v-582h292q41 0 66 2t46 9.5t31.5 18.5t17.5 33
t9 48.5t2 69.5h41v-435h-41q0 44 -2 71.5t-9 50.5t-17.5 34t-31.5 19t-46 10t-66 2h-292v-475q0 -93 40 -132.5t146 -39.5h254q60 0 97 8t72 34t56.5 78t34.5 136h41l-21 -326h-1089zM446 1561q-60 42 -112 112q52 68 112 111q62 -45 113 -111q-42 -61 -113 -112zM825 1561
q-60 42 -112 112q52 68 112 111q62 -45 113 -111q-42 -61 -113 -112z" />
    <glyph glyph-name="Igrave" unicode="&#xcc;" horiz-adv-x="733" 
d="M651 0h-569v41q68 0 107.5 8t60.5 32.5t27 56.5t6 91v975q0 40 -1.5 61.5t-7.5 47t-18.5 37.5t-35 23.5t-56 15.5t-82.5 4v41h569v-41q-49 0 -82.5 -4t-56 -15.5t-34.5 -23.5t-18 -37.5t-7.5 -46.5t-1.5 -62v-975q0 -40 2 -65t9.5 -48t20.5 -35.5t36 -22.5t54.5 -13.5
t77.5 -3.5v-41zM489 1528l-288 356q32 18 85.5 13t96.5 -33l149 -336h-43z" />
    <glyph glyph-name="Iacute" unicode="&#xcd;" horiz-adv-x="733" 
d="M651 0h-569v41q68 0 107.5 8t60.5 32.5t27 56.5t6 91v975q0 40 -1.5 61.5t-7.5 47t-18.5 37.5t-35 23.5t-56 15.5t-82.5 4v41h569v-41q-49 0 -82.5 -4t-56 -15.5t-34.5 -23.5t-18 -37.5t-7.5 -46.5t-1.5 -62v-975q0 -40 2 -65t9.5 -48t20.5 -35.5t36 -22.5t54.5 -13.5
t77.5 -3.5v-41zM532 1884l-288 -356h-43l149 336q43 28 96.5 33t85.5 -13z" />
    <glyph glyph-name="Icircumflex" unicode="&#xce;" horiz-adv-x="733" 
d="M651 0h-569v41q68 0 107.5 8t60.5 32.5t27 56.5t6 91v975q0 40 -1.5 61.5t-7.5 47t-18.5 37.5t-35 23.5t-56 15.5t-82.5 4v41h569v-41q-49 0 -82.5 -4t-56 -15.5t-34.5 -23.5t-18 -37.5t-7.5 -46.5t-1.5 -62v-975q0 -40 2 -65t9.5 -48t20.5 -35.5t36 -22.5t54.5 -13.5
t77.5 -3.5v-41zM676 1528h-51l-260 213l-259 -213h-49l252 342h111z" />
    <glyph glyph-name="Idieresis" unicode="&#xcf;" horiz-adv-x="733" 
d="M651 0h-569v41q68 0 107.5 8t60.5 32.5t27 56.5t6 91v975q0 40 -1.5 61.5t-7.5 47t-18.5 37.5t-35 23.5t-56 15.5t-82.5 4v41h569v-41q-49 0 -82.5 -4t-56 -15.5t-34.5 -23.5t-18 -37.5t-7.5 -46.5t-1.5 -62v-975q0 -40 2 -65t9.5 -48t20.5 -35.5t36 -22.5t54.5 -13.5
t77.5 -3.5v-41zM178 1561q-60 42 -112 112q52 68 112 111q62 -45 113 -111q-42 -61 -113 -112zM557 1561q-62 43 -113 112q51 66 113 111q62 -45 113 -111q-42 -61 -113 -112z" />
    <glyph glyph-name="Eth" unicode="&#xd0;" horiz-adv-x="1609" 
d="M82 682v68h201v454q0 61 -6 93.5t-27.5 56.5t-60 31.5t-107.5 7.5v41h539q67 0 107.5 -1t119 -7.5t131.5 -18.5t128 -37t126 -59.5t107 -90t89.5 -124.5t55.5 -166t22 -213q0 -147 -40.5 -264.5t-99 -191t-148.5 -126.5t-163 -78t-171 -39t-144 -16t-108 -2h-551v41
q71 0 111.5 9t60.5 35t24.5 55.5t4.5 88.5v453h-201zM637 68q55 0 87 0.5t94.5 6.5t103 17t98.5 33.5t96 54t81 81t68 112.5t41.5 151t16.5 193q0 104 -20 191.5t-51.5 149.5t-80 112t-94.5 81.5t-106.5 54.5t-105 33.5t-100.5 16.5t-82.5 7t-61.5 1h-170v-614h245v-68h-245
v-440q0 -85 42 -129.5t144 -44.5z" />
    <glyph glyph-name="Ntilde" unicode="&#xd1;" horiz-adv-x="1759" 
d="M1427 305v899q0 113 -42 151t-160 38v41h473v-41q-108 0 -148.5 -42t-40.5 -147v-1214h-34l-1074 1196v-957q0 -63 8 -97t35.5 -56t71 -28.5t123.5 -6.5v-41h-522v41q66 0 102.5 6.5t61.5 28t33 56.5t8 97v975q0 108 -51 148.5t-189 40.5v41h348zM582 1591l-33 23
q10 19 26 41.5t42.5 52.5t61 49t69.5 19q58 0 161 -33t154 -33q64 0 113 68l32 -23q-11 -20 -26.5 -42t-41.5 -52t-60.5 -49t-69.5 -19q-58 0 -161.5 33t-154.5 33q-63 0 -112 -68z" />
    <glyph glyph-name="Ograve" unicode="&#xd2;" horiz-adv-x="1644" 
d="M823 -20q-154 0 -288.5 57.5t-229 155.5t-149 234.5t-54.5 289.5t54.5 289.5t149 234.5t229 155.5t288.5 57.5q123 0 235 -36.5t199 -104t151.5 -158t99 -203t34.5 -235.5t-34.5 -235.5t-99 -203t-151.5 -158t-199 -104t-235 -36.5zM823 51q146 0 269.5 89.5t194.5 242.5
t71 334q0 135 -42 258t-113.5 212.5t-171 142t-208.5 52.5q-146 0 -269.5 -89t-195 -242t-71.5 -334t71.5 -334t195 -242.5t269.5 -89.5zM944 1528l-289 356q32 18 86 13t97 -33l149 -336h-43z" />
    <glyph glyph-name="Oacute" unicode="&#xd3;" horiz-adv-x="1644" 
d="M823 -20q-154 0 -288.5 57.5t-229 155.5t-149 234.5t-54.5 289.5t54.5 289.5t149 234.5t229 155.5t288.5 57.5q123 0 235 -36.5t199 -104t151.5 -158t99 -203t34.5 -235.5t-34.5 -235.5t-99 -203t-151.5 -158t-199 -104t-235 -36.5zM823 51q146 0 269.5 89.5t194.5 242.5
t71 334q0 135 -42 258t-113.5 212.5t-171 142t-208.5 52.5q-146 0 -269.5 -89t-195 -242t-71.5 -334t71.5 -334t195 -242.5t269.5 -89.5zM987 1884l-289 -356h-43l150 336q43 28 96.5 33t85.5 -13z" />
    <glyph glyph-name="Ocircumflex" unicode="&#xd4;" horiz-adv-x="1644" 
d="M823 -20q-154 0 -288.5 57.5t-229 155.5t-149 234.5t-54.5 289.5t54.5 289.5t149 234.5t229 155.5t288.5 57.5q123 0 235 -36.5t199 -104t151.5 -158t99 -203t34.5 -235.5t-34.5 -235.5t-99 -203t-151.5 -158t-199 -104t-235 -36.5zM823 51q146 0 269.5 89.5t194.5 242.5
t71 334q0 135 -42 258t-113.5 212.5t-171 142t-208.5 52.5q-146 0 -269.5 -89t-195 -242t-71.5 -334t71.5 -334t195 -242.5t269.5 -89.5zM1130 1528h-51l-260 213l-258 -213h-49l252 342h110z" />
    <glyph glyph-name="Otilde" unicode="&#xd5;" horiz-adv-x="1644" 
d="M823 -20q-154 0 -288.5 57.5t-229 155.5t-149 234.5t-54.5 289.5t54.5 289.5t149 234.5t229 155.5t288.5 57.5q123 0 235 -36.5t199 -104t151.5 -158t99 -203t34.5 -235.5t-34.5 -235.5t-99 -203t-151.5 -158t-199 -104t-235 -36.5zM823 51q146 0 269.5 89.5t194.5 242.5
t71 334q0 135 -42 258t-113.5 212.5t-171 142t-208.5 52.5q-146 0 -269.5 -89t-195 -242t-71.5 -334t71.5 -334t195 -242.5t269.5 -89.5zM524 1591l-32 23q11 20 26.5 42t41.5 52t60.5 49t69.5 19q58 0 161.5 -33t154.5 -33q63 0 112 68l33 -23q-10 -19 -26 -41.5
t-42.5 -52.5t-61 -49t-69.5 -19q-58 0 -161 33t-154 33q-64 0 -113 -68z" />
    <glyph glyph-name="Odieresis" unicode="&#xd6;" horiz-adv-x="1644" 
d="M823 -20q-154 0 -288.5 57.5t-229 155.5t-149 234.5t-54.5 289.5t54.5 289.5t149 234.5t229 155.5t288.5 57.5q123 0 235 -36.5t199 -104t151.5 -158t99 -203t34.5 -235.5t-34.5 -235.5t-99 -203t-151.5 -158t-199 -104t-235 -36.5zM823 51q146 0 269.5 89.5t194.5 242.5
t71 334q0 135 -42 258t-113.5 212.5t-171 142t-208.5 52.5q-146 0 -269.5 -89t-195 -242t-71.5 -334t71.5 -334t195 -242.5t269.5 -89.5zM633 1561q-62 43 -113 112q51 66 113 111q60 -43 112 -111q-43 -62 -112 -112zM1012 1561q-62 43 -113 112q51 66 113 111
q60 -43 112 -111q-43 -62 -112 -112z" />
    <glyph glyph-name="multiply" unicode="&#xd7;" horiz-adv-x="1028" 
d="M514 739l277 277l71 -74l-276 -276l278 -277l-71 -74l-279 279l-278 -279l-72 74l276 277l-276 278l72 72z" />
    <glyph glyph-name="Oslash" unicode="&#xd8;" horiz-adv-x="1644" 
d="M227 -43l-53 43l148 176q-104 101 -162 241t-58 300q0 153 54.5 289.5t149 234.5t229 155.5t288.5 57.5q253 0 447 -151l145 174l53 -43l-147 -177q105 -101 163 -240.5t58 -299.5q0 -123 -34.5 -235.5t-99 -203t-151.5 -158t-199 -104t-235 -36.5q-254 0 -448 151z
M287 717q0 -246 127 -432l772 919q-72 85 -165.5 131.5t-197.5 46.5q-146 0 -269.5 -89t-195 -242t-71.5 -334zM823 51q146 0 269.5 89.5t194.5 242.5t71 334q0 243 -129 432l-772 -920q154 -178 366 -178z" />
    <glyph glyph-name="Ugrave" unicode="&#xd9;" horiz-adv-x="1560" 
d="M1337 1204v-686q0 -78 -10 -143t-33 -127.5t-64 -109.5t-100 -83.5t-144 -55.5t-193 -19q-119 0 -212.5 29t-154.5 79.5t-100.5 122.5t-56.5 152.5t-17 175.5v665q0 45 -3.5 71.5t-15 52t-34.5 38t-61.5 20t-96.5 7.5v41h571v-41q-47 0 -79.5 -4t-54 -16t-33 -24
t-17.5 -38t-7 -46.5t-1 -60.5v-596q0 -290 107.5 -420.5t310.5 -130.5q195 0 306 109t111 346v692q0 54 -7.5 86t-31 57.5t-68.5 35.5t-118 10v41h490v-41q-60 0 -96 -10t-55.5 -35t-25.5 -57t-6 -87zM903 1528l-289 356q32 18 86 13t97 -33l149 -336h-43z" />
    <glyph glyph-name="Uacute" unicode="&#xda;" horiz-adv-x="1560" 
d="M1337 1204v-686q0 -78 -10 -143t-33 -127.5t-64 -109.5t-100 -83.5t-144 -55.5t-193 -19q-119 0 -212.5 29t-154.5 79.5t-100.5 122.5t-56.5 152.5t-17 175.5v665q0 45 -3.5 71.5t-15 52t-34.5 38t-61.5 20t-96.5 7.5v41h571v-41q-47 0 -79.5 -4t-54 -16t-33 -24
t-17.5 -38t-7 -46.5t-1 -60.5v-596q0 -290 107.5 -420.5t310.5 -130.5q195 0 306 109t111 346v692q0 54 -7.5 86t-31 57.5t-68.5 35.5t-118 10v41h490v-41q-60 0 -96 -10t-55.5 -35t-25.5 -57t-6 -87zM946 1884l-289 -356h-43l150 336q43 28 96.5 33t85.5 -13z" />
    <glyph glyph-name="Ucircumflex" unicode="&#xdb;" horiz-adv-x="1560" 
d="M1337 1204v-686q0 -78 -10 -143t-33 -127.5t-64 -109.5t-100 -83.5t-144 -55.5t-193 -19q-119 0 -212.5 29t-154.5 79.5t-100.5 122.5t-56.5 152.5t-17 175.5v665q0 45 -3.5 71.5t-15 52t-34.5 38t-61.5 20t-96.5 7.5v41h571v-41q-47 0 -79.5 -4t-54 -16t-33 -24
t-17.5 -38t-7 -46.5t-1 -60.5v-596q0 -290 107.5 -420.5t310.5 -130.5q195 0 306 109t111 346v692q0 54 -7.5 86t-31 57.5t-68.5 35.5t-118 10v41h490v-41q-60 0 -96 -10t-55.5 -35t-25.5 -57t-6 -87zM1090 1528h-52l-260 213l-258 -213h-49l252 342h111z" />
    <glyph glyph-name="Udieresis" unicode="&#xdc;" horiz-adv-x="1560" 
d="M1337 1204v-686q0 -78 -10 -143t-33 -127.5t-64 -109.5t-100 -83.5t-144 -55.5t-193 -19q-119 0 -212.5 29t-154.5 79.5t-100.5 122.5t-56.5 152.5t-17 175.5v665q0 45 -3.5 71.5t-15 52t-34.5 38t-61.5 20t-96.5 7.5v41h571v-41q-47 0 -79.5 -4t-54 -16t-33 -24
t-17.5 -38t-7 -46.5t-1 -60.5v-596q0 -290 107.5 -420.5t310.5 -130.5q195 0 306 109t111 346v692q0 54 -7.5 86t-31 57.5t-68.5 35.5t-118 10v41h490v-41q-60 0 -96 -10t-55.5 -35t-25.5 -57t-6 -87zM651 1561q-60 42 -112 112q52 68 112 111q62 -45 113 -111
q-42 -61 -113 -112zM1030 1561q-60 42 -112 112q52 68 112 111q62 -45 113 -111q-42 -61 -113 -112z" />
    <glyph glyph-name="Yacute" unicode="&#xdd;" 
d="M440 1231l295 -533l293 543q11 21 18 39t6.5 39.5t-12.5 37t-43.5 26t-81.5 10.5v41h453v-41q-97 0 -153 -39.5t-111 -136.5l-328 -603v-385q0 -117 49 -152.5t193 -35.5v-41h-651v41q72 0 114.5 7t73 27.5t42 56.5t11.5 97v385l-364 631q-45 79 -64 100q-42 43 -130 47
q-14 1 -30 1v41h527v-41q-108 0 -132 -36.5t25 -125.5zM860 1884l-289 -356h-43l150 336q43 28 96.5 33t85.5 -13z" />
    <glyph glyph-name="Thorn" unicode="&#xde;" horiz-adv-x="1234" 
d="M451 1118v-803h120q53 0 102 7t109.5 32.5t103.5 67t73 117.5t30 178q0 74 -15.5 134.5t-40.5 101t-61.5 71.5t-73 48.5t-79.5 28t-77.5 14t-70.5 3.5h-120zM283 229v975q0 59 -6 91.5t-27 56.5t-60.5 32.5t-107.5 8.5v41h610v-41q-64 0 -106 -6t-69.5 -18t-41.5 -36
t-19 -53t-5 -76v-37h120q283 0 443 -118t160 -332t-160 -332.5t-443 -118.5h-120v-37q0 -47 5 -76t19 -52.5t41.5 -35.5t69.5 -18t106 -6v-41h-610v41q68 0 107.5 8t60.5 32.5t27 56.5t6 91z" />
    <glyph glyph-name="germandbls" unicode="&#xdf;" horiz-adv-x="1282" 
d="M612 1475q81 0 127 -29.5t55.5 -78.5t2 -108t-31 -124t-46.5 -120.5t-41.5 -102t-18.5 -64.5q0 -37 30 -76.5t77.5 -77t105.5 -77t115.5 -82t105 -86t77.5 -95.5t30 -104q0 -72 -34.5 -126.5t-90 -84.5t-115.5 -44.5t-120 -14.5q-81 0 -160 23.5t-127 64.5l10 225h41
q14 -135 79.5 -194.5t178.5 -59.5q75 0 125.5 47.5t50.5 101.5q0 51 -26.5 98t-68.5 83.5t-93.5 72t-102.5 70.5t-93 70.5t-68.5 79.5t-26.5 92q0 45 28 102.5t58.5 107.5t52 105.5t8 116t-72.5 119.5q-69 69 -127 69q-23 0 -41 -16.5t-34.5 -57t-25 -120.5t-8.5 -197v-762
q0 -121 11.5 -150.5t68.5 -29.5v-41h-416v41q60 0 92.5 6t52.5 27.5t25 53.5t5 93v694h-154v68h154v37q0 92 36 178.5t91.5 146t121.5 95t127 35.5z" />
    <glyph glyph-name="agrave" unicode="&#xe0;" horiz-adv-x="929" 
d="M889 57l20 -37q-87 -40 -161 -40q-111 0 -148 118q-154 -118 -291 -118q-98 0 -162.5 73t-64.5 193q0 35 17.5 63t44 46.5t69.5 33t80 22.5t91.5 14t88.5 8t84 5q27 1 39 2v326q0 87 -32.5 133.5t-108.5 46.5q-49 0 -88 -16t-60 -41t-34 -56t-11.5 -61.5t8.5 -56.5
q-34 -21 -61 -32t-44 -13.5t-29 3t-17.5 11.5t-8.5 18t-3.5 17t-0.5 14q0 67 67 131.5t162.5 102t180.5 37.5q64 0 110.5 -14t72 -34t40 -50t18 -55t3.5 -56v-648q0 -17 2 -31.5t9.5 -33.5t21.5 -26.5t37.5 -11t58.5 12.5zM248 227q12 -170 114 -170q56 0 122 25.5t112 67.5
v245q-174 -14 -214 -23q-97 -19 -122 -78q-12 -28 -12 -67zM588 1077l-289 357q33 18 86 12.5t96 -33.5l150 -336h-43z" />
    <glyph glyph-name="aacute" unicode="&#xe1;" horiz-adv-x="929" 
d="M889 57l20 -37q-87 -40 -161 -40q-111 0 -148 118q-154 -118 -291 -118q-98 0 -162.5 73t-64.5 193q0 35 17.5 63t44 46.5t69.5 33t80 22.5t91.5 14t88.5 8t84 5q27 1 39 2v326q0 87 -32.5 133.5t-108.5 46.5q-49 0 -88 -16t-60 -41t-34 -56t-11.5 -61.5t8.5 -56.5
q-34 -21 -61 -32t-44 -13.5t-29 3t-17.5 11.5t-8.5 18t-3.5 17t-0.5 14q0 67 67 131.5t162.5 102t180.5 37.5q64 0 110.5 -14t72 -34t40 -50t18 -55t3.5 -56v-648q0 -17 2 -31.5t9.5 -33.5t21.5 -26.5t37.5 -11t58.5 12.5zM248 227q12 -170 114 -170q56 0 122 25.5t112 67.5
v245q-174 -14 -214 -23q-97 -19 -122 -78q-12 -28 -12 -67zM631 1434l-289 -357h-43l150 336q43 28 96 33.5t86 -12.5z" />
    <glyph glyph-name="acircumflex" unicode="&#xe2;" horiz-adv-x="929" 
d="M889 57l20 -37q-87 -40 -161 -40q-111 0 -148 118q-154 -118 -291 -118q-98 0 -162.5 73t-64.5 193q0 35 17.5 63t44 46.5t69.5 33t80 22.5t91.5 14t88.5 8t84 5q27 1 39 2v326q0 87 -32.5 133.5t-108.5 46.5q-49 0 -88 -16t-60 -41t-34 -56t-11.5 -61.5t8.5 -56.5
q-34 -21 -61 -32t-44 -13.5t-29 3t-17.5 11.5t-8.5 18t-3.5 17t-0.5 14q0 67 67 131.5t162.5 102t180.5 37.5q64 0 110.5 -14t72 -34t40 -50t18 -55t3.5 -56v-648q0 -17 2 -31.5t9.5 -33.5t21.5 -26.5t37.5 -11t58.5 12.5zM248 227q12 -170 114 -170q56 0 122 25.5t112 67.5
v245q-174 -14 -214 -23q-97 -19 -122 -78q-12 -28 -12 -67zM774 1077h-51l-260 213l-258 -213h-49l252 342h110z" />
    <glyph glyph-name="atilde" unicode="&#xe3;" horiz-adv-x="929" 
d="M889 57l20 -37q-87 -40 -161 -40q-111 0 -148 118q-154 -118 -291 -118q-98 0 -162.5 73t-64.5 193q0 35 17.5 63t44 46.5t69.5 33t80 22.5t91.5 14t88.5 8t84 5q27 1 39 2v326q0 87 -32.5 133.5t-108.5 46.5q-49 0 -88 -16t-60 -41t-34 -56t-11.5 -61.5t8.5 -56.5
q-34 -21 -61 -32t-44 -13.5t-29 3t-17.5 11.5t-8.5 18t-3.5 17t-0.5 14q0 67 67 131.5t162.5 102t180.5 37.5q64 0 110.5 -14t72 -34t40 -50t18 -55t3.5 -56v-648q0 -17 2 -31.5t9.5 -33.5t21.5 -26.5t37.5 -11t58.5 12.5zM248 227q12 -170 114 -170q56 0 122 25.5t112 67.5
v245q-174 -14 -214 -23q-97 -19 -122 -78q-12 -28 -12 -67zM168 1141l-33 22q10 19 26 41.5t42.5 52.5t61 49t69.5 19q58 0 161 -32.5t154 -32.5q65 0 113 67l33 -22q-10 -19 -26 -41.5t-42.5 -52.5t-61 -49t-69.5 -19q-58 0 -161 32.5t-154 32.5q-65 0 -113 -67z" />
    <glyph glyph-name="adieresis" unicode="&#xe4;" horiz-adv-x="929" 
d="M889 57l20 -37q-87 -40 -161 -40q-111 0 -148 118q-154 -118 -291 -118q-98 0 -162.5 73t-64.5 193q0 35 17.5 63t44 46.5t69.5 33t80 22.5t91.5 14t88.5 8t84 5q27 1 39 2v326q0 87 -32.5 133.5t-108.5 46.5q-49 0 -88 -16t-60 -41t-34 -56t-11.5 -61.5t8.5 -56.5
q-34 -21 -61 -32t-44 -13.5t-29 3t-17.5 11.5t-8.5 18t-3.5 17t-0.5 14q0 67 67 131.5t162.5 102t180.5 37.5q64 0 110.5 -14t72 -34t40 -50t18 -55t3.5 -56v-648q0 -17 2 -31.5t9.5 -33.5t21.5 -26.5t37.5 -11t58.5 12.5zM248 227q12 -170 114 -170q56 0 122 25.5t112 67.5
v245q-174 -14 -214 -23q-97 -19 -122 -78q-12 -28 -12 -67zM274 1110q-59 41 -112 113q50 65 112 110q64 -46 113 -110q-43 -63 -113 -113zM653 1110q-59 41 -112 113q50 65 112 110q64 -46 113 -110q-43 -63 -113 -113z" />
    <glyph glyph-name="aring" unicode="&#xe5;" horiz-adv-x="929" 
d="M889 57l20 -37q-87 -40 -161 -40q-111 0 -148 118q-154 -118 -291 -118q-98 0 -162.5 73t-64.5 193q0 35 17.5 63t44 46.5t69.5 33t80 22.5t91.5 14t88.5 8t84 5q27 1 39 2v326q0 87 -32.5 133.5t-108.5 46.5q-49 0 -88 -16t-60 -41t-34 -56t-11.5 -61.5t8.5 -56.5
q-34 -21 -61 -32t-44 -13.5t-29 3t-17.5 11.5t-8.5 18t-3.5 17t-0.5 14q0 67 67 131.5t162.5 102t180.5 37.5q64 0 110.5 -14t72 -34t40 -50t18 -55t3.5 -56v-648q0 -17 2 -31.5t9.5 -33.5t21.5 -26.5t37.5 -11t58.5 12.5zM248 227q12 -170 114 -170q56 0 122 25.5t112 67.5
v245q-174 -14 -214 -23q-97 -19 -122 -78q-12 -28 -12 -67zM258 1276q0 86 60.5 146.5t146.5 60.5t146.5 -60.5t60.5 -146.5t-60.5 -146.5t-146.5 -60.5t-146.5 60.5t-60.5 146.5zM340 1276q0 -52 36 -88.5t89 -36.5q51 0 88 36.5t37 88.5q0 51 -37 88t-88 37
q-52 0 -88.5 -37t-36.5 -88z" />
    <glyph glyph-name="ae" unicode="&#xe6;" horiz-adv-x="1449" 
d="M1044 1004q42 0 83.5 -9t84.5 -29.5t75.5 -52.5t55 -78.5t23.5 -108t-18 -140.5l-588 -33q-7 -108 13 -195.5t60 -144.5t97 -90t123.5 -37t141 19t146.5 73l21 -37q-130 -115 -265.5 -147.5t-244 15t-176.5 159.5q-80 -87 -181 -137.5t-186 -50.5q-98 0 -162.5 73
t-64.5 193q0 135 262 173q70 10 254 19q-2 18 -2 328q0 87 -32.5 133.5t-108.5 46.5q-49 0 -88 -16t-60 -41t-34 -56t-11.5 -61.5t8.5 -56.5q-34 -21 -61 -32t-44 -13.5t-29 3t-17.5 11.5t-8.5 18t-3.5 17t-0.5 14q0 67 67 131.5t162.5 102t180.5 37.5q193 0 232 -123
q129 123 296 123zM1044 944q-127 0 -202.5 -100t-77.5 -232l414 23q19 64 23 117t-8 97.5t-50 69.5t-99 25zM362 57q66 0 149 38.5t144 111.5q-40 78 -55 188q-55 -3 -87.5 -5t-75.5 -7t-67 -12t-50.5 -19t-40 -29t-22.5 -41t-9 -55q12 -170 114 -170z" />
    <glyph glyph-name="ccedilla" unicode="&#xe7;" horiz-adv-x="933" 
d="M530 1004q46 0 86 -5.5t85 -22t77 -43t53 -74t21 -109.5q0 -149 -170 -41q32 115 -2.5 175t-149.5 60q-76 0 -134.5 -46.5t-90 -118.5t-46.5 -144t-15 -137q0 -116 33.5 -204.5t91 -137t131.5 -65t159 6t168 80.5l21 -37q-165 -146 -336 -159v-52q-1 -23 21 -37t54 -22.5
t63.5 -19.5t54 -36.5t22.5 -66.5q0 -52 -54.5 -95.5t-132.5 -64.5t-151 -16l-8 49q35 0 67.5 4t69 13.5t58.5 31.5t22 54q0 38 -15.5 58.5t-37 28t-42.5 14.5t-34.5 26.5t-11.5 54.5l4 76q-165 9 -272 147t-107 363q0 118 39 217t103 162t143.5 98t162.5 35z" />
    <glyph glyph-name="egrave" unicode="&#xe8;" horiz-adv-x="935" 
d="M530 1004q42 0 83.5 -9t84.5 -29.5t75.5 -52.5t55 -78.5t23.5 -108t-18 -140.5l-588 -33q-7 -108 13 -195.5t60 -144.5t97 -90t123.5 -37t141 19t146.5 73l21 -37q-90 -80 -184 -120.5t-177.5 -40.5t-158.5 35.5t-129 100.5t-85.5 162t-31.5 214q0 118 39 217t103 162
t143.5 98t162.5 35zM530 944q-127 0 -202.5 -100t-77.5 -232l414 23q19 64 23 117t-8 97.5t-50 69.5t-99 25zM590 1077l-289 357q33 18 86 12.5t96 -33.5l150 -336h-43z" />
    <glyph glyph-name="eacute" unicode="&#xe9;" horiz-adv-x="935" 
d="M530 1004q42 0 83.5 -9t84.5 -29.5t75.5 -52.5t55 -78.5t23.5 -108t-18 -140.5l-588 -33q-7 -108 13 -195.5t60 -144.5t97 -90t123.5 -37t141 19t146.5 73l21 -37q-90 -80 -184 -120.5t-177.5 -40.5t-158.5 35.5t-129 100.5t-85.5 162t-31.5 214q0 118 39 217t103 162
t143.5 98t162.5 35zM530 944q-127 0 -202.5 -100t-77.5 -232l414 23q19 64 23 117t-8 97.5t-50 69.5t-99 25zM633 1434l-289 -357h-43l150 336q43 28 96 33.5t86 -12.5z" />
    <glyph glyph-name="ecircumflex" unicode="&#xea;" horiz-adv-x="935" 
d="M530 1004q42 0 83.5 -9t84.5 -29.5t75.5 -52.5t55 -78.5t23.5 -108t-18 -140.5l-588 -33q-7 -108 13 -195.5t60 -144.5t97 -90t123.5 -37t141 19t146.5 73l21 -37q-90 -80 -184 -120.5t-177.5 -40.5t-158.5 35.5t-129 100.5t-85.5 162t-31.5 214q0 118 39 217t103 162
t143.5 98t162.5 35zM530 944q-127 0 -202.5 -100t-77.5 -232l414 23q19 64 23 117t-8 97.5t-50 69.5t-99 25zM811 1077h-51l-260 213l-258 -213h-49l251 342h111z" />
    <glyph glyph-name="edieresis" unicode="&#xeb;" horiz-adv-x="935" 
d="M530 1004q42 0 83.5 -9t84.5 -29.5t75.5 -52.5t55 -78.5t23.5 -108t-18 -140.5l-588 -33q-7 -108 13 -195.5t60 -144.5t97 -90t123.5 -37t141 19t146.5 73l21 -37q-90 -80 -184 -120.5t-177.5 -40.5t-158.5 35.5t-129 100.5t-85.5 162t-31.5 214q0 118 39 217t103 162
t143.5 98t162.5 35zM530 944q-127 0 -202.5 -100t-77.5 -232l414 23q19 64 23 117t-8 97.5t-50 69.5t-99 25zM279 1110q-61 42 -113 113q49 64 113 110q62 -45 112 -110q-44 -64 -112 -113zM657 1110q-59 41 -112 113q50 65 112 110q64 -46 113 -110q-43 -63 -113 -113z" />
    <glyph glyph-name="igrave" unicode="&#xec;" horiz-adv-x="557" 
d="M537 41v-41h-476v41q40 0 65 2.5t44.5 11t29.5 19t16 33.5t7.5 47.5t1.5 66.5v531v42t-1 34.5t-3 29.5t-6 22.5t-9.5 18.5t-14 13t-19 10t-26 5.5t-33 4t-41.5 0.5v41l321 20l-6 -211v-561q0 -42 1.5 -66.5t7 -47t15 -33.5t27 -19.5t40.5 -11t59 -2.5zM401 1077l-288 357
q33 18 86 12.5t96 -33.5l149 -336h-43z" />
    <glyph glyph-name="iacute" unicode="&#xed;" horiz-adv-x="557" 
d="M537 41v-41h-476v41q40 0 65 2.5t44.5 11t29.5 19t16 33.5t7.5 47.5t1.5 66.5v531v42t-1 34.5t-3 29.5t-6 22.5t-9.5 18.5t-14 13t-19 10t-26 5.5t-33 4t-41.5 0.5v41l321 20l-6 -211v-561q0 -42 1.5 -66.5t7 -47t15 -33.5t27 -19.5t40.5 -11t59 -2.5zM444 1434
l-288 -357h-43l149 336q43 28 96 33.5t86 -12.5z" />
    <glyph glyph-name="icircumflex" unicode="&#xee;" horiz-adv-x="557" 
d="M537 41v-41h-476v41q40 0 65 2.5t44.5 11t29.5 19t16 33.5t7.5 47.5t1.5 66.5v531v42t-1 34.5t-3 29.5t-6 22.5t-9.5 18.5t-14 13t-19 10t-26 5.5t-33 4t-41.5 0.5v41l321 20l-6 -211v-561q0 -42 1.5 -66.5t7 -47t15 -33.5t27 -19.5t40.5 -11t59 -2.5zM588 1077h-51
l-261 213l-258 -213h-49l252 342h111z" />
    <glyph glyph-name="idieresis" unicode="&#xef;" horiz-adv-x="557" 
d="M537 41v-41h-476v41q40 0 65 2.5t44.5 11t29.5 19t16 33.5t7.5 47.5t1.5 66.5v531v42t-1 34.5t-3 29.5t-6 22.5t-9.5 18.5t-14 13t-19 10t-26 5.5t-33 4t-41.5 0.5v41l321 20l-6 -211v-561q0 -42 1.5 -66.5t7 -47t15 -33.5t27 -19.5t40.5 -11t59 -2.5zM90 1110
q-61 42 -113 113q49 64 113 110q64 -46 113 -110q-43 -63 -113 -113zM469 1110q-61 42 -113 113q49 64 113 110q64 -46 113 -110q-43 -63 -113 -113z" />
    <glyph glyph-name="eth" unicode="&#xf0;" horiz-adv-x="1085" 
d="M492 1071l-50 47l148 148q-97 91 -240 145l27 43q131 -28 268 -133l133 133l49 -47l-129 -129q135 -118 220.5 -289t85.5 -387q0 -90 -20.5 -178t-63.5 -168.5t-102.5 -141.5t-142.5 -97.5t-179 -36.5q-105 0 -198 45t-154.5 137.5t-61.5 214.5q0 105 37.5 195.5
t99.5 150t141 93.5t164 34q168 0 303 -135q-28 316 -190 502zM596 754q-135 0 -236.5 -119t-101.5 -307q0 -66 16 -117.5t40.5 -82.5t56.5 -51.5t62 -28t59 -7.5q77 0 139 43t98.5 108.5t60.5 148t32 157.5t5 141q-98 115 -231 115z" />
    <glyph glyph-name="ntilde" unicode="&#xf1;" horiz-adv-x="1177" 
d="M537 41v-41h-476v41q40 0 65 2.5t44.5 11t29.5 19t16 33.5t7.5 47.5t1.5 66.5v531v42t-1 34.5t-3 29.5t-6 22.5t-9.5 18.5t-14 13t-19 10t-26 5.5t-33 4t-41.5 0.5v41l321 20l-6 -211q67 98 181.5 160t213.5 62q94 0 152.5 -62t58.5 -186v-535q0 -63 4 -93.5t22 -52.5
t48.5 -28t89.5 -6v-41h-473v41q53 0 80.5 6t43.5 28t19.5 52.5t3.5 93.5v484q0 97 -40.5 148.5t-104.5 51.5q-69 0 -154 -56t-145 -153v-475q0 -42 1.5 -66.5t7 -47t15 -33.5t27 -19.5t40.5 -11t59 -2.5zM291 1141l-33 22q10 19 26 41.5t42.5 52.5t61 49t69.5 19
q58 0 161 -32.5t154 -32.5q65 0 113 67l33 -22q-10 -19 -26 -41.5t-42.5 -52.5t-61 -49t-69.5 -19q-58 0 -161.5 32.5t-154.5 32.5q-64 0 -112 -67z" />
    <glyph glyph-name="ograve" unicode="&#xf2;" horiz-adv-x="1038" 
d="M526 1004q130 0 229 -69.5t150 -185t51 -257.5q0 -141 -55 -257.5t-157.5 -185.5t-233.5 -69q-130 0 -228.5 69.5t-149 184.5t-50.5 258q0 141 54.5 257.5t156.5 185.5t233 69zM518 39q74 0 127.5 35t83.5 98.5t43.5 142.5t13.5 177q0 78 -8 143.5t-28 123.5t-50 98
t-76.5 63.5t-105.5 23.5q-266 0 -266 -452q0 -453 266 -453zM641 1077l-289 357q32 18 86 12.5t97 -33.5l149 -336h-43z" />
    <glyph glyph-name="oacute" unicode="&#xf3;" horiz-adv-x="1038" 
d="M526 1004q130 0 229 -69.5t150 -185t51 -257.5q0 -141 -55 -257.5t-157.5 -185.5t-233.5 -69q-130 0 -228.5 69.5t-149 184.5t-50.5 258q0 141 54.5 257.5t156.5 185.5t233 69zM518 39q74 0 127.5 35t83.5 98.5t43.5 142.5t13.5 177q0 78 -8 143.5t-28 123.5t-50 98
t-76.5 63.5t-105.5 23.5q-266 0 -266 -452q0 -453 266 -453zM684 1434l-289 -357h-43l150 336q43 28 96 33.5t86 -12.5z" />
    <glyph glyph-name="ocircumflex" unicode="&#xf4;" horiz-adv-x="1038" 
d="M526 1004q130 0 229 -69.5t150 -185t51 -257.5q0 -141 -55 -257.5t-157.5 -185.5t-233.5 -69q-130 0 -228.5 69.5t-149 184.5t-50.5 258q0 141 54.5 257.5t156.5 185.5t233 69zM518 39q74 0 127.5 35t83.5 98.5t43.5 142.5t13.5 177q0 78 -8 143.5t-28 123.5t-50 98
t-76.5 63.5t-105.5 23.5q-266 0 -266 -452q0 -453 266 -453zM827 1077h-51l-260 213l-258 -213h-49l252 342h110z" />
    <glyph glyph-name="otilde" unicode="&#xf5;" horiz-adv-x="1038" 
d="M526 1004q130 0 229 -69.5t150 -185t51 -257.5q0 -141 -55 -257.5t-157.5 -185.5t-233.5 -69q-130 0 -228.5 69.5t-149 184.5t-50.5 258q0 141 54.5 257.5t156.5 185.5t233 69zM518 39q74 0 127.5 35t83.5 98.5t43.5 142.5t13.5 177q0 78 -8 143.5t-28 123.5t-50 98
t-76.5 63.5t-105.5 23.5q-266 0 -266 -452q0 -453 266 -453zM221 1141l-33 22q10 19 26 41.5t42.5 52.5t61 49t69.5 19q58 0 161 -32.5t154 -32.5q65 0 113 67l33 -22q-10 -19 -26 -41.5t-42.5 -52.5t-61 -49t-69.5 -19q-58 0 -161 32.5t-154 32.5q-65 0 -113 -67z" />
    <glyph glyph-name="odieresis" unicode="&#xf6;" horiz-adv-x="1038" 
d="M526 1004q130 0 229 -69.5t150 -185t51 -257.5q0 -141 -55 -257.5t-157.5 -185.5t-233.5 -69q-130 0 -228.5 69.5t-149 184.5t-50.5 258q0 141 54.5 257.5t156.5 185.5t233 69zM518 39q74 0 127.5 35t83.5 98.5t43.5 142.5t13.5 177q0 78 -8 143.5t-28 123.5t-50 98
t-76.5 63.5t-105.5 23.5q-266 0 -266 -452q0 -453 266 -453zM330 1110q-61 42 -113 113q49 64 113 110q62 -45 112 -110q-44 -64 -112 -113zM709 1110q-61 42 -113 113q49 64 113 110q62 -45 112 -110q-44 -64 -112 -113z" />
    <glyph glyph-name="divide" unicode="&#xf7;" horiz-adv-x="1214" 
d="M496 332q0 46 32.5 78t79.5 32q44 0 76.5 -32t32.5 -78t-32.5 -78.5t-76.5 -32.5q-47 0 -79.5 32.5t-32.5 78.5zM496 999q0 46 32.5 78.5t79.5 32.5q44 0 76.5 -32.5t32.5 -78.5q0 -45 -32.5 -77.5t-76.5 -32.5q-47 0 -79.5 32t-32.5 78zM164 717h887v-103h-887v103z" />
    <glyph glyph-name="oslash" unicode="&#xf8;" horiz-adv-x="1038" 
d="M184 -39l-55 39l80 113q-127 146 -127 379q0 141 54.5 257.5t156.5 185.5t233 69q137 0 246 -82l70 100l55 -39l-74 -106q133 -145 133 -385q0 -141 -55 -257.5t-157.5 -185.5t-233.5 -69q-146 0 -252 86zM518 39q74 0 127.5 35t83.5 98.5t43.5 142.5t13.5 177
q0 166 -38 276l-431 -614q69 -115 201 -115zM252 492q0 -163 35 -267l426 613q-66 106 -195 106q-266 0 -266 -452z" />
    <glyph glyph-name="ugrave" unicode="&#xf9;" horiz-adv-x="1097" 
d="M924 993v-741v-42t1 -34.5t3 -29.5t6 -22.5t9.5 -18.5t14 -13t19 -10t26 -5.5t33 -4t41.5 -0.5v-41l-315 -51v165q-84 -82 -164 -126t-178 -44q-117 0 -182.5 66.5t-65.5 183.5l2 527q0 35 -0.5 52t-2.5 40t-5.5 32.5t-11.5 22t-18.5 17t-27.5 9.5t-37.5 6t-50.5 1v41
l316 20v-690q0 -103 39.5 -160t140.5 -57q59 0 126.5 31.5t119.5 75.5v559q0 44 -1 66.5t-7 47t-16 34t-30.5 19t-48 11.5t-71.5 2v41zM672 1077l-289 357q33 18 86 12.5t96 -33.5l150 -336h-43z" />
    <glyph glyph-name="uacute" unicode="&#xfa;" horiz-adv-x="1097" 
d="M924 993v-741v-42t1 -34.5t3 -29.5t6 -22.5t9.5 -18.5t14 -13t19 -10t26 -5.5t33 -4t41.5 -0.5v-41l-315 -51v165q-84 -82 -164 -126t-178 -44q-117 0 -182.5 66.5t-65.5 183.5l2 527q0 35 -0.5 52t-2.5 40t-5.5 32.5t-11.5 22t-18.5 17t-27.5 9.5t-37.5 6t-50.5 1v41
l316 20v-690q0 -103 39.5 -160t140.5 -57q59 0 126.5 31.5t119.5 75.5v559q0 44 -1 66.5t-7 47t-16 34t-30.5 19t-48 11.5t-71.5 2v41zM715 1434l-289 -357h-43l149 336q43 28 97 33.5t86 -12.5z" />
    <glyph glyph-name="ucircumflex" unicode="&#xfb;" horiz-adv-x="1097" 
d="M924 993v-741v-42t1 -34.5t3 -29.5t6 -22.5t9.5 -18.5t14 -13t19 -10t26 -5.5t33 -4t41.5 -0.5v-41l-315 -51v165q-84 -82 -164 -126t-178 -44q-117 0 -182.5 66.5t-65.5 183.5l2 527q0 35 -0.5 52t-2.5 40t-5.5 32.5t-11.5 22t-18.5 17t-27.5 9.5t-37.5 6t-50.5 1v41
l316 20v-690q0 -103 39.5 -160t140.5 -57q59 0 126.5 31.5t119.5 75.5v559q0 44 -1 66.5t-7 47t-16 34t-30.5 19t-48 11.5t-71.5 2v41zM858 1077h-51l-260 213l-258 -213h-49l252 342h110z" />
    <glyph glyph-name="udieresis" unicode="&#xfc;" horiz-adv-x="1097" 
d="M924 993v-741v-42t1 -34.5t3 -29.5t6 -22.5t9.5 -18.5t14 -13t19 -10t26 -5.5t33 -4t41.5 -0.5v-41l-315 -51v165q-84 -82 -164 -126t-178 -44q-117 0 -182.5 66.5t-65.5 183.5l2 527q0 35 -0.5 52t-2.5 40t-5.5 32.5t-11.5 22t-18.5 17t-27.5 9.5t-37.5 6t-50.5 1v41
l316 20v-690q0 -103 39.5 -160t140.5 -57q59 0 126.5 31.5t119.5 75.5v559q0 44 -1 66.5t-7 47t-16 34t-30.5 19t-48 11.5t-71.5 2v41zM358 1110q-59 41 -112 113q50 65 112 110q64 -46 113 -110q-43 -63 -113 -113zM737 1110q-59 41 -112 113q50 65 112 110
q64 -46 113 -110q-43 -63 -113 -113z" />
    <glyph glyph-name="yacute" unicode="&#xfd;" horiz-adv-x="1048" 
d="M866 793l-317 -803q-35 -88 -74 -165.5t-90.5 -154.5t-112.5 -122.5t-122 -45.5q-8 0 -21 4.5t-27 18.5t-21 34.5t2 57t38 82.5q31 -9 58 -10.5t68.5 11t78.5 44.5t81.5 100.5t84.5 167.5l-306 781q-2 6 -10 27t-10 25.5t-9.5 21.5t-11 20.5t-11.5 15.5t-15 14.5
t-17.5 10t-22 9t-26.5 3.5t-33 2v41h437v-41q-51 0 -79 -8t-35.5 -28.5t-3 -43.5t20.5 -65l207 -598l230 598q32 75 9 110t-118 35v41h340v-41q-22 0 -40 -3.5t-30.5 -7.5t-24 -14t-18 -17t-14.5 -22.5t-11.5 -24.5t-11.5 -29.5t-12 -30.5zM690 1434l-289 -357h-43l150 336
q43 28 96 33.5t86 -12.5z" />
    <glyph glyph-name="thorn" unicode="&#xfe;" horiz-adv-x="1085" 
d="M342 1454l-6 -614q129 164 317 164q151 0 251 -131t100 -343q0 -121 -27 -217.5t-70 -157.5t-102 -101.5t-118.5 -57t-123.5 -16.5q-123 0 -227 51v-289v-18v-36t1 -29.5t3.5 -26t7 -20t11 -17t17 -12t23.5 -9.5t31 -5.5t40 -4t50 -0.5v-41h-500v41q26 0 46 1t36 4
t27 7.5t19.5 11t12.5 15.5t7.5 20.5t4 26t1.5 31.5t0 38v23v1481v51.5t-2.5 38.5t-6 31t-11.5 20.5t-18 15t-28 8t-38 5t-50 0.5v41zM571 920q-58 0 -112.5 -39t-120.5 -117l-2 -533q1 -35 8.5 -63t28 -59.5t66.5 -49.5t114 -18q60 0 107.5 24.5t77 68t49.5 92.5t30 108
t13.5 104.5t3.5 91.5q0 53 -9 106.5t-30 105t-51 91t-74.5 63.5t-98.5 24z" />
    <glyph glyph-name="ydieresis" unicode="&#xff;" horiz-adv-x="1048" 
d="M866 793l-317 -803q-35 -88 -74 -165.5t-90.5 -154.5t-112.5 -122.5t-122 -45.5q-8 0 -21 4.5t-27 18.5t-21 34.5t2 57t38 82.5q31 -9 58 -10.5t68.5 11t78.5 44.5t81.5 100.5t84.5 167.5l-306 781q-2 6 -10 27t-10 25.5t-9.5 21.5t-11 20.5t-11.5 15.5t-15 14.5
t-17.5 10t-22 9t-26.5 3.5t-33 2v41h437v-41q-51 0 -79 -8t-35.5 -28.5t-3 -43.5t20.5 -65l207 -598l230 598q32 75 9 110t-118 35v41h340v-41q-22 0 -40 -3.5t-30.5 -7.5t-24 -14t-18 -17t-14.5 -22.5t-11.5 -24.5t-11.5 -29.5t-12 -30.5zM334 1110q-61 42 -113 113
q49 64 113 110q62 -45 112 -110q-44 -64 -112 -113zM713 1110q-61 42 -113 113q49 64 113 110q62 -45 112 -110q-44 -64 -112 -113z" />
    <glyph glyph-name="Amacron" unicode="&#x100;" horiz-adv-x="1515" 
d="M1075 229l-69 189h-578l-72 -189q-33 -96 2.5 -142t157.5 -46v-41h-496v41q110 0 156 37t92 151l482 1225h24l479 -1225q23 -59 41 -91t45 -56.5t63 -32.5t93 -8v-41h-563v41q127 0 155 42.5t-12 145.5zM719 1188l-266 -703h526zM1077 1722v-106h-639v106h639z" />
    <glyph glyph-name="amacron" unicode="&#x101;" horiz-adv-x="929" 
d="M889 57l20 -37q-87 -40 -161 -40q-111 0 -148 118q-154 -118 -291 -118q-98 0 -162.5 73t-64.5 193q0 35 17.5 63t44 46.5t69.5 33t80 22.5t91.5 14t88.5 8t84 5q27 1 39 2v326q0 87 -32.5 133.5t-108.5 46.5q-49 0 -88 -16t-60 -41t-34 -56t-11.5 -61.5t8.5 -56.5
q-34 -21 -61 -32t-44 -13.5t-29 3t-17.5 11.5t-8.5 18t-3.5 17t-0.5 14q0 67 67 131.5t162.5 102t180.5 37.5q64 0 110.5 -14t72 -34t40 -50t18 -55t3.5 -56v-648q0 -17 2 -31.5t9.5 -33.5t21.5 -26.5t37.5 -11t58.5 12.5zM248 227q12 -170 114 -170q56 0 122 25.5t112 67.5
v245q-174 -14 -214 -23q-97 -19 -122 -78q-12 -28 -12 -67zM784 1272v-107h-639v107h639z" />
    <glyph glyph-name="Abreve" unicode="&#x102;" horiz-adv-x="1515" 
d="M1075 229l-69 189h-578l-72 -189q-33 -96 2.5 -142t157.5 -46v-41h-496v41q110 0 156 37t92 151l482 1225h24l479 -1225q23 -59 41 -91t45 -56.5t63 -32.5t93 -8v-41h-563v41q127 0 155 42.5t-12 145.5zM719 1188l-266 -703h526zM469 1853h49q16 -73 82.5 -125.5
t157.5 -52.5q90 0 155.5 52.5t81.5 125.5h49q0 -122 -84 -216.5t-202 -94.5q-119 0 -204 94.5t-85 216.5z" />
    <glyph glyph-name="abreve" unicode="&#x103;" horiz-adv-x="929" 
d="M889 57l20 -37q-87 -40 -161 -40q-111 0 -148 118q-154 -118 -291 -118q-98 0 -162.5 73t-64.5 193q0 35 17.5 63t44 46.5t69.5 33t80 22.5t91.5 14t88.5 8t84 5q27 1 39 2v326q0 87 -32.5 133.5t-108.5 46.5q-49 0 -88 -16t-60 -41t-34 -56t-11.5 -61.5t8.5 -56.5
q-34 -21 -61 -32t-44 -13.5t-29 3t-17.5 11.5t-8.5 18t-3.5 17t-0.5 14q0 67 67 131.5t162.5 102t180.5 37.5q64 0 110.5 -14t72 -34t40 -50t18 -55t3.5 -56v-648q0 -17 2 -31.5t9.5 -33.5t21.5 -26.5t37.5 -11t58.5 12.5zM248 227q12 -170 114 -170q56 0 122 25.5t112 67.5
v245q-174 -14 -214 -23q-97 -19 -122 -78q-12 -28 -12 -67zM176 1403h49q16 -73 82.5 -125.5t157.5 -52.5q90 0 155.5 52.5t81.5 125.5h50q0 -122 -84.5 -216.5t-202.5 -94.5q-119 0 -204 94.5t-85 216.5z" />
    <glyph glyph-name="Aogonek" unicode="&#x104;" horiz-adv-x="1515" 
d="M1495 0h-111q-147 -134 -151 -242q-3 -75 63 -102q79 -33 195 22v-61q-104 -86 -203 -86q-79 0 -131.5 50.5t-52.5 125.5q0 167 205 293h-377v41q127 0 155 42.5t-12 145.5l-69 189h-578l-72 -189q-33 -96 2.5 -142t157.5 -46v-41h-496v41q110 0 156 37t92 151l482 1225
h24l479 -1225q23 -59 41 -91t45 -56.5t63 -32.5t93 -8v-41zM719 1188l-266 -703h526z" />
    <glyph glyph-name="aogonek" unicode="&#x105;" horiz-adv-x="929" 
d="M889 57l20 -37q-67 -28 -129 -38q-73 -71 -106.5 -136t-24.5 -108t41.5 -69t91 -24t125.5 33v-61q-104 -86 -202 -86q-79 0 -132 50.5t-53 125.5q0 158 180 279q-72 19 -100 112q-154 -118 -291 -118q-98 0 -162.5 73t-64.5 193q0 35 17.5 63t44 46.5t69.5 33t80 22.5
t91.5 14t88.5 8t84 5q27 1 39 2v326q0 87 -32.5 133.5t-108.5 46.5q-49 0 -88 -16t-60 -41t-34 -56t-11.5 -61.5t8.5 -56.5q-34 -21 -61 -32t-44 -13.5t-29 3t-17.5 11.5t-8.5 18t-3.5 17t-0.5 14q0 67 67 131.5t162.5 102t180.5 37.5q64 0 110.5 -14t72 -34t40 -50t18 -55
t3.5 -56v-648q0 -17 2 -31.5t9.5 -33.5t21.5 -26.5t37.5 -11t58.5 12.5zM248 227q12 -170 114 -170q56 0 122 25.5t112 67.5v245q-174 -14 -214 -23q-97 -19 -122 -78q-12 -28 -12 -67z" />
    <glyph glyph-name="Cacute" unicode="&#x106;" horiz-adv-x="1376" 
d="M102 717q0 153 39 277.5t106 209t158.5 141.5t193.5 83t214 26q267 0 487 -160l5 -354h-41q0 103 -28.5 183t-72.5 127.5t-104 78.5t-116 42t-116 11q-240 0 -390 -184t-150 -481t150 -481.5t390 -184.5q59 0 115.5 11t116.5 42t104 79t72.5 128t28.5 183h41l-5 -355
q-219 -159 -487 -159q-112 0 -214 26t-193.5 83t-158.5 141.5t-106 209t-39 277.5zM975 1884l-289 -356h-43l150 336q43 28 96.5 33t85.5 -13z" />
    <glyph glyph-name="cacute" unicode="&#x107;" horiz-adv-x="933" 
d="M530 1004q46 0 86 -5.5t85 -22t77 -43t53 -74t21 -109.5q0 -149 -170 -41q32 115 -2.5 175t-149.5 60q-76 0 -134.5 -46.5t-90 -118.5t-46.5 -144t-15 -137q0 -116 33.5 -204.5t91 -137t131.5 -65t159 6t168 80.5l21 -37q-90 -80 -184 -120.5t-177.5 -40.5t-158.5 35.5
t-129 100.5t-85.5 162t-31.5 214q0 118 39 217t103 162t143.5 98t162.5 35zM633 1434l-289 -357h-43l150 336q43 28 96 33.5t86 -12.5z" />
    <glyph glyph-name="Ccircumflex" unicode="&#x108;" horiz-adv-x="1376" 
d="M102 717q0 153 39 277.5t106 209t158.5 141.5t193.5 83t214 26q267 0 487 -160l5 -354h-41q0 103 -28.5 183t-72.5 127.5t-104 78.5t-116 42t-116 11q-240 0 -390 -184t-150 -481t150 -481.5t390 -184.5q59 0 115.5 11t116.5 42t104 79t72.5 128t28.5 183h41l-5 -355
q-219 -159 -487 -159q-112 0 -214 26t-193.5 83t-158.5 141.5t-106 209t-39 277.5zM1122 1528h-51l-260 213l-258 -213h-49l252 342h110z" />
    <glyph glyph-name="ccircumflex" unicode="&#x109;" horiz-adv-x="933" 
d="M530 1004q46 0 86 -5.5t85 -22t77 -43t53 -74t21 -109.5q0 -149 -170 -41q32 115 -2.5 175t-149.5 60q-76 0 -134.5 -46.5t-90 -118.5t-46.5 -144t-15 -137q0 -116 33.5 -204.5t91 -137t131.5 -65t159 6t168 80.5l21 -37q-90 -80 -184 -120.5t-177.5 -40.5t-158.5 35.5
t-129 100.5t-85.5 162t-31.5 214q0 118 39 217t103 162t143.5 98t162.5 35zM776 1077h-51l-260 213l-258 -213h-49l252 342h110z" />
    <glyph glyph-name="Cdotaccent" unicode="&#x10a;" horiz-adv-x="1376" 
d="M102 717q0 153 39 277.5t106 209t158.5 141.5t193.5 83t214 26q267 0 487 -160l5 -354h-41q0 103 -28.5 183t-72.5 127.5t-104 78.5t-116 42t-116 11q-240 0 -390 -184t-150 -481t150 -481.5t390 -184.5q59 0 115.5 11t116.5 42t104 79t72.5 128t28.5 183h41l-5 -355
q-219 -159 -487 -159q-112 0 -214 26t-193.5 83t-158.5 141.5t-106 209t-39 277.5zM801 1561q-62 43 -113 112q51 66 113 111q60 -43 112 -111q-43 -62 -112 -112z" />
    <glyph glyph-name="cdotaccent" unicode="&#x10b;" horiz-adv-x="933" 
d="M530 1004q46 0 86 -5.5t85 -22t77 -43t53 -74t21 -109.5q0 -149 -170 -41q32 115 -2.5 175t-149.5 60q-76 0 -134.5 -46.5t-90 -118.5t-46.5 -144t-15 -137q0 -116 33.5 -204.5t91 -137t131.5 -65t159 6t168 80.5l21 -37q-90 -80 -184 -120.5t-177.5 -40.5t-158.5 35.5
t-129 100.5t-85.5 162t-31.5 214q0 118 39 217t103 162t143.5 98t162.5 35zM467 1110q-61 42 -113 113q49 64 113 110q64 -46 113 -110q-43 -63 -113 -113z" />
    <glyph glyph-name="Ccaron" unicode="&#x10c;" horiz-adv-x="1376" 
d="M102 717q0 153 39 277.5t106 209t158.5 141.5t193.5 83t214 26q267 0 487 -160l5 -354h-41q0 103 -28.5 183t-72.5 127.5t-104 78.5t-116 42t-116 11q-240 0 -390 -184t-150 -481t150 -481.5t390 -184.5q59 0 115.5 11t116.5 42t104 79t72.5 128t28.5 183h41l-5 -355
q-219 -159 -487 -159q-112 0 -214 26t-193.5 83t-158.5 141.5t-106 209t-39 277.5zM1053 1870h51l-256 -342h-111l-252 342h50l258 -213z" />
    <glyph glyph-name="ccaron" unicode="&#x10d;" horiz-adv-x="933" 
d="M530 1004q46 0 86 -5.5t85 -22t77 -43t53 -74t21 -109.5q0 -149 -170 -41q32 115 -2.5 175t-149.5 60q-76 0 -134.5 -46.5t-90 -118.5t-46.5 -144t-15 -137q0 -116 33.5 -204.5t91 -137t131.5 -65t159 6t168 80.5l21 -37q-90 -80 -184 -120.5t-177.5 -40.5t-158.5 35.5
t-129 100.5t-85.5 162t-31.5 214q0 118 39 217t103 162t143.5 98t162.5 35zM764 1419h51l-256 -342h-110l-252 342h49l258 -213z" />
    <glyph glyph-name="Dcaron" unicode="&#x10e;" horiz-adv-x="1609" 
d="M82 0v41q71 0 111.5 9t60.5 35t24.5 55.5t4.5 88.5v975q0 61 -6 93.5t-27.5 56.5t-60 31.5t-107.5 7.5v41h539q67 0 107.5 -1t119 -7.5t131.5 -18.5t128 -37t126 -59.5t107 -90t89.5 -124.5t55.5 -166t22 -213q0 -147 -40.5 -264.5t-99 -191t-148.5 -126.5t-163 -78
t-171 -39t-144 -16t-108 -2h-551zM637 68q55 0 87 0.5t94.5 6.5t103 17t98.5 33.5t96 54t81 81t68 112.5t41.5 151t16.5 193q0 104 -20 191.5t-51.5 149.5t-80 112t-94.5 81.5t-106.5 54.5t-105 33.5t-100.5 16.5t-82.5 7t-61.5 1h-170v-1122q0 -85 42 -129.5t144 -44.5z
M1063 1870h51l-256 -342h-110l-252 342h49l258 -213z" />
    <glyph glyph-name="dcaron" unicode="&#x10f;" horiz-adv-x="1085" 
d="M911 1454v-1202q0 -35 0.5 -52t2.5 -40t5.5 -32.5t11.5 -22t18.5 -17t27.5 -9.5t37.5 -6t50.5 -1v-41l-315 -51v163q-128 -163 -318 -163q-151 0 -250.5 130.5t-99.5 342.5q0 121 26.5 217.5t70 157.5t102 102t118 57.5t123.5 16.5q125 0 228 -54v273v51.5t-2.5 38.5
t-6 31t-11.5 20.5t-18 15t-28 8t-38 5t-50 0.5v41zM514 63q87 0 159 60t77 133v461q0 87 -21 130q-46 95 -197 95q-52 0 -94.5 -19t-70.5 -50t-50 -74.5t-34 -86.5t-19 -93.5t-9.5 -88.5t-2.5 -77q0 -68 15.5 -134t45.5 -125t82 -95t119 -36zM1092 1026h-74l-37 430h147z
" />
    <glyph glyph-name="Dcroat" unicode="&#x110;" horiz-adv-x="1609" 
d="M82 682v68h201v454q0 61 -6 93.5t-27.5 56.5t-60 31.5t-107.5 7.5v41h539q67 0 107.5 -1t119 -7.5t131.5 -18.5t128 -37t126 -59.5t107 -90t89.5 -124.5t55.5 -166t22 -213q0 -147 -40.5 -264.5t-99 -191t-148.5 -126.5t-163 -78t-171 -39t-144 -16t-108 -2h-551v41
q71 0 111.5 9t60.5 35t24.5 55.5t4.5 88.5v453h-201zM637 68q55 0 87 0.5t94.5 6.5t103 17t98.5 33.5t96 54t81 81t68 112.5t41.5 151t16.5 193q0 104 -20 191.5t-51.5 149.5t-80 112t-94.5 81.5t-106.5 54.5t-105 33.5t-100.5 16.5t-82.5 7t-61.5 1h-170v-614h245v-68h-245
v-440q0 -85 42 -129.5t144 -44.5z" />
    <glyph glyph-name="dcroat" unicode="&#x111;" horiz-adv-x="1085" 
d="M596 1180v67h154q-1 36 -2.5 56t-7.5 39t-14.5 27t-27.5 14.5t-41.5 8t-60.5 1.5v41l315 20v-207h123v-67h-123v-928q0 -35 0.5 -52t2.5 -40t5.5 -32.5t11.5 -22t18.5 -17t27.5 -9.5t37.5 -6t50.5 -1v-41l-315 -51v163q-128 -163 -318 -163q-151 0 -250.5 130.5
t-99.5 342.5q0 121 26.5 217.5t70 157.5t102 102t118 57.5t123.5 16.5q125 0 228 -54v230h-154zM514 63q87 0 159 60t77 133v496q-5 190 -218 190q-52 0 -94.5 -19t-70.5 -50t-50 -74.5t-34 -86.5t-19 -93.5t-9.5 -88.5t-2.5 -77q0 -68 15.5 -134t45.5 -125t82 -95t119 -36z
" />
    <glyph glyph-name="Emacron" unicode="&#x112;" horiz-adv-x="1273" 
d="M82 0v41q68 0 107.5 8t60.5 32.5t27 56.5t6 91v975q0 40 -1.5 61.5t-7.5 47t-18.5 37.5t-35 23.5t-56 15.5t-82.5 4v41h1028l10 -293h-41q-6 43 -12.5 73t-17 54.5t-19 40t-27.5 27t-34.5 17t-47 9t-57 4t-73.5 0.5h-340v-582h292q41 0 66 2t46 9.5t31.5 18.5t17.5 33
t9 48.5t2 69.5h41v-435h-41q0 44 -2 71.5t-9 50.5t-17.5 34t-31.5 19t-46 10t-66 2h-292v-475q0 -93 40 -132.5t146 -39.5h254q60 0 97 8t72 34t56.5 78t34.5 136h41l-21 -326h-1089zM956 1722v-106h-639v106h639z" />
    <glyph glyph-name="emacron" unicode="&#x113;" horiz-adv-x="935" 
d="M530 1004q42 0 83.5 -9t84.5 -29.5t75.5 -52.5t55 -78.5t23.5 -108t-18 -140.5l-588 -33q-7 -108 13 -195.5t60 -144.5t97 -90t123.5 -37t141 19t146.5 73l21 -37q-90 -80 -184 -120.5t-177.5 -40.5t-158.5 35.5t-129 100.5t-85.5 162t-31.5 214q0 118 39 217t103 162
t143.5 98t162.5 35zM530 944q-127 0 -202.5 -100t-77.5 -232l414 23q19 64 23 117t-8 97.5t-50 69.5t-99 25zM786 1272v-107h-639v107h639z" />
    <glyph glyph-name="Ebreve" unicode="&#x114;" horiz-adv-x="1273" 
d="M82 0v41q68 0 107.5 8t60.5 32.5t27 56.5t6 91v975q0 40 -1.5 61.5t-7.5 47t-18.5 37.5t-35 23.5t-56 15.5t-82.5 4v41h1028l10 -293h-41q-6 43 -12.5 73t-17 54.5t-19 40t-27.5 27t-34.5 17t-47 9t-57 4t-73.5 0.5h-340v-582h292q41 0 66 2t46 9.5t31.5 18.5t17.5 33
t9 48.5t2 69.5h41v-435h-41q0 44 -2 71.5t-9 50.5t-17.5 34t-31.5 19t-46 10t-66 2h-292v-475q0 -93 40 -132.5t146 -39.5h254q60 0 97 8t72 34t56.5 78t34.5 136h41l-21 -326h-1089zM348 1853h49q16 -73 82.5 -125.5t157.5 -52.5q90 0 155.5 52.5t81.5 125.5h50
q0 -122 -84.5 -216.5t-202.5 -94.5q-119 0 -204 94.5t-85 216.5z" />
    <glyph glyph-name="ebreve" unicode="&#x115;" horiz-adv-x="935" 
d="M530 1004q42 0 83.5 -9t84.5 -29.5t75.5 -52.5t55 -78.5t23.5 -108t-18 -140.5l-588 -33q-7 -108 13 -195.5t60 -144.5t97 -90t123.5 -37t141 19t146.5 73l21 -37q-90 -80 -184 -120.5t-177.5 -40.5t-158.5 35.5t-129 100.5t-85.5 162t-31.5 214q0 118 39 217t103 162
t143.5 98t162.5 35zM530 944q-127 0 -202.5 -100t-77.5 -232l414 23q19 64 23 117t-8 97.5t-50 69.5t-99 25zM180 1403h49q16 -73 82.5 -125.5t157.5 -52.5q90 0 156 52.5t82 125.5h49q0 -122 -84.5 -216.5t-202.5 -94.5q-119 0 -204 94.5t-85 216.5z" />
    <glyph glyph-name="Edotaccent" unicode="&#x116;" horiz-adv-x="1273" 
d="M82 0v41q68 0 107.5 8t60.5 32.5t27 56.5t6 91v975q0 40 -1.5 61.5t-7.5 47t-18.5 37.5t-35 23.5t-56 15.5t-82.5 4v41h1028l10 -293h-41q-6 43 -12.5 73t-17 54.5t-19 40t-27.5 27t-34.5 17t-47 9t-57 4t-73.5 0.5h-340v-582h292q41 0 66 2t46 9.5t31.5 18.5t17.5 33
t9 48.5t2 69.5h41v-435h-41q0 44 -2 71.5t-9 50.5t-17.5 34t-31.5 19t-46 10t-66 2h-292v-475q0 -93 40 -132.5t146 -39.5h254q60 0 97 8t72 34t56.5 78t34.5 136h41l-21 -326h-1089zM637 1561q-62 43 -113 112q51 66 113 111q62 -45 113 -111q-42 -61 -113 -112z" />
    <glyph glyph-name="edotaccent" unicode="&#x117;" horiz-adv-x="935" 
d="M530 1004q42 0 83.5 -9t84.5 -29.5t75.5 -52.5t55 -78.5t23.5 -108t-18 -140.5l-588 -33q-7 -108 13 -195.5t60 -144.5t97 -90t123.5 -37t141 19t146.5 73l21 -37q-90 -80 -184 -120.5t-177.5 -40.5t-158.5 35.5t-129 100.5t-85.5 162t-31.5 214q0 118 39 217t103 162
t143.5 98t162.5 35zM530 944q-127 0 -202.5 -100t-77.5 -232l414 23q19 64 23 117t-8 97.5t-50 69.5t-99 25zM467 1110q-61 42 -113 113q49 64 113 110q64 -46 113 -110q-43 -63 -113 -113z" />
    <glyph glyph-name="Eogonek" unicode="&#x118;" horiz-adv-x="1273" 
d="M1171 0h-102q-147 -134 -151 -242q-3 -75 63 -102q79 -33 195 22v-61q-104 -86 -203 -86q-79 0 -132 50.5t-53 125.5q0 167 205 293h-911v41q68 0 107.5 8t60.5 32.5t27 56.5t6 91v975q0 40 -1.5 61.5t-7.5 47t-18.5 37.5t-35 23.5t-56 15.5t-82.5 4v41h1028l10 -293h-41
q-6 43 -12.5 73t-17 54.5t-19 40t-27.5 27t-34.5 17t-47 9t-57 4t-73.5 0.5h-340v-582h292q41 0 66 2t46 9.5t31.5 18.5t17.5 33t9 48.5t2 69.5h41v-435h-41q0 44 -2 71.5t-9 50.5t-17.5 34t-31.5 19t-46 10t-66 2h-292v-475q0 -93 40 -132.5t146 -39.5h254q60 0 97 8t72 34
t56.5 78t34.5 136h41z" />
    <glyph glyph-name="eogonek" unicode="&#x119;" horiz-adv-x="935" 
d="M530 1004q42 0 83.5 -9t84.5 -29.5t75.5 -52.5t55 -78.5t23.5 -108t-18 -140.5l-588 -33q-7 -108 13 -195.5t60 -144.5t97 -90t123.5 -37t141 19t146.5 73l21 -37q-126 -114 -266 -147q-143 -134 -143 -240q-1 -73 67 -99q77 -30 190 23v-61q-104 -86 -202 -86
q-79 0 -132 50.5t-53 125.5q0 154 174 275q-173 -2 -287 137.5t-114 372.5q0 118 39 217t103 162t143.5 98t162.5 35zM530 944q-127 0 -202.5 -100t-77.5 -232l414 23q19 64 23 117t-8 97.5t-50 69.5t-99 25z" />
    <glyph glyph-name="Ecaron" unicode="&#x11a;" horiz-adv-x="1273" 
d="M82 0v41q68 0 107.5 8t60.5 32.5t27 56.5t6 91v975q0 40 -1.5 61.5t-7.5 47t-18.5 37.5t-35 23.5t-56 15.5t-82.5 4v41h1028l10 -293h-41q-6 43 -12.5 73t-17 54.5t-19 40t-27.5 27t-34.5 17t-47 9t-57 4t-73.5 0.5h-340v-582h292q41 0 66 2t46 9.5t31.5 18.5t17.5 33
t9 48.5t2 69.5h41v-435h-41q0 44 -2 71.5t-9 50.5t-17.5 34t-31.5 19t-46 10t-66 2h-292v-475q0 -93 40 -132.5t146 -39.5h254q60 0 97 8t72 34t56.5 78t34.5 136h41l-21 -326h-1089zM895 1870h51l-256 -342h-110l-252 342h49l258 -213z" />
    <glyph glyph-name="ecaron" unicode="&#x11b;" horiz-adv-x="935" 
d="M530 1004q42 0 83.5 -9t84.5 -29.5t75.5 -52.5t55 -78.5t23.5 -108t-18 -140.5l-588 -33q-7 -108 13 -195.5t60 -144.5t97 -90t123.5 -37t141 19t146.5 73l21 -37q-90 -80 -184 -120.5t-177.5 -40.5t-158.5 35.5t-129 100.5t-85.5 162t-31.5 214q0 118 39 217t103 162
t143.5 98t162.5 35zM530 944q-127 0 -202.5 -100t-77.5 -232l414 23q19 64 23 117t-8 97.5t-50 69.5t-99 25zM725 1419h51l-256 -342h-110l-252 342h49l258 -213z" />
    <glyph glyph-name="Gcircumflex" unicode="&#x11c;" horiz-adv-x="1550" 
d="M1350 385v-203q-110 -94 -254 -148t-283 -54q-112 0 -214 26t-193.5 83t-158.5 141.5t-106 209t-39 277.5t39 277.5t106 209t158.5 141.5t193.5 83t214 26q267 0 487 -160l5 -354h-41q0 103 -28.5 183t-72.5 127.5t-104 78.5t-116 42t-116 11q-240 0 -390 -184t-150 -481
t150 -481.5t390 -184.5q243 0 355 180v154q0 78 -16.5 115t-68 55t-157.5 18v41h569v-41q-39 0 -65 -3.5t-44 -14t-27.5 -22t-15 -36t-6.5 -47.5t-1 -65zM1083 1528h-51l-260 213l-258 -213h-49l252 342h110z" />
    <glyph glyph-name="gcircumflex" unicode="&#x11d;" horiz-adv-x="1007" 
d="M885 635q0 -153 -116.5 -261t-281.5 -108q-108 -3 -191 -26t-83 -58q0 -43 41.5 -66.5t108 -31.5t146.5 -12t160 -14t146.5 -30.5t108 -69t41.5 -122.5q0 -79 -48 -144t-126 -105.5t-172 -62.5t-191 -22q-105 0 -190.5 24.5t-141 78t-55.5 127.5q0 117 188 248
q-106 52 -106 163q0 60 56 98t153 54q-109 42 -175.5 134t-66.5 206q0 153 116 261t281 108q83 0 156 -31q78 -8 131 42t60 113q153 19 153 -45q0 -41 -26 -72t-67 -47.5t-82.5 -25t-82.5 -10.5q72 -52 114 -129t42 -164zM803 -164q0 32 -35.5 50t-96 24.5t-127 10
t-144 13.5t-130.5 29q-77 -106 -77 -215q0 -87 67 -140.5t219 -53.5q84 0 149.5 27t102 70t54.5 90.5t18 94.5zM260 635q0 -132 56 -220.5t171 -88.5t171.5 88.5t56.5 220.5q0 83 -23.5 151.5t-76.5 113t-128 44.5t-127.5 -44.5t-76 -113t-23.5 -151.5zM813 1090h-51
l-260 213l-258 -213h-49l251 342h111z" />
    <glyph glyph-name="Gbreve" unicode="&#x11e;" horiz-adv-x="1550" 
d="M1350 385v-203q-110 -94 -254 -148t-283 -54q-112 0 -214 26t-193.5 83t-158.5 141.5t-106 209t-39 277.5t39 277.5t106 209t158.5 141.5t193.5 83t214 26q267 0 487 -160l5 -354h-41q0 103 -28.5 183t-72.5 127.5t-104 78.5t-116 42t-116 11q-240 0 -390 -184t-150 -481
t150 -481.5t390 -184.5q243 0 355 180v154q0 78 -16.5 115t-68 55t-157.5 18v41h569v-41q-39 0 -65 -3.5t-44 -14t-27.5 -22t-15 -36t-6.5 -47.5t-1 -65zM487 1853h50q16 -73 82 -125.5t157 -52.5q90 0 156 52.5t82 125.5h49q0 -122 -84.5 -216.5t-202.5 -94.5
q-119 0 -204 94.5t-85 216.5z" />
    <glyph glyph-name="gbreve" unicode="&#x11f;" horiz-adv-x="1007" 
d="M885 635q0 -153 -116.5 -261t-281.5 -108q-108 -3 -191 -26t-83 -58q0 -43 41.5 -66.5t108 -31.5t146.5 -12t160 -14t146.5 -30.5t108 -69t41.5 -122.5q0 -79 -48 -144t-126 -105.5t-172 -62.5t-191 -22q-105 0 -190.5 24.5t-141 78t-55.5 127.5q0 117 188 248
q-106 52 -106 163q0 60 56 98t153 54q-109 42 -175.5 134t-66.5 206q0 153 116 261t281 108q83 0 156 -31q78 -8 131 42t60 113q153 19 153 -45q0 -41 -26 -72t-67 -47.5t-82.5 -25t-82.5 -10.5q72 -52 114 -129t42 -164zM803 -164q0 32 -35.5 50t-96 24.5t-127 10
t-144 13.5t-130.5 29q-77 -106 -77 -215q0 -87 67 -140.5t219 -53.5q84 0 149.5 27t102 70t54.5 90.5t18 94.5zM260 635q0 -132 56 -220.5t171 -88.5t171.5 88.5t56.5 220.5q0 83 -23.5 151.5t-76.5 113t-128 44.5t-127.5 -44.5t-76 -113t-23.5 -151.5zM215 1403h49
q16 -73 82.5 -125.5t157.5 -52.5q90 0 155.5 52.5t81.5 125.5h50q0 -122 -84.5 -216.5t-202.5 -94.5q-119 0 -204 94.5t-85 216.5z" />
    <glyph glyph-name="Gdotaccent" unicode="&#x120;" horiz-adv-x="1550" 
d="M1350 385v-203q-110 -94 -254 -148t-283 -54q-112 0 -214 26t-193.5 83t-158.5 141.5t-106 209t-39 277.5t39 277.5t106 209t158.5 141.5t193.5 83t214 26q267 0 487 -160l5 -354h-41q0 103 -28.5 183t-72.5 127.5t-104 78.5t-116 42t-116 11q-240 0 -390 -184t-150 -481
t150 -481.5t390 -184.5q243 0 355 180v154q0 78 -16.5 115t-68 55t-157.5 18v41h569v-41q-39 0 -65 -3.5t-44 -14t-27.5 -22t-15 -36t-6.5 -47.5t-1 -65zM774 1561q-60 42 -112 112q52 68 112 111q62 -45 113 -111q-42 -61 -113 -112z" />
    <glyph glyph-name="gdotaccent" unicode="&#x121;" horiz-adv-x="1007" 
d="M885 635q0 -153 -116.5 -261t-281.5 -108q-108 -3 -191 -26t-83 -58q0 -43 41.5 -66.5t108 -31.5t146.5 -12t160 -14t146.5 -30.5t108 -69t41.5 -122.5q0 -79 -48 -144t-126 -105.5t-172 -62.5t-191 -22q-105 0 -190.5 24.5t-141 78t-55.5 127.5q0 117 188 248
q-106 52 -106 163q0 60 56 98t153 54q-109 42 -175.5 134t-66.5 206q0 153 116 261t281 108q83 0 156 -31q78 -8 131 42t60 113q153 19 153 -45q0 -41 -26 -72t-67 -47.5t-82.5 -25t-82.5 -10.5q72 -52 114 -129t42 -164zM803 -164q0 32 -35.5 50t-96 24.5t-127 10
t-144 13.5t-130.5 29q-77 -106 -77 -215q0 -87 67 -140.5t219 -53.5q84 0 149.5 27t102 70t54.5 90.5t18 94.5zM260 635q0 -132 56 -220.5t171 -88.5t171.5 88.5t56.5 220.5q0 83 -23.5 151.5t-76.5 113t-128 44.5t-127.5 -44.5t-76 -113t-23.5 -151.5zM504 1110
q-61 42 -113 113q49 64 113 110q62 -45 112 -110q-44 -64 -112 -113z" />
    <glyph glyph-name="Gcommaaccent" unicode="&#x122;" horiz-adv-x="1550" 
d="M1350 385v-203q-110 -94 -254 -148t-283 -54q-112 0 -214 26t-193.5 83t-158.5 141.5t-106 209t-39 277.5t39 277.5t106 209t158.5 141.5t193.5 83t214 26q267 0 487 -160l5 -354h-41q0 103 -28.5 183t-72.5 127.5t-104 78.5t-116 42t-116 11q-240 0 -390 -184t-150 -481
t150 -481.5t390 -184.5q243 0 355 180v154q0 78 -16.5 115t-68 55t-157.5 18v41h569v-41q-39 0 -65 -3.5t-44 -14t-27.5 -22t-15 -36t-6.5 -47.5t-1 -65zM696 -590l-32 35q82 68 110 180q-64 48 -125 125q59 71 125 123q66 -52 125 -123q0 -194 -203 -340z" />
    <glyph glyph-name="gcommaaccent" unicode="&#x123;" horiz-adv-x="1007" 
d="M885 635q0 -153 -116.5 -261t-281.5 -108q-108 -3 -191 -26t-83 -58q0 -43 41.5 -66.5t108 -31.5t146.5 -12t160 -14t146.5 -30.5t108 -69t41.5 -122.5q0 -79 -48 -144t-126 -105.5t-172 -62.5t-191 -22q-105 0 -190.5 24.5t-141 78t-55.5 127.5q0 117 188 248
q-106 52 -106 163q0 60 56 98t153 54q-109 42 -175.5 134t-66.5 206q0 153 116 261t281 108q83 0 156 -31q78 -8 131 42t60 113q153 19 153 -45q0 -41 -26 -72t-67 -47.5t-82.5 -25t-82.5 -10.5q72 -52 114 -129t42 -164zM803 -164q0 32 -35.5 50t-96 24.5t-127 10
t-144 13.5t-130.5 29q-77 -106 -77 -215q0 -87 67 -140.5t219 -53.5q84 0 149.5 27t102 70t54.5 90.5t18 94.5zM260 635q0 -132 56 -220.5t171 -88.5t171.5 88.5t56.5 220.5q0 83 -23.5 151.5t-76.5 113t-128 44.5t-127.5 -44.5t-76 -113t-23.5 -151.5zM582 1579l32 -35
q-82 -68 -110 -180q64 -48 125 -125q-59 -71 -125 -123q-66 52 -125 123q0 194 203 340z" />
    <glyph glyph-name="Hcircumflex" unicode="&#x124;" horiz-adv-x="1746" 
d="M1665 0h-569v41q46 0 77.5 3.5t54.5 13.5t36 22.5t20.5 35.5t9.5 48t2 65v480h-845v-480q0 -40 2 -65t9.5 -48t20.5 -35.5t36 -22.5t54.5 -13.5t77.5 -3.5v-41h-569v41q68 0 107.5 8t60.5 32.5t27 56.5t6 91v975q0 40 -1.5 61.5t-7.5 47t-18.5 37.5t-35 23.5t-56 15.5
t-82.5 4v41h569v-41q-49 0 -82.5 -4t-56 -15.5t-34.5 -23.5t-18 -37.5t-7.5 -46.5t-1.5 -62v-428h845v428q0 41 -1.5 62t-7.5 46.5t-18 37.5t-34.5 23.5t-56 15.5t-82.5 4v41h569v-41q-49 0 -82.5 -4t-56 -15.5t-35 -23.5t-18.5 -37.5t-7.5 -47t-1.5 -61.5v-975q0 -59 6 -91
t27 -56.5t60.5 -32.5t107.5 -8v-41zM1182 1528h-52l-260 213l-258 -213h-49l252 342h111z" />
    <glyph glyph-name="hcircumflex" unicode="&#x125;" horiz-adv-x="1177" 
d="M537 41v-41h-476v41q40 0 65 2.5t44.5 11t29.5 19t16 33.5t7.5 47.5t1.5 66.5v1002v51t-2.5 37.5t-5.5 29t-12 18.5t-17.5 13t-27.5 6t-37.5 4h-50.5v41l315 31l-6 -672q66 98 183.5 160t217.5 62q94 0 152.5 -62t58.5 -186v-535q0 -63 4 -93.5t22 -52.5t48.5 -28
t89.5 -6v-41h-473v41q53 0 80.5 6t43.5 28t19.5 52.5t3.5 93.5v484q0 97 -40.5 148.5t-104.5 51.5q-69 0 -154 -56t-145 -153v-475q0 -42 1.5 -66.5t7 -47t15 -33.5t27 -19.5t40.5 -11t59 -2.5zM612 1452h-51l-260 213l-258 -213h-49l252 342h110z" />
    <glyph glyph-name="Hbar" unicode="&#x126;" horiz-adv-x="1746" 
d="M1665 0h-569v41q46 0 77.5 3.5t54.5 13.5t36 22.5t20.5 35.5t9.5 48t2 65v480h-845v-480q0 -40 2 -65t9.5 -48t20.5 -35.5t36 -22.5t54.5 -13.5t77.5 -3.5v-41h-569v41q68 0 107.5 8t60.5 32.5t27 56.5t6 91v801h-201v68h201v106q0 40 -1.5 61.5t-7.5 47t-18.5 37.5
t-35 23.5t-56 15.5t-82.5 4v41h569v-41q-49 0 -82.5 -4t-56 -15.5t-34.5 -23.5t-18 -37.5t-7.5 -46.5t-1.5 -62v-106h845v106q0 41 -1.5 62t-7.5 46.5t-18 37.5t-34.5 23.5t-56 15.5t-82.5 4v41h569v-41q-49 0 -82.5 -4t-56 -15.5t-35 -23.5t-18.5 -37.5t-7.5 -47
t-1.5 -61.5v-106h201v-68h-201v-801q0 -59 6 -91t27 -56.5t60.5 -32.5t107.5 -8v-41zM451 1030v-254h845v254h-845z" />
    <glyph glyph-name="hbar" unicode="&#x127;" horiz-adv-x="1177" 
d="M72 1180v67h153q-1 36 -2 56t-7 39t-15 27t-27.5 14.5t-41 8t-60.5 1.5v41l315 20l-2 -207h158v-67h-158l-4 -398q66 98 183.5 160t217.5 62q94 0 152.5 -62t58.5 -186v-535q0 -63 4 -93.5t22 -52.5t48.5 -28t89.5 -6v-41h-473v41q53 0 80.5 6t43.5 28t19.5 52.5
t3.5 93.5v484q0 97 -40.5 148.5t-104.5 51.5q-69 0 -154 -56t-145 -153v-475q0 -42 1.5 -66.5t7 -47t15 -33.5t27 -19.5t40.5 -11t59 -2.5v-41h-476v41q40 0 65 2.5t44.5 11t29.5 19t16 33.5t7.5 47.5t1.5 66.5v959h-153z" />
    <glyph glyph-name="Itilde" unicode="&#x128;" horiz-adv-x="733" 
d="M651 0h-569v41q68 0 107.5 8t60.5 32.5t27 56.5t6 91v975q0 40 -1.5 61.5t-7.5 47t-18.5 37.5t-35 23.5t-56 15.5t-82.5 4v41h569v-41q-49 0 -82.5 -4t-56 -15.5t-34.5 -23.5t-18 -37.5t-7.5 -46.5t-1.5 -62v-975q0 -40 2 -65t9.5 -48t20.5 -35.5t36 -22.5t54.5 -13.5
t77.5 -3.5v-41zM70 1591l-33 23q10 19 26 41.5t42.5 52.5t61 49t69.5 19q58 0 161 -33t154 -33q64 0 113 68l32 -23q-11 -20 -26.5 -42t-41.5 -52t-60.5 -49t-69.5 -19q-58 0 -161.5 33t-154.5 33q-63 0 -112 -68z" />
    <glyph glyph-name="itilde" unicode="&#x129;" horiz-adv-x="557" 
d="M537 41v-41h-476v41q40 0 65 2.5t44.5 11t29.5 19t16 33.5t7.5 47.5t1.5 66.5v531v42t-1 34.5t-3 29.5t-6 22.5t-9.5 18.5t-14 13t-19 10t-26 5.5t-33 4t-41.5 0.5v41l321 20l-6 -211v-561q0 -42 1.5 -66.5t7 -47t15 -33.5t27 -19.5t40.5 -11t59 -2.5zM-18 1141l-33 22
q11 20 26.5 42t41.5 52t60.5 49t69.5 19q58 0 161.5 -32.5t154.5 -32.5q64 0 112 67l33 -22q-11 -20 -26.5 -42t-41.5 -52t-60.5 -49t-69.5 -19q-58 0 -161.5 32.5t-154.5 32.5q-64 0 -112 -67z" />
    <glyph glyph-name="Imacron" unicode="&#x12a;" horiz-adv-x="733" 
d="M651 0h-569v41q68 0 107.5 8t60.5 32.5t27 56.5t6 91v975q0 40 -1.5 61.5t-7.5 47t-18.5 37.5t-35 23.5t-56 15.5t-82.5 4v41h569v-41q-49 0 -82.5 -4t-56 -15.5t-34.5 -23.5t-18 -37.5t-7.5 -46.5t-1.5 -62v-975q0 -40 2 -65t9.5 -48t20.5 -35.5t36 -22.5t54.5 -13.5
t77.5 -3.5v-41zM686 1722v-106h-639v106h639z" />
    <glyph glyph-name="imacron" unicode="&#x12b;" horiz-adv-x="557" 
d="M537 41v-41h-476v41q40 0 65 2.5t44.5 11t29.5 19t16 33.5t7.5 47.5t1.5 66.5v531v42t-1 34.5t-3 29.5t-6 22.5t-9.5 18.5t-14 13t-19 10t-26 5.5t-33 4t-41.5 0.5v41l321 20l-6 -211v-561q0 -42 1.5 -66.5t7 -47t15 -33.5t27 -19.5t40.5 -11t59 -2.5zM598 1272v-107
h-639v107h639z" />
    <glyph glyph-name="Ibreve" unicode="&#x12c;" horiz-adv-x="733" 
d="M651 0h-569v41q68 0 107.5 8t60.5 32.5t27 56.5t6 91v975q0 40 -1.5 61.5t-7.5 47t-18.5 37.5t-35 23.5t-56 15.5t-82.5 4v41h569v-41q-49 0 -82.5 -4t-56 -15.5t-34.5 -23.5t-18 -37.5t-7.5 -46.5t-1.5 -62v-975q0 -40 2 -65t9.5 -48t20.5 -35.5t36 -22.5t54.5 -13.5
t77.5 -3.5v-41zM80 1853h49q16 -73 82.5 -125.5t157.5 -52.5q90 0 155.5 52.5t81.5 125.5h49q0 -122 -84 -216.5t-202 -94.5q-119 0 -204 94.5t-85 216.5z" />
    <glyph glyph-name="ibreve" unicode="&#x12d;" horiz-adv-x="557" 
d="M537 41v-41h-476v41q40 0 65 2.5t44.5 11t29.5 19t16 33.5t7.5 47.5t1.5 66.5v531v42t-1 34.5t-3 29.5t-6 22.5t-9.5 18.5t-14 13t-19 10t-26 5.5t-33 4t-41.5 0.5v41l321 20l-6 -211v-561q0 -42 1.5 -66.5t7 -47t15 -33.5t27 -19.5t40.5 -11t59 -2.5zM-8 1403h49
q16 -73 82.5 -125.5t157.5 -52.5q90 0 155.5 52.5t81.5 125.5h49q0 -122 -84 -216.5t-202 -94.5q-119 0 -204 94.5t-85 216.5z" />
    <glyph glyph-name="Iogonek" unicode="&#x12e;" horiz-adv-x="733" 
d="M651 0h-104q-147 -134 -151 -242q-3 -75 63 -103q79 -32 194 23v-61q-104 -86 -202 -86q-79 0 -132 50.5t-53 125.5q0 167 205 293h-389v41q68 0 107.5 8t60.5 32.5t27 56.5t6 91v975q0 40 -1.5 61.5t-7.5 47t-18.5 37.5t-35 23.5t-56 15.5t-82.5 4v41h569v-41
q-49 0 -82.5 -4t-56 -15.5t-34.5 -23.5t-18 -37.5t-7.5 -46.5t-1.5 -62v-975q0 -40 2 -65t9.5 -48t20.5 -35.5t36 -22.5t54.5 -13.5t77.5 -3.5v-41z" />
    <glyph glyph-name="iogonek" unicode="&#x12f;" horiz-adv-x="557" 
d="M537 0h-111q-147 -134 -151 -242q-3 -75 63 -103q79 -32 194 23v-61q-104 -86 -202 -86q-79 0 -132 50.5t-53 125.5q0 167 205 293h-289v41q40 0 65 2.5t44.5 11t29.5 19t16 33.5t7.5 47.5t1.5 66.5v531v42t-1 34.5t-3 29.5t-6 22.5t-9.5 18.5t-14 13t-19 10t-26 5.5
t-33 4t-41.5 0.5v41l321 20l-6 -211v-561q0 -42 1.5 -66.5t7 -47t15 -33.5t27 -19.5t40.5 -11t59 -2.5v-41zM299 1165q-73 51 -135 135q62 81 135 134q73 -53 135 -134q-52 -75 -135 -135z" />
    <glyph glyph-name="Idotaccent" unicode="&#x130;" horiz-adv-x="733" 
d="M651 0h-569v41q68 0 107.5 8t60.5 32.5t27 56.5t6 91v975q0 40 -1.5 61.5t-7.5 47t-18.5 37.5t-35 23.5t-56 15.5t-82.5 4v41h569v-41q-49 0 -82.5 -4t-56 -15.5t-34.5 -23.5t-18 -37.5t-7.5 -46.5t-1.5 -62v-975q0 -40 2 -65t9.5 -48t20.5 -35.5t36 -22.5t54.5 -13.5
t77.5 -3.5v-41zM367 1561q-62 43 -113 112q51 66 113 111q60 -43 112 -111q-43 -62 -112 -112z" />
    <glyph glyph-name="dotlessi" unicode="&#x131;" horiz-adv-x="557" 
d="M537 41v-41h-476v41q40 0 65 2.5t44.5 11t29.5 19t16 33.5t7.5 47.5t1.5 66.5v531v42t-1 34.5t-3 29.5t-6 22.5t-9.5 18.5t-14 13t-19 10t-26 5.5t-33 4t-41.5 0.5v41l321 20l-6 -211v-561q0 -42 1.5 -66.5t7 -47t15 -33.5t27 -19.5t40.5 -11t59 -2.5z" />
    <glyph glyph-name="Jcircumflex" unicode="&#x134;" horiz-adv-x="712" 
d="M451 1204v-1141q0 -86 -21.5 -161.5t-51.5 -128t-80.5 -104.5t-89.5 -83t-97 -71l-23 28q195 142 195 484v1177q0 40 -1.5 61.5t-7.5 47t-18.5 37.5t-35 23.5t-56 15.5t-82.5 4v41h569v-41q-49 0 -82.5 -4t-56 -15.5t-34.5 -23.5t-18 -37.5t-7.5 -46.5t-1.5 -62z
M666 1528h-52l-260 213l-258 -213h-49l252 342h111z" />
    <glyph glyph-name="jcircumflex" unicode="&#x135;" horiz-adv-x="559" 
d="M389 782v-719q0 -86 -21 -161t-50.5 -128t-79 -105t-89 -83t-96.5 -71l-22 28q196 143 196 484v725v42t-1 34.5t-3 29.5t-6 22.5t-9.5 18.5t-14 13t-19 10t-26 5.5t-33 4t-41.5 0.5v41l321 20zM602 1077h-51l-260 213l-258 -213h-49l252 342h110z" />
    <glyph glyph-name="Kcommaaccent" unicode="&#x136;" horiz-adv-x="1472" 
d="M1010 176l-451 473h-108v-420q0 -59 5.5 -91.5t24.5 -56.5t54 -32t96 -8v-41h-549v41q68 0 107.5 8t60.5 32.5t27 56.5t6 91v975q0 40 -1.5 61.5t-7.5 47t-18.5 37.5t-35 23.5t-56 15.5t-82.5 4v41h549v-41q-44 0 -74 -4t-50 -15.5t-31 -23.5t-17 -37.5t-7 -47t-1 -61.5
v-495h57l536 567q13 15 20.5 30t6.5 31t-13 28t-42.5 20t-77.5 8v41h455v-41q-62 0 -102.5 -13.5t-66.5 -34.5t-77 -73l-479 -498l567 -594q79 -83 128.5 -111t109.5 -28v-41h-328q-41 78 -135 176zM657 -590l-32 35q82 68 110 180q-64 48 -125 125q59 71 125 123
q66 -52 125 -123q0 -194 -203 -340z" />
    <glyph glyph-name="kcommaaccent" unicode="&#x137;" horiz-adv-x="1142" 
d="M537 41v-41h-476v41q40 0 65 2.5t44.5 11t29.5 19t16 33.5t7.5 47.5t1.5 66.5v1002q0 46 -0.5 66t-5.5 44.5t-13 32t-27 16.5t-42.5 10t-64.5 1v41l315 20v-936h57l306 316q22 24 29.5 42.5t-0.5 34t-41 23.5t-91 8v41h432v-41q-91 0 -138.5 -20.5t-102.5 -81.5
l-260 -273l321 -397q64 -78 111.5 -103.5t111.5 -25.5v-41h-317q-22 52 -113 168l-233 297h-72v-244q0 -42 1.5 -66.5t7 -47t15 -33.5t27 -19.5t40.5 -11t59 -2.5zM494 -590l-33 35q82 68 110 180q-64 48 -125 125q59 71 125 123q66 -52 125 -123q0 -194 -202 -340z" />
    <glyph glyph-name="Lacute" unicode="&#x139;" horiz-adv-x="1232" 
d="M692 1434v-41q-64 0 -106 -6t-69.5 -18t-41.5 -36t-19 -53t-5 -76v-962q0 -93 40 -132.5t146 -39.5h254q60 0 97 8t72 34t56.5 78t34.5 136h41l-21 -326h-1089v41q68 0 107.5 8t60.5 32.5t27 56.5t6 91v975q0 40 -1.5 61.5t-7.5 47t-18.5 37.5t-35 23.5t-56 15.5t-82.5 4
v41h610zM659 1884l-288 -356h-43l149 336q43 28 96.5 33t85.5 -13z" />
    <glyph glyph-name="lacute" unicode="&#x13a;" horiz-adv-x="557" 
d="M537 41v-41h-476v41q40 0 65 2.5t44.5 11t29.5 19t16 33.5t7.5 47.5t1.5 66.5v1002q0 46 -0.5 66t-5.5 44.5t-13 32t-27 16.5t-42.5 10t-64.5 1v41l315 20v-1233q0 -42 1.5 -66.5t7 -47t15 -33.5t27 -19.5t40.5 -11t59 -2.5zM518 1874l-289 -356h-43l150 335
q43 28 96 33.5t86 -12.5z" />
    <glyph glyph-name="Lcommaaccent" unicode="&#x13b;" horiz-adv-x="1232" 
d="M692 1434v-41q-64 0 -106 -6t-69.5 -18t-41.5 -36t-19 -53t-5 -76v-962q0 -93 40 -132.5t146 -39.5h254q60 0 97 8t72 34t56.5 78t34.5 136h41l-21 -326h-1089v41q68 0 107.5 8t60.5 32.5t27 56.5t6 91v975q0 40 -1.5 61.5t-7.5 47t-18.5 37.5t-35 23.5t-56 15.5t-82.5 4
v41h610zM539 -590l-33 35q82 68 110 180q-61 46 -124 125q61 73 124 123q66 -52 125 -123q0 -194 -202 -340z" />
    <glyph glyph-name="lcommaaccent" unicode="&#x13c;" horiz-adv-x="557" 
d="M537 41v-41h-476v41q40 0 65 2.5t44.5 11t29.5 19t16 33.5t7.5 47.5t1.5 66.5v1002q0 46 -0.5 66t-5.5 44.5t-13 32t-27 16.5t-42.5 10t-64.5 1v41l315 20v-1233q0 -42 1.5 -66.5t7 -47t15 -33.5t27 -19.5t40.5 -11t59 -2.5zM225 -590l-32 35q82 68 110 180
q-64 48 -125 125q59 71 125 123q66 -52 125 -123q0 -194 -203 -340z" />
    <glyph glyph-name="Lcaron" unicode="&#x13d;" horiz-adv-x="1232" 
d="M692 1434v-41q-64 0 -106 -6t-69.5 -18t-41.5 -36t-19 -53t-5 -76v-962q0 -93 40 -132.5t146 -39.5h254q60 0 97 8t72 34t56.5 78t34.5 136h41l-21 -326h-1089v41q68 0 107.5 8t60.5 32.5t27 56.5t6 91v975q0 40 -1.5 61.5t-7.5 47t-18.5 37.5t-35 23.5t-56 15.5t-82.5 4
v41h610zM1067 1210q-70 50 -125 123q52 68 125 123q67 -50 125 -123q0 -93 -50 -187t-153 -169l-33 35q79 66 111 198z" />
    <glyph glyph-name="lcaron" unicode="&#x13e;" horiz-adv-x="557" 
d="M537 41v-41h-476v41q40 0 65 2.5t44.5 11t29.5 19t16 33.5t7.5 47.5t1.5 66.5v1002q0 46 -0.5 66t-5.5 44.5t-13 32t-27 16.5t-42.5 10t-64.5 1v41l315 20v-1233q0 -42 1.5 -66.5t7 -47t15 -33.5t27 -19.5t40.5 -11t59 -2.5zM559 1210q-70 50 -125 123q52 68 125 123
q67 -50 125 -123q0 -93 -50 -187t-153 -169l-32 35q78 65 110 198z" />
    <glyph glyph-name="Lslash" unicode="&#x141;" horiz-adv-x="1232" 
d="M82 682v68h201v454q0 40 -1.5 61.5t-7.5 47t-18.5 37.5t-35 23.5t-56 15.5t-82.5 4v41h610v-41q-64 0 -106 -6t-69.5 -18t-41.5 -36t-19 -53t-5 -76v-454h282v-68h-282v-440q0 -93 40 -132.5t146 -39.5h254q60 0 97 8t72 34t56.5 78t34.5 136h41l-21 -326h-1089v41
q68 0 107.5 8t60.5 32.5t27 56.5t6 91v453h-201z" />
    <glyph glyph-name="lslash" unicode="&#x142;" horiz-adv-x="557" 
d="M61 682v68h164v473q0 46 -0.5 66t-5.5 44.5t-13 32t-27 16.5t-42.5 10t-64.5 1v41l315 20v-704h150v-68h-150v-461q0 -42 1.5 -66.5t7 -47t15 -33.5t27 -19.5t40.5 -11t59 -2.5v-41h-476v41q40 0 65 2.5t44.5 11t29.5 19t16 33.5t7.5 47.5t1.5 66.5v461h-164z" />
    <glyph glyph-name="Nacute" unicode="&#x143;" horiz-adv-x="1759" 
d="M1427 305v899q0 113 -42 151t-160 38v41h473v-41q-108 0 -148.5 -42t-40.5 -147v-1214h-34l-1074 1196v-957q0 -63 8 -97t35.5 -56t71 -28.5t123.5 -6.5v-41h-522v41q66 0 102.5 6.5t61.5 28t33 56.5t8 97v975q0 108 -51 148.5t-189 40.5v41h348zM1044 1884l-288 -356
h-43l149 336q43 28 96.5 33t85.5 -13z" />
    <glyph glyph-name="nacute" unicode="&#x144;" horiz-adv-x="1177" 
d="M537 41v-41h-476v41q40 0 65 2.5t44.5 11t29.5 19t16 33.5t7.5 47.5t1.5 66.5v531v42t-1 34.5t-3 29.5t-6 22.5t-9.5 18.5t-14 13t-19 10t-26 5.5t-33 4t-41.5 0.5v41l321 20l-6 -211q67 98 181.5 160t213.5 62q94 0 152.5 -62t58.5 -186v-535q0 -63 4 -93.5t22 -52.5
t48.5 -28t89.5 -6v-41h-473v41q53 0 80.5 6t43.5 28t19.5 52.5t3.5 93.5v484q0 97 -40.5 148.5t-104.5 51.5q-69 0 -154 -56t-145 -153v-475q0 -42 1.5 -66.5t7 -47t15 -33.5t27 -19.5t40.5 -11t59 -2.5zM754 1434l-289 -357h-43l149 336q43 28 97 33.5t86 -12.5z" />
    <glyph glyph-name="Ncommaaccent" unicode="&#x145;" horiz-adv-x="1759" 
d="M1427 305v899q0 113 -42 151t-160 38v41h473v-41q-108 0 -148.5 -42t-40.5 -147v-1214h-34l-1074 1196v-957q0 -63 8 -97t35.5 -56t71 -28.5t123.5 -6.5v-41h-522v41q66 0 102.5 6.5t61.5 28t33 56.5t8 97v975q0 108 -51 148.5t-189 40.5v41h348zM801 -590l-33 35
q83 69 111 180q-64 48 -125 125q59 71 125 123q66 -52 125 -123q0 -194 -203 -340z" />
    <glyph glyph-name="ncommaaccent" unicode="&#x146;" horiz-adv-x="1177" 
d="M537 41v-41h-476v41q40 0 65 2.5t44.5 11t29.5 19t16 33.5t7.5 47.5t1.5 66.5v531v42t-1 34.5t-3 29.5t-6 22.5t-9.5 18.5t-14 13t-19 10t-26 5.5t-33 4t-41.5 0.5v41l321 20l-6 -211q67 98 181.5 160t213.5 62q94 0 152.5 -62t58.5 -186v-535q0 -63 4 -93.5t22 -52.5
t48.5 -28t89.5 -6v-41h-473v41q53 0 80.5 6t43.5 28t19.5 52.5t3.5 93.5v484q0 97 -40.5 148.5t-104.5 51.5q-69 0 -154 -56t-145 -153v-475q0 -42 1.5 -66.5t7 -47t15 -33.5t27 -19.5t40.5 -11t59 -2.5zM510 -590l-33 35q83 69 111 180q-64 48 -125 125q59 71 125 123
q66 -52 125 -123q0 -194 -203 -340z" />
    <glyph glyph-name="Ncaron" unicode="&#x147;" horiz-adv-x="1759" 
d="M1427 305v899q0 113 -42 151t-160 38v41h473v-41q-108 0 -148.5 -42t-40.5 -147v-1214h-34l-1074 1196v-957q0 -63 8 -97t35.5 -56t71 -28.5t123.5 -6.5v-41h-522v41q66 0 102.5 6.5t61.5 28t33 56.5t8 97v975q0 108 -51 148.5t-189 40.5v41h348zM1137 1870h51l-256 -342
h-111l-252 342h49l259 -213z" />
    <glyph glyph-name="ncaron" unicode="&#x148;" horiz-adv-x="1177" 
d="M537 41v-41h-476v41q40 0 65 2.5t44.5 11t29.5 19t16 33.5t7.5 47.5t1.5 66.5v531v42t-1 34.5t-3 29.5t-6 22.5t-9.5 18.5t-14 13t-19 10t-26 5.5t-33 4t-41.5 0.5v41l321 20l-6 -211q67 98 181.5 160t213.5 62q94 0 152.5 -62t58.5 -186v-535q0 -63 4 -93.5t22 -52.5
t48.5 -28t89.5 -6v-41h-473v41q53 0 80.5 6t43.5 28t19.5 52.5t3.5 93.5v484q0 97 -40.5 148.5t-104.5 51.5q-69 0 -154 -56t-145 -153v-475q0 -42 1.5 -66.5t7 -47t15 -33.5t27 -19.5t40.5 -11t59 -2.5zM846 1419h51l-256 -342h-111l-251 342h49l258 -213z" />
    <glyph glyph-name="Eng" unicode="&#x14a;" horiz-adv-x="1759" 
d="M1427 305v899q0 113 -42 151t-160 38v41h473v-41q-108 0 -148.5 -42t-40.5 -147v-1141q0 -86 -21.5 -161.5t-51.5 -128t-80.5 -104.5t-89.5 -83t-97 -71l-22 28q194 141 194 484v110l-940 1049v-957q0 -63 8 -97t35.5 -56t71 -28.5t123.5 -6.5v-41h-522v41
q66 0 102.5 6.5t61.5 28t33 56.5t8 97v975q0 108 -51 148.5t-189 40.5v41h348z" />
    <glyph glyph-name="eng" unicode="&#x14b;" horiz-adv-x="1095" 
d="M993 756v-693q0 -86 -21 -161t-50.5 -128t-79 -105t-89 -83t-96.5 -71l-22 28q196 143 196 484v678q0 97 -40.5 148.5t-104.5 51.5q-69 0 -154 -56t-145 -153v-475q0 -42 1.5 -66.5t7 -47t15 -33.5t27 -19.5t40.5 -11t59 -2.5v-41h-476v41q40 0 65 2.5t44.5 11t29.5 19
t16 33.5t7.5 47.5t1.5 66.5v531v42t-1 34.5t-3 29.5t-6 22.5t-9.5 18.5t-14 13t-19 10t-26 5.5t-33 4t-41.5 0.5v41l321 20l-6 -211q67 98 181.5 160t213.5 62q94 0 152.5 -62t58.5 -186z" />
    <glyph glyph-name="Omacron" unicode="&#x14c;" horiz-adv-x="1644" 
d="M823 -20q-154 0 -288.5 57.5t-229 155.5t-149 234.5t-54.5 289.5t54.5 289.5t149 234.5t229 155.5t288.5 57.5q123 0 235 -36.5t199 -104t151.5 -158t99 -203t34.5 -235.5t-34.5 -235.5t-99 -203t-151.5 -158t-199 -104t-235 -36.5zM823 51q146 0 269.5 89.5t194.5 242.5
t71 334q0 135 -42 258t-113.5 212.5t-171 142t-208.5 52.5q-146 0 -269.5 -89t-195 -242t-71.5 -334t71.5 -334t195 -242.5t269.5 -89.5zM1141 1722v-106h-639v106h639z" />
    <glyph glyph-name="omacron" unicode="&#x14d;" horiz-adv-x="1038" 
d="M526 1004q130 0 229 -69.5t150 -185t51 -257.5q0 -141 -55 -257.5t-157.5 -185.5t-233.5 -69q-130 0 -228.5 69.5t-149 184.5t-50.5 258q0 141 54.5 257.5t156.5 185.5t233 69zM518 39q74 0 127.5 35t83.5 98.5t43.5 142.5t13.5 177q0 78 -8 143.5t-28 123.5t-50 98
t-76.5 63.5t-105.5 23.5q-266 0 -266 -452q0 -453 266 -453zM838 1272v-107h-639v107h639z" />
    <glyph glyph-name="Obreve" unicode="&#x14e;" horiz-adv-x="1644" 
d="M823 -20q-154 0 -288.5 57.5t-229 155.5t-149 234.5t-54.5 289.5t54.5 289.5t149 234.5t229 155.5t288.5 57.5q123 0 235 -36.5t199 -104t151.5 -158t99 -203t34.5 -235.5t-34.5 -235.5t-99 -203t-151.5 -158t-199 -104t-235 -36.5zM823 51q146 0 269.5 89.5t194.5 242.5
t71 334q0 135 -42 258t-113.5 212.5t-171 142t-208.5 52.5q-146 0 -269.5 -89t-195 -242t-71.5 -334t71.5 -334t195 -242.5t269.5 -89.5zM535 1853h49q16 -73 82 -125.5t157 -52.5q90 0 156 52.5t82 125.5h49q0 -122 -84.5 -216.5t-202.5 -94.5q-119 0 -203.5 94t-84.5 217z
" />
    <glyph glyph-name="obreve" unicode="&#x14f;" horiz-adv-x="1038" 
d="M526 1004q130 0 229 -69.5t150 -185t51 -257.5q0 -141 -55 -257.5t-157.5 -185.5t-233.5 -69q-130 0 -228.5 69.5t-149 184.5t-50.5 258q0 141 54.5 257.5t156.5 185.5t233 69zM518 39q74 0 127.5 35t83.5 98.5t43.5 142.5t13.5 177q0 78 -8 143.5t-28 123.5t-50 98
t-76.5 63.5t-105.5 23.5q-266 0 -266 -452q0 -453 266 -453zM231 1403h50q16 -73 82 -125.5t157 -52.5q90 0 156 52.5t82 125.5h49q0 -122 -84.5 -216.5t-202.5 -94.5q-119 0 -204 94.5t-85 216.5z" />
    <glyph glyph-name="Ohungarumlaut" unicode="&#x150;" horiz-adv-x="1644" 
d="M823 -20q-154 0 -288.5 57.5t-229 155.5t-149 234.5t-54.5 289.5t54.5 289.5t149 234.5t229 155.5t288.5 57.5q123 0 235 -36.5t199 -104t151.5 -158t99 -203t34.5 -235.5t-34.5 -235.5t-99 -203t-151.5 -158t-199 -104t-235 -36.5zM823 51q146 0 269.5 89.5t194.5 242.5
t71 334q0 135 -42 258t-113.5 212.5t-171 142t-208.5 52.5q-146 0 -269.5 -89t-195 -242t-71.5 -334t71.5 -334t195 -242.5t269.5 -89.5zM856 1884l-289 -356h-43l150 336q43 28 96.5 33t85.5 -13zM1120 1884l-289 -356h-43l150 336q43 28 96.5 33t85.5 -13z" />
    <glyph glyph-name="ohungarumlaut" unicode="&#x151;" horiz-adv-x="1038" 
d="M526 1004q130 0 229 -69.5t150 -185t51 -257.5q0 -141 -55 -257.5t-157.5 -185.5t-233.5 -69q-130 0 -228.5 69.5t-149 184.5t-50.5 258q0 141 54.5 257.5t156.5 185.5t233 69zM518 39q74 0 127.5 35t83.5 98.5t43.5 142.5t13.5 177q0 78 -8 143.5t-28 123.5t-50 98
t-76.5 63.5t-105.5 23.5q-266 0 -266 -452q0 -453 266 -453zM553 1434l-289 -357h-43l150 336q43 28 96 33.5t86 -12.5zM817 1434l-289 -357h-43l150 336q43 28 96 33.5t86 -12.5z" />
    <glyph glyph-name="OE" unicode="&#x152;" horiz-adv-x="2144" 
d="M1153 1376v58h827l11 -293h-41q-6 43 -12.5 73t-17 54.5t-19.5 40t-28 27t-34.5 17t-47 9t-57 4t-73.5 0.5h-340v-582h293q41 0 66 2t46 9.5t31.5 18.5t17.5 33t9 48.5t2 69.5h41v-435h-41q0 44 -2 71.5t-9 50.5t-17.5 34t-31.5 19t-46 10t-66 2h-293v-475
q0 -93 40 -132.5t146 -39.5h254q60 0 97 8t72 34t56.5 78t34.5 136h41l-20 -326h-684q-131 0 -176 72q-162 -92 -359 -92q-154 0 -288.5 57.5t-229 155.5t-149 234.5t-54.5 289.5t54.5 289.5t149 234.5t229 155.5t288.5 57.5q174 0 330 -78zM823 51q188 0 330 139v1051
q-144 141 -330 141q-146 0 -269.5 -89t-195 -242t-71.5 -334t71.5 -334t195 -242.5t269.5 -89.5z" />
    <glyph glyph-name="oe" unicode="&#x153;" horiz-adv-x="1648" 
d="M1243 1004q51 0 100.5 -13t99 -43t79.5 -78.5t40.5 -119t-16.5 -164.5l-588 -33q-7 -108 13 -195.5t60 -144.5t97.5 -90t124 -37t141 19t146.5 73l21 -37q-131 -117 -268.5 -148.5t-247.5 19t-177 166.5q-60 -93 -152 -145.5t-206 -52.5q-130 0 -228.5 69.5t-149 184.5
t-50.5 258q0 141 54.5 257.5t156.5 185.5t233 69q115 0 206 -55t147 -150q65 98 162 151.5t202 53.5zM518 39q74 0 127.5 35t83.5 98.5t43.5 142.5t13.5 177q0 78 -8 143.5t-28 123.5t-50 98t-76.5 63.5t-105.5 23.5q-266 0 -266 -452q0 -453 266 -453zM1243 944
q-127 0 -202.5 -100t-77.5 -232l413 23q19 64 23 117t-8 97.5t-49.5 69.5t-98.5 25z" />
    <glyph glyph-name="Racute" unicode="&#x154;" horiz-adv-x="1425" 
d="M1145 1077q0 -134 -105 -249.5t-276 -176.5l424 -471q72 -84 123.5 -111.5t113.5 -27.5v-41h-327q-45 85 -121 176l-375 418h-151v-365q0 -47 5 -76t19 -52.5t41.5 -35.5t69.5 -18t106 -6v-41h-610v41q68 0 107.5 8t60.5 32.5t27 56.5t6 91v975q0 40 -1.5 61.5t-7.5 47
t-18.5 37.5t-35 23.5t-56 15.5t-82.5 4v41h479q154 0 269.5 -28t182.5 -78t99.5 -112.5t32.5 -138.5zM451 1366v-711h122q190 54 290 158t100 250q0 141 -111 222t-332 81h-69zM879 1884l-289 -356h-43l149 336q43 28 97 33t86 -13z" />
    <glyph glyph-name="racute" unicode="&#x155;" horiz-adv-x="837" 
d="M590 41v-41h-529v41q40 0 65 2.5t44.5 11t29.5 19t16 33.5t7.5 47.5t1.5 66.5v531v42t-1 34.5t-3 29.5t-6 22.5t-9.5 18.5t-14 13t-19 10t-26 5.5t-33 4t-41.5 0.5v41l321 20l-6 -241q70 123 168.5 196t189.5 51q8 -3 19 -10t21 -24t11 -38.5t-18 -55t-59 -70.5
q-32 19 -65 28t-77.5 6t-94 -41t-95.5 -110v-463q0 -62 5.5 -93t28 -53t60.5 -28t109 -6zM584 1434l-289 -357h-43l149 336q43 28 97 33.5t86 -12.5z" />
    <glyph glyph-name="Rcommaaccent" unicode="&#x156;" horiz-adv-x="1425" 
d="M1145 1077q0 -134 -105 -249.5t-276 -176.5l424 -471q72 -84 123.5 -111.5t113.5 -27.5v-41h-327q-45 85 -121 176l-375 418h-151v-365q0 -47 5 -76t19 -52.5t41.5 -35.5t69.5 -18t106 -6v-41h-610v41q68 0 107.5 8t60.5 32.5t27 56.5t6 91v975q0 40 -1.5 61.5t-7.5 47
t-18.5 37.5t-35 23.5t-56 15.5t-82.5 4v41h479q154 0 269.5 -28t182.5 -78t99.5 -112.5t32.5 -138.5zM451 1366v-711h122q190 54 290 158t100 250q0 141 -111 222t-332 81h-69zM635 -590l-33 35q83 69 111 180q-64 48 -125 125q59 71 125 123q66 -52 125 -123
q0 -194 -203 -340z" />
    <glyph glyph-name="rcommaaccent" unicode="&#x157;" horiz-adv-x="837" 
d="M590 41v-41h-529v41q40 0 65 2.5t44.5 11t29.5 19t16 33.5t7.5 47.5t1.5 66.5v531v42t-1 34.5t-3 29.5t-6 22.5t-9.5 18.5t-14 13t-19 10t-26 5.5t-33 4t-41.5 0.5v41l321 20l-6 -241q70 123 168.5 196t189.5 51q8 -3 19 -10t21 -24t11 -38.5t-18 -55t-59 -70.5
q-32 19 -65 28t-77.5 6t-94 -41t-95.5 -110v-463q0 -62 5.5 -93t28 -53t60.5 -28t109 -6zM340 -590l-33 35q83 69 111 180q-64 48 -125 125q59 71 125 123q66 -52 125 -123q0 -194 -203 -340z" />
    <glyph glyph-name="Rcaron" unicode="&#x158;" horiz-adv-x="1425" 
d="M1145 1077q0 -134 -105 -249.5t-276 -176.5l424 -471q72 -84 123.5 -111.5t113.5 -27.5v-41h-327q-45 85 -121 176l-375 418h-151v-365q0 -47 5 -76t19 -52.5t41.5 -35.5t69.5 -18t106 -6v-41h-610v41q68 0 107.5 8t60.5 32.5t27 56.5t6 91v975q0 40 -1.5 61.5t-7.5 47
t-18.5 37.5t-35 23.5t-56 15.5t-82.5 4v41h479q154 0 269.5 -28t182.5 -78t99.5 -112.5t32.5 -138.5zM451 1366v-711h122q190 54 290 158t100 250q0 141 -111 222t-332 81h-69zM971 1870h51l-256 -342h-111l-252 342h50l258 -213z" />
    <glyph glyph-name="rcaron" unicode="&#x159;" horiz-adv-x="837" 
d="M590 41v-41h-529v41q40 0 65 2.5t44.5 11t29.5 19t16 33.5t7.5 47.5t1.5 66.5v531v42t-1 34.5t-3 29.5t-6 22.5t-9.5 18.5t-14 13t-19 10t-26 5.5t-33 4t-41.5 0.5v41l321 20l-6 -241q70 123 168.5 196t189.5 51q8 -3 19 -10t21 -24t11 -38.5t-18 -55t-59 -70.5
q-32 19 -65 28t-77.5 6t-94 -41t-95.5 -110v-463q0 -62 5.5 -93t28 -53t60.5 -28t109 -6zM676 1419h51l-256 -342h-111l-251 342h49l258 -213z" />
    <glyph glyph-name="Sacute" unicode="&#x15a;" horiz-adv-x="1054" 
d="M887 1386l-17 -247h-41q4 117 -71 184.5t-180 67.5q-53 0 -103 -17t-91 -48.5t-66 -84t-25 -117.5q0 -67 36.5 -124t94.5 -99t128 -82.5t140.5 -84t128.5 -93t94.5 -120t36.5 -154.5q0 -177 -120 -284.5t-328 -107.5q-215 0 -391 109l12 272h41q7 -77 29 -134t52.5 -91.5
t73.5 -55.5t85.5 -28.5t95.5 -7.5q134 0 205 75.5t71 184.5q0 72 -36.5 133.5t-94.5 107t-128.5 89t-140.5 89t-128 96t-94.5 121.5t-36.5 155q0 96 40 169t108 114t148 61t171 20q177 0 301 -68zM692 1884l-289 -356h-43l150 336q43 28 96.5 33t85.5 -13z" />
    <glyph glyph-name="sacute" unicode="&#x15b;" horiz-adv-x="811" 
d="M668 733h-41q12 211 -201 211q-69 0 -122.5 -44.5t-53.5 -113.5q0 -37 26.5 -73.5t68.5 -68t93 -64.5t102.5 -69t93.5 -74t68.5 -86.5t26.5 -100.5q0 -72 -34.5 -126.5t-90 -84.5t-115.5 -44.5t-120 -14.5q-81 0 -160 23.5t-127 64.5l10 225h41q14 -135 79.5 -194.5
t178.5 -59.5q75 0 125.5 47.5t50.5 101.5q0 51 -26.5 98t-68.5 83.5t-93.5 72t-102.5 70.5t-93 70.5t-68.5 79.5t-26.5 92q0 82 53 141t128.5 84t162.5 25q69 0 137 -18.5t111 -47.5zM571 1434l-288 -357h-43l149 336q43 28 96 33.5t86 -12.5z" />
    <glyph glyph-name="Scircumflex" unicode="&#x15c;" horiz-adv-x="1054" 
d="M887 1386l-17 -247h-41q4 117 -71 184.5t-180 67.5q-53 0 -103 -17t-91 -48.5t-66 -84t-25 -117.5q0 -67 36.5 -124t94.5 -99t128 -82.5t140.5 -84t128.5 -93t94.5 -120t36.5 -154.5q0 -177 -120 -284.5t-328 -107.5q-215 0 -391 109l12 272h41q7 -77 29 -134t52.5 -91.5
t73.5 -55.5t85.5 -28.5t95.5 -7.5q134 0 205 75.5t71 184.5q0 72 -36.5 133.5t-94.5 107t-128.5 89t-140.5 89t-128 96t-94.5 121.5t-36.5 155q0 96 40 169t108 114t148 61t171 20q177 0 301 -68zM836 1528h-52l-260 213l-258 -213h-49l252 342h111z" />
    <glyph glyph-name="scircumflex" unicode="&#x15d;" horiz-adv-x="811" 
d="M668 733h-41q12 211 -201 211q-69 0 -122.5 -44.5t-53.5 -113.5q0 -37 26.5 -73.5t68.5 -68t93 -64.5t102.5 -69t93.5 -74t68.5 -86.5t26.5 -100.5q0 -72 -34.5 -126.5t-90 -84.5t-115.5 -44.5t-120 -14.5q-81 0 -160 23.5t-127 64.5l10 225h41q14 -135 79.5 -194.5
t178.5 -59.5q75 0 125.5 47.5t50.5 101.5q0 51 -26.5 98t-68.5 83.5t-93.5 72t-102.5 70.5t-93 70.5t-68.5 79.5t-26.5 92q0 82 53 141t128.5 84t162.5 25q69 0 137 -18.5t111 -47.5zM715 1077h-51l-261 213l-258 -213h-49l252 342h111z" />
    <glyph glyph-name="Scedilla" unicode="&#x15e;" horiz-adv-x="1054" 
d="M887 1386l-17 -247h-41q4 117 -71 184.5t-180 67.5q-53 0 -103 -17t-91 -48.5t-66 -84t-25 -117.5q0 -67 36.5 -124t94.5 -99t128 -82.5t140.5 -84t128.5 -93t94.5 -120t36.5 -154.5q0 -172 -114 -278.5t-312 -113.5v-45q-1 -23 21 -37t54 -22.5t63.5 -19.5t54 -36.5
t22.5 -66.5q0 -52 -54.5 -95.5t-132.5 -64.5t-151 -16l-8 49q35 0 67.5 4t69 13.5t58.5 31.5t22 54q0 38 -15.5 58.5t-37 28t-42.5 14.5t-34.5 26.5t-11.5 54.5l4 69q-203 7 -362 109l12 272h41q7 -77 29 -134t52.5 -91.5t73.5 -55.5t85.5 -28.5t95.5 -7.5q134 0 205 75.5
t71 184.5q0 72 -36.5 133.5t-94.5 107t-128.5 89t-140.5 89t-128 96t-94.5 121.5t-36.5 155q0 96 40 169t108 114t148 61t171 20q177 0 301 -68z" />
    <glyph glyph-name="scedilla" unicode="&#x15f;" horiz-adv-x="811" 
d="M668 733h-41q12 211 -201 211q-69 0 -122.5 -44.5t-53.5 -113.5q0 -37 26.5 -73.5t68.5 -68t93 -64.5t102.5 -69t93.5 -74t68.5 -86.5t26.5 -100.5q0 -70 -32.5 -123.5t-86 -83.5t-111.5 -45.5t-118 -17.5v-50q-1 -23 21 -37t54 -22.5t63.5 -19.5t54 -36.5t22.5 -66.5
q0 -52 -54.5 -95.5t-132.5 -64.5t-151 -16l-8 49q35 0 67.5 4t69 13.5t58.5 31.5t22 54q0 38 -15.5 58.5t-37 28t-42.5 14.5t-34.5 26.5t-11.5 54.5l4 76q-74 5 -140.5 27t-107.5 59l10 225h41q14 -135 79.5 -194.5t178.5 -59.5q75 0 125.5 47.5t50.5 101.5q0 51 -26.5 98
t-68.5 83.5t-93.5 72t-102.5 70.5t-93 70.5t-68.5 79.5t-26.5 92q0 82 53 141t128.5 84t162.5 25q69 0 137 -18.5t111 -47.5z" />
    <glyph glyph-name="Scaron" unicode="&#x160;" horiz-adv-x="1054" 
d="M887 1386l-17 -247h-41q4 117 -71 184.5t-180 67.5q-53 0 -103 -17t-91 -48.5t-66 -84t-25 -117.5q0 -67 36.5 -124t94.5 -99t128 -82.5t140.5 -84t128.5 -93t94.5 -120t36.5 -154.5q0 -177 -120 -284.5t-328 -107.5q-215 0 -391 109l12 272h41q7 -77 29 -134t52.5 -91.5
t73.5 -55.5t85.5 -28.5t95.5 -7.5q134 0 205 75.5t71 184.5q0 72 -36.5 133.5t-94.5 107t-128.5 89t-140.5 89t-128 96t-94.5 121.5t-36.5 155q0 96 40 169t108 114t148 61t171 20q177 0 301 -68zM784 1870h52l-256 -342h-111l-252 342h49l258 -213z" />
    <glyph glyph-name="scaron" unicode="&#x161;" horiz-adv-x="811" 
d="M668 733h-41q12 211 -201 211q-69 0 -122.5 -44.5t-53.5 -113.5q0 -37 26.5 -73.5t68.5 -68t93 -64.5t102.5 -69t93.5 -74t68.5 -86.5t26.5 -100.5q0 -72 -34.5 -126.5t-90 -84.5t-115.5 -44.5t-120 -14.5q-81 0 -160 23.5t-127 64.5l10 225h41q14 -135 79.5 -194.5
t178.5 -59.5q75 0 125.5 47.5t50.5 101.5q0 51 -26.5 98t-68.5 83.5t-93.5 72t-102.5 70.5t-93 70.5t-68.5 79.5t-26.5 92q0 82 53 141t128.5 84t162.5 25q69 0 137 -18.5t111 -47.5zM664 1419h51l-256 -342h-111l-252 342h49l258 -213z" />
    <glyph glyph-name="Tcommaaccent" unicode="&#x162;" horiz-adv-x="1384" 
d="M51 1434h1282l10 -293h-40q-6 43 -12.5 73t-17 54.5t-19.5 40t-28 27t-34.5 17t-47 9t-57 4t-73.5 0.5h-238v-1137q0 -78 16.5 -115t68 -55t157.5 -18v-41h-651v41q64 0 106 6t69.5 18t41.5 35.5t19 52.5t5 76v1137h-237q-48 0 -73.5 -0.5t-57 -4t-47 -9t-34.5 -17
t-28 -27t-19.5 -40t-17 -54.5t-12.5 -73h-41zM614 -590l-32 35q82 68 110 180q-64 48 -125 125q59 71 125 123q66 -52 125 -123q0 -194 -203 -340z" />
    <glyph glyph-name="tcommaaccent" unicode="&#x163;" horiz-adv-x="677" 
d="M346 1223v-240h264v-68h-264v-602q0 -126 36 -189.5t105 -67t170 37.5l21 -37q-76 -39 -141.5 -58t-112 -20.5t-84.5 11.5t-62.5 33t-43 49.5t-27.5 56.5t-15 57.5t-7 49t-1 34.5v645h-123v58q116 0 171 56t94 194h20zM260 -590l-33 35q83 69 111 180q-64 48 -125 125
q59 71 125 123q66 -52 125 -123q0 -194 -203 -340z" />
    <glyph glyph-name="Tcaron" unicode="&#x164;" horiz-adv-x="1384" 
d="M51 1434h1282l10 -293h-40q-6 43 -12.5 73t-17 54.5t-19.5 40t-28 27t-34.5 17t-47 9t-57 4t-73.5 0.5h-238v-1137q0 -78 16.5 -115t68 -55t157.5 -18v-41h-651v41q64 0 106 6t69.5 18t41.5 35.5t19 52.5t5 76v1137h-237q-48 0 -73.5 -0.5t-57 -4t-47 -9t-34.5 -17
t-28 -27t-19.5 -40t-17 -54.5t-12.5 -73h-41zM950 1870h51l-256 -342h-110l-252 342h49l258 -213z" />
    <glyph glyph-name="tcaron" unicode="&#x165;" horiz-adv-x="677" 
d="M346 1223v-240h264v-68h-264v-602q0 -126 36 -189.5t105 -67t170 37.5l21 -37q-76 -39 -141.5 -58t-112 -20.5t-84.5 11.5t-62.5 33t-43 49.5t-27.5 56.5t-15 57.5t-7 49t-1 34.5v645h-123v58q116 0 171 56t94 194h20zM610 1024h-73l-37 430h147z" />
    <glyph glyph-name="Tbar" unicode="&#x166;" horiz-adv-x="1425" 
d="M387 682v68h242v616h-238q-48 0 -73.5 -0.5t-57 -4t-47 -9t-34.5 -17t-28 -27t-19.5 -40t-17 -54.5t-12.5 -73h-41l11 293h1282l10 -293h-41q-6 43 -12.5 73t-17 54.5t-19.5 40t-28 27t-34.5 17t-47 9t-57 4t-73.5 0.5h-237v-616h241v-68h-241v-453q0 -47 5 -76t19 -52.5
t41.5 -35.5t69.5 -18t106 -6v-41h-651v41q106 0 157.5 18t68 55t16.5 115v453h-242z" />
    <glyph glyph-name="tbar" unicode="&#x167;" horiz-adv-x="718" 
d="M61 547v67h123v301h-123v58q116 0 171 56t94 194h20v-240h264v-68h-264v-301h139v-67h-139v-234q0 -126 36 -189.5t105 -67t170 37.5l21 -37q-76 -39 -141.5 -58t-112 -20.5t-84.5 11.5t-62.5 33t-43 49.5t-27.5 56.5t-15 57.5t-7 49t-1 34.5v277h-123z" />
    <glyph glyph-name="Utilde" unicode="&#x168;" horiz-adv-x="1560" 
d="M1337 1204v-686q0 -78 -10 -143t-33 -127.5t-64 -109.5t-100 -83.5t-144 -55.5t-193 -19q-119 0 -212.5 29t-154.5 79.5t-100.5 122.5t-56.5 152.5t-17 175.5v665q0 45 -3.5 71.5t-15 52t-34.5 38t-61.5 20t-96.5 7.5v41h571v-41q-47 0 -79.5 -4t-54 -16t-33 -24
t-17.5 -38t-7 -46.5t-1 -60.5v-596q0 -290 107.5 -420.5t310.5 -130.5q195 0 306 109t111 346v692q0 54 -7.5 86t-31 57.5t-68.5 35.5t-118 10v41h490v-41q-60 0 -96 -10t-55.5 -35t-25.5 -57t-6 -87zM539 1591l-33 23q10 19 26 41.5t42.5 52.5t61 49t69.5 19q58 0 161 -33
t154 -33q64 0 113 68l32 -23q-11 -20 -26.5 -42t-41.5 -52t-60.5 -49t-69.5 -19q-58 0 -161.5 33t-154.5 33q-63 0 -112 -68z" />
    <glyph glyph-name="utilde" unicode="&#x169;" horiz-adv-x="1097" 
d="M924 993v-741v-42t1 -34.5t3 -29.5t6 -22.5t9.5 -18.5t14 -13t19 -10t26 -5.5t33 -4t41.5 -0.5v-41l-315 -51v165q-84 -82 -164 -126t-178 -44q-117 0 -182.5 66.5t-65.5 183.5l2 527q0 35 -0.5 52t-2.5 40t-5.5 32.5t-11.5 22t-18.5 17t-27.5 9.5t-37.5 6t-50.5 1v41
l316 20v-690q0 -103 39.5 -160t140.5 -57q59 0 126.5 31.5t119.5 75.5v559q0 44 -1 66.5t-7 47t-16 34t-30.5 19t-48 11.5t-71.5 2v41zM252 1141l-33 22q10 19 26 41.5t42.5 52.5t61 49t69.5 19q58 0 161 -32.5t154 -32.5q65 0 113 67l33 -22q-10 -19 -26 -41.5t-42.5 -52.5
t-61 -49t-69.5 -19q-58 0 -161 32.5t-154 32.5q-65 0 -113 -67z" />
    <glyph glyph-name="Umacron" unicode="&#x16a;" horiz-adv-x="1560" 
d="M1337 1204v-686q0 -78 -10 -143t-33 -127.5t-64 -109.5t-100 -83.5t-144 -55.5t-193 -19q-119 0 -212.5 29t-154.5 79.5t-100.5 122.5t-56.5 152.5t-17 175.5v665q0 45 -3.5 71.5t-15 52t-34.5 38t-61.5 20t-96.5 7.5v41h571v-41q-47 0 -79.5 -4t-54 -16t-33 -24
t-17.5 -38t-7 -46.5t-1 -60.5v-596q0 -290 107.5 -420.5t310.5 -130.5q195 0 306 109t111 346v692q0 54 -7.5 86t-31 57.5t-68.5 35.5t-118 10v41h490v-41q-60 0 -96 -10t-55.5 -35t-25.5 -57t-6 -87zM1147 1722v-106h-639v106h639z" />
    <glyph glyph-name="umacron" unicode="&#x16b;" horiz-adv-x="1097" 
d="M924 993v-741v-42t1 -34.5t3 -29.5t6 -22.5t9.5 -18.5t14 -13t19 -10t26 -5.5t33 -4t41.5 -0.5v-41l-315 -51v165q-84 -82 -164 -126t-178 -44q-117 0 -182.5 66.5t-65.5 183.5l2 527q0 35 -0.5 52t-2.5 40t-5.5 32.5t-11.5 22t-18.5 17t-27.5 9.5t-37.5 6t-50.5 1v41
l316 20v-690q0 -103 39.5 -160t140.5 -57q59 0 126.5 31.5t119.5 75.5v559q0 44 -1 66.5t-7 47t-16 34t-30.5 19t-48 11.5t-71.5 2v41zM868 1272v-107h-639v107h639z" />
    <glyph glyph-name="Ubreve" unicode="&#x16c;" horiz-adv-x="1560" 
d="M1337 1204v-686q0 -78 -10 -143t-33 -127.5t-64 -109.5t-100 -83.5t-144 -55.5t-193 -19q-119 0 -212.5 29t-154.5 79.5t-100.5 122.5t-56.5 152.5t-17 175.5v665q0 45 -3.5 71.5t-15 52t-34.5 38t-61.5 20t-96.5 7.5v41h571v-41q-47 0 -79.5 -4t-54 -16t-33 -24
t-17.5 -38t-7 -46.5t-1 -60.5v-596q0 -290 107.5 -420.5t310.5 -130.5q195 0 306 109t111 346v692q0 54 -7.5 86t-31 57.5t-68.5 35.5t-118 10v41h490v-41q-60 0 -96 -10t-55.5 -35t-25.5 -57t-6 -87zM535 1853h49q16 -73 82 -125.5t157 -52.5q90 0 156 52.5t82 125.5h49
q0 -122 -84.5 -216.5t-202.5 -94.5q-119 0 -203.5 94t-84.5 217z" />
    <glyph glyph-name="ubreve" unicode="&#x16d;" horiz-adv-x="1097" 
d="M924 993v-741v-42t1 -34.5t3 -29.5t6 -22.5t9.5 -18.5t14 -13t19 -10t26 -5.5t33 -4t41.5 -0.5v-41l-315 -51v165q-84 -82 -164 -126t-178 -44q-117 0 -182.5 66.5t-65.5 183.5l2 527q0 35 -0.5 52t-2.5 40t-5.5 32.5t-11.5 22t-18.5 17t-27.5 9.5t-37.5 6t-50.5 1v41
l316 20v-690q0 -103 39.5 -160t140.5 -57q59 0 126.5 31.5t119.5 75.5v559q0 44 -1 66.5t-7 47t-16 34t-30.5 19t-48 11.5t-71.5 2v41zM260 1403h49q16 -73 82.5 -125.5t157.5 -52.5q90 0 155.5 52.5t81.5 125.5h50q0 -122 -84.5 -216.5t-202.5 -94.5q-119 0 -204 94.5
t-85 216.5z" />
    <glyph glyph-name="Uring" unicode="&#x16e;" horiz-adv-x="1560" 
d="M1337 1204v-686q0 -78 -10 -143t-33 -127.5t-64 -109.5t-100 -83.5t-144 -55.5t-193 -19q-119 0 -212.5 29t-154.5 79.5t-100.5 122.5t-56.5 152.5t-17 175.5v665q0 45 -3.5 71.5t-15 52t-34.5 38t-61.5 20t-96.5 7.5v41h571v-41q-47 0 -79.5 -4t-54 -16t-33 -24
t-17.5 -38t-7 -46.5t-1 -60.5v-596q0 -290 107.5 -420.5t310.5 -130.5q195 0 306 109t111 346v692q0 54 -7.5 86t-31 57.5t-68.5 35.5t-118 10v41h490v-41q-60 0 -96 -10t-55.5 -35t-25.5 -57t-6 -87zM612 1718q0 86 60.5 146.5t146.5 60.5t146.5 -60.5t60.5 -146.5
t-60.5 -146.5t-146.5 -60.5t-146.5 60.5t-60.5 146.5zM694 1718q0 -52 36 -88.5t89 -36.5q51 0 88 36.5t37 88.5q0 51 -37 88t-88 37q-52 0 -88.5 -37t-36.5 -88z" />
    <glyph glyph-name="uring" unicode="&#x16f;" horiz-adv-x="1097" 
d="M924 993v-741v-42t1 -34.5t3 -29.5t6 -22.5t9.5 -18.5t14 -13t19 -10t26 -5.5t33 -4t41.5 -0.5v-41l-315 -51v165q-84 -82 -164 -126t-178 -44q-117 0 -182.5 66.5t-65.5 183.5l2 527q0 35 -0.5 52t-2.5 40t-5.5 32.5t-11.5 22t-18.5 17t-27.5 9.5t-37.5 6t-50.5 1v41
l316 20v-690q0 -103 39.5 -160t140.5 -57q59 0 126.5 31.5t119.5 75.5v559q0 44 -1 66.5t-7 47t-16 34t-30.5 19t-48 11.5t-71.5 2v41zM342 1276q0 86 60.5 146.5t146.5 60.5t146.5 -60.5t60.5 -146.5t-60.5 -146.5t-146.5 -60.5t-146.5 60.5t-60.5 146.5zM424 1276
q0 -52 36 -88.5t89 -36.5q51 0 88 36.5t37 88.5q0 51 -37 88t-88 37q-52 0 -88.5 -37t-36.5 -88z" />
    <glyph glyph-name="Uhungarumlaut" unicode="&#x170;" horiz-adv-x="1560" 
d="M1337 1204v-686q0 -78 -10 -143t-33 -127.5t-64 -109.5t-100 -83.5t-144 -55.5t-193 -19q-119 0 -212.5 29t-154.5 79.5t-100.5 122.5t-56.5 152.5t-17 175.5v665q0 45 -3.5 71.5t-15 52t-34.5 38t-61.5 20t-96.5 7.5v41h571v-41q-47 0 -79.5 -4t-54 -16t-33 -24
t-17.5 -38t-7 -46.5t-1 -60.5v-596q0 -290 107.5 -420.5t310.5 -130.5q195 0 306 109t111 346v692q0 54 -7.5 86t-31 57.5t-68.5 35.5t-118 10v41h490v-41q-60 0 -96 -10t-55.5 -35t-25.5 -57t-6 -87zM907 1884l-289 -356h-43l150 336q43 28 96.5 33t85.5 -13zM1171 1884
l-288 -356h-43l149 336q43 28 96.5 33t85.5 -13z" />
    <glyph glyph-name="uhungarumlaut" unicode="&#x171;" horiz-adv-x="1097" 
d="M924 993v-741v-42t1 -34.5t3 -29.5t6 -22.5t9.5 -18.5t14 -13t19 -10t26 -5.5t33 -4t41.5 -0.5v-41l-315 -51v165q-84 -82 -164 -126t-178 -44q-117 0 -182.5 66.5t-65.5 183.5l2 527q0 35 -0.5 52t-2.5 40t-5.5 32.5t-11.5 22t-18.5 17t-27.5 9.5t-37.5 6t-50.5 1v41
l316 20v-690q0 -103 39.5 -160t140.5 -57q59 0 126.5 31.5t119.5 75.5v559q0 44 -1 66.5t-7 47t-16 34t-30.5 19t-48 11.5t-71.5 2v41zM582 1434l-289 -357h-43l149 336q43 28 97 33.5t86 -12.5zM846 1434l-289 -357h-43l150 336q43 28 96 33.5t86 -12.5z" />
    <glyph glyph-name="Uogonek" unicode="&#x172;" horiz-adv-x="1560" 
d="M1337 1204v-686q0 -79 -10 -145t-35 -129t-65.5 -110t-104 -83t-147.5 -53q-145 -133 -148 -241q-2 -74 64 -102q79 -32 194 23v-61q-104 -86 -202 -86q-79 0 -132 50.5t-53 125.5q0 155 179 277q-54 -4 -84 -4q-119 0 -212.5 29t-154.5 79.5t-100.5 122.5t-56.5 152.5
t-17 175.5v665q0 45 -3.5 71.5t-15 52t-34.5 38t-61.5 20t-96.5 7.5v41h571v-41q-47 0 -79.5 -4t-54 -16t-33 -24t-17.5 -38t-7 -46.5t-1 -60.5v-596q0 -290 107.5 -420.5t310.5 -130.5q195 0 306 109t111 346v692q0 54 -7.5 86t-31 57.5t-68.5 35.5t-118 10v41h490v-41
q-60 0 -96 -10t-55.5 -35t-25.5 -57t-6 -87z" />
    <glyph glyph-name="uogonek" unicode="&#x173;" horiz-adv-x="1097" 
d="M924 993v-741v-42t1 -34.5t3 -29.5t6 -22.5t9.5 -18.5t14 -13t19 -10t26 -5.5t33 -4t41.5 -0.5v-41l-121 -21q-140 -131 -139 -236q0 -71 67 -97q78 -29 191 24v-61q-104 -86 -203 -86q-79 0 -131.5 50.5t-52.5 125.5q0 149 160 264l-86 -14v165q-84 -82 -164 -126
t-178 -44q-117 0 -182.5 66.5t-65.5 183.5l2 527q0 35 -0.5 52t-2.5 40t-5.5 32.5t-11.5 22t-18.5 17t-27.5 9.5t-37.5 6t-50.5 1v41l316 20v-690q0 -103 39.5 -160t140.5 -57q59 0 126.5 31.5t119.5 75.5v559q0 44 -1 66.5t-7 47t-16 34t-30.5 19t-48 11.5t-71.5 2v41z" />
    <glyph glyph-name="Wcircumflex" unicode="&#x174;" horiz-adv-x="2146" 
d="M1124 1206l340 -940l322 940q12 36 17 60t2 50t-19 41.5t-50.5 25.5t-88.5 10v41h479v-41q-37 0 -68 -6.5t-52.5 -15t-40.5 -26t-29.5 -29.5t-22.5 -36.5t-16.5 -36t-14.5 -37.5l-432 -1216h-59l-320 841l-299 -841h-59l-461 1214q-11 29 -15.5 40t-17 36.5t-22.5 36.5
t-28.5 29t-38 26t-48 14.5t-62.5 6.5v41h488v-41q-31 0 -51 -8t-27.5 -24.5t-10.5 -33t2.5 -41t10.5 -40.5t14 -40l340 -940l236 692l-92 246q-11 29 -15.5 40t-17 36.5t-22.5 36.5t-28.5 29t-38 26t-48 14.5t-62.5 6.5v41h549v-41q-55 0 -88.5 -13t-47 -28t-12 -45.5t6 -46
t16.5 -48.5q1 -4 2 -6zM1382 1528h-51l-260 213l-258 -213h-49l252 342h110z" />
    <glyph glyph-name="wcircumflex" unicode="&#x175;" horiz-adv-x="1572" 
d="M1391 793l-301 -803h-52l-247 708l-256 -708h-52l-297 803q-31 81 -43 100q-31 45 -106 49h-17v41h437v-41q-41 0 -66 -6t-37.5 -15.5t-13.5 -30t3.5 -39.5t16.5 -54l193 -588l268 774h43l244 -774l213 588q31 75 8.5 110t-117.5 35v41h340v-41q-22 0 -40 -3.5t-30.5 -7
t-24 -14.5t-18 -17t-14.5 -23t-11.5 -24t-11.5 -29.5t-11 -30.5zM1096 1077h-52l-260 213l-258 -213h-49l252 342h111z" />
    <glyph glyph-name="Ycircumflex" unicode="&#x176;" 
d="M440 1231l295 -533l293 543q11 21 18 39t6.5 39.5t-12.5 37t-43.5 26t-81.5 10.5v41h453v-41q-97 0 -153 -39.5t-111 -136.5l-328 -603v-385q0 -117 49 -152.5t193 -35.5v-41h-651v41q72 0 114.5 7t73 27.5t42 56.5t11.5 97v385l-364 631q-45 79 -64 100q-42 43 -130 47
q-14 1 -30 1v41h527v-41q-108 0 -132 -36.5t25 -125.5zM1004 1528h-52l-260 213l-258 -213h-49l252 342h111z" />
    <glyph glyph-name="ycircumflex" unicode="&#x177;" horiz-adv-x="1048" 
d="M866 793l-317 -803q-35 -88 -74 -165.5t-90.5 -154.5t-112.5 -122.5t-122 -45.5q-8 0 -21 4.5t-27 18.5t-21 34.5t2 57t38 82.5q31 -9 58 -10.5t68.5 11t78.5 44.5t81.5 100.5t84.5 167.5l-306 781q-2 6 -10 27t-10 25.5t-9.5 21.5t-11 20.5t-11.5 15.5t-15 14.5
t-17.5 10t-22 9t-26.5 3.5t-33 2v41h437v-41q-51 0 -79 -8t-35.5 -28.5t-3 -43.5t20.5 -65l207 -598l230 598q32 75 9 110t-118 35v41h340v-41q-22 0 -40 -3.5t-30.5 -7.5t-24 -14t-18 -17t-14.5 -22.5t-11.5 -24.5t-11.5 -29.5t-12 -30.5zM834 1077h-52l-260 213l-258 -213
h-49l252 342h111z" />
    <glyph glyph-name="Ydieresis" unicode="&#x178;" 
d="M440 1231l295 -533l293 543q11 21 18 39t6.5 39.5t-12.5 37t-43.5 26t-81.5 10.5v41h453v-41q-97 0 -153 -39.5t-111 -136.5l-328 -603v-385q0 -117 49 -152.5t193 -35.5v-41h-651v41q72 0 114.5 7t73 27.5t42 56.5t11.5 97v385l-364 631q-45 79 -64 100q-42 43 -130 47
q-14 1 -30 1v41h527v-41q-108 0 -132 -36.5t25 -125.5zM504 1561q-62 43 -113 112q51 66 113 111q60 -43 112 -111q-43 -62 -112 -112zM883 1561q-62 43 -113 112q51 66 113 111q60 -43 112 -111q-43 -62 -112 -112z" />
    <glyph glyph-name="Zacute" unicode="&#x179;" horiz-adv-x="1370" 
d="M1202 1434l41 -41l-926 -1305h594q74 0 122 6.5t86 21.5t61 46t39 74.5t28 111.5h41l-22 -348h-1143l-41 41l928 1307h-627q-33 0 -60.5 -4t-48 -9t-37 -17t-27.5 -21t-20.5 -28.5t-14.5 -31t-10.5 -37.5t-7.5 -39.5t-7 -44.5h-41l18 318h1075zM850 1884l-289 -356h-43
l150 336q43 28 96.5 33t85.5 -13z" />
    <glyph glyph-name="zacute" unicode="&#x17a;" horiz-adv-x="886" 
d="M807 967l-543 -899h322q109 0 148 49t50 174h41l-18 -291h-725l-21 27l541 888h-274q-112 0 -150 -38.5t-49 -157.5h-41l18 264h689zM608 1434l-289 -357h-43l150 336q43 28 96 33.5t86 -12.5z" />
    <glyph glyph-name="Zdotaccent" unicode="&#x17b;" horiz-adv-x="1370" 
d="M1202 1434l41 -41l-926 -1305h594q74 0 122 6.5t86 21.5t61 46t39 74.5t28 111.5h41l-22 -348h-1143l-41 41l928 1307h-627q-33 0 -60.5 -4t-48 -9t-37 -17t-27.5 -21t-20.5 -28.5t-14.5 -31t-10.5 -37.5t-7.5 -39.5t-7 -44.5h-41l18 318h1075zM684 1561q-62 43 -113 112
q51 66 113 111q62 -45 113 -111q-42 -61 -113 -112z" />
    <glyph glyph-name="zdotaccent" unicode="&#x17c;" horiz-adv-x="886" 
d="M807 967l-543 -899h322q109 0 148 49t50 174h41l-18 -291h-725l-21 27l541 888h-274q-112 0 -150 -38.5t-49 -157.5h-41l18 264h689zM442 1110q-59 41 -112 113q50 65 112 110q64 -46 113 -110q-43 -63 -113 -113z" />
    <glyph glyph-name="Zcaron" unicode="&#x17d;" horiz-adv-x="1370" 
d="M1202 1434l41 -41l-926 -1305h594q74 0 122 6.5t86 21.5t61 46t39 74.5t28 111.5h41l-22 -348h-1143l-41 41l928 1307h-627q-33 0 -60.5 -4t-48 -9t-37 -17t-27.5 -21t-20.5 -28.5t-14.5 -31t-10.5 -37.5t-7.5 -39.5t-7 -44.5h-41l18 318h1075zM942 1870h51l-256 -342
h-110l-252 342h49l258 -213z" />
    <glyph glyph-name="zcaron" unicode="&#x17e;" horiz-adv-x="886" 
d="M807 967l-543 -899h322q109 0 148 49t50 174h41l-18 -291h-725l-21 27l541 888h-274q-112 0 -150 -38.5t-49 -157.5h-41l18 264h689zM700 1419h52l-256 -342h-111l-252 342h49l258 -213z" />
    <glyph glyph-name="longs" unicode="&#x17f;" horiz-adv-x="557" 
d="M397 983v-762q0 -50 4 -77.5t14.5 -50.5t34.5 -33t59 -14.5t93 -4.5v-41h-541v41q60 0 92.5 6t52.5 27.5t25 53.5t5 93v799q0 91 39 178t96.5 146t122.5 95t118 36q11 0 21.5 -1.5t25 -11t18.5 -26t-5.5 -50.5t-38.5 -81q-2 2 -13 11t-17 13t-17 12.5t-19.5 13t-19.5 9.5
t-21 7.5t-20 2.5q-23 0 -41 -16.5t-34.5 -57t-25 -120.5t-8.5 -197z" />
    <glyph glyph-name="florin" unicode="&#x192;" horiz-adv-x="663" 
d="M326 850h-154l12 68h154l14 81q16 91 70.5 178t122.5 146t139.5 95t124.5 36q60 0 58 -45q-2 -44 -66 -125q-2 1 -14 12.5t-17 16.5t-17.5 14.5t-21.5 14t-21.5 8.5t-23.5 4q-48 0 -97 -104.5t-89 -331.5h233l-12 -68h-234l-135 -776q-16 -91 -70 -178t-122 -146
t-139.5 -95t-124.5 -36q-60 0 -58 45q2 44 66 125q3 -2 14 -12.5t17 -16t17.5 -14.5t21 -14t21.5 -9t23 -4q23 0 44.5 16.5t44.5 57t46 121t44 197.5z" />
    <glyph glyph-name="Aringacute" unicode="&#x1fa;" horiz-adv-x="1515" 
d="M1075 229l-69 189h-578l-72 -189q-33 -96 2.5 -142t157.5 -46v-41h-496v41q110 0 156 37t92 151l482 1225h24l479 -1225q23 -59 41 -91t45 -56.5t63 -32.5t93 -8v-41h-563v41q127 0 155 42.5t-12 145.5zM719 1188l-266 -703h526zM1018 2085l-227 -225h-39l102 206
q38 25 86.5 30t77.5 -11zM614 1651q0 64 45.5 109.5t110.5 45.5t110.5 -45.5t45.5 -109.5q0 -65 -46 -110.5t-110 -45.5t-110 45.5t-46 110.5zM686 1651q0 -35 24.5 -59.5t59.5 -24.5q34 0 58 24.5t24 59.5q0 34 -24 58t-58 24q-35 0 -59.5 -24t-24.5 -58z" />
    <glyph glyph-name="aringacute" unicode="&#x1fb;" horiz-adv-x="929" 
d="M889 57l20 -37q-87 -40 -161 -40q-111 0 -148 118q-154 -118 -291 -118q-98 0 -162.5 73t-64.5 193q0 35 17.5 63t44 46.5t69.5 33t80 22.5t91.5 14t88.5 8t84 5q27 1 39 2v326q0 87 -32.5 133.5t-108.5 46.5q-49 0 -88 -16t-60 -41t-34 -56t-11.5 -61.5t8.5 -56.5
q-34 -21 -61 -32t-44 -13.5t-29 3t-17.5 11.5t-8.5 18t-3.5 17t-0.5 14q0 67 67 131.5t162.5 102t180.5 37.5q64 0 110.5 -14t72 -34t40 -50t18 -55t3.5 -56v-648q0 -17 2 -31.5t9.5 -33.5t21.5 -26.5t37.5 -11t58.5 12.5zM248 227q12 -170 114 -170q56 0 122 25.5t112 67.5
v245q-174 -14 -214 -23q-97 -19 -122 -78q-12 -28 -12 -67zM666 1663l-228 -225h-39l103 207q38 25 86.5 29.5t77.5 -11.5zM262 1229q0 64 45.5 109.5t110.5 45.5q64 0 109.5 -45t45.5 -110t-45.5 -110.5t-109.5 -45.5t-110 45.5t-46 110.5zM334 1229q0 -35 24.5 -59.5
t59.5 -24.5q34 0 58 24.5t24 59.5q0 34 -24 58t-58 24q-35 0 -59.5 -24t-24.5 -58z" />
    <glyph glyph-name="AEacute" unicode="&#x1fc;" horiz-adv-x="1904" 
d="M1741 1434l10 -293h-41q-6 43 -12.5 73t-17 54.5t-19.5 40t-28 27t-34.5 17t-47 9t-57 4t-73.5 0.5h-340v-582h293q41 0 66 2t46 9.5t31.5 18.5t17.5 33t9 48.5t2 69.5h41v-435h-41q0 44 -2 71.5t-9 50.5t-17.5 34t-31.5 19t-46 10t-66 2h-293v-475q0 -93 40.5 -132.5
t146.5 -39.5h254q60 0 97 8t72 34t56.5 78t34.5 136h41l-21 -326h-684q-41 0 -73 7t-53 17.5t-36.5 28.5t-23.5 35.5t-12.5 43.5t-5.5 46.5t-1 50.5v189h-467l-96 -189q-19 -39 -28.5 -62t-13.5 -49.5t7.5 -41t40.5 -24t78 -9.5v-43h-414v43q55 0 90.5 9t62.5 35t43.5 52
t44.5 80q3 7 5 10l621 1205h854zM481 485h432v848zM1278 1884l-289 -356h-43l150 336q43 28 96.5 33t85.5 -13z" />
    <glyph glyph-name="aeacute" unicode="&#x1fd;" horiz-adv-x="1449" 
d="M1044 1004q42 0 83.5 -9t84.5 -29.5t75.5 -52.5t55 -78.5t23.5 -108t-18 -140.5l-588 -33q-7 -108 13 -195.5t60 -144.5t97 -90t123.5 -37t141 19t146.5 73l21 -37q-130 -115 -265.5 -147.5t-244 15t-176.5 159.5q-80 -87 -181 -137.5t-186 -50.5q-98 0 -162.5 73
t-64.5 193q0 135 262 173q70 10 254 19q-2 18 -2 328q0 87 -32.5 133.5t-108.5 46.5q-49 0 -88 -16t-60 -41t-34 -56t-11.5 -61.5t8.5 -56.5q-34 -21 -61 -32t-44 -13.5t-29 3t-17.5 11.5t-8.5 18t-3.5 17t-0.5 14q0 67 67 131.5t162.5 102t180.5 37.5q193 0 232 -123
q129 123 296 123zM1044 944q-127 0 -202.5 -100t-77.5 -232l414 23q19 64 23 117t-8 97.5t-50 69.5t-99 25zM362 57q66 0 149 38.5t144 111.5q-40 78 -55 188q-55 -3 -87.5 -5t-75.5 -7t-67 -12t-50.5 -19t-40 -29t-22.5 -41t-9 -55q12 -170 114 -170zM891 1434l-289 -357
h-43l150 336q43 28 96 33.5t86 -12.5z" />
    <glyph glyph-name="Oslashacute" unicode="&#x1fe;" horiz-adv-x="1644" 
d="M227 -43l-53 43l148 176q-104 101 -162 241t-58 300q0 153 54.5 289.5t149 234.5t229 155.5t288.5 57.5q253 0 447 -151l145 174l53 -43l-147 -177q105 -101 163 -240.5t58 -299.5q0 -123 -34.5 -235.5t-99 -203t-151.5 -158t-199 -104t-235 -36.5q-254 0 -448 151z
M287 717q0 -246 127 -432l772 919q-72 85 -165.5 131.5t-197.5 46.5q-146 0 -269.5 -89t-195 -242t-71.5 -334zM823 51q146 0 269.5 89.5t194.5 242.5t71 334q0 243 -129 432l-772 -920q154 -178 366 -178zM987 1884l-289 -356h-43l150 336q43 28 96.5 33t85.5 -13z" />
    <glyph glyph-name="oslashacute" unicode="&#x1ff;" horiz-adv-x="1038" 
d="M184 -39l-55 39l80 113q-127 146 -127 379q0 141 54.5 257.5t156.5 185.5t233 69q137 0 246 -82l70 100l55 -39l-74 -106q133 -145 133 -385q0 -141 -55 -257.5t-157.5 -185.5t-233.5 -69q-146 0 -252 86zM518 39q74 0 127.5 35t83.5 98.5t43.5 142.5t13.5 177
q0 166 -38 276l-431 -614q69 -115 201 -115zM252 492q0 -163 35 -267l426 613q-66 106 -195 106q-266 0 -266 -452zM684 1434l-289 -357h-43l150 336q43 28 96 33.5t86 -12.5z" />
    <glyph glyph-name="Scommaaccent" unicode="&#x218;" horiz-adv-x="1054" 
d="M887 1386l-17 -247h-41q4 117 -71 184.5t-180 67.5q-53 0 -103 -17t-91 -48.5t-66 -84t-25 -117.5q0 -67 36.5 -124t94.5 -99t128 -82.5t140.5 -84t128.5 -93t94.5 -120t36.5 -154.5q0 -177 -120 -284.5t-328 -107.5q-215 0 -391 109l12 272h41q7 -77 29 -134t52.5 -91.5
t73.5 -55.5t85.5 -28.5t95.5 -7.5q134 0 205 75.5t71 184.5q0 72 -36.5 133.5t-94.5 107t-128.5 89t-140.5 89t-128 96t-94.5 121.5t-36.5 155q0 96 40 169t108 114t148 61t171 20q177 0 301 -68zM449 -590l-33 35q82 68 110 180q-64 48 -125 125q59 71 125 123
q66 -52 125 -123q0 -194 -202 -340z" />
    <glyph glyph-name="scommaaccent" unicode="&#x219;" horiz-adv-x="811" 
d="M668 733h-41q12 211 -201 211q-69 0 -122.5 -44.5t-53.5 -113.5q0 -37 26.5 -73.5t68.5 -68t93 -64.5t102.5 -69t93.5 -74t68.5 -86.5t26.5 -100.5q0 -72 -34.5 -126.5t-90 -84.5t-115.5 -44.5t-120 -14.5q-81 0 -160 23.5t-127 64.5l10 225h41q14 -135 79.5 -194.5
t178.5 -59.5q75 0 125.5 47.5t50.5 101.5q0 51 -26.5 98t-68.5 83.5t-93.5 72t-102.5 70.5t-93 70.5t-68.5 79.5t-26.5 92q0 82 53 141t128.5 84t162.5 25q69 0 137 -18.5t111 -47.5zM328 -590l-33 35q83 69 111 180q-64 48 -125 125q59 71 125 123q63 -50 124 -123
q0 -194 -202 -340z" />
    <glyph glyph-name="circumflex" unicode="&#x2c6;" horiz-adv-x="823" 
d="M721 1077h-51l-260 213l-258 -213h-50l252 342h111z" />
    <glyph glyph-name="caron" unicode="&#x2c7;" horiz-adv-x="823" 
d="M670 1419h51l-256 -342h-111l-252 342h50l258 -213z" />
    <glyph glyph-name="breve" unicode="&#x2d8;" horiz-adv-x="780" 
d="M102 1403h50q16 -73 82 -125.5t157 -52.5q90 0 156 52.5t82 125.5h49q0 -122 -84.5 -216.5t-202.5 -94.5q-119 0 -204 94.5t-85 216.5z" />
    <glyph glyph-name="dotaccent" unicode="&#x2d9;" horiz-adv-x="430" 
d="M215 1110q-61 42 -113 113q49 64 113 110q64 -46 113 -110q-43 -63 -113 -113z" />
    <glyph glyph-name="ring" unicode="&#x2da;" horiz-adv-x="618" 
d="M102 1333q0 86 60.5 146.5t146.5 60.5t146.5 -60.5t60.5 -146.5t-60.5 -146.5t-146.5 -60.5t-146.5 60.5t-60.5 146.5zM184 1333q0 -53 36 -89t89 -36q51 0 88 36.5t37 88.5q0 51 -37 88t-88 37q-52 0 -88.5 -37t-36.5 -88z" />
    <glyph glyph-name="ogonek" unicode="&#x2db;" horiz-adv-x="591" 
d="M307 0h76q-147 -134 -151 -242q-3 -75 63 -103q79 -32 194 23v-61q-104 -86 -202 -86q-79 0 -132 50.5t-53 125.5q0 167 205 293z" />
    <glyph glyph-name="tilde" unicode="&#x2dc;" horiz-adv-x="864" 
d="M135 1141l-33 22q10 19 26 41.5t42.5 52.5t61 49t69.5 19q58 0 161 -32.5t154 -32.5q65 0 113 67l33 -22q-10 -19 -26 -41.5t-42.5 -52.5t-61 -49t-69.5 -19q-58 0 -161 32.5t-154 32.5q-65 0 -113 -67z" />
    <glyph glyph-name="hungarumlaut" unicode="&#x2dd;" horiz-adv-x="800" 
d="M434 1434l-289 -357h-43l150 336q43 28 96 33.5t86 -12.5zM698 1434l-288 -357h-43l149 336q43 28 96 33.5t86 -12.5z" />
    <glyph glyph-name="gravecomb" unicode="&#x300;" horiz-adv-x="536" 
d="M391 1241l-289 356q32 18 86 13t97 -33l149 -336h-43z" />
    <glyph glyph-name="acutecomb" unicode="&#x301;" horiz-adv-x="536" 
d="M434 1597l-289 -356h-43l150 336q43 28 96.5 33t85.5 -13z" />
    <glyph glyph-name="circumflexcomb" unicode="&#x302;" horiz-adv-x="823" 
d="M721 1241h-51l-260 213l-258 -213h-50l252 342h111z" />
    <glyph glyph-name="tildecomb" unicode="&#x303;" horiz-adv-x="864" 
d="M135 1305l-33 22q10 19 26 41.5t42.5 52.5t61 49t69.5 19q58 0 161 -33t154 -33q64 0 113 68l33 -23q-10 -19 -26 -41.5t-42.5 -52t-61 -48.5t-69.5 -19q-58 0 -161 32.5t-154 32.5q-65 0 -113 -67z" />
    <glyph glyph-name="macroncomb" unicode="&#x304;" horiz-adv-x="843" 
d="M741 1436v-107h-639v107h639z" />
    <glyph glyph-name="brevecomb" unicode="&#x306;" horiz-adv-x="780" 
d="M102 1567h50q16 -73 82 -125.5t157 -52.5q90 0 156 52.5t82 125.5h49q0 -122 -84.5 -217t-202.5 -95q-119 0 -204 94.5t-85 217.5z" />
    <glyph glyph-name="dotaccentcomb" unicode="&#x307;" horiz-adv-x="430" 
d="M215 1274q-62 43 -113 112q51 66 113 111q62 -45 113 -111q-42 -61 -113 -112z" />
    <glyph glyph-name="dieresiscomb" unicode="&#x308;" horiz-adv-x="808" 
d="M215 1274q-62 43 -113 112q51 66 113 111q62 -45 113 -111q-42 -61 -113 -112zM594 1274q-62 43 -113 112q51 66 113 111q62 -45 113 -111q-42 -61 -113 -112z" />
    <glyph glyph-name="Delta" unicode="&#x394;" horiz-adv-x="1331" 
d="M1208 0h-1085l543 1276zM307 123h717l-358 840z" />
    <glyph glyph-name="Delta" unicode="&#x2206;" horiz-adv-x="1331" 
d="M1208 0h-1085l543 1276zM307 123h717l-358 840z" />
    <glyph glyph-name="pi" unicode="&#x3c0;" horiz-adv-x="1220" 
d="M82 983h1057v-41q-36 0 -59 -2.5t-40.5 -11t-27 -19.5t-15 -33.5t-7 -47t-1.5 -66.5v-541q0 -42 1.5 -66.5t7 -47t15 -33.5t27 -19.5t40.5 -11t59 -2.5v-41h-475v41q40 0 65 2.5t44.5 11t29 19t15.5 33.5t7.5 47.5t1.5 66.5v541q0 42 -1.5 66.5t-7.5 47.5t-15.5 33.5
t-29 19t-44.5 11t-65 2.5h-107q-54 0 -81.5 -6t-44 -28t-20 -52.5t-3.5 -93.5v-541q0 -42 1.5 -66.5t7 -47.5t14.5 -33.5t26.5 -19t40.5 -11t59 -2.5v-41h-475v41q40 0 65 2.5t44.5 11t29.5 19t16 33.5t7.5 47.5t1.5 66.5v541q0 42 -1.5 66.5t-7.5 47.5t-16 33.5t-29.5 19
t-44.5 11t-65 2.5v41z" />
    <glyph glyph-name="Wgrave" unicode="&#x1e80;" horiz-adv-x="2146" 
d="M1124 1206l340 -940l322 940q12 36 17 60t2 50t-19 41.5t-50.5 25.5t-88.5 10v41h479v-41q-37 0 -68 -6.5t-52.5 -15t-40.5 -26t-29.5 -29.5t-22.5 -36.5t-16.5 -36t-14.5 -37.5l-432 -1216h-59l-320 841l-299 -841h-59l-461 1214q-11 29 -15.5 40t-17 36.5t-22.5 36.5
t-28.5 29t-38 26t-48 14.5t-62.5 6.5v41h488v-41q-31 0 -51 -8t-27.5 -24.5t-10.5 -33t2.5 -41t10.5 -40.5t14 -40l340 -940l236 692l-92 246q-11 29 -15.5 40t-17 36.5t-22.5 36.5t-28.5 29t-38 26t-48 14.5t-62.5 6.5v41h549v-41q-55 0 -88.5 -13t-47 -28t-12 -45.5t6 -46
t16.5 -48.5q1 -4 2 -6zM1067 1528l-289 356q32 18 86 13t97 -33l149 -336h-43z" />
    <glyph glyph-name="wgrave" unicode="&#x1e81;" horiz-adv-x="1572" 
d="M1391 793l-301 -803h-52l-247 708l-256 -708h-52l-297 803q-31 81 -43 100q-31 45 -106 49h-17v41h437v-41q-41 0 -66 -6t-37.5 -15.5t-13.5 -30t3.5 -39.5t16.5 -54l193 -588l268 774h43l244 -774l213 588q31 75 8.5 110t-117.5 35v41h340v-41q-22 0 -40 -3.5t-30.5 -7
t-24 -14.5t-18 -17t-14.5 -23t-11.5 -24t-11.5 -29.5t-11 -30.5zM909 1077l-288 357q33 18 86 12.5t96 -33.5l149 -336h-43z" />
    <glyph glyph-name="Wacute" unicode="&#x1e82;" horiz-adv-x="2146" 
d="M1124 1206l340 -940l322 940q12 36 17 60t2 50t-19 41.5t-50.5 25.5t-88.5 10v41h479v-41q-37 0 -68 -6.5t-52.5 -15t-40.5 -26t-29.5 -29.5t-22.5 -36.5t-16.5 -36t-14.5 -37.5l-432 -1216h-59l-320 841l-299 -841h-59l-461 1214q-11 29 -15.5 40t-17 36.5t-22.5 36.5
t-28.5 29t-38 26t-48 14.5t-62.5 6.5v41h488v-41q-31 0 -51 -8t-27.5 -24.5t-10.5 -33t2.5 -41t10.5 -40.5t14 -40l340 -940l236 692l-92 246q-11 29 -15.5 40t-17 36.5t-22.5 36.5t-28.5 29t-38 26t-48 14.5t-62.5 6.5v41h549v-41q-55 0 -88.5 -13t-47 -28t-12 -45.5t6 -46
t16.5 -48.5q1 -4 2 -6zM1411 1884l-289 -356h-43l150 336q43 28 96.5 33t85.5 -13z" />
    <glyph glyph-name="wacute" unicode="&#x1e83;" horiz-adv-x="1572" 
d="M1391 793l-301 -803h-52l-247 708l-256 -708h-52l-297 803q-31 81 -43 100q-31 45 -106 49h-17v41h437v-41q-41 0 -66 -6t-37.5 -15.5t-13.5 -30t3.5 -39.5t16.5 -54l193 -588l268 774h43l244 -774l213 588q31 75 8.5 110t-117.5 35v41h340v-41q-22 0 -40 -3.5t-30.5 -7
t-24 -14.5t-18 -17t-14.5 -23t-11.5 -24t-11.5 -29.5t-11 -30.5zM952 1434l-288 -357h-43l149 336q43 28 96 33.5t86 -12.5z" />
    <glyph glyph-name="Wdieresis" unicode="&#x1e84;" horiz-adv-x="2146" 
d="M1124 1206l340 -940l322 940q12 36 17 60t2 50t-19 41.5t-50.5 25.5t-88.5 10v41h479v-41q-37 0 -68 -6.5t-52.5 -15t-40.5 -26t-29.5 -29.5t-22.5 -36.5t-16.5 -36t-14.5 -37.5l-432 -1216h-59l-320 841l-299 -841h-59l-461 1214q-11 29 -15.5 40t-17 36.5t-22.5 36.5
t-28.5 29t-38 26t-48 14.5t-62.5 6.5v41h488v-41q-31 0 -51 -8t-27.5 -24.5t-10.5 -33t2.5 -41t10.5 -40.5t14 -40l340 -940l236 692l-92 246q-11 29 -15.5 40t-17 36.5t-22.5 36.5t-28.5 29t-38 26t-48 14.5t-62.5 6.5v41h549v-41q-55 0 -88.5 -13t-47 -28t-12 -45.5t6 -46
t16.5 -48.5q1 -4 2 -6zM883 1561q-62 43 -113 112q51 66 113 111q60 -43 112 -111q-43 -62 -112 -112zM1262 1561q-62 43 -113 112q51 66 113 111q60 -43 112 -111q-43 -62 -112 -112z" />
    <glyph glyph-name="wdieresis" unicode="&#x1e85;" horiz-adv-x="1572" 
d="M1391 793l-301 -803h-52l-247 708l-256 -708h-52l-297 803q-31 81 -43 100q-31 45 -106 49h-17v41h437v-41q-41 0 -66 -6t-37.5 -15.5t-13.5 -30t3.5 -39.5t16.5 -54l193 -588l268 774h43l244 -774l213 588q31 75 8.5 110t-117.5 35v41h340v-41q-22 0 -40 -3.5t-30.5 -7
t-24 -14.5t-18 -17t-14.5 -23t-11.5 -24t-11.5 -29.5t-11 -30.5zM596 1110q-61 42 -113 113q49 64 113 110q64 -46 113 -110q-43 -63 -113 -113zM975 1110q-61 42 -113 113q49 64 113 110q62 -45 112 -110q-44 -64 -112 -113z" />
    <glyph glyph-name="Ygrave" unicode="&#x1ef2;" 
d="M440 1231l295 -533l293 543q11 21 18 39t6.5 39.5t-12.5 37t-43.5 26t-81.5 10.5v41h453v-41q-97 0 -153 -39.5t-111 -136.5l-328 -603v-385q0 -117 49 -152.5t193 -35.5v-41h-651v41q72 0 114.5 7t73 27.5t42 56.5t11.5 97v385l-364 631q-45 79 -64 100q-42 43 -130 47
q-14 1 -30 1v41h527v-41q-108 0 -132 -36.5t25 -125.5zM817 1528l-289 356q32 18 86 13t97 -33l149 -336h-43z" />
    <glyph glyph-name="ygrave" unicode="&#x1ef3;" horiz-adv-x="1048" 
d="M866 793l-317 -803q-35 -88 -74 -165.5t-90.5 -154.5t-112.5 -122.5t-122 -45.5q-8 0 -21 4.5t-27 18.5t-21 34.5t2 57t38 82.5q31 -9 58 -10.5t68.5 11t78.5 44.5t81.5 100.5t84.5 167.5l-306 781q-2 6 -10 27t-10 25.5t-9.5 21.5t-11 20.5t-11.5 15.5t-15 14.5
t-17.5 10t-22 9t-26.5 3.5t-33 2v41h437v-41q-51 0 -79 -8t-35.5 -28.5t-3 -43.5t20.5 -65l207 -598l230 598q32 75 9 110t-118 35v41h340v-41q-22 0 -40 -3.5t-30.5 -7.5t-24 -14t-18 -17t-14.5 -22.5t-11.5 -24.5t-11.5 -29.5t-12 -30.5zM647 1077l-289 357q32 18 86 12.5
t97 -33.5l149 -336h-43z" />
    <glyph glyph-name="endash" unicode="&#x2013;" horiz-adv-x="1345" 
d="M1182 434h-1018v127h1018v-127z" />
    <glyph glyph-name="emdash" unicode="&#x2014;" horiz-adv-x="2420" 
d="M2257 434h-2093v127h2093v-127z" />
    <glyph glyph-name="quoteleft" unicode="&#x2018;" horiz-adv-x="638" 
d="M319 1200q83 -61 156 -156q-69 -87 -156 -153q-84 64 -155 153q0 118 61.5 235.5t190.5 211.5l41 -43q-96 -79 -138 -248z" />
    <glyph glyph-name="quoteright" unicode="&#x2019;" horiz-adv-x="638" 
d="M319 1151q-81 59 -155 156q71 89 155 153q87 -66 156 -153q0 -118 -61.5 -235.5t-190.5 -211.5l-41 43q95 78 137 248z" />
    <glyph glyph-name="quotesinglbase" unicode="&#x201a;" horiz-adv-x="638" 
d="M319 -33q-81 59 -155 156q71 89 155 153q87 -66 156 -153q0 -118 -61.5 -235.5t-190.5 -211.5l-41 43q95 78 137 248z" />
    <glyph glyph-name="quotedblleft" unicode="&#x201c;" horiz-adv-x="1091" 
d="M319 1200q83 -61 156 -156q-69 -87 -156 -153q-84 64 -155 153q0 118 61.5 235.5t190.5 211.5l41 -43q-96 -79 -138 -248zM772 1200q83 -61 156 -156q-69 -87 -156 -153q-87 66 -156 153q0 118 61.5 235.5t190.5 211.5l41 -43q-95 -78 -137 -248z" />
    <glyph glyph-name="quotedblright" unicode="&#x201d;" horiz-adv-x="1091" 
d="M772 1151q-83 61 -156 156q69 87 156 153q87 -66 156 -153q0 -118 -61.5 -235.5t-190.5 -211.5l-41 43q95 78 137 248zM319 1151q-81 59 -155 156q71 89 155 153q87 -66 156 -153q0 -118 -61.5 -235.5t-190.5 -211.5l-41 43q95 78 137 248z" />
    <glyph glyph-name="quotedblbase" unicode="&#x201e;" horiz-adv-x="1091" 
d="M772 -33q-83 61 -156 156q69 87 156 153q87 -66 156 -153q0 -118 -61.5 -235.5t-190.5 -211.5l-41 43q95 78 137 248zM319 -33q-81 59 -155 156q71 89 155 153q87 -66 156 -153q0 -118 -61.5 -235.5t-190.5 -211.5l-41 43q95 78 137 248z" />
    <glyph glyph-name="dagger" unicode="&#x2020;" horiz-adv-x="1157" 
d="M543 1446h71l23 -408l356 -22v-70l-354 -22l-25 -1061h-71l-25 1061l-354 22v70l356 22z" />
    <glyph glyph-name="daggerdbl" unicode="&#x2021;" horiz-adv-x="1157" 
d="M614 -233h-71l-23 366l-356 23v71l356 23l23 356l-23 359l-356 22v70l356 22l23 367h71l23 -367l356 -22v-70l-356 -22l-23 -359l23 -356l356 -23v-71l-356 -23z" />
    <glyph glyph-name="bullet" unicode="&#x2022;" horiz-adv-x="854" 
d="M164 733q0 107 77.5 184.5t186.5 77.5q107 0 184.5 -77.5t77.5 -184.5t-77.5 -184.5t-184.5 -77.5q-109 0 -186.5 77.5t-77.5 184.5z" />
    <glyph glyph-name="ellipsis" unicode="&#x2026;" horiz-adv-x="1615" 
d="M319 -20q-82 61 -155 155q73 91 155 154q85 -65 156 -154q-61 -82 -156 -155zM803 -20q-85 63 -156 155q71 89 156 154q82 -63 155 -154q-62 -84 -155 -155zM1286 -20q-85 63 -156 155q71 89 156 154q85 -65 156 -154q-61 -82 -156 -155z" />
    <glyph glyph-name="perthousand" unicode="&#x2030;" horiz-adv-x="2295" 
d="M301 6l887 1469l67 -41l-886 -1469zM1436 330q0 -148 -95 -249t-233 -101t-233 101t-95 249t95 249t233 101t233 -101t95 -249zM928 330q0 -289 180 -289t180 289q0 288 -180 288t-180 -288zM778 1104q0 -148 -94.5 -249t-232.5 -101t-233 101t-95 249t95 249t233 101
t232.5 -101t94.5 -249zM270 1104q0 -289 181 -289q180 0 180 289t-180 289q-181 0 -181 -289zM2173 330q0 -148 -95 -249t-233 -101t-232.5 101t-94.5 249t94.5 249t232.5 101t233 -101t95 -249zM1665 330q0 -289 180 -289t180 289q0 288 -180 288t-180 -288z" />
    <glyph glyph-name="guilsinglleft" unicode="&#x2039;" horiz-adv-x="792" 
d="M164 506l418 405l47 -37l-230 -329q-20 -32 -20 -42.5t20 -39.5l230 -328l-47 -37z" />
    <glyph glyph-name="guilsinglright" unicode="&#x203a;" horiz-adv-x="792" 
d="M211 911l418 -405l-418 -408l-47 37l229 328q20 29 20 39.5t-20 42.5l-229 329z" />
    <glyph glyph-name="fraction" unicode="&#x2044;" horiz-adv-x="182" 
d="M-283 6l887 1469l68 -41l-887 -1469z" />
    <glyph glyph-name="zerosuperior" unicode="&#x2070;" horiz-adv-x="849" 
d="M266 1370q0 -150 43.5 -253t116.5 -103t116.5 103t43.5 253q0 98 -19 179t-55.5 130.5t-85.5 49.5t-85.5 -49.5t-55.5 -130.5t-19 -179zM725 1370q0 -169 -82 -283t-217 -114q-136 0 -218.5 114t-82.5 283t82.5 283t218.5 114q135 0 217 -114t82 -283z" />
    <glyph glyph-name="foursuperior" unicode="&#x2074;" horiz-adv-x="821" 
d="M688 1182h-92v-72q0 -63 19.5 -80.5t101.5 -17.5v-29h-373v29q81 0 103 18t22 80v72h-365v73l428 508h64v-508h111zM168 1255h303v359z" />
    <glyph glyph-name="fivesuperior" unicode="&#x2075;" horiz-adv-x="776" 
d="M342 973q-94 0 -161 43t-66 110q1 32 22.5 40t48 -1t52.5 -26q-19 -51 12 -89t94 -38q28 0 57 9.5t57 29t46 57t18 86.5q0 55 -30.5 99.5t-82.5 74.5t-111 49t-126 29l18 311h433l-23 -92h-362l-9 -158q96 -4 172 -24.5t121.5 -49.5t75.5 -66.5t41.5 -71.5t11.5 -68
q0 -65 -30.5 -116t-78.5 -80t-99.5 -43.5t-100.5 -14.5z" />
    <glyph glyph-name="sixsuperior" unicode="&#x2076;" horiz-adv-x="800" 
d="M547 1767l14 -24q-109 -40 -186.5 -131.5t-108.5 -231.5q76 62 172 62q98 0 168 -63.5t70 -166.5q0 -73 -42 -129t-104.5 -83t-130.5 -27q-128 0 -201 84t-73 205q0 105 43 197.5t109.5 153.5t136 100t133.5 54zM387 1389q-69 0 -127 -52q-6 -35 -6.5 -76.5t8 -86.5
t24.5 -81.5t47.5 -60.5t72.5 -24q51 0 94 43t43 139q0 94 -45 146.5t-111 52.5z" />
    <glyph glyph-name="sevensuperior" unicode="&#x2077;" horiz-adv-x="722" 
d="M565 1665h-321q-29 0 -41 -0.5t-29 -4.5t-24 -12.5t-14 -23.5t-11 -39h-29l19 172h503l27 -26l-309 -748h-146z" />
    <glyph glyph-name="eightsuperior" unicode="&#x2078;" horiz-adv-x="784" 
d="M643 1589q0 -65 -49.5 -114t-120.5 -76q32 -12 62.5 -30.5t59.5 -46t46.5 -65.5t17.5 -81q0 -88 -73.5 -145.5t-198.5 -57.5q-55 0 -99.5 9.5t-82.5 31t-59 61t-21 94.5q0 76 54.5 126.5t133.5 78.5q-63 30 -112 80.5t-49 116.5q0 92 77 144t177 52q96 0 166.5 -46.5
t70.5 -131.5zM279 1593q0 -27 10.5 -52t23.5 -41t36 -32.5t37 -24.5t38 -20q92 58 92 170q0 40 -13 68.5t-32.5 42t-37 19.5t-32.5 6q-12 0 -29.5 -5.5t-40 -18.5t-37.5 -42t-15 -70zM391 1012q53 0 95 39t42 108q0 58 -53 110t-115 81q-43 -25 -72.5 -73t-29.5 -106
q0 -74 41.5 -116.5t91.5 -42.5z" />
    <glyph glyph-name="ninesuperior" unicode="&#x2079;" horiz-adv-x="800" 
d="M256 973l-14 24q109 40 186 131.5t107 231.5q-76 -62 -173 -62t-167 63.5t-70 166.5q0 108 84.5 173.5t193.5 65.5q128 0 200.5 -83.5t72.5 -204.5q0 -85 -28.5 -162.5t-73.5 -133.5t-102 -101t-111.5 -71t-104.5 -38zM414 1352q70 0 127 51q6 35 6.5 76.5t-8 86.5
t-24.5 82t-47.5 61t-72.5 24q-51 0 -94 -43.5t-43 -139.5q0 -94 44.5 -146t111.5 -52z" />
    <glyph glyph-name="n.sups" unicode="&#x207f;" horiz-adv-x="829" 
d="M391 1010v-27h-297v27q62 0 77 16.5t15 75.5v287q0 62 -13 78t-75 16v26l219 4l-4 -102q38 48 102 81.5t124 33.5q57 0 93 -38.5t36 -105.5v-280q0 -59 15 -75.5t77 -16.5v-27h-297v27q51 0 64.5 17t13.5 75v264q0 45 -20 68.5t-52 23.5q-35 0 -79.5 -26t-76.5 -70v-260
q0 -58 13.5 -75t64.5 -17z" />
    <glyph glyph-name="zeroinferior" unicode="&#x2080;" horiz-adv-x="849" 
d="M266 -23q0 -150 43.5 -253t116.5 -103t116.5 103t43.5 253q0 98 -19 179t-55.5 130.5t-85.5 49.5t-85.5 -49.5t-55.5 -130.5t-19 -179zM725 -23q0 -169 -82 -283t-217 -114q-136 0 -218.5 114t-82.5 283t82.5 283.5t218.5 114.5q135 0 217 -114.5t82 -283.5z" />
    <glyph glyph-name="oneinferior" unicode="&#x2081;" horiz-adv-x="581" 
d="M477 -410h-373v29q82 0 103.5 18t21.5 80v502q0 61 -21.5 78.5t-103.5 17.5v27l224 29h30v-654q0 -35 2 -50t14.5 -28t35.5 -16.5t67 -3.5v-29z" />
    <glyph glyph-name="twoinferior" unicode="&#x2082;" horiz-adv-x="786" 
d="M135 -410l-20 25q146 126 202 184q179 185 179 338q0 76 -44 118t-114 42q-54 0 -104 -30.5t-82 -84.5l-25 13q40 84 112.5 132t159.5 48q107 0 168.5 -55t61.5 -152q0 -34 -13.5 -72.5t-32 -71t-51.5 -72t-58.5 -66.5t-66.5 -63.5t-62.5 -54.5t-59.5 -48.5t-45 -36.5
h432l-23 -93h-514z" />
    <glyph glyph-name="threeinferior" unicode="&#x2083;" horiz-adv-x="774" 
d="M387 375q99 0 162 -50t63 -120t-54.5 -127.5t-143.5 -79.5v-2q109 -7 172 -63t63 -130q0 -57 -27.5 -101.5t-73.5 -70t-98.5 -38.5t-107.5 -13q-94 0 -161 43.5t-66 110.5q1 24 13.5 35t31.5 8.5t39 -10.5t39 -21q-19 -51 12 -89t94 -38q75 0 119.5 50.5t44.5 133.5
q0 74 -41.5 123t-116.5 49h-59v39h43q69 0 109 44.5t40 105.5q0 58 -42.5 95.5t-108.5 37.5q-117 0 -193 -115l-22 13q36 78 108 129t162 51z" />
    <glyph glyph-name="fourinferior" unicode="&#x2084;" horiz-adv-x="821" 
d="M688 -211h-92v-72q0 -63 19.5 -80.5t101.5 -17.5v-29h-373v29q81 0 103 18t22 80v72h-365v74l428 508h64v-508h111zM168 -137h303v358z" />
    <glyph glyph-name="fiveinferior" unicode="&#x2085;" horiz-adv-x="776" 
d="M342 -420q-94 0 -161 43.5t-66 110.5q1 24 13.5 35t31.5 8.5t39 -10.5t39 -21q-19 -51 12 -89t94 -38q28 0 57 9.5t57 29t46 57t18 86.5q0 55 -30.5 99.5t-82.5 74.5t-111 49t-126 29l18 312h433l-23 -93h-362l-9 -157q118 -5 205.5 -34.5t132 -73t64.5 -87t20 -86.5
q0 -65 -30.5 -116t-78.5 -80t-99.5 -43.5t-100.5 -14.5z" />
    <glyph glyph-name="sixinferior" unicode="&#x2086;" horiz-adv-x="800" 
d="M547 375l14 -25q-109 -40 -186.5 -131t-108.5 -231q75 61 172 61q98 0 168 -63t70 -166q0 -73 -42 -129t-104.5 -83.5t-130.5 -27.5q-128 0 -201 84t-73 205q0 85 29 162.5t74 133.5t102.5 101t112 71t104.5 38zM387 -4q-70 0 -127 -51q-6 -35 -6.5 -76.5t8 -86.5
t24.5 -82t47.5 -61t72.5 -24q51 0 94 43t43 139q0 94 -45 146.5t-111 52.5z" />
    <glyph glyph-name="seveninferior" unicode="&#x2087;" horiz-adv-x="722" 
d="M565 272h-321q-36 0 -50 -1t-31.5 -8.5t-25 -23.5t-12.5 -46h-29l19 172h503l27 -27l-309 -748h-146z" />
    <glyph glyph-name="eightinferior" unicode="&#x2088;" horiz-adv-x="784" 
d="M643 197q0 -65 -50 -114.5t-120 -76.5q32 -12 62.5 -30.5t59.5 -46t46.5 -65.5t17.5 -81q0 -88 -73.5 -145.5t-198.5 -57.5q-55 0 -99.5 10t-82.5 31.5t-59 61t-21 94.5q0 76 54.5 126.5t133.5 78.5q-63 30 -112 80t-49 116q0 92 77 144.5t177 52.5q96 0 166.5 -46.5
t70.5 -131.5zM279 201q0 -27 10.5 -52t23.5 -41t36 -32.5t37 -24.5t38 -20q92 58 92 170q0 40 -13 68.5t-32.5 42t-37 19t-32.5 5.5q-12 0 -29 -5t-40 -18t-38 -42t-15 -70zM391 -381q52 0 94.5 39.5t42.5 108.5q0 58 -52.5 109.5t-115.5 80.5q-43 -25 -72.5 -72.5
t-29.5 -105.5q0 -74 41.5 -117t91.5 -43z" />
    <glyph glyph-name="nineinferior" unicode="&#x2089;" horiz-adv-x="800" 
d="M256 -420l-14 25q109 40 186 131t107 231q-75 -61 -173 -61q-97 0 -167 63t-70 166q0 108 84.5 174t193.5 66q128 0 200.5 -84t72.5 -205q0 -85 -28.5 -162.5t-73.5 -133.5t-102 -101t-111.5 -71t-104.5 -38zM414 -41q70 0 127 51q6 35 6.5 76.5t-8 86.5t-24.5 82
t-47.5 61t-72.5 24q-51 0 -94 -43t-43 -139q0 -94 45 -146.5t111 -52.5z" />
    <glyph glyph-name="Euro" unicode="&#x20ac;" horiz-adv-x="1454" 
d="M61 567v68h152q-2 27 -2 82t2 82h-152v67h158q19 152 79 267t149.5 184t198.5 103t235 34q247 0 467 -160l4 -354h-41q0 103 -26 183t-67.5 127.5t-98 78.5t-111 42t-113.5 11q-205 0 -333 -138t-159 -378h422v-67h-428q-2 -27 -2 -82t2 -82h428v-68h-422
q31 -240 159 -378t333 -138q59 0 113.5 11.5t111 42t98 78.5t67.5 128t26 183h41l-4 -355q-219 -159 -467 -159q-126 0 -235 34t-198.5 103t-149.5 183.5t-79 266.5h-158z" />
    <glyph glyph-name="litre" unicode="&#x2113;" horiz-adv-x="1001" 
d="M864 315l35 -8q-17 -64 -44 -120t-65.5 -104t-93 -75.5t-118.5 -27.5q-283 0 -283 403v88l-168 -170l-25 23l193 202v498q0 82 15.5 153t47.5 130.5t89.5 94t134.5 34.5q90 0 143 -55t53 -148q0 -52 -11.5 -103.5t-38.5 -105t-49.5 -93.5t-66 -95t-66 -82t-69.5 -81
q-17 -20 -26 -30v-326q0 -276 170 -276q160 0 243 274zM451 1094v-396q274 318 274 496q0 85 -39 133.5t-98 48.5q-37 0 -63 -16.5t-40 -41t-22 -65t-10 -75t-2 -84.5z" />
    <glyph glyph-name="trademark" unicode="&#x2122;" horiz-adv-x="2185" 
d="M123 1434h776v-179h-41q0 66 -15 88.5t-75 22.5h-193v-664q0 -63 20.5 -77.5t88.5 -14.5v-41h-346v41q73 0 88.5 13.5t15.5 78.5v664h-192q-30 0 -48.5 -7t-26 -24.5t-9.5 -33t-2 -46.5h-41v179zM1720 569v41q67 0 86 21t19 82v522l-320 -666h-45l-311 666v-522
q0 -40 2 -58.5t15 -30t28.5 -13t54.5 -1.5v-41h-270v41q75 0 91.5 15.5t16.5 89.5v575q0 71 -16.5 87t-91.5 16v41h221l316 -680l325 680h219l2 -41q-75 0 -92.5 -17t-17.5 -86v-575q0 -72 17.5 -88.5t92.5 -16.5v-41h-342z" />
    <glyph glyph-name="estimated" unicode="&#x212e;" horiz-adv-x="1589" 
d="M1473 711h-1059v-471q166 -158 381 -158q322 0 512 313l86 -49q-81 -124 -165 -200.5t-190.5 -116t-242.5 -39.5q-123 0 -231.5 38t-189 105t-139 157.5t-88.5 198t-30 222.5q0 152 49.5 286t137.5 230.5t215.5 152.5t275.5 56q199 0 353.5 -92.5t239.5 -257.5t85 -375z
M414 807h762v379q-166 155 -383 155q-221 0 -379 -155v-379z" />
    <glyph glyph-name="partialdiff" unicode="&#x2202;" horiz-adv-x="1085" 
d="M350 1411l27 43q49 -10 104.5 -33.5t116.5 -64t118.5 -92t110 -122.5t92 -150.5t62.5 -180.5t23 -209q0 -90 -20.5 -178t-63.5 -168.5t-102.5 -141.5t-142.5 -97.5t-179 -36.5q-105 0 -198 45t-154.5 137.5t-61.5 214.5q0 105 37.5 195.5t99.5 150t141 93.5t164 34
q168 0 303 -135q-49 537 -477 696zM596 754q-135 0 -236.5 -119t-101.5 -307q0 -66 16 -117.5t40.5 -82.5t56.5 -51.5t62 -28t59 -7.5q77 0 139 43t98.5 108.5t60.5 148t32 157.5t5 141q-98 115 -231 115z" />
    <glyph glyph-name="product" unicode="&#x220f;" horiz-adv-x="1261" 
d="M82 1434h1098v-41q-43 0 -68.5 -5t-43 -14.5t-25.5 -33t-10.5 -51t-2.5 -77.5v-991q0 -42 1.5 -66.5t7 -47t15 -33.5t27 -19.5t40.5 -11t59 -2.5v-41h-475v41q40 0 65 2.5t44.5 11t29 19t15.5 33.5t7.5 47.5t1.5 66.5v991q0 63 -3.5 93.5t-21 53t-48.5 28.5t-90 6h-148
q-53 0 -81 -6t-44.5 -28.5t-20 -53t-3.5 -93.5v-991q0 -42 1.5 -66.5t7 -47.5t14.5 -33.5t26.5 -19t40.5 -11t59 -2.5v-41h-475v41q40 0 65 2.5t44.5 11t29.5 19t16 33.5t7.5 47.5t1.5 66.5v991q0 51 -3 78t-11 50.5t-27 33t-47 14.5t-76 5v41z" />
    <glyph glyph-name="summation" unicode="&#x2211;" horiz-adv-x="1329" 
d="M338 1348l446 -631l-446 -629h512q74 0 122 6.5t86 21.5t61 46t39 74.5t28 111.5h41l-23 -348h-1061l-41 41l480 676l-480 678l41 41h1061l23 -349h-41q-15 85 -35 133.5t-59.5 78.5t-94 39.5t-147.5 9.5h-512z" />
    <glyph glyph-name="minus" unicode="&#x2212;" horiz-adv-x="1214" 
d="M164 717h887v-103h-887v103z" />
    <glyph glyph-name="radical" unicode="&#x221a;" horiz-adv-x="1341" 
d="M123 782l35 119h327l222 -719l387 1252h125l-449 -1434h-125l-246 782h-276z" />
    <glyph glyph-name="infinity" unicode="&#x221e;" horiz-adv-x="1529" 
d="M1407 614q0 -75 -32 -128.5t-84.5 -78.5t-121 -28t-139 17.5t-141 64.5t-125.5 106q-54 -62 -124.5 -106t-141 -64.5t-138.5 -17.5t-120.5 28t-84.5 78.5t-32 128.5t32 128.5t84.5 79t120.5 28t138.5 -17.5t141 -64t124.5 -106q66 74 153 122.5t171 60t157 -6t117.5 -76
t44.5 -148.5zM184 614q0 -85 53 -129.5t136 -44.5q91 0 187.5 46t166.5 128q-69 84 -164.5 129t-189.5 45q-83 0 -136 -44.5t-53 -129.5zM1346 614q0 85 -53 129.5t-136 44.5q-91 0 -187.5 -46t-166.5 -128q69 -84 164.5 -129t189.5 -45q83 0 136 44.5t53 129.5z" />
    <glyph glyph-name="integral" unicode="&#x222b;" horiz-adv-x="481" 
d="M160 25v995q0 91 39 178t96.5 146t123 95t118.5 36q7 0 14 -0.5t18 -4t18 -10t12 -19t3 -30t-13 -45t-32 -61.5q-2 2 -13 11t-17 13t-17 12.5t-19.5 13t-19.5 9.5t-21 7.5t-20 2.5q-23 0 -41 -16.5t-34 -57t-24.5 -120.5t-8.5 -197v-995q0 -91 -39 -178t-96.5 -146
t-123 -95t-118.5 -36q-11 0 -21.5 1.5t-25 11t-18.5 26t5.5 50.5t38.5 81q2 -2 15.5 -13t20 -16t20.5 -14.5t24 -14t23 -8.5t24 -4q23 0 41 16.5t34.5 57t25 121t8.5 197.5z" />
    <glyph glyph-name="approxequal" unicode="&#x2248;" horiz-adv-x="1329" 
d="M1114 780l51 -32q-64 -99 -113 -145q-74 -68 -147 -68q-96 0 -272.5 34.5t-263.5 34.5q-90 0 -154 -80l-51 33q64 99 113 145q74 68 147 68q96 0 273 -35t264 -35q89 0 153 80zM1114 475l51 -33q-64 -99 -113 -145q-74 -68 -147 -68q-95 0 -272 35t-264 35
q-90 0 -154 -80l-51 33q64 99 113 145q74 68 147 68q96 0 273 -35t264 -35q89 0 153 80z" />
    <glyph glyph-name="notequal" unicode="&#x2260;" horiz-adv-x="1214" 
d="M713 858h338v-102h-369l-84 -273h453v-102h-484l-73 -240h-113l74 240h-291v102h321l84 273h-405v102h436l70 227h112z" />
    <glyph glyph-name="lessequal" unicode="&#x2264;" horiz-adv-x="1116" 
d="M952 283v-138l-788 340v170l788 340v-137l-678 -289zM164 127h788v-127h-788v127z" />
    <glyph glyph-name="greaterequal" unicode="&#x2265;" horiz-adv-x="1116" 
d="M164 145v138l678 286l-678 289v137l788 -340v-170zM164 127h788v-127h-788v127z" />
    <glyph glyph-name="lozenge" unicode="&#x25ca;" horiz-adv-x="1406" 
d="M705 4l-582 682l579 684l582 -684zM285 688l420 -491l417 489l-420 492z" />
    <glyph glyph-name="s_t" unicode="&#xfb06;" horiz-adv-x="1488" 
d="M668 733h-41q12 211 -201 211q-69 0 -122.5 -44.5t-53.5 -113.5q0 -37 26.5 -73.5t68.5 -68t93 -64.5t102.5 -69t93.5 -74t68.5 -86.5t26.5 -100.5q0 -72 -34.5 -126.5t-90 -84.5t-115.5 -44.5t-120 -14.5q-81 0 -160 23.5t-127 64.5l10 225h41q14 -135 79.5 -194.5
t178.5 -59.5q75 0 125.5 47.5t50.5 101.5q0 51 -26.5 98t-68.5 83.5t-93.5 72t-102.5 70.5t-93 70.5t-68.5 79.5t-26.5 92q0 82 53 141t128.5 84t162.5 25q25 0 90 -9q-28 114 -17 195.5t43.5 137t89.5 87t120.5 44.5t136 10.5t137.5 -14.5t125 -32v-440h264v-68h-264v-602
q0 -126 36 -189.5t105 -67t170 37.5l21 -37q-76 -39 -141.5 -58t-112 -20.5t-84.5 11.5t-62.5 33t-43 49.5t-27.5 56.5t-15 57.5t-7 49t-1 34.5v645h-123v58q50 5 89.5 29.5t62 61t37 72.5t20.5 76.5t7.5 60t1.5 34.5q-119 66 -254 72t-218 -48q-16 -15 -25 -46t-9.5 -79
t24 -118.5t72.5 -149.5z" />
    <glyph glyph-name="CR" horiz-adv-x="491" 
 />
    <glyph glyph-name="zero.onum" 
d="M694 47q94 0 172 41.5t129 111.5t79 161.5t28 193.5t-28 193.5t-79 161.5t-129 111.5t-172 41.5q-125 0 -219 -71.5t-141 -185.5t-47 -251t47 -251t141 -185.5t219 -71.5zM694 1130q131 0 240 -45.5t181 -124t111.5 -183t39.5 -222.5t-39.5 -222.5t-111.5 -183t-181 -124
t-240 -45.5q-174 0 -305.5 78.5t-198.5 208t-67 288.5t67 288.5t198.5 208t305.5 78.5z" />
    <glyph glyph-name="one.onum" horiz-adv-x="784" 
d="M322 229v631q0 65 -6 98t-30.5 56t-65.5 29t-118 6v41h600v-41q-55 -1 -88 -3.5t-59 -12.5t-37.5 -19.5t-19 -35t-8.5 -48.5t-1 -70v-631q0 -35 0.5 -54t4 -42t8.5 -33.5t16 -23t25.5 -17t38 -9.5t51.5 -6.5t69 -2.5v-41h-600v41q77 0 118 6t65.5 28.5t30.5 55.5t6 98z
" />
    <glyph glyph-name="two.onum" horiz-adv-x="1120" 
d="M143 0l-41 41q37 30 118.5 89t146 106.5t143.5 115.5t132 128t89.5 132t36.5 138q0 112 -72.5 167.5t-193.5 55.5q-112 0 -200.5 -59t-139.5 -152l-37 18q59 152 184.5 241t265.5 89q175 0 274 -90t99 -240q0 -59 -26.5 -120t-65 -111t-99.5 -104.5t-111.5 -92
t-121.5 -81.5t-108.5 -65t-91.5 -50h694l-37 -156h-838z" />
    <glyph glyph-name="three.onum" horiz-adv-x="1122" 
d="M575 1110q149 0 258 -91.5t109 -227.5q0 -130 -89.5 -236t-213.5 -141v-4q89 -11 160 -49t113.5 -91.5t64.5 -113.5t22 -121q0 -98 -44 -182.5t-115.5 -140t-161 -87t-182.5 -31.5q-97 0 -180 29.5t-138 93t-55 148.5q0 39 16 56t43 13.5t54 -15t57 -30.5
q-29 -105 30.5 -169t174.5 -64q99 0 173 59t108 143.5t34 176.5q0 87 -29 162t-93 126.5t-152 51.5h-109v61h80q114 0 188 80.5t74 200.5q0 119 -81.5 187.5t-192.5 68.5q-57 0 -107 -15t-81.5 -34.5t-62 -51.5t-44 -51t-32.5 -48q-5 -7 -7 -11l-37 18q47 134 172.5 232
t275.5 98z" />
    <glyph glyph-name="four.onum" horiz-adv-x="1146" 
d="M1036 0h-162v-334h-167v334h-625v123l698 987h94v-987h191zM174 123h533v749z" />
    </font>
</defs>
</svg>
