<?xml version="1.0" standalone="no"?>
<!DOCTYPE svg PUBLIC "-//W3C//DTD SVG 1.1//EN" "http://www.w3.org/Graphics/SVG/1.1/DTD/svg11.dtd" >
<svg xmlns="http://www.w3.org/2000/svg" xmlns:xlink="http://www.w3.org/1999/xlink" version="1.1">
<metadata>
Created by FontForge 20201107 at Wed Oct 15 18:50:35 2025
 By 
Copyright (c) 2009 by Neil Summerour. All rights reserved.
</metadata>
<defs>
<font id="Magneta-SemiBoldItalic" horiz-adv-x="704" >
  <font-face 
    font-family="Magneta SemiBold Italic"
    font-weight="400"
    font-style="italic"
    font-stretch="normal"
    units-per-em="2048"
    panose-1="2 0 0 0 0 0 0 0 0 0"
    ascent="1536"
    descent="-512"
    x-height="983"
    cap-height="1434"
    bbox="-210.062 -610 2497 2136.19"
    underline-thickness="102"
    underline-position="-204"
    slope="-8"
    unicode-range="U+0020-FB06"
  />
<missing-glyph horiz-adv-x="458" 
 />
    <glyph glyph-name="f_f" unicode="ff" horiz-adv-x="1337" 
d="M846 4l125 901h-439l-131 -928q-16 -112 -93.5 -223.5t-184.5 -181.5t-203 -70q-45 0 -61 27.5t1 78t66 113.5q34 -52 63 -80t64 -28q23 0 41 13t30.5 43.5t20.5 59t14.5 82.5t9 90t7.5 103l127 901h-131l10 78h131l4 27q15 112 93 223.5t186 181.5t205 70
q44 0 59.5 -27.5t-1 -78t-64.5 -113.5q-70 108 -129 108q-33 0 -55.5 -29.5t-35 -87t-19 -119.5t-13.5 -149v-6h438l4 27q16 112 94 223.5t185.5 181.5t203.5 70q45 0 61 -27.5t-1 -78t-66 -113.5q-34 52 -63 80t-64 28q-17 0 -31.5 -7.5t-25.5 -24.5t-19.5 -36t-15 -50
t-11 -57t-8.5 -67.5t-6.5 -71t-5.5 -77.5h220l-11 -78h-219l-131 -928q-16 -113 -93.5 -224t-185 -181t-204.5 -70q-44 0 -59.5 27.5t1 78t64.5 113.5q70 -108 129 -108q17 0 31.5 7.5t25.5 24.5t19.5 36t15 50t11 57t8.5 67.5t6.5 71t5.5 77.5z" />
    <glyph glyph-name="f_i" unicode="fi" horiz-adv-x="1255" 
d="M532 905l-131 -928q-16 -112 -93.5 -223.5t-184.5 -181.5t-203 -70q-45 0 -61 27.5t1 78t66 113.5q34 -52 63 -80t64 -28q23 0 41 13t30.5 43.5t20.5 59t14.5 82.5t9 90t7.5 103l127 901h-131l10 78h131l4 27q15 112 93 223.5t186 181.5t205 70q44 0 59.5 -27.5t-1 -78
t-64.5 -113.5q-70 108 -129 108q-33 0 -55.5 -29.5t-35 -87t-19 -119.5t-13.5 -149v-6q112 0 289 8q146 8 233 1.5t118 -54.5t15 -162l-86 -590q-10 -74 32 -91.5t130 48.5l26 -41q-57 -60 -125 -91t-128 -31q-81 0 -130.5 53.5t-33.5 163.5l86 602q9 61 -8 85.5t-69 28.5
t-142 -2q-131 -6 -218 -6zM1122 1126q-75 66 -133 177q83 103 182 174q87 -81 138 -174q-70 -93 -187 -177z" />
    <glyph glyph-name="f_l" unicode="fl" horiz-adv-x="1214" 
d="M1245 1434l-180 -1248q-10 -74 32 -91.5t130 48.5l26 -41q-56 -60 -124.5 -91t-129.5 -31q-80 0 -128.5 53.5t-32.5 163.5l166 1179q-77 28 -175 28t-194 -40q-33 -23 -52.5 -86.5t-26 -123t-12.5 -149.5q-1 -15 -1 -22h221l-10 -78h-222l-131 -928
q-16 -112 -93.5 -223.5t-184.5 -181.5t-203 -70q-45 0 -61 27.5t1 78t66 113.5q34 -52 63 -80t64 -28q23 0 41 13t30.5 43.5t20.5 59t14.5 82.5t9 90t7.5 103l127 901h-131l10 78h131q24 138 85.5 238t147 157.5t197 84t231 23t253.5 -31.5q18 -4 18 -20z" />
    <glyph glyph-name="f_f_i" unicode="ffi" horiz-adv-x="1923" 
d="M176 4l127 901h-131l10 78h131l4 27q15 112 93 223.5t186 181.5t205 70q44 0 59.5 -27.5t-1 -78t-64.5 -113.5q-70 108 -129 108q-33 0 -55.5 -29.5t-35 -87t-19 -119.5t-13.5 -149v-6h438l4 27q16 112 94 223.5t185.5 181.5t203.5 70q45 0 61 -27.5t-1 -78t-66 -113.5
q-34 52 -63 80t-64 28q-17 0 -31.5 -7.5t-25.5 -24.5t-19.5 -36t-15 -50t-11 -57t-8.5 -67.5t-6.5 -71t-5.5 -77.5q112 0 289 8q146 8 233 1.5t117.5 -54.5t14.5 -162l-86 -590q-10 -74 32 -91.5t130 48.5l26 -41q-56 -60 -124.5 -91t-129.5 -31q-80 0 -129 53.5t-33 163.5
l86 602q9 61 -8 85.5t-68.5 28.5t-141.5 -2q-131 -6 -218 -6l-131 -928q-16 -113 -93.5 -224t-185 -181t-204.5 -70q-44 0 -59.5 27.5t1 78t64.5 113.5q70 -108 129 -108q17 0 31.5 7.5t25.5 24.5t19.5 36t15 50t11 57t8.5 67.5t6.5 71t5.5 77.5l125 901h-439l-131 -928
q-16 -112 -93.5 -223.5t-184.5 -181.5t-203 -70q-45 0 -61 27.5t1 78t66 113.5q34 -52 63 -80t64 -28q23 0 41 13t30.5 43.5t20.5 59t14.5 82.5t9 90t7.5 103zM1790 1126q-75 66 -133 177q83 103 182 174q86 -77 139 -174q-75 -96 -188 -177z" />
    <glyph glyph-name="f_f_l" unicode="ffl" horiz-adv-x="1882" 
d="M176 4l127 901h-131l10 78h131l4 27q15 112 93 223.5t186 181.5t205 70q44 0 59.5 -27.5t-1 -78t-64.5 -113.5q-70 108 -129 108q-33 0 -55.5 -29.5t-35 -87t-19 -119.5t-13.5 -149v-6h438q24 138 85.5 238t147 157.5t196.5 84t230.5 23t253.5 -31.5q19 -4 19 -20
l-180 -1248q-10 -74 31.5 -91.5t129.5 48.5l27 -41q-56 -60 -124.5 -91t-129.5 -31q-81 0 -129.5 53.5t-32.5 163.5l166 1179q-77 28 -174.5 28t-193.5 -40q-26 -19 -43.5 -56t-27.5 -103t-13 -101.5t-9 -120.5h222l-11 -78h-221l-131 -928q-16 -112 -93.5 -223.5
t-184.5 -181.5t-203 -70q-45 0 -61 27.5t1 78t66 113.5q34 -52 63 -80t64 -28q17 0 31.5 7.5t25.5 24.5t19.5 36t15 50t11 57t8.5 67.5t6.5 71t5.5 77.5l127 901h-439l-131 -928q-16 -112 -93.5 -223.5t-184.5 -181.5t-203 -70q-45 0 -61 27.5t1 78t66 113.5q34 -52 63 -80
t64 -28q23 0 41 13t30.5 43.5t20.5 59t14.5 82.5t9 90t7.5 103z" />
    <glyph glyph-name="f_b" unicode="fb" horiz-adv-x="1716" 
d="M182 983h131q20 115 67 204.5t115 147t151.5 94t182 48.5t201 6t213.5 -29q22 -4 19 -20l-117 -830q93 182 192 289.5t195 107.5q92 0 153.5 -97t61.5 -242q0 -97 -17.5 -187.5t-63 -182.5t-115 -159.5t-182 -110t-255.5 -42.5q-119 0 -262 26q-18 4 -18 25l186 1345
q-79 28 -184 28t-201 -40q-33 -23 -52.5 -86.5t-26 -123t-12.5 -149.5q-1 -15 -1 -22h221l-10 -78h-222l-131 -928q-16 -112 -93.5 -223.5t-184.5 -181.5t-203 -70q-45 0 -61 27.5t1 78t66 113.5q34 -52 63 -80t64 -28q23 0 41 13t30.5 43.5t20.5 59t14.5 82.5t9 90t7.5 103
l127 901h-131zM1518 647q0 88 -29 145.5t-68 57.5q-56 0 -142 -117t-153 -270l-57 -416q142 -31 245.5 41.5t153.5 217t50 341.5z" />
    <glyph glyph-name="f_f_b" unicode="ffb" horiz-adv-x="2383" 
d="M176 4l127 901h-131l10 78h131l4 27q15 112 93 223.5t186 181.5t205 70q44 0 59.5 -27.5t-1 -78t-64.5 -113.5q-70 108 -129 108q-33 0 -55.5 -29.5t-35 -87t-19 -119.5t-13.5 -149v-6h438q21 115 68 204.5t115 147t151.5 94t182 48.5t201.5 6t214 -29q18 -4 18 -20
l-119 -830q95 183 193.5 290t194.5 107q92 0 153.5 -97t61.5 -242q0 -80 -12.5 -155.5t-40.5 -154.5t-77 -144.5t-116.5 -117.5t-166 -81t-218.5 -29q-121 0 -264 26q-19 4 -19 25l187 1345q-77 28 -182.5 28t-202.5 -40q-26 -19 -43.5 -57t-27 -101t-13 -104t-7.5 -119h220
l-11 -78h-219l-131 -928q-16 -113 -93.5 -224t-185 -181t-204.5 -70q-44 0 -59.5 27.5t1 78t64.5 113.5q70 -108 129 -108q17 0 31.5 7.5t25.5 24.5t19.5 36t15 50t11 57t8.5 67.5t6.5 71t5.5 77.5l125 901h-439l-131 -928q-16 -112 -93.5 -223.5t-184.5 -181.5t-203 -70
q-45 0 -61 27.5t1 78t66 113.5q34 -52 63 -80t64 -28q23 0 41 13t30.5 43.5t20.5 59t14.5 82.5t9 90t7.5 103zM2185 647q0 89 -27.5 146t-66.5 57q-56 0 -142 -116.5t-155 -270.5l-57 -416q142 -31 245 41.5t153 217t50 341.5z" />
    <glyph glyph-name="f_h" unicode="fh" horiz-adv-x="1775" 
d="M182 983h131q20 115 67 204.5t114.5 147t151 94t181.5 48.5t200.5 6t213.5 -29q19 -4 19 -20l-125 -861q58 109 125 202t150.5 161t154.5 68q93 0 131.5 -71t19.5 -198l-78 -549q-10 -74 32 -91.5t130 48.5l27 -41q-51 -59 -121.5 -90.5t-132.5 -31.5q-81 0 -129.5 53.5
t-32.5 163.5l72 514q10 69 1.5 103t-38.5 34q-52 0 -154.5 -125t-169.5 -254l-67 -469l-213 -18q-8 0 -13.5 5.5t-5.5 12.5l195 1376q-77 28 -182 28t-201 -40q-33 -23 -52.5 -86.5t-26 -123t-12.5 -149.5q-1 -15 -1 -22h221l-10 -78h-222l-131 -928q-16 -112 -93.5 -223.5
t-184.5 -181.5t-203 -70q-45 0 -61 27.5t1 78t66 113.5q34 -52 63 -80t64 -28q23 0 41 13t30.5 43.5t20.5 59t14.5 82.5t9 90t7.5 103l127 901h-131z" />
    <glyph glyph-name="f_f_h" unicode="ffh" horiz-adv-x="2445" 
d="M176 4l127 901h-131l10 78h131l4 27q15 112 93 223.5t186 181.5t205 70q44 0 59.5 -27.5t-1 -78t-64.5 -113.5q-70 108 -129 108q-33 0 -55.5 -29.5t-35 -87t-19 -119.5t-13.5 -149v-6h438q25 137 88 238t150.5 158t201 83.5t234 23t254.5 -31.5q21 -4 18 -20l-125 -861
q58 109 125 202t150.5 161t154.5 68q93 0 132 -70.5t22 -198.5l-78 -549q-11 -73 30.5 -91t129.5 48l29 -41q-52 -59 -123 -90.5t-133 -31.5q-80 0 -129 53.5t-33 163.5l71 514q10 69 2 103t-38 34q-52 0 -153 -124t-171 -255l-66 -469l-215 -18q-7 0 -12.5 5t-5.5 13
l197 1376q-79 28 -183.5 28t-201.5 -40q-26 -19 -43.5 -57t-27 -101t-13 -104t-7.5 -119h220l-11 -78h-219l-131 -928q-16 -113 -93.5 -224t-185 -181t-204.5 -70q-44 0 -59.5 27.5t1 78t64.5 113.5q70 -108 129 -108q17 0 31.5 7.5t25.5 24.5t19.5 36t15 50t11 57t8.5 67.5
t6.5 71t5.5 77.5l125 901h-439l-131 -928q-16 -112 -93.5 -223.5t-184.5 -181.5t-203 -70q-45 0 -61 27.5t1 78t66 113.5q34 -52 63 -80t64 -28q23 0 41 13t30.5 43.5t20.5 59t14.5 82.5t9 90t7.5 103z" />
    <glyph glyph-name="f_j" unicode="fj" horiz-adv-x="1228" 
d="M1130 1126q-72 64 -135 177q86 103 185 174q85 -79 137 -174q-70 -93 -187 -177zM1206 776l-98 -696q-51 -354 -496 -572l-20 39q115 74 183.5 189t96.5 311l105 752q9 61 -9.5 85.5t-72 28.5t-145.5 -2q-131 -6 -218 -6l-131 -928q-16 -112 -93.5 -223.5t-184.5 -181.5
t-203 -70q-45 0 -61 27.5t1 78t66 113.5q34 -52 63 -80t64 -28q23 0 41 13t30.5 43.5t20.5 59t14.5 82.5t9 90t7.5 103l127 901h-131l10 78h131l4 27q15 112 93 223.5t186 181.5t205 70q44 0 59.5 -27.5t-1 -78t-64.5 -113.5q-70 108 -129 108q-33 0 -55.5 -29.5t-35 -87
t-19 -119.5t-13.5 -149v-6q111 0 289 8q147 8 236 1.5t121.5 -54.5t16.5 -162z" />
    <glyph glyph-name="f_f_j" unicode="ffj" horiz-adv-x="1898" 
d="M176 4l127 901h-131l10 78h131l4 27q15 112 93 223.5t186 181.5t205 70q44 0 59.5 -27.5t-1 -78t-64.5 -113.5q-70 108 -129 108q-33 0 -55.5 -29.5t-35 -87t-19 -119.5t-13.5 -149v-6h438l4 27q16 112 94 223.5t185.5 181.5t203.5 70q45 0 61 -27.5t-1 -78t-66 -113.5
q-34 52 -63 80t-64 28q-17 0 -31.5 -7.5t-25.5 -24.5t-19.5 -36t-15 -50t-11 -57t-8.5 -67.5t-6.5 -71t-5.5 -77.5q111 0 289 8q147 8 235.5 1.5t121 -54.5t16.5 -162l-98 -696q-15 -103 -62 -193t-118 -160t-148 -122.5t-168 -96.5l-20 39q115 74 183.5 189t96.5 311
l107 752q9 61 -9.5 85.5t-72 28.5t-145.5 -2q-131 -6 -218 -6l-131 -928q-16 -113 -93.5 -224t-185 -181t-204.5 -70q-44 0 -59.5 27.5t1 78t64.5 113.5q70 -108 129 -108q17 0 31.5 7.5t25.5 24.5t19.5 36t15 50t11 57t8.5 67.5t6.5 71t5.5 77.5l125 901h-439l-131 -928
q-16 -112 -93.5 -223.5t-184.5 -181.5t-203 -70q-45 0 -61 27.5t1 78t66 113.5q34 -52 63 -80t64 -28q23 0 41 13t30.5 43.5t20.5 59t14.5 82.5t9 90t7.5 103zM1798 1126q-75 66 -133 177q79 97 182 174q82 -73 140 -174q-74 -94 -189 -177z" />
    <glyph glyph-name="f_k" unicode="fk" horiz-adv-x="1732" 
d="M1260 1434l-138 -957q57 95 137.5 193t165.5 178.5t168.5 124.5t137.5 28q37 -10 47.5 -49.5t-15.5 -97.5t-88 -111q-32 36 -83.5 40.5t-120.5 -27.5t-144 -99q4 -132 32 -237t65 -164.5t81.5 -99t77.5 -53t57 -13.5q42 0 109 53l27 -41q-57 -60 -126 -91t-130 -31
q-32 0 -60.5 4t-64.5 17t-65 34.5t-58 60.5t-49 90.5t-33 128.5t-14 172q-43 -58 -64 -94l-57 -393l-213 -18q-8 0 -13.5 5.5t-5.5 12.5l195 1376q-77 28 -182 28t-201 -40q-33 -23 -52.5 -86.5t-26 -123t-12.5 -149.5q-1 -15 -1 -22h221l-10 -78h-222l-131 -928
q-16 -112 -93.5 -223.5t-184.5 -181.5t-203 -70q-45 0 -61 27.5t1 78t66 113.5q34 -52 63 -80t64 -28q23 0 41 13t30.5 43.5t20.5 59t14.5 82.5t9 90t7.5 103l127 901h-131l10 78h131q20 115 67 204.5t114.5 147t151 94t181.5 48.5t200.5 6t213.5 -29q19 -4 19 -20z" />
    <glyph glyph-name="f_f_k" unicode="ffk" horiz-adv-x="2400" 
d="M176 4l127 901h-131l10 78h131l4 27q15 112 93 223.5t186 181.5t205 70q44 0 59.5 -27.5t-1 -78t-64.5 -113.5q-70 108 -129 108q-33 0 -55.5 -29.5t-35 -87t-19 -119.5t-13.5 -149v-6h438q25 137 88 238t150.5 158t201 83.5t234 23t254.5 -31.5q21 -4 18 -20l-135 -957
q56 94 136 192.5t164.5 179t168 124.5t137.5 28q38 -10 48.5 -49.5t-15 -97t-86.5 -111.5q-34 36 -85.5 40.5t-120.5 -27.5t-144 -99q5 -132 33 -237t65 -164.5t81 -99t77 -53t57 -13.5q42 0 109 53l26 -41q-57 -60 -125 -91t-129 -31q-33 0 -61.5 4t-64.5 17t-65 34.5
t-58.5 60.5t-49.5 90.5t-33 128.5t-14 172q-18 -24 -63 -94l-56 -393l-215 -18q-7 0 -12.5 5t-5.5 13l197 1376q-79 28 -183.5 28t-201.5 -40q-26 -19 -43.5 -57t-27 -101t-13 -104t-7.5 -119h220l-11 -78h-219l-131 -928q-16 -113 -93.5 -224t-185 -181t-204.5 -70
q-44 0 -59.5 27.5t1 78t64.5 113.5q70 -108 129 -108q17 0 31.5 7.5t25.5 24.5t19.5 36t15 50t11 57t8.5 67.5t6.5 71t5.5 77.5l125 901h-439l-131 -928q-16 -112 -93.5 -223.5t-184.5 -181.5t-203 -70q-45 0 -61 27.5t1 78t66 113.5q34 -52 63 -80t64 -28q23 0 41 13
t30.5 43.5t20.5 59t14.5 82.5t9 90t7.5 103z" />
    <glyph glyph-name="f_r" unicode="fr" horiz-adv-x="1492" 
d="M1198 776l-33 -207q53 127 121 231t146.5 163t142.5 38q22 -6 35 -23.5t14.5 -43.5t-7.5 -56.5t-34 -66t-63 -68.5q-25 27 -57.5 35t-71 -6.5t-78.5 -51t-82.5 -104t-79.5 -159.5l-64 -457l-215 -18q-8 0 -13 5t-5 13l115 799q9 61 -8 85.5t-69 28.5t-142 -2
q-131 -6 -218 -6l-131 -928q-16 -112 -93.5 -223.5t-184.5 -181.5t-203 -70q-45 0 -61 27.5t1 78t66 113.5q34 -52 63 -80t64 -28q23 0 41 13t30.5 43.5t20.5 59t14.5 82.5t9 90t7.5 103l127 901h-131l10 78h131l4 27q15 112 93 223.5t186 181.5t205 70q44 0 59.5 -27.5
t-1 -78t-64.5 -113.5q-70 108 -129 108q-33 0 -55.5 -29.5t-35 -87t-19 -119.5t-13.5 -149v-6q112 0 289 8q146 8 233 1.5t118 -54.5t15 -162z" />
    <glyph glyph-name="f_f_r" unicode="ffr" horiz-adv-x="2162" 
d="M176 4l127 901h-131l10 78h131l4 27q15 112 93 223.5t186 181.5t205 70q44 0 59.5 -27.5t-1 -78t-64.5 -113.5q-70 108 -129 108q-33 0 -55.5 -29.5t-35 -87t-19 -119.5t-13.5 -149v-6h438l4 27q16 112 94 223.5t185.5 181.5t203.5 70q45 0 61 -27.5t-1 -78t-66 -113.5
q-34 52 -63 80t-64 28q-17 0 -31.5 -7.5t-25.5 -24.5t-19.5 -36t-15 -50t-11 -57t-8.5 -67.5t-6.5 -71t-5.5 -77.5q112 0 289 8q146 8 233 1.5t117.5 -54.5t14.5 -162l-33 -207q85 201 200 331.5t210 100.5q38 -10 49 -49.5t-15 -97.5t-88 -111q-32 34 -75.5 36.5t-92.5 -27
t-102.5 -105.5t-99.5 -190l-64 -457l-213 -18q-8 0 -13 5t-5 13l114 799q9 61 -8 85.5t-68.5 28.5t-141.5 -2q-131 -6 -218 -6l-131 -928q-16 -113 -93.5 -224t-185 -181t-204.5 -70q-44 0 -59.5 27.5t1 78t64.5 113.5q70 -108 129 -108q17 0 31.5 7.5t25.5 24.5t19.5 36
t15 50t11 57t8.5 67.5t6.5 71t5.5 77.5l125 901h-439l-131 -928q-16 -112 -93.5 -223.5t-184.5 -181.5t-203 -70q-45 0 -61 27.5t1 78t66 113.5q34 -52 63 -80t64 -28q23 0 41 13t30.5 43.5t20.5 59t14.5 82.5t9 90t7.5 103z" />
    <glyph glyph-name="f_t" unicode="ft" horiz-adv-x="1353" 
d="M1268 1231l-37 -248h235l-10 -78h-235l-80 -581q-14 -102 -1 -160t46 -76t78 -3t96 58l26 -41q-55 -52 -137.5 -87t-152.5 -35q-61 0 -104 26.5t-62.5 70.5t-27 99.5t2.5 114.5l86 614h-459l-131 -928q-16 -112 -93.5 -223.5t-184.5 -181.5t-203 -70q-45 0 -61 27.5t1 78
t66 113.5q34 -52 63 -80t64 -28q23 0 41 13t30.5 43.5t20.5 59t14.5 82.5t9 90t7.5 103l127 901h-131l10 78h131l4 27q15 112 93 223.5t186 181.5t205 70q44 0 59.5 -27.5t-1 -78t-64.5 -113.5q-70 108 -129 108q-33 0 -55.5 -29.5t-35 -87t-19 -119.5t-13.5 -149v-6h438
q93 23 152.5 86.5t105.5 161.5h29z" />
    <glyph glyph-name="f_f_t" unicode="fft" horiz-adv-x="2021" 
d="M1935 1231l-34 -248h233l-10 -78h-234l-82 -581q-14 -102 -1 -160t46.5 -76t79 -3t97.5 58l26 -41q-56 -52 -139 -87t-154 -35q-80 0 -127.5 46.5t-60.5 114t-2 150.5l86 614h-457l-131 -928q-16 -113 -93.5 -224t-185 -181t-204.5 -70q-44 0 -59.5 27.5t1 78t64.5 113.5
q70 -108 129 -108q17 0 31.5 7.5t25.5 24.5t19.5 36t15 50t11 57t8.5 67.5t6.5 71t5.5 77.5l125 901h-439l-131 -928q-16 -112 -93.5 -223.5t-184.5 -181.5t-203 -70q-45 0 -61 27.5t1 78t66 113.5q34 -52 63 -80t64 -28q23 0 41 13t30.5 43.5t20.5 59t14.5 82.5t9 90
t7.5 103l127 901h-131l10 78h131l4 27q15 112 93 223.5t186 181.5t205 70q44 0 59.5 -27.5t-1 -78t-64.5 -113.5q-70 108 -129 108q-33 0 -55.5 -29.5t-35 -87t-19 -119.5t-13.5 -149v-6h438l4 27q16 112 94 223.5t185.5 181.5t203.5 70q45 0 61 -27.5t-1 -78t-66 -113.5
q-34 52 -63 80t-64 28q-17 0 -31.5 -7.5t-25.5 -24.5t-19.5 -36t-15 -50t-11 -57t-8.5 -67.5t-6.5 -71t-5.5 -77.5h439q91 23 150.5 86t107.5 162h26z" />
    <glyph glyph-name="f_t_a" unicode="fta" horiz-adv-x="2412" 
d="M1268 1231l-37 -248l711 -2q90 23 190 23q109 0 244 -27q8 -2 13.5 -8t4.5 -13l-108 -770q-10 -74 31.5 -91.5t129.5 48.5l27 -41q-59 -60 -127 -91t-127 -31q-80 0 -127 53.5t-31 163.5l27 172q-206 -389 -377 -389q-92 0 -153.5 97t-61.5 242q0 82 13.5 160.5t43 158
t83 149.5t126.5 118h-542l-80 -581q-14 -102 -1 -160t46 -76t78 -3t96 58l26 -41q-55 -52 -137.5 -87t-152.5 -35q-61 0 -104 26.5t-62.5 70.5t-27 99.5t2.5 114.5l86 614h-459l-131 -928q-16 -112 -93.5 -223.5t-184.5 -181.5t-203 -70q-45 0 -61 27.5t1 78t66 113.5
q34 -52 63 -80t64 -28q23 0 41 13t30.5 43.5t20.5 59t14.5 82.5t9 90t7.5 103l127 901h-131l10 78h131l4 27q15 112 93 223.5t186 181.5t205 70q44 0 59.5 -27.5t-1 -78t-64.5 -113.5q-70 108 -129 108q-33 0 -55.5 -29.5t-35 -87t-19 -119.5t-13.5 -149v-6h438
q93 23 152.5 86.5t105.5 161.5h29zM2107 516l62 420q-130 33 -232 -36.5t-156.5 -218t-54.5 -347.5q0 -88 27.5 -145.5t65.5 -57.5q53 0 137.5 116t150.5 269z" />
    <glyph glyph-name="f_t_e" unicode="fte" horiz-adv-x="2250" 
d="M1268 1231l-37 -248h657q79 21 131 21q49 0 95 -11t90 -34.5t71 -69t27 -107.5q0 -92 -71.5 -158.5t-193.5 -80.5t-284 51q-20 -94 -20 -182q0 -141 60.5 -220t169.5 -78t243 87l18 -45q-117 -93 -228.5 -137t-200.5 -35t-156.5 58t-104.5 141t-37 214q0 171 65.5 300
t172.5 208h-514l-80 -581q-14 -102 -1 -160t46 -76t78 -3t96 58l26 -41q-55 -52 -137.5 -87t-152.5 -35q-61 0 -104 26.5t-62.5 70.5t-27 99.5t2.5 114.5l86 614h-459l-131 -928q-16 -112 -93.5 -223.5t-184.5 -181.5t-203 -70q-45 0 -61 27.5t1 78t66 113.5q34 -52 63 -80
t64 -28q23 0 41 13t30.5 43.5t20.5 59t14.5 82.5t9 90t7.5 103l127 901h-131l10 78h131l4 27q15 112 93 223.5t186 181.5t205 70q44 0 59.5 -27.5t-1 -78t-64.5 -113.5q-70 108 -129 108q-33 0 -55.5 -29.5t-35 -87t-19 -119.5t-13.5 -149v-6h438q93 23 152.5 86.5
t105.5 161.5h29zM2009 938q-83 0 -145.5 -83.5t-96.5 -209.5q135 -38 236.5 15t101.5 169q0 109 -96 109z" />
    <glyph glyph-name="f_t_i" unicode="fti" horiz-adv-x="1941" 
d="M1884 776l-86 -590q-11 -73 31.5 -91t130.5 48l27 -41q-57 -60 -126 -91t-130 -31q-80 0 -129 53.5t-33 163.5l86 602q9 61 -7.5 85.5t-67.5 28.5t-141 -2q-131 -6 -218 -6l-80 -581q-14 -102 -1 -160t46 -76t78 -3t96 58l26 -41q-55 -52 -137.5 -87t-152.5 -35
q-61 0 -104 26.5t-62.5 70.5t-27 99.5t2.5 114.5l86 614h-459l-131 -928q-16 -112 -93.5 -223.5t-184.5 -181.5t-203 -70q-45 0 -61 27.5t1 78t66 113.5q34 -52 63 -80t64 -28q23 0 41 13t30.5 43.5t20.5 59t14.5 82.5t9 90t7.5 103l127 901h-131l10 78h131l4 27
q15 112 93 223.5t186 181.5t205 70q44 0 59.5 -27.5t-1 -78t-64.5 -113.5q-70 108 -129 108q-33 0 -55.5 -29.5t-35 -87t-19 -119.5t-13.5 -149v-6h438q93 23 152.5 86.5t105.5 161.5h29l-37 -248q112 0 289 8q146 8 232.5 1.5t117.5 -54.5t14 -162zM1808 1126
q-76 65 -135 177q79 97 182 174q88 -78 140 -174q-72 -92 -187 -177z" />
    <glyph glyph-name="f_t_r" unicode="ftr" horiz-adv-x="2179" 
d="M1884 776l-35 -207q85 201 200 331.5t210 100.5q38 -10 49 -49.5t-14.5 -97.5t-87.5 -111q-32 34 -75.5 36.5t-92.5 -27t-102 -105.5t-99 -190l-63 -457l-215 -18q-8 0 -13.5 5.5t-5.5 12.5l115 799q9 61 -7.5 85.5t-67.5 28.5t-141 -2q-131 -6 -218 -6l-80 -581
q-14 -102 -1 -160t46 -76t78 -3t96 58l26 -41q-55 -52 -137.5 -87t-152.5 -35q-61 0 -104 26.5t-62.5 70.5t-27 99.5t2.5 114.5l86 614h-459l-131 -928q-16 -112 -93.5 -223.5t-184.5 -181.5t-203 -70q-45 0 -61 27.5t1 78t66 113.5q34 -52 63 -80t64 -28q23 0 41 13
t30.5 43.5t20.5 59t14.5 82.5t9 90t7.5 103l127 901h-131l10 78h131l4 27q15 112 93 223.5t186 181.5t205 70q44 0 59.5 -27.5t-1 -78t-64.5 -113.5q-70 108 -129 108q-33 0 -55.5 -29.5t-35 -87t-19 -119.5t-13.5 -149v-6h438q93 23 152.5 86.5t105.5 161.5h29l-37 -248
q112 0 289 8q146 8 233 1.5t117.5 -54.5t13.5 -162z" />
    <glyph glyph-name="f_t_y" unicode="fty" horiz-adv-x="2304" 
d="M1221 905l-80 -581q-14 -102 -1 -160t46 -76t78 -3t96 58l26 -41q-55 -52 -137.5 -87t-152.5 -35q-61 0 -104 26.5t-62.5 70.5t-27 99.5t2.5 114.5l86 614h-459l-131 -928q-16 -112 -93.5 -223.5t-184.5 -181.5t-203 -70q-45 0 -61 27.5t1 78t66 113.5q34 -52 63 -80
t64 -28q23 0 41 13t30.5 43.5t20.5 59t14.5 82.5t9 90t7.5 103l127 901h-131l10 78h131l4 27q15 112 93 223.5t186 181.5t205 70q44 0 59.5 -27.5t-1 -78t-64.5 -113.5q-70 108 -129 108q-33 0 -55.5 -29.5t-35 -87t-19 -119.5t-13.5 -149v-6h438q93 23 152.5 86.5
t105.5 161.5h29l-37 -248q86 0 179.5 4t143.5 8t105 3t82 -9t54 -30t41 -58t26 -94l129 -645q86 140 151.5 296t65.5 257q0 64 -24.5 105t-63.5 54q29 78 67.5 119t77.5 41q45 0 67.5 -40.5t22.5 -90.5q0 -64 -43.5 -194t-114 -285t-165.5 -319t-192.5 -297.5t-201 -219.5
t-184.5 -86q-24 0 -41.5 14.5t-24.5 40.5t-4 58.5t21.5 72.5t50.5 79q25 -15 49.5 -25.5t68 -13t84 14t91.5 65.5t96 131l-221 880q-7 27 -16 44.5t-26.5 28t-35 14.5t-53 5t-67.5 -0.5t-91.5 -3.5t-113.5 -2z" />
    <glyph glyph-name="t_t" unicode="tt" horiz-adv-x="1370" 
d="M598 1231l-35 -248h434q93 23 152.5 86.5t105.5 161.5h29l-37 -248h236l-10 -78h-236l-80 -581q-14 -102 -1 -160t46.5 -76t78.5 -3t97 58l25 -41q-55 -52 -137.5 -87t-153.5 -35q-80 0 -127.5 46.5t-60.5 114t-2 150.5l86 614h-455l-82 -581q-14 -102 -1 -160t47 -76
t79 -3t96 58l27 -41q-55 -52 -138.5 -87t-154.5 -35q-61 0 -103.5 26.5t-62 70.5t-26.5 99.5t4 114.5l84 614h-117l10 68q73 0 131 20t99.5 59t69.5 80t56 99h27z" />
    <glyph glyph-name="t_a" unicode="ta" horiz-adv-x="1744" 
d="M598 1231l-35 -248l711 -2q90 23 190 23q107 0 242 -27q8 -2 13.5 -8t4.5 -13l-106 -770q-10 -74 32 -91.5t130 48.5l26 -41q-59 -60 -127.5 -91t-128.5 -31q-79 0 -125.5 53.5t-29.5 163.5l24 172q-202 -389 -375 -389q-92 0 -153.5 97t-61.5 242q0 111 23 214t85.5 206
t158.5 166h-543l-82 -581q-14 -102 -1 -160t47 -76t79 -3t96 58l27 -41q-55 -52 -138.5 -87t-154.5 -35q-61 0 -103.5 26.5t-62 70.5t-26.5 99.5t4 114.5l84 614h-117l10 68q73 0 131 20t99.5 59t69.5 80t56 99h27zM1438 516l61 420q-129 33 -230 -36.5t-155.5 -218
t-54.5 -347.5q0 -89 27 -146t65 -57q53 0 136.5 116t150.5 269z" />
    <glyph glyph-name="t_t_a" unicode="tta" horiz-adv-x="2428" 
d="M598 1231l-35 -248h434q93 23 152.5 86.5t105.5 161.5h29l-37 -248l713 -2q90 23 188 23q109 0 244 -27q8 -2 13.5 -8t4.5 -13l-108 -770q-10 -74 32 -91.5t130 48.5l26 -41q-57 -60 -125 -91t-129 -31q-80 0 -126.5 53t-30.5 164l26 172q-97 -183 -190 -286t-186 -103
q-92 0 -154 97t-62 242q0 111 23.5 214t86 206t157.5 166h-543l-80 -581q-14 -102 -1 -160t46.5 -76t78.5 -3t97 58l25 -41q-55 -52 -137.5 -87t-153.5 -35q-80 0 -127.5 46.5t-60.5 114t-2 150.5l86 614h-455l-82 -581q-14 -102 -1 -160t47 -76t79 -3t96 58l27 -41
q-55 -52 -138.5 -87t-154.5 -35q-61 0 -103.5 26.5t-62 70.5t-26.5 99.5t4 114.5l84 614h-117l10 68q73 0 131 20t99.5 59t69.5 80t56 99h27zM2124 516l61 420q-130 33 -231.5 -36.5t-156 -218t-54.5 -347.5q0 -89 27 -146t65 -57q53 0 138 116.5t151 268.5z" />
    <glyph glyph-name="t_e" unicode="te" horiz-adv-x="1581" 
d="M598 1231l-35 -248h658q75 21 129 21q49 0 95.5 -11t90.5 -34.5t71 -69t27 -107.5q0 -92 -71.5 -158.5t-193.5 -80.5t-284 51q-20 -94 -20 -182q0 -141 60 -220t169 -78t244 87l18 -45q-117 -93 -228.5 -137t-200.5 -35t-156.5 58t-104.5 141t-37 214q0 171 65.5 300
t172.5 208h-514l-82 -581q-14 -102 -1 -160t47 -76t79 -3t96 58l27 -41q-55 -52 -138.5 -87t-154.5 -35q-61 0 -103.5 26.5t-62 70.5t-26.5 99.5t4 114.5l84 614h-117l10 68q73 0 131 20t99.5 59t69.5 80t56 99h27zM1341 938q-83 0 -145 -83t-98 -210q136 -37 238 15.5
t102 168.5q0 109 -97 109z" />
    <glyph glyph-name="t_t_e" unicode="tte" horiz-adv-x="2267" 
d="M598 1231l-35 -248h434q93 23 152.5 86.5t105.5 161.5h29l-37 -248h658q79 21 131 21q49 0 95 -11t90 -34.5t70.5 -69t26.5 -107.5q0 -92 -71.5 -158.5t-193.5 -80.5t-284 51q-20 -94 -20 -182q0 -141 60.5 -220t169.5 -78t243 87l19 -45q-117 -93 -228.5 -137
t-200.5 -35t-157 58t-105 141t-37 214q0 171 65.5 300t172.5 208h-514l-80 -581q-14 -102 -1 -160t46.5 -76t78.5 -3t97 58l25 -41q-55 -52 -137.5 -87t-153.5 -35q-80 0 -127.5 46.5t-60.5 114t-2 150.5l86 614h-455l-82 -581q-14 -102 -1 -160t47 -76t79 -3t96 58l27 -41
q-55 -52 -138.5 -87t-154.5 -35q-61 0 -103.5 26.5t-62 70.5t-26.5 99.5t4 114.5l84 614h-117l10 68q73 0 131 20t99.5 59t69.5 80t56 99h27zM2025 938q-83 0 -145 -83t-96 -210q135 -38 236.5 15t101.5 169q0 109 -97 109z" />
    <glyph glyph-name="t_f" unicode="tf" horiz-adv-x="1353" 
d="M598 1231l-35 -248h434l4 27q16 112 94.5 223.5t186 181.5t203.5 70q45 0 61 -27.5t-1 -78t-66 -113.5q-34 52 -63 80t-64 28q-17 0 -31.5 -7.5t-25.5 -24.5t-19.5 -36t-15 -50t-11 -57t-8.5 -67.5t-6.5 -71t-5.5 -77.5h219l-10 -78h-219l-132 -928
q-16 -112 -93.5 -223.5t-184.5 -181.5t-203 -70q-45 0 -61 27.5t1 78t66 113.5q66 -108 127 -108q17 0 31.5 7.5t25.5 24.5t19.5 36t15 50t11 57t8.5 67.5t6.5 71t5.5 77.5l125 901h-434l-82 -581q-14 -102 -1 -160t47 -76t79 -3t96 58l27 -41q-55 -52 -138.5 -87
t-154.5 -35q-61 0 -103.5 26.5t-62 70.5t-26.5 99.5t4 114.5l84 614h-117l10 68q73 0 131 20t99.5 59t69.5 80t56 99h27z" />
    <glyph glyph-name="t_t_f" unicode="ttf" horiz-adv-x="2037" 
d="M598 1231l-35 -248h434q93 23 152.5 86.5t105.5 161.5h29l-37 -248h436l5 27q15 112 93 223.5t185.5 181.5t204.5 70q44 0 59.5 -27.5t-1 -78t-64.5 -113.5q-70 108 -129 108q-33 0 -55.5 -29.5t-35 -87t-19 -119.5t-13.5 -149v-6h221l-10 -78h-221l-131 -928
q-16 -112 -94 -223.5t-185 -181.5t-203 -70q-45 0 -61 27.5t1 78t66 113.5q34 -52 63 -80t64 -28q23 0 41 13t30.5 43.5t20.5 59t14.5 82.5t9 90t7.5 103l127 901h-436l-80 -581q-14 -102 -1 -160t46.5 -76t78.5 -3t97 58l25 -41q-55 -52 -137.5 -87t-153.5 -35
q-80 0 -127.5 46.5t-60.5 114t-2 150.5l86 614h-455l-82 -581q-14 -102 -1 -160t47 -76t79 -3t96 58l27 -41q-55 -52 -138.5 -87t-154.5 -35q-61 0 -103.5 26.5t-62 70.5t-26.5 99.5t4 114.5l84 614h-117l10 68q73 0 131 20t99.5 59t69.5 80t56 99h27z" />
    <glyph glyph-name="t_i" unicode="ti" horiz-adv-x="1271" 
d="M1139 1126q-75 66 -133 177q83 103 182 174q85 -79 137 -174q-72 -95 -186 -177zM1214 776l-86 -590q-10 -74 32 -91.5t130 48.5l27 -41q-56 -60 -124.5 -91t-129.5 -31q-81 0 -129.5 53.5t-32.5 163.5l86 602q9 61 -7.5 85.5t-67.5 28.5t-141 -2q-131 -6 -218 -6
l-82 -581q-14 -102 -1 -160t47 -76t79 -3t96 58l27 -41q-55 -52 -138.5 -87t-154.5 -35q-61 0 -103.5 26.5t-62 70.5t-26.5 99.5t4 114.5l84 614h-117l10 68q73 0 131 20t99.5 59t69.5 80t56 99h27l-35 -248q112 0 289 8q145 8 231.5 1.5t117 -54.5t13.5 -162z" />
    <glyph glyph-name="t_t_i" unicode="tti" horiz-adv-x="1957" 
d="M598 1231l-35 -248h434q93 23 152.5 86.5t105.5 161.5h29l-37 -248q112 0 289 8q146 8 233 1.5t117.5 -54.5t14.5 -162l-86 -590q-11 -73 31 -91t130 48l27 -41q-57 -60 -126 -91t-128 -31q-81 0 -130.5 53.5t-33.5 163.5l86 602q9 61 -7.5 85.5t-67.5 28.5t-141 -2
q-131 -6 -218 -6l-80 -581q-14 -102 -1 -160t46.5 -76t78.5 -3t97 58l25 -41q-55 -52 -137.5 -87t-153.5 -35q-80 0 -127.5 46.5t-60.5 114t-2 150.5l86 614h-455l-82 -581q-14 -102 -1 -160t47 -76t79 -3t96 58l27 -41q-55 -52 -138.5 -87t-154.5 -35q-61 0 -103.5 26.5
t-62 70.5t-26.5 99.5t4 114.5l84 614h-117l10 68q73 0 131 20t99.5 59t69.5 80t56 99h27zM1825 1126q-78 67 -133 177q76 98 182 174q85 -79 137 -174q-78 -99 -186 -177z" />
    <glyph glyph-name="t_r" unicode="tr" horiz-adv-x="1511" 
d="M1214 776l-32 -207q39 94 88.5 177.5t103.5 146.5t111 93.5t106 14.5q38 -10 48.5 -49.5t-15 -97t-86.5 -111.5q-32 34 -75.5 36.5t-92.5 -27t-103 -105.5t-100 -190l-63 -457l-213 -18q-8 0 -13.5 5.5t-5.5 12.5l115 799q9 61 -7.5 85.5t-67.5 28.5t-141 -2
q-131 -6 -218 -6l-82 -581q-14 -102 -1 -160t47 -76t79 -3t96 58l27 -41q-55 -52 -138.5 -87t-154.5 -35q-61 0 -103.5 26.5t-62 70.5t-26.5 99.5t4 114.5l84 614h-117l10 68q73 0 131 20t99.5 59t69.5 80t56 99h27l-35 -248q112 0 289 8q146 8 233 1.5t117 -54.5t12 -162z
" />
    <glyph glyph-name="t_t_r" unicode="ttr" horiz-adv-x="2195" 
d="M598 1231l-35 -248h434q93 23 152.5 86.5t105.5 161.5h29l-37 -248q112 0 289 8q146 8 233.5 1.5t118 -54.5t13.5 -162l-35 -207q54 128 121.5 231t146 162.5t143.5 38.5q22 -6 35 -23.5t14.5 -43.5t-7.5 -56.5t-34 -66t-63 -68.5q-32 34 -75 36.5t-92 -27t-102.5 -105.5
t-99.5 -190l-63 -457l-215 -18q-8 0 -13.5 5.5t-5.5 12.5l115 799q9 61 -7.5 85.5t-67.5 28.5t-141 -2q-131 -6 -218 -6l-80 -581q-14 -102 -1 -160t46.5 -76t78.5 -3t97 58l25 -41q-55 -52 -137.5 -87t-153.5 -35q-80 0 -127.5 46.5t-60.5 114t-2 150.5l86 614h-455
l-82 -581q-14 -102 -1 -160t47 -76t79 -3t96 58l27 -41q-55 -52 -138.5 -87t-154.5 -35q-61 0 -103.5 26.5t-62 70.5t-26.5 99.5t4 114.5l84 614h-117l10 68q73 0 131 20t99.5 59t69.5 80t56 99h27z" />
    <glyph glyph-name="t_y" unicode="ty" horiz-adv-x="1634" 
d="M553 905l-82 -581q-14 -102 -1 -160t47 -76t79 -3t96 58l27 -41q-55 -52 -138.5 -87t-154.5 -35q-61 0 -103.5 26.5t-62 70.5t-26.5 99.5t4 114.5l84 614h-117l10 68q73 0 131 20t99.5 59t69.5 80t56 99h27l-35 -248q86 0 179 4t143.5 8t105 3t81.5 -9t54 -30t41.5 -58
t26.5 -94l127 -645q87 138 153 294.5t66 258.5q0 64 -24.5 105t-63.5 54q27 77 66 118.5t79 41.5q45 0 67 -40t22 -91q0 -64 -43.5 -194t-114 -285t-165.5 -319t-192.5 -297.5t-201 -219.5t-185.5 -86q-23 0 -40.5 14.5t-24.5 40.5t-4.5 58.5t21 72.5t50.5 79
q25 -15 50 -25.5t68.5 -13t84.5 13.5t91.5 66t95.5 131l-220 880q-7 27 -16.5 44.5t-27 28t-35 14.5t-53 5t-67.5 -0.5t-91.5 -3.5t-112.5 -2z" />
    <glyph glyph-name="t_t_y" unicode="tty" horiz-adv-x="2320" 
d="M598 1231l-35 -248h434q93 23 152.5 86.5t105.5 161.5h29l-37 -248q86 0 179.5 4t143.5 8t105 3t82 -9t54 -30t41 -58t26 -94l129 -645q86 140 151.5 296t65.5 257q0 64 -24.5 105t-63.5 54q29 78 68 119t80 41q45 0 66.5 -40t21.5 -91q0 -64 -43.5 -194t-114.5 -285
t-166 -319t-192.5 -297.5t-201 -219.5t-184.5 -86q-24 0 -41.5 14.5t-24 40.5t-3.5 58.5t21.5 72.5t50.5 79q25 -15 49.5 -25.5t68 -13t84 14t91.5 65.5t96 131l-222 880q-7 27 -16 44.5t-26.5 28t-35 14.5t-53 5t-67.5 -0.5t-91.5 -3.5t-113.5 -2l-80 -581
q-14 -102 -1 -160t46.5 -76t78.5 -3t97 58l25 -41q-55 -52 -137.5 -87t-153.5 -35q-80 0 -127.5 46.5t-60.5 114t-2 150.5l86 614h-455l-82 -581q-14 -102 -1 -160t47 -76t79 -3t96 58l27 -41q-55 -52 -138.5 -87t-154.5 -35q-61 0 -103.5 26.5t-62 70.5t-26.5 99.5t4 114.5
l84 614h-117l10 68q73 0 131 20t99.5 59t69.5 80t56 99h27z" />
    <glyph glyph-name="T_h" unicode="Th" horiz-adv-x="2213" 
d="M1493 0l-215 -18q-8 0 -13 5t-5 13l192 1354h-491l-158 -1116q-10 -65 -3 -105.5t51.5 -59t143.5 -18.5l-8 -55h-670l9 55q75 0 120 9t70.5 34.5t35 55t17.5 84.5l156 1116h-195q-49 0 -76 -1.5t-58.5 -9t-48.5 -21.5t-37 -40.5t-34.5 -64.5t-31.5 -95h-49l53 312h1077
l352 20q7 0 13 -6t6 -14l-125 -861q58 109 125 202t151 161t156 68q91 0 129.5 -70.5t21.5 -198.5l-77 -549q-11 -74 30 -91.5t129 48.5l29 -41q-52 -59 -122.5 -90.5t-131.5 -31.5q-81 0 -130.5 53.5t-33.5 163.5l72 514q10 69 1.5 103t-38.5 34q-52 0 -152.5 -123.5
t-170.5 -255.5z" />
    <glyph glyph-name="T_h.caron" unicode="&#x164;h" horiz-adv-x="2213" 
d="M1493 0l-215 -18q-8 0 -13 5t-5 13l192 1354h-491l-158 -1116q-10 -65 -3 -105.5t51.5 -59t143.5 -18.5l-8 -55h-670l9 55q75 0 120 9t70.5 34.5t35 55t17.5 84.5l156 1116h-195q-49 0 -76 -1.5t-58.5 -9t-48.5 -21.5t-37 -40.5t-34.5 -64.5t-31.5 -95h-49l53 312h1077
l352 20q7 0 13 -6t6 -14l-125 -861q58 109 125 202t151 161t156 68q91 0 129.5 -70.5t21.5 -198.5l-77 -549q-11 -74 30 -91.5t129 48.5l29 -41q-52 -59 -122.5 -90.5t-131.5 -31.5q-81 0 -130.5 53.5t-33.5 163.5l72 514q10 69 1.5 103t-38.5 34q-52 0 -152.5 -123.5
t-170.5 -255.5zM1143 1880h49l-285 -352h-100l-180 352h49l201 -213z" />
    <glyph glyph-name="T_h.commaaccent" unicode="&#x162;h" horiz-adv-x="2213" 
d="M1493 0l-215 -18q-8 0 -13 5t-5 13l192 1354h-491l-158 -1116q-10 -65 -3 -105.5t51.5 -59t143.5 -18.5l-8 -55h-670l9 55q75 0 120 9t70.5 34.5t35 55t17.5 84.5l156 1116h-195q-49 0 -76 -1.5t-58.5 -9t-48.5 -21.5t-37 -40.5t-34.5 -64.5t-31.5 -95h-49l53 312h1077
l352 20q7 0 13 -6t6 -14l-125 -861q58 109 125 202t151 161t156 68q91 0 129.5 -70.5t21.5 -198.5l-77 -549q-11 -74 30 -91.5t129 48.5l29 -41q-52 -59 -122.5 -90.5t-131.5 -31.5q-81 0 -130.5 53.5t-33.5 163.5l72 514q10 69 1.5 103t-38.5 34q-52 0 -152.5 -123.5
t-170.5 -255.5zM498 -610l-27 35q88 73 131 190q-61 61 -98 131q65 74 135 127q50 -46 102 -127q-30 -204 -243 -356z" />
    <glyph glyph-name=".notdef" horiz-adv-x="458" 
 />
    <glyph glyph-name=".null" horiz-adv-x="0" 
 />
    <glyph glyph-name="nonmarkingreturn" horiz-adv-x="682" 
 />
    <glyph glyph-name="space" unicode=" " horiz-adv-x="452" 
 />
    <glyph glyph-name="exclam" unicode="!" horiz-adv-x="651" 
d="M453 473h-113q17 128 23 502.5t18 458.5h297q-12 -85 -109.5 -459.5t-115.5 -501.5zM328 -25q-88 74 -148 191q84 105 201 190q85 -82 145 -190q-82 -106 -198 -191z" />
    <glyph glyph-name="quotedbl" unicode="&#x22;" horiz-adv-x="878" 
d="M459 956h-121l27 549h221zM793 956h-119l26 549h220z" />
    <glyph glyph-name="numbersign" unicode="#" horiz-adv-x="1183" 
d="M1188 866h-221l-97 -309h222l-33 -123h-221l-129 -420h-125l127 420h-258l-129 -420h-123l127 420h-222l35 123h221l97 309h-223l40 125h220l129 420h125l-129 -420h260l129 420h123l-129 -420h221zM748 557l94 309h-258l-97 -309h261z" />
    <glyph glyph-name="dollar" unicode="$" horiz-adv-x="991" 
d="M502 -123h-70l19 141q-122 0 -204.5 30t-156.5 87l51 281h49q-7 -82 8 -142.5t42 -93.5t68.5 -53t77.5 -25.5t79 -5.5q118 0 191 85.5t73 191.5q0 60 -28 109.5t-73 85t-99 68t-108 67t-99 73.5t-73 96t-28 127q0 98 35 174t96 123.5t134 74.5t159 36l23 149h69l-20 -143
q200 -3 323 -74l-51 -260h-49q20 128 -41 192t-158 64q-68 0 -128.5 -28t-102 -88t-41.5 -140q0 -54 28 -99.5t73 -78.5t99.5 -65t109 -67t99.5 -75.5t73 -99.5t28 -131q0 -183 -123.5 -304.5t-335.5 -138.5z" />
    <glyph glyph-name="percent" unicode="%" horiz-adv-x="1542" 
d="M326 6l1009 1471l60 -43l-1008 -1471zM1415 379q0 -162 -108 -280.5t-248 -118.5q-113 0 -185.5 86t-72.5 215q0 162 107.5 280.5t248.5 118.5q112 0 185 -86.5t73 -214.5zM956 240q0 -195 111 -195q42 0 75 24t54 61.5t34.5 88t19 99.5t5.5 100q0 196 -108 196
q-56 0 -96.5 -38t-59.5 -99.5t-27 -119t-8 -117.5zM922 1153q0 -163 -108.5 -281t-248.5 -118q-113 0 -185.5 86t-72.5 215q0 163 108.5 281t248.5 118q112 0 185 -86.5t73 -214.5zM463 1014q0 -195 110 -195q53 0 92.5 36t60 95t29.5 119.5t9 124.5q0 88 -27 141.5
t-84 53.5q-44 0 -78.5 -25.5t-55 -64.5t-33.5 -91t-18 -99t-5 -95z" />
    <glyph glyph-name="ampersand" unicode="&#x26;" horiz-adv-x="1560" 
d="M1534 709q81 -12 117 37t-13 124q73 90 110 64q17 -12 17 -43q0 -44 -13 -93.5t-39.5 -99t-76.5 -82t-116 -32.5q-23 0 -44.5 5t-42 17t-32 20t-33.5 25.5t-29 22.5q-5 -132 -53.5 -248t-125 -199.5t-173 -144t-199.5 -90t-202 -29.5q-114 0 -207 37.5t-159 120.5
t-83 203q-32 223 112 417q102 137 250 208q138 66 231 33q95 -33 91 -159q117 107 196.5 213t116.5 221.5t5 210.5q63 42 117 51.5t84 -11.5t32 -62q7 -108 -46 -226.5t-152 -230.5t-233.5 -219.5t-291.5 -199.5t-325 -164q20 -177 163 -258q130 -73 305 -40q181 35 311 168
q166 170 171 426q-86 14 -213 -153q-29 14 -44 64.5t-3 99.5q77 52 142.5 72.5t116 12.5t89.5 -24t87 -37.5t85 -27.5zM317 473q170 81 347 219q10 131 -58 173q-56 35 -129 -10q-89 -55 -132 -184q-30 -90 -28 -198z" />
    <glyph glyph-name="quotesingle" unicode="'" horiz-adv-x="544" 
d="M459 956h-121l27 549h221z" />
    <glyph glyph-name="parenleft" unicode="(" horiz-adv-x="653" 
d="M231 393q0 332 157.5 627t399.5 467l37 -47q-101 -100 -180.5 -239.5t-128 -291.5t-73.5 -306t-25 -300q0 -196 41.5 -368t115.5 -275l-51 -49q-134 119 -213.5 330t-79.5 452z" />
    <glyph glyph-name="parenright" unicode=")" horiz-adv-x="659" 
d="M592 702q0 -331 -157 -624t-400 -467l-39 49q102 101 181.5 241.5t128 292t73 304.5t24.5 297q0 198 -41 370.5t-116 274.5l51 47q135 -119 215 -331t80 -454z" />
    <glyph glyph-name="asterisk" unicode="*" horiz-adv-x="974" 
d="M633 715h-90l22 266l-237 -113l-31 82l221 148l-178 153l53 82l205 -114l53 266h90l-22 -266l237 114l29 -82l-219 -151l176 -150l-51 -82l-205 113z" />
    <glyph glyph-name="plus" unicode="+" horiz-adv-x="1167" 
d="M729 750h346l-20 -136h-344l-56 -381h-120l53 381h-346l18 136h346l53 380h123z" />
    <glyph glyph-name="comma" unicode="," horiz-adv-x="659" 
d="M322 -20q-88 76 -144 186q84 105 201 190q85 -82 145 -190q-41 -279 -338 -494l-34 49q122 116 170 259z" />
    <glyph glyph-name="hyphen" unicode="-" horiz-adv-x="806" 
d="M715 559l-41 -151h-438l43 151h436z" />
    <glyph glyph-name="period" unicode="." horiz-adv-x="659" 
d="M326 -25q-88 74 -148 191q84 105 201 190q85 -82 145 -190q-82 -106 -198 -191z" />
    <glyph glyph-name="slash" unicode="/" horiz-adv-x="841" 
d="M893 1466l-627 -1491h-123l627 1491h123z" />
    <glyph glyph-name="zero" unicode="0" horiz-adv-x="1159" 
d="M412 485q0 -121 17.5 -215.5t55 -152.5t90.5 -58q79 0 147.5 92.5t111.5 231t67.5 289.5t24.5 278q0 89 -10 165t-30 135t-52.5 92.5t-73.5 33.5q-77 0 -145 -92t-111 -230t-67.5 -289.5t-24.5 -279.5zM1167 864q0 -173 -44.5 -334t-122.5 -282.5t-191.5 -194.5
t-243.5 -73q-126 0 -217 80t-134.5 211.5t-43.5 299.5q0 173 44.5 333.5t122.5 282t191.5 194.5t243.5 73q126 0 217 -80t134.5 -211.5t43.5 -298.5z" />
    <glyph glyph-name="one" unicode="1" horiz-adv-x="743" 
d="M666 0h-609l9 55q44 0 74.5 3.5t53.5 13t36.5 21.5t23 35.5t14.5 46.5t11 63l131 923q14 71 4.5 110t-45 52.5t-123.5 13.5l8 56l377 51h51l-170 -1206q-13 -69 -7 -109.5t42.5 -56.5t126.5 -17z" />
    <glyph glyph-name="two" unicode="2" horiz-adv-x="1005" 
d="M102 0l-24 45q217 193 285 259q334 324 418 580q30 93 30 181q0 116 -55 178t-148 62q-85 0 -171.5 -56t-151.5 -157l-37 22q90 160 217 250t268 90q151 0 239.5 -83.5t88.5 -235.5q0 -65 -20 -134t-59.5 -136.5t-84.5 -130.5t-107.5 -128.5t-114.5 -116.5t-121.5 -110
t-111.5 -93.5t-100 -80.5q-27 -21 -39 -31h694l-61 -174h-834z" />
    <glyph glyph-name="three" unicode="3" horiz-adv-x="1046" 
d="M727 1454q153 0 238.5 -82t85.5 -198q0 -81 -47.5 -166t-139 -155.5t-205.5 -98.5v-4q161 -9 255 -99.5t94 -218.5q0 -96 -35.5 -174t-92 -128.5t-131 -85.5t-149 -49.5t-149.5 -14.5q-150 0 -246.5 79.5t-83.5 198.5q8 46 47.5 66t89 11t86.5 -40q-43 -88 -9 -164
t126 -76q126 0 210.5 107t84.5 289q0 115 -52.5 187.5t-152.5 72.5h-90l12 75h62q83 0 147 49t94.5 119t30.5 144q0 92 -53 149.5t-146 57.5q-180 0 -329 -213l-37 22q87 152 213.5 246t271.5 94z" />
    <glyph glyph-name="four" unicode="4" horiz-adv-x="1099" 
d="M1047 365h-142l-18 -127q-12 -69 -6 -110t43 -57t125 -16l-9 -55h-608l6 55q44 0 75 3.5t54 13t36.5 21.5t23.5 35t15 47t11 63l19 127h-570l21 141l823 938h111l-133 -938h172zM229 506h471l91 641z" />
    <glyph glyph-name="five" unicode="5" horiz-adv-x="1056" 
d="M444 -20q-149 0 -244.5 79.5t-82.5 198.5q8 46 47.5 66t88.5 11t85 -40q-43 -88 -8 -164t127 -76q37 0 76.5 12t81.5 41.5t75.5 72t54.5 110t21 149.5q0 88 -38.5 161t-106 122.5t-151 81.5t-181.5 47l112 582h703l-62 -174h-583l-56 -287q119 -4 216 -27.5t162 -61.5
t112.5 -83t73.5 -98t37.5 -101.5t11.5 -97.5q0 -106 -39 -196t-100 -149t-138 -100.5t-152 -60t-143 -18.5z" />
    <glyph glyph-name="six" unicode="6" horiz-adv-x="1067" 
d="M956 1454l19 -49q-170 -72 -309.5 -242.5t-221.5 -417.5q131 105 273 105q139 0 234.5 -99t95.5 -264q0 -115 -47.5 -213t-123 -161t-165.5 -98t-179 -35q-179 0 -278.5 127t-99.5 323q0 138 38 268.5t103 234t146.5 192.5t172.5 154t177 109t165 66zM621 752
q-95 0 -199 -88q-25 -79 -36 -181t-4 -201.5t50 -167t119 -67.5q31 0 63.5 12.5t67.5 44t61.5 78t44 122.5t17.5 169q0 134 -51 206.5t-133 72.5z" />
    <glyph glyph-name="seven" unicode="7" horiz-adv-x="964" 
d="M956 1260h-481q-47 0 -70 -1.5t-51 -9t-43.5 -23.5t-31.5 -44t-29 -72h-51l73 324h797l39 -52l-680 -1382h-252z" />
    <glyph glyph-name="eight" unicode="8" horiz-adv-x="1089" 
d="M1094 1161q0 -70 -29.5 -134t-78.5 -112t-105.5 -84t-118.5 -59q102 -44 178 -141t76 -228q0 -178 -138.5 -300.5t-361.5 -122.5q-65 0 -121 10t-105 32.5t-83 57.5t-54 88t-20 121q0 73 23 136.5t58.5 109.5t85 84t97 62t99.5 42q-89 50 -152 134.5t-63 193.5
q0 97 43 176t112 127.5t150.5 74t163.5 25.5q54 0 103.5 -11t93.5 -35t76.5 -58t51.5 -82.5t19 -106.5zM516 1087q0 -51 15 -94t44 -76.5t53.5 -54.5t59.5 -45q74 55 128 147.5t54 219.5q0 55 -14.5 95.5t-37 60.5t-44.5 29t-43 9q-17 0 -40 -6.5t-55 -26.5t-57.5 -50.5
t-44 -85t-18.5 -122.5zM532 55q90 0 165 88.5t75 218.5q0 97 -62 183t-143 131q-79 -56 -135.5 -158t-56.5 -223q0 -111 47 -175.5t110 -64.5z" />
    <glyph glyph-name="nine" unicode="9" horiz-adv-x="1060" 
d="M297 -20l-21 49q170 72 309.5 243t219.5 416q-127 -104 -273 -104q-137 0 -232 98.5t-95 263.5q0 115 47 213t122 161t165 98.5t180 35.5q180 0 278.5 -126.5t98.5 -323.5q0 -119 -28.5 -233t-77 -207t-114 -177t-138.5 -149t-151 -117.5t-150.5 -87t-139.5 -53.5z
M631 682q94 0 198 88q25 80 36.5 181t4.5 200.5t-50 167t-120 67.5q-31 0 -63.5 -12.5t-67.5 -43.5t-61.5 -77.5t-44 -121.5t-17.5 -168q0 -135 51 -208t134 -73z" />
    <glyph glyph-name="colon" unicode=":" horiz-adv-x="679" 
d="M408 561q-89 77 -148 193q93 113 201 188q90 -84 145 -188q-78 -104 -198 -193zM326 -25q-88 74 -148 191q84 105 201 190q85 -82 145 -190q-82 -106 -198 -191z" />
    <glyph glyph-name="semicolon" unicode=";" horiz-adv-x="679" 
d="M322 -20q-88 76 -144 186q84 105 201 190q85 -82 145 -190q-41 -279 -338 -494l-34 49q122 116 170 259zM408 561q-89 77 -148 193q93 113 201 188q90 -84 145 -188q-78 -104 -198 -193z" />
    <glyph glyph-name="less" unicode="&#x3c;" horiz-adv-x="1079" 
d="M932 219l-23 -164l-667 391l22 166l778 392l-22 -164l-637 -312z" />
    <glyph glyph-name="equal" unicode="=" horiz-adv-x="1185" 
d="M301 879h813l-18 -134h-815zM244 483h815l-19 -133h-815z" />
    <glyph glyph-name="greater" unicode="&#x3e;" horiz-adv-x="1079" 
d="M184 55l25 164l635 309l-549 312l24 164l668 -392l-24 -166z" />
    <glyph glyph-name="question" unicode="?" horiz-adv-x="944" 
d="M610 1454q146 0 242 -112t96 -275q0 -61 -11.5 -113.5t-29 -91.5t-47 -73.5t-58 -58t-70 -46t-74.5 -36.5t-80 -32q-93 -37 -93 -157h-92l-37 334q115 0 217 30t172 96.5t70 155.5q0 68 -24.5 138.5t-76 123t-116.5 52.5q-62 0 -99.5 -38t-42.5 -91.5t7 -110.5
q-37 -21 -71.5 -35.5t-73 -22t-62 10t-23.5 61.5q0 66 25.5 118.5t65 84t91.5 52t100 28.5t95 8zM373 -25q-88 74 -148 191q86 105 201 190q86 -80 147 -190q-90 -112 -200 -191z" />
    <glyph glyph-name="at" unicode="@" horiz-adv-x="1654" 
d="M1077 -10q-161 0 -71 229q-35 -51 -77 -98t-106 -89t-121 -42q-71 0 -112 49.5t-41 138.5q0 124 68.5 258t184 227t236.5 93q32 0 65.5 -21.5t51.5 -75.5l98 97h37l-205 -584q-19 -52 -19 -78.5t13.5 -34.5t44.5 -8q108 0 195.5 74.5t134.5 190.5t47 245q0 73 -15.5 140
t-50 128.5t-85.5 106.5t-128 71.5t-171 26.5q-128 0 -240.5 -45t-194.5 -121.5t-141.5 -176t-89 -211.5t-29.5 -226q0 -131 40 -237.5t108.5 -175.5t159.5 -106.5t194 -37.5q165 0 322 88l22 -37q-208 -121 -416 -121q-120 0 -225.5 43t-184.5 120.5t-125 194t-46 255.5
q0 124 36.5 248.5t110 236t174.5 197.5t240 137t297 51q106 0 194 -30t147.5 -80.5t100.5 -119.5t59.5 -144.5t18.5 -157.5q0 -110 -36 -215.5t-100 -188.5t-160.5 -133.5t-209.5 -50.5zM1018 305l63 178q13 36 20 63t9.5 57.5t-5.5 50.5t-30 33t-59 13q-63 0 -126.5 -60.5
t-107.5 -145t-72 -172.5t-28 -146q0 -104 57 -104q49 0 101 37t87 78.5t82 104.5q6 9 9 13z" />
    <glyph glyph-name="A" unicode="A" horiz-adv-x="1353" 
d="M958 236l-30 155h-498l-78 -158q-47 -89 -22.5 -133.5t139.5 -44.5l-8 -55h-451l8 55q96 0 141 37.5t101 149.5l608 1212h76l264 -1212q13 -60 23 -89.5t31 -55t52.5 -34t84.5 -8.5l-8 -55h-578l8 55q107 0 131.5 38.5t5.5 142.5zM784 1114l-317 -645h446z" />
    <glyph glyph-name="B" unicode="B" horiz-adv-x="1198" 
d="M262 1434h559q167 0 276 -72t109 -211q0 -123 -99 -235.5t-237 -151.5v-4q188 -7 278.5 -92.5t90.5 -210.5q0 -92 -26.5 -166t-74.5 -122.5t-107 -82.5t-133 -52.5t-142 -26t-144 -7.5h-551l9 55q79 0 120 17.5t58 53.5t28 112l136 958q11 69 3.5 109.5t-43 56.5
t-116.5 16zM573 713l-63 -465q-13 -91 12.5 -128.5t98.5 -37.5q27 0 52 2t63.5 10.5t71 22.5t67 41t58 63t39 92t15.5 125q0 56 -16.5 103.5t-51.5 87t-96 62t-143 22.5h-107zM963 1145q0 108 -50 157.5t-125 49.5h-124l-78 -566h104q40 0 84.5 19t88 58t72 113t28.5 169z
" />
    <glyph glyph-name="C" unicode="C" horiz-adv-x="1308" 
d="M164 592q0 135 26 251.5t71.5 203t108 156.5t133.5 116t151 77t157.5 44.5t155.5 13.5q129 0 250.5 -39t209.5 -108l-47 -367h-51q16 118 -7.5 205t-78 135t-123 70t-151.5 22q-159 0 -286.5 -106t-197 -285.5t-69.5 -396.5q0 -236 97 -379.5t273 -143.5q82 0 156.5 22.5
t142.5 70.5t116 135t65 205h51l-55 -367q-107 -69 -240 -108t-262 -39q-89 0 -171.5 19.5t-161 65t-136 114t-92.5 175t-35 238.5z" />
    <glyph glyph-name="D" unicode="D" horiz-adv-x="1492" 
d="M61 0l9 55q64 0 102.5 9.5t59.5 36t28.5 54t15.5 83.5l136 958q9 65 5 105.5t-40.5 58.5t-120.5 18l6 56h551q78 0 125 -1.5t132 -12.5t139.5 -32t122 -63.5t107 -102t67.5 -153.5t28 -213q0 -138 -25 -254t-63.5 -198.5t-100 -148.5t-118.5 -107.5t-136 -71.5
t-135.5 -44t-134.5 -22t-115 -9t-94 -1h-551zM625 80q46 0 97.5 7.5t117 30t125.5 57.5t119 95t102 137.5t69.5 190.5t26.5 248q0 96 -19.5 175t-50.5 130.5t-75 90.5t-86 59.5t-92 33t-85 16t-71 3.5h-137l-156 -1106q-25 -168 115 -168z" />
    <glyph glyph-name="E" unicode="E" horiz-adv-x="1161" 
d="M61 0l9 55q63 0 101 9t59.5 34.5t29.5 54.5t16 85l136 958q10 66 5 106.5t-41 58t-120 17.5l6 56h998l-35 -312h-49q-1 57 -5 95t-16.5 64.5t-25.5 40.5t-42.5 21.5t-55.5 9t-75 1.5h-290l-80 -563h264q81 0 111 41t45 145h51l-66 -459h-51q16 109 -2 151t-100 42h-265
l-63 -463q-12 -83 12 -125.5t111 -42.5h227q113 0 168.5 54t101.5 210h52l-68 -344h-1053z" />
    <glyph glyph-name="F" unicode="F" horiz-adv-x="1105" 
d="M694 0h-633l9 55q63 0 101 9t59.5 34.5t29.5 54.5t16 85l136 958q10 66 5 106.5t-41 58t-120 17.5l6 56h998l-35 -312h-49q-1 57 -5 95t-16.5 64.5t-25.5 40.5t-42.5 21.5t-55.5 9t-75 1.5h-290l-80 -563h293q81 0 111.5 41.5t43.5 144.5h51l-65 -459h-49q15 109 -4 151
t-99 42h-295l-65 -473q-10 -65 -2.5 -105.5t52 -59t144.5 -18.5z" />
    <glyph glyph-name="G" unicode="G" horiz-adv-x="1452" 
d="M1346 377l-27 -205q-121 -86 -266.5 -139t-292.5 -53q-89 0 -171.5 19.5t-161 65t-136 114t-92.5 175t-35 238.5q0 135 26 251.5t71.5 203t108 156.5t133.5 116t151 77t157.5 44.5t155.5 13.5q129 0 250.5 -39t209.5 -108l-47 -367h-51q16 118 -7.5 205t-78 135t-123 70
t-151.5 22q-159 0 -286.5 -106t-197 -285.5t-69.5 -396.5q0 -236 97 -379.5t273 -143.5q88 0 160 26.5t139 90.5l29 199q10 65 2.5 105.5t-52 58.5t-144.5 18l8 55h596l-8 -55q-34 0 -58.5 -4t-42 -15t-28 -22.5t-19 -35.5t-12.5 -45t-10 -60z" />
    <glyph glyph-name="H" unicode="H" horiz-adv-x="1576" 
d="M1530 0h-590l8 55q62 0 98.5 8.5t58 33.5t29.5 54t17 87l66 467h-644l-65 -467q-10 -67 -5 -107.5t40 -58t116 -17.5l-8 -55h-590l9 55q63 0 100 8.5t58.5 33.5t30 54t17.5 87l136 958q9 64 5.5 104.5t-40 59t-121.5 18.5l6 56h590l-6 -56q-37 0 -65 -4t-48 -9
t-34.5 -18.5t-23 -24.5t-15 -34t-9.5 -40.5t-8 -51.5l-59 -414h643l59 414q9 64 6.5 104.5t-38 59t-119.5 18.5l6 56h590l-7 -56q-43 0 -74 -4t-52.5 -15t-34.5 -23t-21.5 -36t-12.5 -45t-9 -59l-136 -958q-11 -67 -5.5 -107.5t41.5 -58t118 -17.5z" />
    <glyph glyph-name="I" unicode="I" 
d="M657 0h-596l9 55q63 0 100 8.5t58.5 33.5t30 54t17.5 87l136 958q9 64 5.5 104.5t-40 59t-121.5 18.5l6 56h596l-8 -56q-43 0 -74 -4t-53 -15t-35 -23t-22 -36t-13.5 -45t-9.5 -59l-135 -958q-11 -67 -4.5 -107.5t43 -58t119.5 -17.5z" />
    <glyph glyph-name="J" unicode="J" horiz-adv-x="671" 
d="M633 1196l-158 -1114q-50 -349 -446 -574l-21 39q87 65 144.5 183.5t85.5 316.5l161 1149q10 64 6.5 104.5t-40 59t-121.5 18.5l8 56h596l-8 -56q-43 0 -74 -4t-53 -15t-35 -23t-22 -36t-13.5 -45t-9.5 -59z" />
    <glyph glyph-name="K" unicode="K" horiz-adv-x="1398" 
d="M633 0h-572l9 55q63 0 100 8.5t58.5 33.5t30 54t17.5 87l136 958q9 64 5.5 104.5t-40 59t-121.5 18.5l6 56h572l-9 -56q-37 0 -64 -4t-46 -15t-30.5 -23t-19.5 -36t-12.5 -45t-9.5 -59l-70 -498h43l555 545q63 61 42.5 98t-123.5 37l8 56h461l-7 -56q-37 0 -69.5 -7.5
t-52.5 -15.5t-47.5 -29.5t-38.5 -31.5t-41 -39l-486 -479q13 -134 61.5 -252t109 -194.5t126 -133t113.5 -81.5t71 -25q45 0 109 53l27 -41q-72 -69 -151 -104t-146 -35q-85 0 -163 40t-145 118t-111 208t-54 296h-101l-55 -387q-10 -67 -5 -107.5t36 -58t102 -17.5z" />
    <glyph glyph-name="L" unicode="L" horiz-adv-x="1161" 
d="M903 1434l-6 -56q-63 0 -104.5 -6t-68.5 -17.5t-43 -35t-23.5 -50.5t-14.5 -73l-133 -948q-12 -83 12 -125.5t111 -42.5h227q113 0 168.5 54t101.5 210h52l-68 -344h-1053l9 55q63 0 101 9t59.5 34.5t29.5 54.5t16 85l136 958q10 66 5 106.5t-41 58t-120 17.5l6 56h641z
" />
    <glyph glyph-name="M" unicode="M" horiz-adv-x="1867" 
d="M528 55l-8 -55h-459l9 55q117 0 161.5 36.5t59.5 146.5l135 958q11 69 2.5 109t-47 56.5t-125.5 16.5l6 56h428l309 -1115l621 1115h401l-6 -56q-119 0 -161 -37.5t-56 -144.5l-135 -958q-12 -69 -1.5 -110t48 -57t119.5 -16l-8 -55h-594l8 55q58 0 91.5 7.5t55 30.5
t31 54.5t17.5 90.5l129 915l-648 -1163h-73l-330 1163l-129 -915q-13 -72 -4 -112.5t42.5 -55.5t110.5 -15z" />
    <glyph glyph-name="N" unicode="N" horiz-adv-x="1552" 
d="M1321 406l111 790q14 108 -13.5 145t-134.5 37l8 56h437l-9 -56q-57 0 -92.5 -9t-57.5 -32.5t-32 -55t-16 -85.5l-172 -1206h-70l-784 1179l-129 -931q-14 -70 -5.5 -111t45 -56.5t121.5 -15.5l-8 -55h-459l9 55q62 0 98.5 8t59.5 31t33 54.5t18 89.5l135 958
q13 103 -19.5 142.5t-154.5 39.5l6 56h401z" />
    <glyph glyph-name="O" unicode="O" horiz-adv-x="1533" 
d="M764 -20q-93 0 -180 24t-163.5 75t-133.5 124t-90 176.5t-33 226.5q0 165 48 306t127.5 239t184.5 167.5t218.5 102.5t228.5 33q118 0 223.5 -39.5t190 -115t134.5 -197.5t50 -275q0 -138 -33.5 -260t-91.5 -213t-136 -163.5t-168 -118t-185.5 -69t-190.5 -23.5zM776 61
q110 0 210.5 63.5t173.5 169t116 249.5t43 299q0 150 -42.5 269.5t-125.5 190t-193 70.5q-148 0 -273.5 -107.5t-197 -286.5t-71.5 -386q0 -150 42.5 -270t125 -190.5t192.5 -70.5z" />
    <glyph glyph-name="P" unicode="P" horiz-adv-x="1157" 
d="M614 565h-61l-45 -327q-12 -69 -2 -110t53 -57t141 -16l-8 -55h-631l9 55q43 0 73.5 4t52.5 15t35 23.5t22 36.5t13.5 45.5t9.5 58.5l136 958q8 62 5.5 102.5t-39.5 60t-122 19.5l6 56h529q107 0 194 -23t152.5 -69t98.5 -123t26 -179q-9 -222 -181.5 -348.5
t-466.5 -126.5zM666 1354l-103 -723h62q51 0 101 11.5t103 42.5t93 78.5t66 127t26 180.5q0 64 -17.5 114.5t-46.5 82t-67.5 52t-78 28t-81.5 6.5h-57z" />
    <glyph glyph-name="Q" unicode="Q" horiz-adv-x="1533" 
d="M1569 827q0 -159 -44 -296t-118.5 -234.5t-173.5 -168t-208 -106.5t-222 -40q-59 -45 -133 -129q146 35 280 20.5t236 -63t137 -111.5q30 -55 -27 -106t-161 -48q-17 67 -74 123t-131.5 86t-160 39t-159.5 -18l-20 -33q-21 -38 -55 -25q-29 12 -36 46q-6 30 17 57
q33 38 91 86t112 76q-112 8 -210 50.5t-176 117.5t-123.5 193t-45.5 263q0 165 48 306t127.5 239t184.5 167.5t218.5 102.5t228.5 33q118 0 223.5 -39.5t190 -115t134.5 -197.5t50 -275zM776 61q110 0 210.5 63.5t173.5 169t116 249.5t43 299q0 150 -42.5 269.5t-125.5 190
t-193 70.5q-148 0 -273.5 -107.5t-197 -286.5t-71.5 -386q0 -150 42.5 -270t125 -190.5t192.5 -70.5z" />
    <glyph glyph-name="R" unicode="R" horiz-adv-x="1318" 
d="M1270 1102q0 -150 -122.5 -272t-330.5 -189q25 -120 75.5 -220t105.5 -159t113.5 -100t100 -56.5t64.5 -15.5q41 0 108 53l27 -41q-73 -69 -152.5 -104t-146.5 -35q-57 0 -116 21t-119 69.5t-108 118.5t-82 177.5t-42 238.5h-88l-49 -350q-11 -69 -3 -110t45 -57t122 -16
l-8 -55h-603l9 55q43 0 73.5 4t52.5 15t35 23.5t22 36.5t13.5 45.5t9.5 58.5l136 958q8 62 5.5 102.5t-39.5 60t-122 19.5l6 56h529q232 0 355.5 -87t123.5 -245zM666 1354l-99 -695h105q160 58 254 174.5t94 268.5q0 124 -76.5 188t-220.5 64h-57z" />
    <glyph glyph-name="S" unicode="S" horiz-adv-x="1007" 
d="M1059 1380l-49 -260h-49q10 66 -3.5 117t-44.5 80.5t-70 44t-85 14.5q-104 0 -186.5 -69t-82.5 -187q0 -55 27.5 -105t71.5 -90t97 -80t106 -83t97 -90.5t71.5 -111t27.5 -136.5q0 -199 -141 -323t-381 -124q-125 0 -209 30.5t-158 86.5l49 281h52q-7 -82 8 -142.5
t41.5 -93.5t68 -53t77.5 -25.5t79 -5.5q116 0 189 85.5t73 191.5q0 61 -27.5 115t-71 96.5t-96 83.5t-105.5 83.5t-96.5 89t-71 108t-27.5 132.5q0 109 43.5 191.5t117.5 129.5t160.5 70t183.5 23q186 0 314 -74z" />
    <glyph glyph-name="T" unicode="T" horiz-adv-x="1314" 
d="M248 1434h1210l-33 -312h-51q0 57 -3.5 95t-16 64.5t-25.5 40.5t-42 21.5t-55 9t-75 1.5h-196l-158 -1116q-10 -65 -3 -105.5t51.5 -59t143.5 -18.5l-8 -55h-670l9 55q75 0 120 9t70.5 34.5t35 55t17.5 84.5l156 1116h-195q-49 0 -76 -1.5t-58.5 -9t-48.5 -21.5
t-37 -40.5t-34.5 -64.5t-31.5 -95h-49z" />
    <glyph glyph-name="U" unicode="U" horiz-adv-x="1466" 
d="M1436 1196l-93 -655q-81 -559 -583 -561q-102 0 -182 21t-132 59t-88.5 91.5t-50.5 117t-17.5 136t9.5 148.5l92 643q9 64 4.5 104.5t-42 59t-122.5 18.5l7 56h596l-9 -56q-42 0 -72.5 -4t-51.5 -15t-33.5 -23t-21 -36t-12.5 -45t-9 -59l-84 -586q-76 -536 274 -536
q170 0 287.5 116t150.5 345l95 661q9 64 2 104.5t-48.5 59t-132.5 18.5l9 56h462l-8 -56q-59 0 -95 -9t-56.5 -33.5t-29 -54.5t-15.5 -85z" />
    <glyph glyph-name="V" unicode="V" horiz-adv-x="1419" 
d="M645 1198l186 -881l435 885q18 35 26.5 60.5t7.5 48.5t-15.5 37t-45.5 22t-80 8l6 56h443l-6 -56q-31 0 -57 -5.5t-45 -12t-37.5 -22.5t-29 -26.5t-26 -35.5t-22.5 -37.5t-23 -44.5l-606 -1204h-90l-279 1202q-23 94 -41 124q-42 61 -145 62l6 56h571l-6 -56
q-46 0 -76 -10.5t-44 -24.5t-17 -41t0 -47.5t10 -56.5z" />
    <glyph glyph-name="W" unicode="W" horiz-adv-x="2058" 
d="M1333 1198l162 -868l408 872q21 46 28.5 74.5t0.5 53.5t-40 36.5t-94 11.5l6 56h443l-6 -56q-44 0 -78.5 -10t-56 -23t-43 -41.5t-32.5 -48.5t-32 -61l-580 -1204h-90l-184 862l-414 -862h-90l-254 1202q-6 28 -9 40.5t-10 35t-13 32.5t-16 26t-22 23t-29 15t-38.5 11
t-48.5 3l6 56h543l-7 -56q-60 0 -86.5 -25.5t-23.5 -65.5t12 -89l160 -868l311 661l-41 201q-12 51 -20.5 77.5t-28 55.5t-51.5 41t-82 12l6 56h567l-6 -56q-46 0 -75.5 -10.5t-43.5 -24.5t-17.5 -40.5t-0.5 -48t10 -56.5z" />
    <glyph glyph-name="X" unicode="X" horiz-adv-x="1462" 
d="M958 231l-178 369l-309 -373q-44 -52 -52 -90t27.5 -60t116.5 -22l-8 -55h-508l8 55q93 0 167 49.5t147 135.5l372 444l-264 514q-23 45 -38.5 69.5t-41.5 54t-58.5 43t-74.5 13.5l8 56h590l-6 -56q-196 0 -106 -176l161 -317l267 321q30 36 44 65.5t11.5 54t-33.5 38.5
t-90 14l8 56h473l-8 -56q-43 0 -81.5 -11t-64.5 -24.5t-58.5 -42.5t-49.5 -47t-51 -57l-330 -395l275 -563q16 -33 30 -56t42 -56.5t68.5 -52t90.5 -18.5l-8 -55h-596l8 55q180 0 100 176z" />
    <glyph glyph-name="Y" unicode="Y" horiz-adv-x="1325" 
d="M643 1210l180 -512l342 521q18 27 28 48.5t12.5 43t-8.5 35.5t-40 23t-76 9l6 56h437l-6 -56q-92 0 -147.5 -40.5t-121.5 -139.5l-391 -596l-49 -364q-12 -69 -0.5 -109.5t54.5 -57t136 -16.5l-8 -55h-667l8 55q93 0 142 18t69.5 54.5t31.5 110.5l50 360l-240 614
q-37 94 -74.5 130t-120.5 36l7 56h577l-8 -56q-100 0 -127.5 -40t4.5 -128z" />
    <glyph glyph-name="Z" unicode="Z" horiz-adv-x="1255" 
d="M1329 1434l43 -56l-995 -1276h510q75 0 124 12t86 44.5t61 80t50 128.5h52l-72 -367h-1086l-41 55l998 1276h-529q-33 0 -60 -3.5t-48.5 -12.5t-37 -17.5t-29.5 -27.5t-22.5 -32.5t-18.5 -41.5t-15.5 -45.5t-15.5 -54.5h-52l62 338h1036z" />
    <glyph glyph-name="bracketleft" unicode="[" horiz-adv-x="608" 
d="M510 1266l-201 -1430q-3 -27 -3.5 -47.5t0.5 -37t8.5 -28t13.5 -20t22 -14t29 -8.5t39 -4.5t46.5 -2t57.5 -0.5l-10 -63h-424l264 1876h424l-8 -64q-42 0 -64 -0.5t-51 -2.5t-43 -6t-32 -12t-26 -19t-17.5 -27.5t-15 -38.5t-9.5 -51z" />
    <glyph glyph-name="backslash" unicode="\" horiz-adv-x="901" 
d="M584 -25l-205 1491h123l205 -1491h-123z" />
    <glyph glyph-name="bracketright" unicode="]" horiz-adv-x="604" 
d="M264 -164l201 1430q4 29 5.5 51t-3.5 38.5t-10 27.5t-21 19t-29 12t-41.5 6t-51 2.5t-64.5 0.5l10 64h426l-264 -1876h-426l8 63q42 0 64.5 0.5t51.5 2.5t43.5 6.5t32 12.5t26 19.5t18 29t15 39.5t9.5 52z" />
    <glyph glyph-name="asciicircum" unicode="^" horiz-adv-x="1126" 
d="M862 1432l240 -732h-135l-195 508l-340 -508h-135l442 732h123z" />
    <glyph glyph-name="underscore" unicode="_" horiz-adv-x="966" 
d="M952 -258h-952l18 139h955z" />
    <glyph glyph-name="grave" unicode="`" horiz-adv-x="493" 
d="M504 1077l-213 367q31 18 81.5 12.5t86.5 -33.5l86 -346h-41z" />
    <glyph glyph-name="a" unicode="a" horiz-adv-x="1058" 
d="M1040 956l-108 -770q-10 -74 32 -91.5t130 48.5l26 -41q-57 -60 -125 -91t-129 -31q-80 0 -126.5 53t-30.5 164l26 172q-206 -389 -377 -389q-92 0 -153.5 97t-61.5 242q0 97 18.5 189t65 183.5t116.5 159.5t182 110.5t253 42.5q109 0 244 -27q8 -2 13.5 -8t4.5 -13z
M754 516l61 420q-130 33 -231.5 -36.5t-156 -218t-54.5 -347.5q0 -89 27 -146t65 -57q53 0 138 116.5t151 268.5z" />
    <glyph glyph-name="b" unicode="b" horiz-adv-x="1046" 
d="M166 31l166 1192q4 31 6 47t2.5 36t-1.5 28.5t-8 19.5t-14.5 14.5t-23.5 7.5t-33 5t-45 1l8 52l352 20q7 0 13 -6t6 -14l-119 -830q95 182 194 289.5t195 107.5q92 0 152.5 -97t60.5 -242q0 -80 -12.5 -155.5t-40.5 -154.5t-77 -144.5t-116.5 -117.5t-166 -81t-218.5 -29
q-112 0 -264 26q-8 2 -12.5 9t-3.5 16zM848 647q0 89 -27.5 146t-66.5 57q-56 0 -142 -116.5t-155 -270.5l-58 -416q108 -23 194 12.5t141.5 118.5t84.5 203t29 266z" />
    <glyph glyph-name="c" unicode="c" horiz-adv-x="890" 
d="M672 1004q40 0 77 -5.5t76 -21t67 -39.5t46 -65t18 -95q0 -28 -42 -56.5t-92 -37t-91 9.5q31 57 36.5 111.5t-22.5 93.5t-90 39q-59 0 -112.5 -51.5t-88 -129t-55 -165.5t-20.5 -164q0 -147 62 -230t167.5 -82.5t243.5 85.5l18 -45q-117 -93 -228.5 -137t-200.5 -35
t-156.5 58t-104.5 141t-37 214q0 115 33.5 215.5t88 171t124 121.5t142 75t141.5 24z" />
    <glyph glyph-name="d" unicode="d" horiz-adv-x="1064" 
d="M825 987l35 236q4 31 6 47t2.5 36t-1.5 28.5t-8 19.5t-14.5 14.5t-23.5 7.5t-33 5t-45 1l9 52l352 20q8 0 13.5 -6.5t4.5 -13.5l-178 -1248q-11 -73 31.5 -91t130.5 48l24 -41q-57 -60 -127 -91t-131 -31q-80 0 -126.5 53t-30.5 164l26 178q-205 -395 -383 -395
q-92 0 -153.5 97t-61.5 242q0 89 18 179.5t61.5 183t108 163t166.5 115t228 44.5q44 0 100 -17zM373 334q0 -89 27 -146t65 -57q54 0 140 116.5t155 268.5l57 412q-43 14 -90 14q-152 0 -253 -168t-101 -440z" />
    <glyph glyph-name="e" unicode="e" horiz-adv-x="897" 
d="M948 782q0 -92 -71.5 -158.5t-193.5 -80.5t-284 51q-20 -94 -20 -182q0 -141 60.5 -220t169.5 -78t243 87l18 -45q-117 -93 -228.5 -137t-200.5 -35t-156.5 58t-104.5 141t-37 214q0 115 32 215.5t85.5 171t121.5 121t140.5 75t143.5 24.5q49 0 95 -11t90 -34.5t70.5 -69
t26.5 -107.5zM655 938q-83 0 -145 -83t-96 -210q135 -38 236.5 15t101.5 169q0 109 -97 109z" />
    <glyph glyph-name="f" unicode="f" horiz-adv-x="667" 
d="M176 4l127 901h-131l10 78h131l4 27q15 112 93 223.5t186 181.5t205 70q44 0 59.5 -27.5t-1 -78t-64.5 -113.5q-70 108 -129 108q-33 0 -55.5 -29.5t-35 -87t-19 -119.5t-13.5 -149v-6h221l-10 -78h-222l-131 -928q-16 -112 -93.5 -223.5t-184.5 -181.5t-203 -70
q-45 0 -61 27.5t1 78t66 113.5q34 -52 63 -80t64 -28q23 0 41 13t30.5 43.5t20.5 59t14.5 82.5t9 90t7.5 103z" />
    <glyph glyph-name="g" unicode="g" horiz-adv-x="1028" 
d="M698 66l43 303q-202 -389 -374 -389q-92 0 -153.5 97t-61.5 242q0 97 18.5 189t64.5 183.5t116 159.5t182 110.5t253 42.5q109 0 244 -27q8 -2 14 -8t5 -13l-125 -907q-19 -137 -73 -245t-128.5 -172t-158.5 -97t-171 -33q-40 0 -77 5.5t-76 21t-67 39.5t-46 65t-18 95
q0 28 42 56.5t92 37t91 -9.5q-22 -42 -31 -84.5t-3 -78.5t34 -58.5t74 -22.5q61 0 110.5 41t84 113.5t57.5 157.5t38 186zM381 334q0 -89 27 -146t65 -57q53 0 137.5 116t151.5 267l61 422q-130 33 -231.5 -36.5t-156 -218t-54.5 -347.5z" />
    <glyph glyph-name="h" unicode="h" horiz-adv-x="1107" 
d="M387 0l-215 -18q-8 0 -13 5t-5 13l174 1223q6 40 8 60.5t0.5 42t-8 29.5t-22.5 16t-37 9.5t-56 1.5l6 52l352 20q7 0 13 -6t6 -14l-125 -861q58 109 125 202t151 161t156 68q92 0 131.5 -71t20.5 -198l-78 -549q-11 -74 30 -91.5t129 48.5l29 -41q-52 -59 -122.5 -90.5
t-131.5 -31.5q-81 0 -130.5 53.5t-33.5 163.5l72 514q10 69 1.5 103t-38.5 34q-52 0 -152.5 -123.5t-170.5 -255.5z" />
    <glyph glyph-name="i" unicode="i" horiz-adv-x="587" 
d="M455 1126q-78 67 -133 177q76 98 182 174q85 -79 137 -174q-78 -99 -186 -177zM530 776l-86 -590q-11 -73 31.5 -91t130.5 48l27 -41q-57 -60 -126 -91t-128 -31q-81 0 -130.5 53.5t-33.5 163.5l86 602q7 32 2.5 56.5t-16 39t-40.5 6t-71 -42.5l-26 43q98 92 215 92
q81 0 131 -55t34 -162z" />
    <glyph glyph-name="j" unicode="j" horiz-adv-x="561" 
d="M463 1126q-76 65 -135 177q80 99 184 174q79 -73 137 -174q-78 -99 -186 -177zM205 47l104 752q7 32 2.5 56.5t-16 39t-40.5 6t-71 -42.5l-28 43q100 92 215 92q82 0 132 -54.5t34 -162.5l-99 -696q-49 -356 -495 -572l-21 39q115 74 185 189.5t98 310.5z" />
    <glyph glyph-name="k" unicode="k" horiz-adv-x="1062" 
d="M387 0l-215 -18q-8 0 -13 5t-5 13l174 1223q6 40 8 60.5t0.5 42t-8 29.5t-22.5 16t-37 9.5t-56 1.5l6 52l352 20q7 0 13 -6t6 -14l-135 -957q57 95 137.5 193t165 178.5t167 124.5t136.5 28q38 -10 49 -49.5t-14.5 -97.5t-87.5 -111q-34 36 -85 40.5t-120 -27t-144 -99.5
q4 -132 32 -237t65.5 -164.5t82 -99t77 -53t55.5 -13.5q44 0 108 53l27 -41q-56 -60 -124.5 -91t-129.5 -31q-33 0 -61.5 4t-64.5 17t-65 34.5t-58 60.5t-49 90.5t-32.5 128.5t-13.5 172l-66 -94z" />
    <glyph glyph-name="l" unicode="l" horiz-adv-x="546" 
d="M578 1434l-181 -1248q-10 -74 32 -91.5t130 48.5l27 -41q-56 -60 -124.5 -91t-129.5 -31q-81 0 -130.5 53.5t-33.5 163.5l145 1026q6 41 8 61t0.5 41.5t-8 29.5t-22 16t-36.5 9.5t-56 1.5l6 52l354 20q7 0 13 -6t6 -14z" />
    <glyph glyph-name="m" unicode="m" horiz-adv-x="1650" 
d="M475 473l-65 -473l-215 -18q-8 0 -13.5 5.5t-5.5 12.5l115 799q7 32 2.5 56.5t-16 39t-40.5 6t-71 -42.5l-27 43q98 92 215 92q81 0 131.5 -55t34.5 -162l-31 -198q43 82 89 152.5t99.5 135t111.5 101.5t112 37q92 0 131 -70.5t21 -198.5l-21 -149q42 81 87.5 150.5
t98.5 132t110 99t110 36.5q93 0 131.5 -70.5t21.5 -198.5l-78 -549q-11 -73 31.5 -91t130.5 48l27 -41q-55 -60 -125 -91t-131 -31q-80 0 -129 53.5t-33 163.5l72 514q10 69 1.5 103t-38.5 34q-51 0 -140.5 -116.5t-162.5 -254.5l-68 -477l-213 -18q-7 0 -12.5 5t-5.5 13
l100 711q10 69 2 103t-39 34q-49 0 -140 -119t-165 -256z" />
    <glyph glyph-name="n" unicode="n" horiz-adv-x="1130" 
d="M520 776l-31 -203q56 109 123.5 202.5t151.5 161t156 67.5q91 0 129.5 -70.5t21.5 -198.5l-78 -549q-11 -73 31.5 -91t130.5 48l27 -41q-55 -60 -124.5 -91t-129.5 -31q-81 0 -130.5 53.5t-33.5 163.5l72 514q10 69 1.5 103t-38.5 34q-52 0 -153 -124t-171 -255l-65 -469
l-215 -18q-8 0 -13.5 5.5t-5.5 12.5l115 799q7 32 2.5 56.5t-16 39t-40.5 6t-71 -42.5l-27 43q98 92 215 92q81 0 131.5 -55t34.5 -162z" />
    <glyph glyph-name="o" unicode="o" horiz-adv-x="991" 
d="M664 1004q163 0 266.5 -119t103.5 -312q0 -129 -43.5 -241.5t-115.5 -188.5t-166.5 -119.5t-196.5 -43.5q-164 0 -266.5 117t-102.5 311q0 104 28 198t77.5 166t114.5 124.5t142.5 80t158.5 27.5zM526 45q71 0 127 61t87.5 156.5t48 197.5t16.5 197q0 128 -36.5 204.5
t-117.5 76.5q-71 0 -127 -61t-88 -156.5t-48.5 -197t-16.5 -195.5q0 -129 37 -206t118 -77z" />
    <glyph glyph-name="p" unicode="p" horiz-adv-x="1073" 
d="M424 -18l-33 -240q-12 -65 -7 -102.5t40 -51.5t125 -14l-6 -51h-553l8 51q27 0 46.5 1.5t35 6.5t26 9.5t19 17t13 21t9 30.5t7 36t6.5 46l149 1057q7 32 2.5 56.5t-16 39t-40.5 6t-71 -42.5l-26 43q98 92 215 92q81 0 131.5 -55t34.5 -162l-27 -168q203 393 379 393
q92 0 152.5 -97t60.5 -242q0 -96 -17.5 -187t-63 -182.5t-114.5 -159.5t-181.5 -110.5t-254.5 -42.5q-7 0 -25 1t-24 1zM494 467l-60 -422q131 -31 232 39t154.5 217.5t53.5 345.5q0 89 -26.5 146t-65.5 57q-53 0 -137 -116t-151 -267z" />
    <glyph glyph-name="q" unicode="q" horiz-adv-x="1058" 
d="M1059 958l-172 -1214q-12 -68 -8 -106t28.5 -51t87.5 -13l-6 -51h-538l6 51q42 0 70.5 2.5t50 11t33.5 19t21.5 32t14 44t10.5 61.5l88 631q-205 -395 -387 -395q-92 0 -153.5 97t-61.5 242q0 97 17.5 187.5t63 183t115 160.5t182 111t255.5 43q58 0 142.5 -9t121.5 -16
q19 -4 19 -21zM764 518l59 418q-142 31 -245.5 -42t-154 -218t-50.5 -342q0 -89 28.5 -146t67.5 -57q55 0 142 117.5t153 269.5z" />
    <glyph glyph-name="r" unicode="r" horiz-adv-x="811" 
d="M530 776l-34 -207q54 128 121.5 231t146 162.5t143.5 38.5q22 -6 35 -23.5t14.5 -43.5t-7.5 -56.5t-34 -66t-63 -68.5q-32 34 -75 36.5t-92 -27t-102.5 -105.5t-99.5 -190l-63 -457l-215 -18q-8 0 -13.5 5.5t-5.5 12.5l115 799q7 32 2.5 56.5t-16 39t-40.5 6t-71 -42.5
l-26 43q98 92 215 92q81 0 131.5 -55t33.5 -162z" />
    <glyph glyph-name="s" unicode="s" horiz-adv-x="811" 
d="M389 -20q-45 0 -90.5 11.5t-88.5 34.5t-70 66.5t-27 100.5q0 23 35 46.5t78 30.5t79 -8q-27 -48 -29 -97t28.5 -84.5t92.5 -35.5q82 0 131.5 50.5t49.5 123.5q0 47 -26.5 91.5t-66 78t-86 72.5t-86 75t-66 85.5t-26.5 103.5q0 93 56 158t137 93t176 28q44 0 86.5 -11.5
t80.5 -34.5t61.5 -62t23.5 -89q0 -22 -32.5 -44t-71.5 -28.5t-72 6.5q25 45 26.5 90.5t-23 76t-71.5 30.5q-57 0 -103 -44.5t-46 -107.5q0 -45 37.5 -90.5t91 -87.5t107 -87.5t91 -108t37.5 -131.5q0 -79 -40 -140t-105 -94.5t-136 -50t-143 -16.5z" />
    <glyph glyph-name="t" unicode="t" horiz-adv-x="655" 
d="M569 1231l-37 -248h236l-10 -78h-236l-80 -581q-14 -102 -1 -160t46.5 -76t78.5 -3t96 58l26 -41q-55 -52 -138 -87t-153 -35q-81 0 -128.5 46.5t-60 113.5t-1.5 151l84 614h-115l8 68q73 0 131 20t100 59t70 80t56 99h28z" />
    <glyph glyph-name="u" unicode="u" horiz-adv-x="1122" 
d="M530 776l-71 -504q-10 -69 -1.5 -103t38.5 -34q51 0 147 122t168 257l66 469l215 18q8 0 13 -5.5t5 -12.5l-115 -797q-10 -74 32 -91.5t130 48.5l27 -41q-56 -60 -124.5 -91t-129.5 -31q-81 0 -130.5 53.5t-33.5 163.5l33 213q-58 -111 -123 -203t-146.5 -159.5
t-152.5 -67.5q-93 0 -132 70.5t-20 197.5l76 551q7 32 2.5 56.5t-16 39t-40.5 6t-71 -42.5l-26 43q98 92 215 92q80 0 129.5 -54.5t35.5 -162.5z" />
    <glyph glyph-name="v" unicode="v" horiz-adv-x="944" 
d="M565 0l-110 -18q-8 0 -13.5 5.5t-5.5 12.5l-172 819q-5 23 -8.5 35t-14 28.5t-24 19t-38.5 -7t-58 -36.5l-29 43q100 92 223 92q77 0 123 -42t64 -144l110 -627q49 79 81 135t72.5 135t61.5 146t21 119q0 64 -24.5 105t-63.5 54q29 78 67.5 119t79.5 41q45 0 66.5 -40
t21.5 -91q0 -138 -132 -406t-298 -497z" />
    <glyph glyph-name="w" unicode="w" horiz-adv-x="1464" 
d="M975 983l160 -803q65 105 108 182t84 181t41 172q0 64 -24.5 105t-63.5 54q29 78 67.5 119t79.5 41q45 0 67 -40t22 -91q0 -138 -132.5 -406t-298.5 -497l-110 -18q-8 0 -13.5 5.5t-5.5 12.5l-127 565q-7 -17 -44 -108.5t-53 -128t-48.5 -107t-63 -122.5t-63.5 -99
l-111 -18q-8 0 -13 5t-5 13l-164 819q-4 22 -7.5 35t-14 29t-24.5 18.5t-39 -7t-58 -36.5l-29 43q100 92 223 92q78 0 125.5 -42.5t61.5 -143.5l98 -625q79 148 168.5 388.5t128.5 398.5z" />
    <glyph glyph-name="x" unicode="x" horiz-adv-x="968" 
d="M547 848l78 -236q60 109 129.5 199.5t142.5 146t125 43.5q19 -2 32.5 -16t18 -36.5t0 -50t-24 -61t-51.5 -65.5q-30 29 -70.5 30.5t-86.5 -24.5t-97 -83.5t-100 -141.5q6 -15 57.5 -171.5t71.5 -195.5q17 -46 42.5 -71t70 -21t100.5 49l27 -41q-55 -59 -127 -90.5
t-133 -31.5q-74 0 -130.5 46t-86.5 136q-3 8 -60 166q-84 -159 -179 -262t-167 -89q-19 2 -33 15.5t-19 36.5t-1 51t23 62.5t51 66.5q56 -58 138.5 -10.5t168.5 192.5l-144 426q-8 28 -17.5 45t-27.5 31.5t-47.5 6t-68.5 -41.5l-29 43q100 92 225 92q75 0 123.5 -31
t75.5 -114z" />
    <glyph glyph-name="y" unicode="y" horiz-adv-x="950" 
d="M492 -61l-222 880q-4 17 -6.5 25t-8.5 22.5t-12 20.5t-17.5 11.5t-24.5 2t-32 -13.5t-42 -29l-29 43q51 47 110.5 69.5t113.5 22.5q77 0 121.5 -42t64.5 -144l129 -645q86 140 151.5 296t65.5 257q0 64 -24.5 105t-63.5 54q29 78 67.5 119t79.5 41q45 0 66.5 -40
t21.5 -91q0 -64 -43.5 -194t-114 -285t-165.5 -319t-192.5 -297.5t-201 -219.5t-184.5 -86q-24 0 -41.5 14.5t-24.5 40.5t-4 58.5t21.5 72.5t50.5 79q25 -15 50 -25.5t68 -13t84 13.5t92 65.5t96 131.5z" />
    <glyph glyph-name="z" unicode="z" horiz-adv-x="835" 
d="M887 983l20 -35l-596 -735q71 5 143.5 -15.5t134.5 -43.5t101 -23q79 0 150 49l26 -41q-151 -164 -329 -164q-47 0 -134.5 13.5t-148.5 19t-170 -7.5l-21 37l599 747h-256q-76 0 -106 -21.5t-48 -94.5h-49l57 295q2 8 9 14t16 6h602z" />
    <glyph glyph-name="braceleft" unicode="{" horiz-adv-x="598" 
d="M285 553l-2 -6q51 -9 84 -30.5t48.5 -56t20.5 -76t-1.5 -98.5t-17 -114t-26.5 -133l-6 -27q-13 -60 -17 -107.5t-2 -81t11.5 -59t21.5 -41.5t30.5 -28.5t35.5 -20t39 -16.5q4 -1 6 -2l-33 -68q-53 15 -96 31t-85 39t-70 54.5t-38 68.5q-9 42 -3 110t24 143.5t29.5 157.5
t14.5 151.5t-22.5 125.5t-80.5 80q74 30 117.5 102.5t58.5 165t21.5 184.5t18.5 182t37 136q68 121 345 192l14 -67q-34 -12 -46 -17t-40.5 -20t-41 -29t-33 -41.5t-30.5 -60t-20.5 -81.5t-15.5 -110q-15 -222 -31 -298q-32 -148 -122 -201q-41 -24 -97 -33z" />
    <glyph glyph-name="bar" unicode="|" horiz-adv-x="497" 
d="M557 1575l-293 -2081h-119l293 2081h119z" />
    <glyph glyph-name="braceright" unicode="}" horiz-adv-x="606" 
d="M479 547l2 6q-124 21 -148 128q-18 83 22 280q5 27 26 124q17 82 18.5 142t-7 94.5t-32 59.5t-43 35.5t-53.5 24.5q-5 2 -8 3l31 67q256 -70 291 -192q8 -43 2 -111t-24.5 -143.5t-30 -157t-14.5 -151t22.5 -126t80.5 -81.5q-62 -24 -103 -80t-58 -125t-28 -152.5
t-14.5 -157t-15.5 -144t-33 -109.5q-70 -123 -344 -193l-12 68q80 28 111 52q87 67 108 258q2 22 4 46q15 223 31 298q32 150 123 204q40 24 96 33z" />
    <glyph glyph-name="asciitilde" unicode="~" horiz-adv-x="1265" 
d="M1163 793l60 -45q-21 -32 -36 -52.5t-47 -58.5t-59.5 -61t-66 -41.5t-74.5 -18.5q-87 0 -246.5 34t-240.5 34q-76 0 -146 -78l-61 47q155 231 284 231q87 0 246 -34.5t240 -34.5q75 0 147 78z" />
    <glyph glyph-name="nbspace" unicode="&#xa0;" horiz-adv-x="225" 
 />
    <glyph glyph-name="exclamdown" unicode="&#xa1;" horiz-adv-x="641" 
d="M336 492h113q-17 -126 -23.5 -500.5t-19.5 -460.5h-297q12 83 110 457.5t117 503.5zM463 989q84 -73 147 -190q-85 -103 -200 -191q-87 81 -148 191q81 104 201 190z" />
    <glyph glyph-name="cent" unicode="&#xa2;" horiz-adv-x="952" 
d="M532 35h-71l22 178q-148 -2 -235.5 107.5t-87.5 302.5q0 106 27.5 199t73.5 159t106.5 116t125.5 77.5t132 35.5l26 189h72l-27 -185q39 -1 76 -8.5t75 -24.5t66 -42.5t46 -65.5t18 -90q0 -23 -45.5 -50t-98.5 -36t-94 14q31 56 39 109t-18 91t-88 38q-60 0 -113.5 -49.5
t-87.5 -125t-54 -161.5t-20 -162q0 -146 60.5 -226t169 -79t243.5 88l19 -45q-176 -139 -332 -168z" />
    <glyph glyph-name="sterling" unicode="&#xa3;" horiz-adv-x="1134" 
d="M307 707l12 75h170l54 197q18 67 62 137.5t104 130t127 106.5t136.5 74t127.5 27q63 0 60 -51q-3 -64 -101 -168q-51 108 -111 108q-28 0 -57 -36t-56.5 -102.5t-50 -135t-47.5 -158.5l-39 -129h238l-10 -75h-250l-58 -195q-23 -72 -80 -161.5t-128 -155.5
q90 27 145 24.5t98 -26.5t68.5 -52t57 -50.5t63.5 -22.5q43 0 66.5 31t23.5 63q0 40 -31 71q83 108 136 107q28 -4 30 -35q0 -38 -15.5 -89.5t-47 -107.5t-90 -94.5t-132.5 -38.5q-67 0 -134 20t-113 44.5t-103.5 49.5t-103.5 32q-52 -47 -99.5 -76t-132.5 -65
q-34 18 -47 66.5t0 92.5q38 19 85.5 30t81 13.5t85.5 3.5q58 99 117 322l51 199h-162z" />
    <glyph glyph-name="currency" unicode="&#xa4;" horiz-adv-x="958" 
d="M242 471q0 69 31.5 137.5t80.5 122.5l-114 176l47 45l119 -178q83 62 182 62t164 -62l166 176l40 -39l-167 -178q55 -74 55 -186q0 -70 -32.5 -139t-82.5 -123q75 -116 113 -170l-49 -47l-117 174q-84 -62 -182 -62q-99 0 -164 62q-102 -106 -162 -174l-37 47l160 170
q-51 79 -51 186zM299 475q0 -97 59 -164t148 -67q110 0 195 88.5t85 208.5q0 98 -58 165.5t-148 67.5q-109 0 -195 -90t-86 -209z" />
    <glyph glyph-name="yen" unicode="&#xa5;" horiz-adv-x="1374" 
d="M317 451l11 77h290l11 70l-33 100h-244l10 78h207l-149 436q-34 93 -71.5 129.5t-121.5 36.5l6 56h568l-6 -56q-96 0 -120.5 -39.5t5.5 -128.5l147 -512l310 521q17 29 27 49.5t13 42.5t-6.5 35.5t-36 22.5t-71.5 9l6 56h426l-6 -56q-91 0 -145 -39.5t-123 -140.5
l-254 -422h213l-11 -78h-247l-60 -96l-10 -74h293l-10 -77h-293l-29 -213q-12 -69 -1 -109.5t54.5 -57t137.5 -16.5l-9 -55h-667l8 55q71 0 114 8.5t70 31.5t39.5 55t20.5 88l28 213h-291z" />
    <glyph glyph-name="brokenbar" unicode="&#xa6;" horiz-adv-x="487" 
d="M543 1755l-109 -784h-119l109 784h119zM373 532l-111 -784h-119l111 784h119z" />
    <glyph glyph-name="section" unicode="&#xa7;" horiz-adv-x="1062" 
d="M440 874q-4 -78 16 -152.5t53.5 -130t74.5 -115.5t78.5 -110.5t65.5 -113.5t36.5 -125t-10.5 -145q37 72 57 154t20 143q0 70 -22 137t-56 118.5t-74.5 108.5t-76.5 106t-63 110t-34 121.5t11 141.5q-57 -109 -76 -248zM666 -211q-33 -54 -81.5 -89t-99 -47t-101.5 -3.5
t-90.5 34.5t-64 74t-24.5 109q0 21 29 49t65.5 39t69.5 -10q-23 -59 -31.5 -99.5t-3 -73t34 -48t80.5 -15.5q60 0 111.5 49.5t78.5 116t27 125.5q0 83 -35.5 165t-86 152t-101 141t-86 159.5t-35.5 179.5q0 264 282 518q33 54 81.5 89t98.5 47t100.5 3.5t90 -34.5t64 -74
t24.5 -109q0 -21 -29.5 -49t-65.5 -39t-67 10q23 59 31.5 99.5t3 73t-34 48t-80.5 15.5q-62 0 -114 -50t-78.5 -115.5t-26.5 -123.5q0 -69 25.5 -139t64 -126t83.5 -121t83.5 -123.5t64 -135t25.5 -154.5q0 -262 -282 -518z" />
    <glyph glyph-name="dieresis" unicode="&#xa8;" horiz-adv-x="761" 
d="M358 1143q-48 39 -92 121q60 73 127 118q49 -46 92 -118q-52 -66 -127 -121zM715 1143q-52 42 -94 121q64 74 127 118q50 -45 94 -118q-52 -66 -127 -121z" />
    <glyph glyph-name="copyright" unicode="&#xa9;" horiz-adv-x="1607" 
d="M236 659q0 157 62.5 305t165.5 254.5t240.5 171t280.5 64.5q156 0 283 -82.5t197.5 -224t70.5 -311.5q0 -157 -63 -305t-166.5 -254.5t-240.5 -171t-280 -64.5q-158 0 -284.5 82.5t-196 223.5t-69.5 312zM307 670q0 -151 63 -276.5t175.5 -199t251.5 -73.5q127 0 249 57
t214 151.5t148 225.5t56 270q0 151 -62.5 276.5t-175.5 199t-253 73.5q-126 0 -248 -57t-213.5 -151.5t-148 -225.5t-56.5 -270zM469 674q0 107 28.5 196t76.5 149.5t112.5 103t136 62t146.5 19.5q129 0 241 -59l-28 -193h-49q7 40 1.5 74t-21.5 59t-55 39.5t-100 14.5
q-84 0 -151 -42t-107.5 -111t-62 -150.5t-21.5 -167.5q0 -134 58.5 -223t173.5 -89q61 0 103.5 13.5t67.5 40.5t37 58t19 75h49l-26 -193q-127 -59 -258 -59q-102 0 -184 39.5t-134.5 128t-52.5 215.5z" />
    <glyph glyph-name="ordfeminine" unicode="&#xaa;" horiz-adv-x="694" 
d="M727 848l8 -29q-67 -31 -123 -31q-76 0 -100 78q-90 -78 -176 -78q-59 0 -95 40t-36 108q0 30 13.5 54t31.5 39.5t51.5 28.5t57.5 19.5t65.5 11.5t60 6.5t56.5 4.5l28 198q14 115 -55 115q-41 0 -68 -27t-35 -60t-1 -60q-87 -57 -128 -41q-18 8 -18 32q0 75 95.5 136
t197.5 61q48 0 81.5 -9.5t49 -25.5t24 -36.5t6.5 -41.5t-3 -41l-53 -385q-3 -18 -3.5 -30t2 -24t9.5 -17t21.5 -4.5t35.5 8.5zM354 952q-4 -98 49 -98q23 0 55 15.5t56 39.5l23 150q-90 -7 -133.5 -28t-49.5 -79z" />
    <glyph glyph-name="guillemotleft" unicode="&#xab;" horiz-adv-x="1015" 
d="M242 506l372 344l52 -37l-205 -276q-18 -24 -19.5 -33.5t9.5 -32.5l129 -274l-62 -37zM549 506l375 344l51 -37l-207 -276q-17 -24 -18 -33.5t8 -32.5l131 -274l-62 -37z" />
    <glyph glyph-name="logicalnot" unicode="&#xac;" horiz-adv-x="1302" 
d="M260 702h950l-71 -503h-129l53 362h-821z" />
    <glyph glyph-name="registered" unicode="&#xae;" horiz-adv-x="1607" 
d="M236 659q0 157 62.5 305t165.5 254.5t240.5 171t280.5 64.5q156 0 283 -82.5t197.5 -224t70.5 -311.5q0 -157 -63 -305t-166.5 -254.5t-240.5 -171t-280 -64.5q-158 0 -284.5 82.5t-196 223.5t-69.5 312zM307 670q0 -151 63 -276.5t175.5 -199t251.5 -73.5q127 0 249 57
t214 151.5t148 225.5t56 270q0 151 -62.5 276.5t-175.5 199t-253 73.5q-126 0 -248 -57t-213.5 -151.5t-148 -225.5t-56.5 -270zM1006 741l155 -387l-55 -35l-262 398h-45l-35 -236q-2 -27 -1 -49t20 -35.5t59 -13.5l-8 -49h-314l8 49q57 0 76.5 24t24.5 74l76 535
q2 22 2.5 44t-17 39t-53.5 17l6 49h236q37 0 64 -1.5t68.5 -6t71 -16t58.5 -29.5t44 -48t15 -69q0 -183 -194 -254zM852 1106l-47 -332h47q199 0 199 217q0 38 -14 62.5t-44 35t-60.5 14t-80.5 3.5z" />
    <glyph glyph-name="macron" unicode="&#xaf;" horiz-adv-x="768" 
d="M848 1278l-14 -113h-582l14 113h582z" />
    <glyph glyph-name="degree" unicode="&#xb0;" horiz-adv-x="923" 
d="M360 1157q0 145 101.5 252t234.5 107q108 0 178 -80.5t70 -198.5q0 -144 -102 -249t-234 -105q-108 0 -178 78.5t-70 195.5zM451 1169q0 -80 48.5 -135t121.5 -55q92 0 162.5 74t70.5 174q0 80 -48.5 136t-121.5 56q-92 0 -162.5 -75t-70.5 -175z" />
    <glyph glyph-name="plusminus" unicode="&#xb1;" horiz-adv-x="1206" 
d="M768 750h346l-18 -136h-346l-54 -381h-123l54 381h-346l20 136h346l53 380h121zM215 135h813l-18 -135h-815z" />
    <glyph glyph-name="twosuperior" unicode="&#xb2;" horiz-adv-x="753" 
d="M119 983l-13 29q172 142 249 221q200 206 200 371q0 67 -32.5 102t-88.5 35q-53 0 -106 -32.5t-92 -92.5l-27 16q132 199 309 199q96 0 153.5 -46.5t57.5 -137.5q0 -42 -17.5 -88.5t-42 -86t-68 -86.5t-76.5 -78.5t-87.5 -75.5t-81.5 -64.5t-77 -57.5q-18 -14 -27 -20
h438l-39 -107h-532z" />
    <glyph glyph-name="threesuperior" unicode="&#xb3;" horiz-adv-x="776" 
d="M512 1831q103 0 156 -47.5t53 -114.5q0 -70 -71 -145t-187 -101v-4q105 -1 169 -54.5t64 -131.5q0 -72 -34 -125.5t-89.5 -81.5t-112.5 -40.5t-116 -12.5q-98 0 -160.5 51t-50.5 121q7 34 35 45.5t61 2t58 -31.5q-28 -46 -9.5 -93.5t72.5 -47.5q71 0 119.5 55.5
t48.5 169.5q0 68 -31.5 109t-93.5 41h-53l8 49h37q77 0 121.5 57.5t44.5 122.5q0 51 -30.5 84t-88.5 33t-111 -34.5t-92 -90.5l-24 16q129 199 307 199z" />
    <glyph glyph-name="acute" unicode="&#xb4;" horiz-adv-x="493" 
d="M598 1444l-317 -367h-41l184 346q43 28 94.5 33.5t79.5 -12.5z" />
    <glyph glyph-name="mu" unicode="&#xb5;" horiz-adv-x="1103" 
d="M229 45l101 707q12 68 8 106t-30 51t-93 13l6 51l371 10l-96 -698q-25 -168 100 -168q44 0 101.5 32t107.5 80l74 523q11 68 7 106t-27 51t-81 13l8 51l355 10l-101 -721q-6 -46 -8 -67t-1 -46.5t7.5 -34.5t21.5 -18.5t37 -11.5t58 -2l-8 -51l-377 -51l25 178
q-191 -186 -349 -170q-24 -109 -101 -213t-178.5 -168t-193.5 -64q-45 0 -60 27.5t2.5 78t66.5 113.5q32 -51 60.5 -79.5t63.5 -28.5q23 0 41 13.5t30 42t21 60.5t15 81.5t9.5 91t6.5 102.5z" />
    <glyph glyph-name="mu" unicode="&#x3bc;" horiz-adv-x="1103" 
d="M229 45l101 707q12 68 8 106t-30 51t-93 13l6 51l371 10l-96 -698q-25 -168 100 -168q44 0 101.5 32t107.5 80l74 523q11 68 7 106t-27 51t-81 13l8 51l355 10l-101 -721q-6 -46 -8 -67t-1 -46.5t7.5 -34.5t21.5 -18.5t37 -11.5t58 -2l-8 -51l-377 -51l25 178
q-191 -186 -349 -170q-24 -109 -101 -213t-178.5 -168t-193.5 -64q-45 0 -60 27.5t2.5 78t66.5 113.5q32 -51 60.5 -79.5t63.5 -28.5q23 0 41 13.5t30 42t21 60.5t15 81.5t9.5 91t6.5 102.5z" />
    <glyph glyph-name="paragraph" unicode="&#xb6;" horiz-adv-x="1212" 
d="M1047 1286l-150 -1067q-13 -91 -60.5 -178t-107.5 -146t-124 -95t-113 -36q-56 0 -53 47q2 43 59 123q60 -69 104 -69q29 0 53 28.5t51.5 118.5t49.5 244l57 410h-133q-190 0 -281.5 77.5t-91.5 235.5q0 228 116 341.5t363 113.5h426l-4 -41q-50 0 -81.5 -7t-47 -23.5
t-22 -32.5t-10.5 -44z" />
    <glyph glyph-name="periodcentered" unicode="&#xb7;" horiz-adv-x="665" 
d="M377 389q-77 67 -146 191q97 117 201 190q88 -82 148 -190q-85 -106 -203 -191z" />
    <glyph glyph-name="cedilla" unicode="&#xb8;" horiz-adv-x="505" 
d="M164 0h51l-12 -70q-3 -22 14 -36t43 -22t52.5 -18t45.5 -32.5t19 -57.5q0 -56 -55.5 -103.5t-132.5 -70.5t-146 -18l-2 53q213 0 213 117q0 29 -13.5 45.5t-32 23.5t-35.5 15t-25 27t-1 53z" />
    <glyph glyph-name="onesuperior" unicode="&#xb9;" horiz-adv-x="593" 
d="M485 983h-393l6 37q40 0 63 4.5t36.5 19t19 31t10.5 49.5l80 535q9 41 3.5 63t-26.5 29.5t-75 7.5l6 37l248 31h35l-105 -703q-10 -63 5.5 -83.5t90.5 -20.5z" />
    <glyph glyph-name="ordmasculine" unicode="&#xba;" horiz-adv-x="720" 
d="M543 1454q106 0 172.5 -76t66.5 -202q0 -167 -101 -277.5t-239 -110.5q-105 0 -171 77t-66 204q0 168 100.5 276.5t237.5 108.5zM451 831q48 0 85 41.5t57 105t30 129t10 124.5q0 182 -101 182q-46 0 -82 -41t-56 -104t-30 -128.5t-10 -125.5q0 -183 97 -183z" />
    <glyph glyph-name="guillemotright" unicode="&#xbb;" horiz-adv-x="1011" 
d="M338 850l278 -344l-376 -346l-50 37l203 274q18 23 19.5 32.5t-9.5 33.5l-127 276zM647 850l279 -344l-377 -346l-51 37l204 274q17 23 18.5 32t-7.5 34l-127 276z" />
    <glyph glyph-name="onequarter" unicode="&#xbc;" horiz-adv-x="1406" 
d="M219 6l1012 1471l59 -43l-1007 -1471zM1315 209h-82l-10 -74q-10 -65 5.5 -84.5t88.5 -19.5l-6 -31h-355l7 31q71 0 92 19.5t32 84.5l9 74h-330l12 80l477 534h66l-78 -534h100zM840 289h272l53 364zM446 614h-352l6 31q38 0 59.5 4.5t35 18t18.5 31t10 51.5l76 526
q3 32 4.5 51.5t-9.5 30t-31 14.5t-60 4l6 33l219 29h29l-97 -688q-11 -65 3.5 -84.5t89.5 -20.5z" />
    <glyph glyph-name="onehalf" unicode="&#xbd;" horiz-adv-x="1456" 
d="M219 6l1012 1471l59 -43l-1007 -1471zM446 614h-352l6 31q38 0 59.5 4.5t35 18t18.5 31t10 51.5l76 526q3 32 4.5 51.5t-9.5 30t-31 14.5t-60 4l6 33l219 29h29l-97 -688q-11 -65 3.5 -84.5t89.5 -20.5zM872 0l-16 25q158 137 219 200q207 214 207 383q0 65 -31.5 100
t-85.5 35q-50 0 -100 -31.5t-88 -88.5l-21 12q53 92 126 143t157 51q88 0 139.5 -48t51.5 -136q0 -31 -9.5 -65t-23.5 -64t-39.5 -65.5t-46 -61.5t-55.5 -61t-57 -55.5t-60.5 -53t-55 -46t-52.5 -42t-42 -33.5h402l-35 -98h-484z" />
    <glyph glyph-name="threequarters" unicode="&#xbe;" horiz-adv-x="1476" 
d="M289 6l1009 1471l60 -43l-1008 -1471zM1384 209h-84l-8 -74q-10 -65 5 -84.5t87 -19.5l-4 -31h-354l6 31q71 0 92.5 19.5t32.5 84.5l8 74h-329l12 80l477 534h64l-76 -534h98zM909 289h273l53 364zM428 1444q89 0 138.5 -46.5t49.5 -115.5q0 -71 -64 -142t-163 -96v-2
q93 -6 148 -57.5t55 -122.5q0 -68 -31 -120.5t-80.5 -81.5t-103.5 -43.5t-109 -14.5q-87 0 -143 46t-47 114q6 38 50.5 43.5t76.5 -23.5q-25 -51 -5 -94t74 -43q73 0 121.5 61.5t48.5 165.5q0 64 -30.5 106t-87.5 42h-52l7 43h36q70 0 114 55t44 121q0 52 -31.5 85.5
t-85.5 33.5q-100 0 -190 -121l-21 12q50 87 123.5 141t157.5 54z" />
    <glyph glyph-name="questiondown" unicode="&#xbf;" horiz-adv-x="917" 
d="M492 -489q-146 0 -241 112t-95 275q0 61 11 113.5t28.5 91.5t46.5 73t57.5 57.5t70 46t74.5 37t80 31.5q90 36 90 158h95l36 -334q-115 0 -217 -30.5t-171.5 -96.5t-69.5 -156q0 -50 15 -103.5t41.5 -101t69.5 -78t93 -30.5q46 0 79 22t47 57t18 77.5t-9 83.5
q36 21 70 35t71.5 21.5t60.5 -10t23 -61.5q0 -66 -25.5 -118.5t-64.5 -84t-91 -52t-99 -28t-94 -7.5zM729 989q83 -70 148 -190q-81 -102 -201 -191q-89 83 -146 191q73 97 199 190z" />
    <glyph glyph-name="Agrave" unicode="&#xc0;" horiz-adv-x="1353" 
d="M958 236l-30 155h-498l-78 -158q-47 -89 -22.5 -133.5t139.5 -44.5l-8 -55h-451l8 55q96 0 141 37.5t101 149.5l608 1212h76l264 -1212q13 -60 23 -89.5t31 -55t52.5 -34t84.5 -8.5l-8 -55h-578l8 55q107 0 131.5 38.5t5.5 142.5zM784 1114l-317 -645h446zM920 1528
l-213 366q31 18 81 13t86 -33l87 -346h-41z" />
    <glyph glyph-name="Aacute" unicode="&#xc1;" horiz-adv-x="1353" 
d="M958 236l-30 155h-498l-78 -158q-47 -89 -22.5 -133.5t139.5 -44.5l-8 -55h-451l8 55q96 0 141 37.5t101 149.5l608 1212h76l264 -1212q13 -60 23 -89.5t31 -55t52.5 -34t84.5 -8.5l-8 -55h-578l8 55q107 0 131.5 38.5t5.5 142.5zM784 1114l-317 -645h446zM1165 1894
l-317 -366h-41l184 346q43 28 94.5 33t79.5 -13z" />
    <glyph glyph-name="Acircumflex" unicode="&#xc2;" horiz-adv-x="1353" 
d="M958 236l-30 155h-498l-78 -158q-47 -89 -22.5 -133.5t139.5 -44.5l-8 -55h-451l8 55q96 0 141 37.5t101 149.5l608 1212h76l264 -1212q13 -60 23 -89.5t31 -55t52.5 -34t84.5 -8.5l-8 -55h-578l8 55q107 0 131.5 38.5t5.5 142.5zM784 1114l-317 -645h446zM1196 1528h-51
l-203 213l-264 -213h-47l280 352h101z" />
    <glyph glyph-name="Atilde" unicode="&#xc3;" horiz-adv-x="1353" 
d="M958 236l-30 155h-498l-78 -158q-47 -89 -22.5 -133.5t139.5 -44.5l-8 -55h-451l8 55q96 0 141 37.5t101 149.5l608 1212h76l264 -1212q13 -60 23 -89.5t31 -55t52.5 -34t84.5 -8.5l-8 -55h-578l8 55q107 0 131.5 38.5t5.5 142.5zM784 1114l-317 -645h446zM647 1591
l-29 31q109 162 203 162q53 0 143.5 -33t137.5 -33q57 0 110 68l29 -31q-109 -162 -203 -162q-52 0 -142.5 33t-137.5 33q-56 0 -111 -68z" />
    <glyph glyph-name="Adieresis" unicode="&#xc4;" horiz-adv-x="1353" 
d="M958 236l-30 155h-498l-78 -158q-47 -89 -22.5 -133.5t139.5 -44.5l-8 -55h-451l8 55q96 0 141 37.5t101 149.5l608 1212h76l264 -1212q13 -60 23 -89.5t31 -55t52.5 -34t84.5 -8.5l-8 -55h-578l8 55q107 0 131.5 38.5t5.5 142.5zM784 1114l-317 -645h446zM739 1593
q-48 39 -92 121q62 75 127 119q47 -45 92 -119q-52 -66 -127 -121zM1096 1593q-54 43 -95 121q66 76 127 119q51 -45 95 -119q-52 -66 -127 -121z" />
    <glyph glyph-name="Aring" unicode="&#xc5;" horiz-adv-x="1353" 
d="M719 1561q0 99 69 172t160 73q73 0 121.5 -54.5t48.5 -133.5q0 -80 -45 -143.5t-115 -90.5l250 -1142q13 -60 23 -89.5t31 -55t52.5 -34t84.5 -8.5l-8 -55h-578l8 55q107 0 131.5 38.5t5.5 142.5l-30 155h-498l-78 -158q-47 -89 -22.5 -133.5t139.5 -44.5l-8 -55h-451
l8 55q96 0 141 37.5t101 149.5l571 1138q-52 19 -82 67.5t-30 113.5zM784 1114l-317 -645h446zM803 1573q0 -46 27 -77.5t69 -31.5q52 0 92.5 42t40.5 98q0 46 -28 78t-70 32q-53 0 -92 -42t-39 -99z" />
    <glyph glyph-name="AE" unicode="&#xc6;" horiz-adv-x="1783" 
d="M1737 0h-688q-39 0 -67.5 8t-46.5 18t-28.5 31t-15 36.5t-3.5 46.5t2.5 47t6.5 51l23 153h-445l-94 -158q-22 -36 -34.5 -60.5t-17 -48t4.5 -37.5t33.5 -22t66.5 -8l-8 -57h-416l8 57q66 0 112.5 21.5t78.5 57t76 106.5l739 1192h856l-33 -312h-51q-1 57 -4.5 95
t-16 64.5t-25.5 40.5t-42 21.5t-55.5 9t-75.5 1.5h-289l-80 -563h265q80 0 110 41.5t43 144.5h51l-63 -459h-51q15 109 -4 151t-99 42h-262l-65 -463q-6 -50 -3 -87t33 -59t90 -22h230q112 0 168 54.5t100 209.5h51zM524 469h406l119 858z" />
    <glyph glyph-name="Ccedilla" unicode="&#xc7;" horiz-adv-x="1308" 
d="M164 592q0 135 26 251.5t71.5 203t108 156.5t133.5 116t151 77t157.5 44.5t155.5 13.5q129 0 250.5 -39t209.5 -108l-47 -367h-51q16 118 -7.5 205t-78 135t-123 70t-151.5 22q-159 0 -286.5 -106t-197 -285.5t-69.5 -396.5q0 -236 97 -379.5t273 -143.5q82 0 156.5 22.5
t142.5 70.5t116 135t65 205h51l-55 -367q-105 -67 -235 -105.5t-257 -41.5l-8 -50q-3 -22 14 -36t43.5 -22t53.5 -18t46 -32.5t19 -57.5q0 -56 -56 -103.5t-133.5 -70.5t-146.5 -18l-2 53q213 0 213 117q0 29 -13.5 45.5t-31.5 23.5t-35 15t-25 27t-1 53l12 76
q-85 4 -163 26t-150.5 69.5t-125.5 115.5t-84.5 170.5t-31.5 228.5z" />
    <glyph glyph-name="Egrave" unicode="&#xc8;" horiz-adv-x="1161" 
d="M854 1528l-213 366q31 18 81.5 13t86.5 -33l86 -346h-41zM61 0l9 55q63 0 101 9t59.5 34.5t29.5 54.5t16 85l136 958q10 66 5 106.5t-41 58t-120 17.5l6 56h998l-35 -312h-49q-1 57 -5 95t-16.5 64.5t-25.5 40.5t-42.5 21.5t-55.5 9t-75 1.5h-290l-80 -563h264
q81 0 111 41t45 145h51l-66 -459h-51q16 109 -2 151t-100 42h-265l-63 -463q-12 -83 12 -125.5t111 -42.5h227q113 0 168.5 54t101.5 210h52l-68 -344h-1053z" />
    <glyph glyph-name="Eacute" unicode="&#xc9;" horiz-adv-x="1161" 
d="M997 1894l-317 -366h-41l184 346q43 28 94.5 33t79.5 -13zM61 0l9 55q63 0 101 9t59.5 34.5t29.5 54.5t16 85l136 958q10 66 5 106.5t-41 58t-120 17.5l6 56h998l-35 -312h-49q-1 57 -5 95t-16.5 64.5t-25.5 40.5t-42.5 21.5t-55.5 9t-75 1.5h-290l-80 -563h264
q81 0 111 41t45 145h51l-66 -459h-51q16 109 -2 151t-100 42h-265l-63 -463q-12 -83 12 -125.5t111 -42.5h227q113 0 168.5 54t101.5 210h52l-68 -344h-1053z" />
    <glyph glyph-name="Ecircumflex" unicode="&#xca;" horiz-adv-x="1161" 
d="M61 0l9 55q63 0 101 9t59.5 34.5t29.5 54.5t16 85l136 958q10 66 5 106.5t-41 58t-120 17.5l6 56h998l-35 -312h-49q-1 57 -5 95t-16.5 64.5t-25.5 40.5t-42.5 21.5t-55.5 9t-75 1.5h-290l-80 -563h264q81 0 111 41t45 145h51l-66 -459h-51q16 109 -2 151t-100 42h-265
l-63 -463q-12 -83 12 -125.5t111 -42.5h227q113 0 168.5 54t101.5 210h52l-68 -344h-1053zM1096 1528h-52l-202 213l-264 -213h-48l281 352h100z" />
    <glyph glyph-name="Edieresis" unicode="&#xcb;" horiz-adv-x="1161" 
d="M623 1593q-50 40 -93 121q62 75 127 119q50 -47 93 -119q-52 -66 -127 -121zM979 1593q-52 42 -94 121q66 76 127 119q49 -43 94 -119q-52 -66 -127 -121zM61 0l9 55q63 0 101 9t59.5 34.5t29.5 54.5t16 85l136 958q10 66 5 106.5t-41 58t-120 17.5l6 56h998l-35 -312
h-49q-1 57 -5 95t-16.5 64.5t-25.5 40.5t-42.5 21.5t-55.5 9t-75 1.5h-290l-80 -563h264q81 0 111 41t45 145h51l-66 -459h-51q16 109 -2 151t-100 42h-265l-63 -463q-12 -83 12 -125.5t111 -42.5h227q113 0 168.5 54t101.5 210h52l-68 -344h-1053z" />
    <glyph glyph-name="Igrave" unicode="&#xcc;" 
d="M657 0h-596l9 55q63 0 100 8.5t58.5 33.5t30 54t17.5 87l136 958q9 64 5.5 104.5t-40 59t-121.5 18.5l6 56h596l-8 -56q-43 0 -74 -4t-53 -15t-35 -23t-22 -36t-13.5 -45t-9.5 -59l-135 -958q-11 -67 -4.5 -107.5t43 -58t119.5 -17.5zM641 1528l-213 366q31 18 81.5 13
t86.5 -33l86 -346h-41z" />
    <glyph glyph-name="Iacute" unicode="&#xcd;" 
d="M657 0h-596l9 55q63 0 100 8.5t58.5 33.5t30 54t17.5 87l136 958q9 64 5.5 104.5t-40 59t-121.5 18.5l6 56h596l-8 -56q-43 0 -74 -4t-53 -15t-35 -23t-22 -36t-13.5 -45t-9.5 -59l-135 -958q-11 -67 -4.5 -107.5t43 -58t119.5 -17.5zM821 1894l-317 -366h-41l184 346
q43 28 94.5 33t79.5 -13z" />
    <glyph glyph-name="Icircumflex" unicode="&#xce;" 
d="M657 0h-596l9 55q63 0 100 8.5t58.5 33.5t30 54t17.5 87l136 958q9 64 5.5 104.5t-40 59t-121.5 18.5l6 56h596l-8 -56q-43 0 -74 -4t-53 -15t-35 -23t-22 -36t-13.5 -45t-9.5 -59l-135 -958q-11 -67 -4.5 -107.5t43 -58t119.5 -17.5zM860 1528h-51l-203 213l-264 -213
h-47l280 352h101z" />
    <glyph glyph-name="Idieresis" unicode="&#xcf;" 
d="M657 0h-596l9 55q63 0 100 8.5t58.5 33.5t30 54t17.5 87l136 958q9 64 5.5 104.5t-40 59t-121.5 18.5l6 56h596l-8 -56q-43 0 -74 -4t-53 -15t-35 -23t-22 -36t-13.5 -45t-9.5 -59l-135 -958q-11 -67 -4.5 -107.5t43 -58t119.5 -17.5zM403 1593q-48 39 -92 121
q62 75 127 119q47 -45 92 -119q-52 -66 -127 -121zM760 1593q-52 42 -94 121q66 76 127 119q49 -43 94 -119q-52 -66 -127 -121z" />
    <glyph glyph-name="Eth" unicode="&#xd0;" horiz-adv-x="1492" 
d="M158 678l10 78h180l64 440q9 65 5 105.5t-40.5 58.5t-120.5 18l6 56h551q78 0 125 -1.5t132 -12.5t139.5 -32t122 -63.5t107 -102t67.5 -153.5t28 -213q0 -138 -25 -254t-63.5 -198.5t-100 -148.5t-118.5 -107.5t-136 -71.5t-135.5 -44t-134.5 -22t-115 -9t-94 -1h-551
l9 55q64 0 102.5 9.5t59.5 36t28.5 54t15.5 83.5l62 440h-180zM625 80q46 0 97.5 7.5t117 30t125.5 57.5t119 95t102 137.5t69.5 190.5t26.5 248q0 96 -19.5 175t-50.5 130.5t-75 90.5t-86 59.5t-92 33t-85 16t-71 3.5h-137l-86 -598h208l-10 -78h-209l-59 -430
q-25 -168 115 -168z" />
    <glyph glyph-name="Ntilde" unicode="&#xd1;" horiz-adv-x="1552" 
d="M766 1591l-29 31q109 162 203 162q53 0 143.5 -33t137.5 -33q57 0 110 68l29 -31q-109 -162 -203 -162q-52 0 -142.5 33t-137.5 33q-56 0 -111 -68zM1321 406l111 790q14 108 -13.5 145t-134.5 37l8 56h437l-9 -56q-57 0 -92.5 -9t-57.5 -32.5t-32 -55t-16 -85.5
l-172 -1206h-70l-784 1179l-129 -931q-14 -70 -5.5 -111t45 -56.5t121.5 -15.5l-8 -55h-459l9 55q62 0 98.5 8t59.5 31t33 54.5t18 89.5l135 958q13 103 -19.5 142.5t-154.5 39.5l6 56h401z" />
    <glyph glyph-name="Ograve" unicode="&#xd2;" horiz-adv-x="1533" 
d="M1026 1528l-213 366q31 18 81.5 13t86.5 -33l86 -346h-41zM764 -20q-93 0 -180 24t-163.5 75t-133.5 124t-90 176.5t-33 226.5q0 165 48 306t127.5 239t184.5 167.5t218.5 102.5t228.5 33q118 0 223.5 -39.5t190 -115t134.5 -197.5t50 -275q0 -138 -33.5 -260t-91.5 -213
t-136 -163.5t-168 -118t-185.5 -69t-190.5 -23.5zM776 61q110 0 210.5 63.5t173.5 169t116 249.5t43 299q0 150 -42.5 269.5t-125.5 190t-193 70.5q-148 0 -273.5 -107.5t-197 -286.5t-71.5 -386q0 -150 42.5 -270t125 -190.5t192.5 -70.5z" />
    <glyph glyph-name="Oacute" unicode="&#xd3;" horiz-adv-x="1533" 
d="M1196 1894l-317 -366h-41l184 346q43 28 94.5 33t79.5 -13zM764 -20q-93 0 -180 24t-163.5 75t-133.5 124t-90 176.5t-33 226.5q0 165 48 306t127.5 239t184.5 167.5t218.5 102.5t228.5 33q118 0 223.5 -39.5t190 -115t134.5 -197.5t50 -275q0 -138 -33.5 -260
t-91.5 -213t-136 -163.5t-168 -118t-185.5 -69t-190.5 -23.5zM776 61q110 0 210.5 63.5t173.5 169t116 249.5t43 299q0 150 -42.5 269.5t-125.5 190t-193 70.5q-148 0 -273.5 -107.5t-197 -286.5t-71.5 -386q0 -150 42.5 -270t125 -190.5t192.5 -70.5z" />
    <glyph glyph-name="Ocircumflex" unicode="&#xd4;" horiz-adv-x="1533" 
d="M764 -20q-93 0 -180 24t-163.5 75t-133.5 124t-90 176.5t-33 226.5q0 165 48 306t127.5 239t184.5 167.5t218.5 102.5t228.5 33q118 0 223.5 -39.5t190 -115t134.5 -197.5t50 -275q0 -138 -33.5 -260t-91.5 -213t-136 -163.5t-168 -118t-185.5 -69t-190.5 -23.5zM776 61
q110 0 210.5 63.5t173.5 169t116 249.5t43 299q0 150 -42.5 269.5t-125.5 190t-193 70.5q-148 0 -273.5 -107.5t-197 -286.5t-71.5 -386q0 -150 42.5 -270t125 -190.5t192.5 -70.5zM1262 1528h-52l-202 213l-265 -213h-47l281 352h100z" />
    <glyph glyph-name="Otilde" unicode="&#xd5;" horiz-adv-x="1533" 
d="M709 1591l-29 31q109 162 203 162q53 0 143 -33t137 -33q58 0 111 68l29 -31q-109 -162 -203 -162q-52 0 -143 33t-138 33q-55 0 -110 -68zM764 -20q-93 0 -180 24t-163.5 75t-133.5 124t-90 176.5t-33 226.5q0 165 48 306t127.5 239t184.5 167.5t218.5 102.5t228.5 33
q118 0 223.5 -39.5t190 -115t134.5 -197.5t50 -275q0 -138 -33.5 -260t-91.5 -213t-136 -163.5t-168 -118t-185.5 -69t-190.5 -23.5zM776 61q110 0 210.5 63.5t173.5 169t116 249.5t43 299q0 150 -42.5 269.5t-125.5 190t-193 70.5q-148 0 -273.5 -107.5t-197 -286.5
t-71.5 -386q0 -150 42.5 -270t125 -190.5t192.5 -70.5z" />
    <glyph glyph-name="Odieresis" unicode="&#xd6;" horiz-adv-x="1533" 
d="M791 1593q-50 40 -93 121q62 75 127 119q50 -47 93 -119q-52 -66 -127 -121zM1147 1593q-52 42 -94 121q66 76 127 119q49 -43 94 -119q-52 -66 -127 -121zM764 -20q-93 0 -180 24t-163.5 75t-133.5 124t-90 176.5t-33 226.5q0 165 48 306t127.5 239t184.5 167.5
t218.5 102.5t228.5 33q118 0 223.5 -39.5t190 -115t134.5 -197.5t50 -275q0 -138 -33.5 -260t-91.5 -213t-136 -163.5t-168 -118t-185.5 -69t-190.5 -23.5zM776 61q110 0 210.5 63.5t173.5 169t116 249.5t43 299q0 150 -42.5 269.5t-125.5 190t-193 70.5
q-148 0 -273.5 -107.5t-197 -286.5t-71.5 -386q0 -150 42.5 -270t125 -190.5t192.5 -70.5z" />
    <glyph glyph-name="multiply" unicode="&#xd7;" horiz-adv-x="993" 
d="M582 778l282 269l72 -97l-281 -268l207 -268l-98 -97l-209 271l-283 -271l-71 97l280 268l-205 270l99 95z" />
    <glyph glyph-name="Oslash" unicode="&#xd8;" horiz-adv-x="1558" 
d="M238 -49l-48 49l144 160q-156 169 -156 446q0 165 48 306t127.5 239t184.5 167.5t218.5 102.5t228.5 33q224 0 389 -133l150 162l47 -49l-146 -162q158 -168 158 -445q0 -138 -33.5 -260t-91.5 -213t-136 -163.5t-168 -118t-185.5 -69t-190.5 -23.5q-232 0 -393 133z
M430 592q0 -155 47 -273l778 865q-101 188 -282 188q-148 0 -273.5 -107.5t-197.5 -286.5t-72 -386zM791 61q146 0 271.5 107t198 287t72.5 387q0 148 -49 274l-778 -868q47 -89 119.5 -138t165.5 -49z" />
    <glyph glyph-name="Ugrave" unicode="&#xd9;" horiz-adv-x="1466" 
d="M1083 1528l-213 366q31 18 81.5 13t86.5 -33l86 -346h-41zM1436 1196l-93 -655q-81 -559 -583 -561q-102 0 -182 21t-132 59t-88.5 91.5t-50.5 117t-17.5 136t9.5 148.5l92 643q9 64 4.5 104.5t-42 59t-122.5 18.5l7 56h596l-9 -56q-42 0 -72.5 -4t-51.5 -15t-33.5 -23
t-21 -36t-12.5 -45t-9 -59l-84 -586q-76 -536 274 -536q170 0 287.5 116t150.5 345l95 661q9 64 2 104.5t-48.5 59t-132.5 18.5l9 56h462l-8 -56q-59 0 -95 -9t-56.5 -33.5t-29 -54.5t-15.5 -85z" />
    <glyph glyph-name="Uacute" unicode="&#xda;" horiz-adv-x="1466" 
d="M1198 1894l-317 -366h-41l184 346q43 28 94.5 33t79.5 -13zM1436 1196l-93 -655q-81 -559 -583 -561q-102 0 -182 21t-132 59t-88.5 91.5t-50.5 117t-17.5 136t9.5 148.5l92 643q9 64 4.5 104.5t-42 59t-122.5 18.5l7 56h596l-9 -56q-42 0 -72.5 -4t-51.5 -15t-33.5 -23
t-21 -36t-12.5 -45t-9 -59l-84 -586q-76 -536 274 -536q170 0 287.5 116t150.5 345l95 661q9 64 2 104.5t-48.5 59t-132.5 18.5l9 56h462l-8 -56q-59 0 -95 -9t-56.5 -33.5t-29 -54.5t-15.5 -85z" />
    <glyph glyph-name="Ucircumflex" unicode="&#xdb;" horiz-adv-x="1466" 
d="M1436 1196l-93 -655q-81 -559 -583 -561q-102 0 -182 21t-132 59t-88.5 91.5t-50.5 117t-17.5 136t9.5 148.5l92 643q9 64 4.5 104.5t-42 59t-122.5 18.5l7 56h596l-9 -56q-42 0 -72.5 -4t-51.5 -15t-33.5 -23t-21 -36t-12.5 -45t-9 -59l-84 -586q-76 -536 274 -536
q170 0 287.5 116t150.5 345l95 661q9 64 2 104.5t-48.5 59t-132.5 18.5l9 56h462l-8 -56q-59 0 -95 -9t-56.5 -33.5t-29 -54.5t-15.5 -85zM1298 1528h-51l-203 213l-264 -213h-47l281 352h100z" />
    <glyph glyph-name="Udieresis" unicode="&#xdc;" horiz-adv-x="1466" 
d="M827 1593q-48 39 -92 121q62 75 127 119q47 -45 92 -119q-52 -66 -127 -121zM1184 1593q-52 42 -94 121q66 76 127 119q49 -43 94 -119q-52 -66 -127 -121zM1436 1196l-93 -655q-81 -559 -583 -561q-102 0 -182 21t-132 59t-88.5 91.5t-50.5 117t-17.5 136t9.5 148.5
l92 643q9 64 4.5 104.5t-42 59t-122.5 18.5l7 56h596l-9 -56q-42 0 -72.5 -4t-51.5 -15t-33.5 -23t-21 -36t-12.5 -45t-9 -59l-84 -586q-76 -536 274 -536q170 0 287.5 116t150.5 345l95 661q9 64 2 104.5t-48.5 59t-132.5 18.5l9 56h462l-8 -56q-59 0 -95 -9t-56.5 -33.5
t-29 -54.5t-15.5 -85z" />
    <glyph glyph-name="Yacute" unicode="&#xdd;" horiz-adv-x="1325" 
d="M643 1210l180 -512l342 521q18 27 28 48.5t12.5 43t-8.5 35.5t-40 23t-76 9l6 56h437l-6 -56q-92 0 -147.5 -40.5t-121.5 -139.5l-391 -596l-49 -364q-12 -69 -0.5 -109.5t54.5 -57t136 -16.5l-8 -55h-667l8 55q93 0 142 18t69.5 54.5t31.5 110.5l50 360l-240 614
q-37 94 -74.5 130t-120.5 36l7 56h577l-8 -56q-100 0 -127.5 -40t4.5 -128zM1106 1894l-318 -366h-40l184 346q43 28 94.5 33t79.5 -13z" />
    <glyph glyph-name="Thorn" unicode="&#xde;" horiz-adv-x="1202" 
d="M629 1094l-107 -754h111q45 0 90.5 11.5t95.5 43t87.5 80.5t62 131.5t24.5 188.5q0 86 -24 148t-64 93t-81 44.5t-87 13.5h-108zM276 238l136 958q9 64 4.5 104.5t-41 59t-119.5 18.5l6 56h631l-6 -56q-75 0 -118.5 -7.5t-70 -31t-37 -54.5t-18.5 -89l-6 -35h111
q234 0 364.5 -105t130.5 -284q0 -224 -169 -362t-451 -138h-111l-4 -34q-12 -69 -2 -110t53 -57t141 -16l-8 -55h-631l9 55q43 0 73.5 4t52.5 15t35 23.5t22 36.5t13.5 45.5t9.5 58.5z" />
    <glyph glyph-name="germandbls" unicode="&#xdf;" horiz-adv-x="1247" 
d="M166 4l127 901h-131l10 78h131l4 27q16 113 91.5 224t182 181t207.5 70q69 0 107.5 -23t45.5 -64t-1 -91t-30 -111.5t-44 -118t-41.5 -117t-23.5 -102.5q-5 -34 16.5 -69.5t60.5 -69t87.5 -68.5t98 -75t90.5 -82.5t67 -96t26 -110.5q0 -66 -26 -119.5t-68 -87.5
t-97.5 -57.5t-112 -33t-114.5 -9.5q-86 0 -160.5 24.5t-113.5 69.5l45 233h51q-23 -262 183 -262q71 0 124.5 52t53.5 122q0 55 -37 104t-89 88.5t-104.5 81.5t-89.5 101.5t-37 130.5q0 41 18 88.5t42.5 87.5t49 87.5t39.5 90t11 92t-33 95.5q-53 108 -127 108
q-33 0 -55.5 -29.5t-35 -87t-19 -119.5t-13.5 -149v-6l-141 -1006q-15 -112 -93 -223.5t-185 -181.5t-203 -70q-45 0 -61 27.5t1 78t66 113.5q34 -52 63 -80t64 -28q17 0 31.5 7.5t25.5 24.5t19.5 36t15 50t11 57t8.5 67.5t6.5 71t5.5 77.5z" />
    <glyph glyph-name="agrave" unicode="&#xe0;" horiz-adv-x="1058" 
d="M1040 956l-108 -770q-10 -74 32 -91.5t130 48.5l26 -41q-57 -60 -125 -91t-129 -31q-80 0 -126.5 53t-30.5 164l26 172q-206 -389 -377 -389q-92 0 -153.5 97t-61.5 242q0 97 18.5 189t65 183.5t116.5 159.5t182 110.5t253 42.5q109 0 244 -27q8 -2 13.5 -8t4.5 -13z
M754 516l61 420q-130 33 -231.5 -36.5t-156 -218t-54.5 -347.5q0 -89 27 -146t65 -57q53 0 138 116.5t151 268.5zM768 1077l-213 367q31 18 81.5 12.5t86.5 -33.5l86 -346h-41z" />
    <glyph glyph-name="aacute" unicode="&#xe1;" horiz-adv-x="1058" 
d="M1040 956l-108 -770q-10 -74 32 -91.5t130 48.5l26 -41q-57 -60 -125 -91t-129 -31q-80 0 -126.5 53t-30.5 164l26 172q-206 -389 -377 -389q-92 0 -153.5 97t-61.5 242q0 97 18.5 189t65 183.5t116.5 159.5t182 110.5t253 42.5q109 0 244 -27q8 -2 13.5 -8t4.5 -13z
M754 516l61 420q-130 33 -231.5 -36.5t-156 -218t-54.5 -347.5q0 -89 27 -146t65 -57q53 0 138 116.5t151 268.5zM965 1444l-318 -367h-41l185 346q43 28 94.5 33.5t79.5 -12.5z" />
    <glyph glyph-name="acircumflex" unicode="&#xe2;" horiz-adv-x="1058" 
d="M1040 956l-108 -770q-10 -74 32 -91.5t130 48.5l26 -41q-57 -60 -125 -91t-129 -31q-80 0 -126.5 53t-30.5 164l26 172q-206 -389 -377 -389q-92 0 -153.5 97t-61.5 242q0 97 18.5 189t65 183.5t116.5 159.5t182 110.5t253 42.5q109 0 244 -27q8 -2 13.5 -8t4.5 -13z
M754 516l61 420q-130 33 -231.5 -36.5t-156 -218t-54.5 -347.5q0 -89 27 -146t65 -57q53 0 138 116.5t151 268.5zM981 1077h-51l-203 213l-264 -213h-47l280 353h101z" />
    <glyph glyph-name="atilde" unicode="&#xe3;" horiz-adv-x="1058" 
d="M1040 956l-108 -770q-10 -74 32 -91.5t130 48.5l26 -41q-57 -60 -125 -91t-129 -31q-80 0 -126.5 53t-30.5 164l26 172q-206 -389 -377 -389q-92 0 -153.5 97t-61.5 242q0 97 18.5 189t65 183.5t116.5 159.5t182 110.5t253 42.5q109 0 244 -27q8 -2 13.5 -8t4.5 -13z
M754 516l61 420q-130 33 -231.5 -36.5t-156 -218t-54.5 -347.5q0 -89 27 -146t65 -57q53 0 138 116.5t151 268.5zM428 1141l-29 30q109 162 203 162q53 0 143.5 -32.5t137.5 -32.5q58 0 110 67l29 -30q-109 -162 -203 -162q-52 0 -142.5 32.5t-137.5 32.5q-57 0 -111 -67z
" />
    <glyph glyph-name="adieresis" unicode="&#xe4;" horiz-adv-x="1058" 
d="M1040 956l-108 -770q-10 -74 32 -91.5t130 48.5l26 -41q-57 -60 -125 -91t-129 -31q-80 0 -126.5 53t-30.5 164l26 172q-206 -389 -377 -389q-92 0 -153.5 97t-61.5 242q0 97 18.5 189t65 183.5t116.5 159.5t182 110.5t253 42.5q109 0 244 -27q8 -2 13.5 -8t4.5 -13z
M754 516l61 420q-130 33 -231.5 -36.5t-156 -218t-54.5 -347.5q0 -89 27 -146t65 -57q53 0 138 116.5t151 268.5zM516 1143q-48 39 -92 121q60 73 127 118q49 -46 92 -118q-52 -66 -127 -121zM872 1143q-52 42 -94 121q64 74 127 118q50 -45 94 -118q-52 -66 -127 -121z" />
    <glyph glyph-name="aring" unicode="&#xe5;" horiz-adv-x="1058" 
d="M1040 956l-108 -770q-10 -74 32 -91.5t130 48.5l26 -41q-57 -60 -125 -91t-129 -31q-80 0 -126.5 53t-30.5 164l26 172q-206 -389 -377 -389q-92 0 -153.5 97t-61.5 242q0 97 18.5 189t65 183.5t116.5 159.5t182 110.5t253 42.5q109 0 244 -27q8 -2 13.5 -8t4.5 -13z
M754 516l61 420q-130 33 -231.5 -36.5t-156 -218t-54.5 -347.5q0 -89 27 -146t65 -57q53 0 138 116.5t151 268.5zM512 1313q0 99 69 172.5t160 73.5q73 0 121.5 -55t48.5 -134q0 -100 -69.5 -173t-161.5 -73q-74 0 -121 54t-47 135zM596 1325q0 -46 27 -77t69 -31
q52 0 92.5 41.5t40.5 97.5q0 46 -28 78t-70 32q-53 0 -92 -42t-39 -99z" />
    <glyph glyph-name="ae" unicode="&#xe6;" horiz-adv-x="1386" 
d="M672 178q-74 -86 -166.5 -142t-183.5 -56q-92 0 -147.5 61t-55.5 166q0 51 22 90.5t68 65t88 42.5t112 27.5t107 14.5t106 9q9 1 13 1q1 25 45 305q24 178 -84 178q-64 0 -106 -42t-54.5 -93.5t-1.5 -93.5q-93 -59 -156.5 -65t-66.5 52q0 77 70 149t174.5 114.5
t206.5 42.5q174 0 221 -95q130 95 274 95q48 0 94 -11t90.5 -34.5t71.5 -69t27 -107.5q0 -92 -71.5 -158.5t-193.5 -80.5t-284 51q-21 -99 -21 -182q0 -141 60 -220t169 -78t244 87l19 -45q-94 -75 -185 -118t-168.5 -52t-143.5 9.5t-115 65t-78 117.5zM422 80q46 0 113 41
t120 104q-22 77 -22 170q-54 -3 -89.5 -7.5t-74 -15.5t-61.5 -27.5t-39 -44.5t-19 -67q-4 -153 72 -153zM1147 938q-83 0 -145.5 -83t-98.5 -210q136 -37 238 15.5t102 168.5q0 109 -96 109z" />
    <glyph glyph-name="ccedilla" unicode="&#xe7;" horiz-adv-x="890" 
d="M672 1004q40 0 77 -5.5t76 -21t67 -39.5t46 -65t18 -95q0 -28 -42.5 -58.5t-92.5 -39t-90 13.5q31 57 36.5 111.5t-22.5 93.5t-90 39q-59 0 -112.5 -51.5t-88 -129t-55 -165.5t-20.5 -164q0 -147 62 -230t167.5 -82.5t243.5 85.5l18 -45q-204 -164 -383 -170l-8 -56
q-3 -22 14 -36t43.5 -22t53.5 -18t46 -32.5t19 -57.5q0 -56 -56 -103.5t-133.5 -70.5t-146.5 -18l-2 53q213 0 213 117q0 29 -13.5 45.5t-31.5 23.5t-35 15t-25 27t-1 53l12 80q-134 9 -213.5 118.5t-79.5 292.5q0 115 33.5 215.5t88 171t124 121.5t142 75t141.5 24z" />
    <glyph glyph-name="egrave" unicode="&#xe8;" horiz-adv-x="897" 
d="M948 782q0 -92 -71.5 -158.5t-193.5 -80.5t-284 51q-20 -94 -20 -182q0 -141 60.5 -220t169.5 -78t243 87l18 -45q-117 -93 -228.5 -137t-200.5 -35t-156.5 58t-104.5 141t-37 214q0 115 32 215.5t85.5 171t121.5 121t140.5 75t143.5 24.5q49 0 95 -11t90 -34.5t70.5 -69
t26.5 -107.5zM655 938q-83 0 -145 -83t-96 -210q135 -38 236.5 15t101.5 169q0 109 -97 109zM676 1077l-213 367q31 18 81.5 12.5t86.5 -33.5l86 -346h-41z" />
    <glyph glyph-name="eacute" unicode="&#xe9;" horiz-adv-x="897" 
d="M870 1444l-317 -367h-41l184 346q43 28 94.5 33.5t79.5 -12.5zM948 782q0 -92 -71.5 -158.5t-193.5 -80.5t-284 51q-20 -94 -20 -182q0 -141 60.5 -220t169.5 -78t243 87l18 -45q-117 -93 -228.5 -137t-200.5 -35t-156.5 58t-104.5 141t-37 214q0 115 32 215.5t85.5 171
t121.5 121t140.5 75t143.5 24.5q49 0 95 -11t90 -34.5t70.5 -69t26.5 -107.5zM655 938q-83 0 -145 -83t-96 -210q135 -38 236.5 15t101.5 169q0 109 -97 109z" />
    <glyph glyph-name="ecircumflex" unicode="&#xea;" horiz-adv-x="897" 
d="M928 1077h-51l-203 213l-264 -213h-48l281 353h100zM948 782q0 -92 -71.5 -158.5t-193.5 -80.5t-284 51q-20 -94 -20 -182q0 -141 60.5 -220t169.5 -78t243 87l18 -45q-117 -93 -228.5 -137t-200.5 -35t-156.5 58t-104.5 141t-37 214q0 115 32 215.5t85.5 171t121.5 121
t140.5 75t143.5 24.5q49 0 95 -11t90 -34.5t70.5 -69t26.5 -107.5zM655 938q-83 0 -145 -83t-96 -210q135 -38 236.5 15t101.5 169q0 109 -97 109z" />
    <glyph glyph-name="edieresis" unicode="&#xeb;" horiz-adv-x="897" 
d="M471 1143q-48 39 -92 121q60 73 127 118q49 -46 92 -118q-52 -66 -127 -121zM827 1143q-52 42 -94 121q64 74 127 118q50 -45 94 -118q-52 -66 -127 -121zM948 782q0 -92 -71.5 -158.5t-193.5 -80.5t-284 51q-20 -94 -20 -182q0 -141 60.5 -220t169.5 -78t243 87l18 -45
q-117 -93 -228.5 -137t-200.5 -35t-156.5 58t-104.5 141t-37 214q0 115 32 215.5t85.5 171t121.5 121t140.5 75t143.5 24.5q49 0 95 -11t90 -34.5t70.5 -69t26.5 -107.5zM655 938q-83 0 -145 -83t-96 -210q135 -38 236.5 15t101.5 169q0 109 -97 109z" />
    <glyph glyph-name="igrave" unicode="&#xec;" horiz-adv-x="587" 
d="M530 776l-86 -590q-11 -73 31.5 -91t130.5 48l27 -41q-57 -60 -126 -91t-128 -31q-81 0 -130.5 53.5t-33.5 163.5l86 602q7 32 2.5 56.5t-16 39t-40.5 6t-71 -42.5l-26 43q98 92 215 92q81 0 131 -55t34 -162zM442 1077l-213 367q31 18 81.5 12.5t86.5 -33.5l86 -346h-41
z" />
    <glyph glyph-name="iacute" unicode="&#xed;" horiz-adv-x="587" 
d="M653 1444l-317 -367h-41l184 346q43 28 94.5 33.5t79.5 -12.5zM530 776l-86 -590q-11 -73 31.5 -91t130.5 48l27 -41q-57 -60 -126 -91t-128 -31q-81 0 -130.5 53.5t-33.5 163.5l86 602q7 32 2.5 56.5t-16 39t-40.5 6t-71 -42.5l-26 43q98 92 215 92q81 0 131 -55
t34 -162z" />
    <glyph glyph-name="icircumflex" unicode="&#xee;" horiz-adv-x="587" 
d="M727 1077h-51l-203 213l-264 -213h-47l280 353h101zM530 776l-86 -590q-11 -73 31.5 -91t130.5 48l27 -41q-57 -60 -126 -91t-128 -31q-81 0 -130.5 53.5t-33.5 163.5l86 602q7 32 2.5 56.5t-16 39t-40.5 6t-71 -42.5l-26 43q98 92 215 92q81 0 131 -55t34 -162z" />
    <glyph glyph-name="idieresis" unicode="&#xef;" horiz-adv-x="587" 
d="M279 1143q-50 40 -93 121q60 73 127 118q51 -48 93 -118q-52 -66 -127 -121zM635 1143q-52 42 -94 121q64 74 127 118q50 -45 94 -118q-52 -66 -127 -121zM530 776l-86 -590q-11 -73 31.5 -91t130.5 48l27 -41q-57 -60 -126 -91t-128 -31q-81 0 -130.5 53.5t-33.5 163.5
l86 602q7 32 2.5 56.5t-16 39t-40.5 6t-71 -42.5l-26 43q98 92 215 92q81 0 131 -55t34 -162z" />
    <glyph glyph-name="eth" unicode="&#xf0;" horiz-adv-x="1036" 
d="M631 1057l-43 55l141 135q-68 105 -170 158l39 49q108 -32 213 -131l137 131l43 -53l-131 -127q92 -102 147.5 -244.5t55.5 -314.5q0 -198 -76 -366t-213.5 -268.5t-306.5 -100.5q-146 0 -249 96.5t-103 257.5q0 113 44.5 212t115.5 164t158.5 102.5t174.5 37.5
q142 0 234 -105q12 261 -78 439zM668 752q-131 0 -232.5 -137.5t-101.5 -360.5q0 -108 41.5 -157.5t97.5 -49.5q77 0 145.5 67.5t112.5 167t71 201t32 181.5q-71 88 -166 88z" />
    <glyph glyph-name="ntilde" unicode="&#xf1;" horiz-adv-x="1130" 
d="M520 776l-31 -203q56 109 123.5 202.5t151.5 161t156 67.5q91 0 129.5 -70.5t21.5 -198.5l-78 -549q-11 -73 31.5 -91t130.5 48l27 -41q-55 -60 -124.5 -91t-129.5 -31q-81 0 -130.5 53.5t-33.5 163.5l72 514q10 69 1.5 103t-38.5 34q-52 0 -153 -124t-171 -255l-65 -469
l-215 -18q-8 0 -13.5 5.5t-5.5 12.5l115 799q7 32 2.5 56.5t-16 39t-40.5 6t-71 -42.5l-27 43q98 92 215 92q81 0 131.5 -55t34.5 -162zM446 1141l-28 30q109 162 203 162q53 0 143 -32.5t137 -32.5q59 0 111 67l28 -30q-109 -162 -202 -162q-52 0 -143 32.5t-138 32.5
q-57 0 -111 -67z" />
    <glyph glyph-name="ograve" unicode="&#xf2;" horiz-adv-x="991" 
d="M664 1004q163 0 266.5 -119t103.5 -312q0 -129 -43.5 -241.5t-115.5 -188.5t-166.5 -119.5t-196.5 -43.5q-164 0 -266.5 117t-102.5 311q0 104 28 198t77.5 166t114.5 124.5t142.5 80t158.5 27.5zM526 45q71 0 127 61t87.5 156.5t48 197.5t16.5 197q0 128 -36.5 204.5
t-117.5 76.5q-71 0 -127 -61t-88 -156.5t-48.5 -197t-16.5 -195.5q0 -129 37 -206t118 -77zM727 1077l-213 367q31 18 81.5 12.5t86.5 -33.5l86 -346h-41z" />
    <glyph glyph-name="oacute" unicode="&#xf3;" horiz-adv-x="991" 
d="M899 1444l-317 -367h-41l184 346q43 28 94.5 33.5t79.5 -12.5zM664 1004q163 0 266.5 -119t103.5 -312q0 -129 -43.5 -241.5t-115.5 -188.5t-166.5 -119.5t-196.5 -43.5q-164 0 -266.5 117t-102.5 311q0 104 28 198t77.5 166t114.5 124.5t142.5 80t158.5 27.5zM526 45
q71 0 127 61t87.5 156.5t48 197.5t16.5 197q0 128 -36.5 204.5t-117.5 76.5q-71 0 -127 -61t-88 -156.5t-48.5 -197t-16.5 -195.5q0 -129 37 -206t118 -77z" />
    <glyph glyph-name="ocircumflex" unicode="&#xf4;" horiz-adv-x="991" 
d="M948 1077h-51l-203 213l-264 -213h-47l281 353h100zM664 1004q163 0 266.5 -119t103.5 -312q0 -129 -43.5 -241.5t-115.5 -188.5t-166.5 -119.5t-196.5 -43.5q-164 0 -266.5 117t-102.5 311q0 104 28 198t77.5 166t114.5 124.5t142.5 80t158.5 27.5zM526 45q71 0 127 61
t87.5 156.5t48 197.5t16.5 197q0 128 -36.5 204.5t-117.5 76.5q-71 0 -127 -61t-88 -156.5t-48.5 -197t-16.5 -195.5q0 -129 37 -206t118 -77z" />
    <glyph glyph-name="otilde" unicode="&#xf5;" horiz-adv-x="991" 
d="M664 1004q163 0 266.5 -119t103.5 -312q0 -129 -43.5 -241.5t-115.5 -188.5t-166.5 -119.5t-196.5 -43.5q-164 0 -266.5 117t-102.5 311q0 104 28 198t77.5 166t114.5 124.5t142.5 80t158.5 27.5zM526 45q71 0 127 61t87.5 156.5t48 197.5t16.5 197q0 128 -36.5 204.5
t-117.5 76.5q-71 0 -127 -61t-88 -156.5t-48.5 -197t-16.5 -195.5q0 -129 37 -206t118 -77zM403 1141l-28 30q109 162 203 162q53 0 143 -32.5t137 -32.5q59 0 111 67l28 -30q-109 -162 -202 -162q-52 0 -143 32.5t-138 32.5q-57 0 -111 -67z" />
    <glyph glyph-name="odieresis" unicode="&#xf6;" horiz-adv-x="991" 
d="M492 1143q-50 40 -93 121q60 73 127 118q49 -46 92 -118q-53 -68 -126 -121zM848 1143q-52 42 -94 121q64 74 127 118q50 -45 94 -118q-52 -66 -127 -121zM664 1004q163 0 266.5 -119t103.5 -312q0 -129 -43.5 -241.5t-115.5 -188.5t-166.5 -119.5t-196.5 -43.5
q-164 0 -266.5 117t-102.5 311q0 104 28 198t77.5 166t114.5 124.5t142.5 80t158.5 27.5zM526 45q71 0 127 61t87.5 156.5t48 197.5t16.5 197q0 128 -36.5 204.5t-117.5 76.5q-71 0 -127 -61t-88 -156.5t-48.5 -197t-16.5 -195.5q0 -129 37 -206t118 -77z" />
    <glyph glyph-name="divide" unicode="&#xf7;" horiz-adv-x="1167" 
d="M496 340q0 58 40 100.5t93 42.5q43 0 70.5 -31.5t27.5 -78.5q0 -58 -40 -101t-93 -43q-42 0 -70 32.5t-28 78.5zM588 991q0 58 39.5 101t93.5 43q42 0 70 -32.5t28 -78.5q0 -58 -40 -99.5t-93 -41.5q-42 0 -70 31t-28 77zM260 750h815l-20 -136h-813z" />
    <glyph glyph-name="oslash" unicode="&#xf8;" horiz-adv-x="1024" 
d="M217 -43l-51 43l78 102q-99 120 -99 306q0 130 43 243t114.5 189.5t165.5 120t196 43.5q121 0 215 -72l73 94l49 -43l-73 -96q106 -118 106 -314q0 -129 -43.5 -241.5t-115.5 -188.5t-166 -119.5t-195 -43.5q-133 0 -223 75zM526 45q52 0 97.5 34t76 89.5t54.5 126.5
t34.5 146t15 147t-4.5 129l-410 -533q33 -139 137 -139zM651 938q-52 0 -96.5 -33t-74 -86.5t-53.5 -123t-34 -143t-15.5 -144.5t1.5 -129l407 530q-38 129 -135 129z" />
    <glyph glyph-name="ugrave" unicode="&#xf9;" horiz-adv-x="1122" 
d="M530 776l-71 -504q-10 -69 -1.5 -103t38.5 -34q51 0 147 122t168 257l66 469l215 18q8 0 13 -5.5t5 -12.5l-115 -797q-10 -74 32 -91.5t130 48.5l27 -41q-56 -60 -124.5 -91t-129.5 -31q-81 0 -130.5 53.5t-33.5 163.5l33 213q-58 -111 -123 -203t-146.5 -159.5
t-152.5 -67.5q-93 0 -132 70.5t-20 197.5l76 551q7 32 2.5 56.5t-16 39t-40.5 6t-71 -42.5l-26 43q98 92 215 92q80 0 129.5 -54.5t35.5 -162.5zM780 1077l-213 367q31 18 81.5 12.5t86.5 -33.5l86 -346h-41z" />
    <glyph glyph-name="uacute" unicode="&#xfa;" horiz-adv-x="1122" 
d="M922 1444l-318 -367h-41l185 346q43 28 94.5 33.5t79.5 -12.5zM530 776l-71 -504q-10 -69 -1.5 -103t38.5 -34q51 0 147 122t168 257l66 469l215 18q8 0 13 -5.5t5 -12.5l-115 -797q-10 -74 32 -91.5t130 48.5l27 -41q-56 -60 -124.5 -91t-129.5 -31q-81 0 -130.5 53.5
t-33.5 163.5l33 213q-58 -111 -123 -203t-146.5 -159.5t-152.5 -67.5q-93 0 -132 70.5t-20 197.5l76 551q7 32 2.5 56.5t-16 39t-40.5 6t-71 -42.5l-26 43q98 92 215 92q80 0 129.5 -54.5t35.5 -162.5z" />
    <glyph glyph-name="ucircumflex" unicode="&#xfb;" horiz-adv-x="1122" 
d="M1008 1075h-52l-202 213l-265 -213h-47l281 352h100zM530 776l-71 -504q-10 -69 -1.5 -103t38.5 -34q51 0 147 122t168 257l66 469l215 18q8 0 13 -5.5t5 -12.5l-115 -797q-10 -74 32 -91.5t130 48.5l27 -41q-56 -60 -124.5 -91t-129.5 -31q-81 0 -130.5 53.5
t-33.5 163.5l33 213q-58 -111 -123 -203t-146.5 -159.5t-152.5 -67.5q-93 0 -132 70.5t-20 197.5l76 551q7 32 2.5 56.5t-16 39t-40.5 6t-71 -42.5l-26 43q98 92 215 92q80 0 129.5 -54.5t35.5 -162.5z" />
    <glyph glyph-name="udieresis" unicode="&#xfc;" horiz-adv-x="1122" 
d="M553 1143q-48 39 -92 121q60 73 127 118q49 -46 92 -118q-52 -66 -127 -121zM909 1143q-52 42 -94 121q64 74 127 118q50 -45 94 -118q-52 -66 -127 -121zM530 776l-71 -504q-10 -69 -1.5 -103t38.5 -34q51 0 147 122t168 257l66 469l215 18q8 0 13 -5.5t5 -12.5
l-115 -797q-10 -74 32 -91.5t130 48.5l27 -41q-56 -60 -124.5 -91t-129.5 -31q-81 0 -130.5 53.5t-33.5 163.5l33 213q-58 -111 -123 -203t-146.5 -159.5t-152.5 -67.5q-93 0 -132 70.5t-20 197.5l76 551q7 32 2.5 56.5t-16 39t-40.5 6t-71 -42.5l-26 43q98 92 215 92
q80 0 129.5 -54.5t35.5 -162.5z" />
    <glyph glyph-name="yacute" unicode="&#xfd;" horiz-adv-x="950" 
d="M492 -61l-222 880q-4 17 -6.5 25t-8.5 22.5t-12 20.5t-17.5 11.5t-24.5 2t-32 -13.5t-42 -29l-29 43q51 47 110.5 69.5t113.5 22.5q77 0 121.5 -42t64.5 -144l129 -645q86 140 151.5 296t65.5 257q0 64 -24.5 105t-63.5 54q29 78 67.5 119t79.5 41q45 0 66.5 -40
t21.5 -91q0 -64 -43.5 -194t-114 -285t-165.5 -319t-192.5 -297.5t-201 -219.5t-184.5 -86q-24 0 -41.5 14.5t-24.5 40.5t-4 58.5t21.5 72.5t50.5 79q25 -15 50 -25.5t68 -13t84 13.5t92 65.5t96 131.5zM856 1444l-317 -367h-41l184 346q43 28 94.5 33.5t79.5 -12.5z" />
    <glyph glyph-name="thorn" unicode="&#xfe;" horiz-adv-x="1097" 
d="M424 -18l-33 -240q-12 -65 -7 -102.5t40.5 -51.5t126.5 -14l-8 -51h-553l8 51q27 0 46.5 1.5t35 6.5t26 9.5t19 17t13 21t9 30.5t7 36t6.5 46l209 1481q6 40 8 60.5t0.5 42t-8 29.5t-22.5 16t-37 9.5t-56 1.5l6 52l352 20q8 0 14 -6.5t5 -13.5l-117 -820q201 387 379 387
q92 0 152.5 -97t60.5 -242q0 -96 -17.5 -187t-63 -182.5t-114.5 -159.5t-181.5 -110.5t-254.5 -42.5q-6 0 -25 1t-26 1zM877 647q0 89 -27 146t-66 57q-53 0 -137 -116t-151 -267l-62 -422q130 -31 232 39t156.5 217.5t54.5 345.5z" />
    <glyph glyph-name="ydieresis" unicode="&#xff;" horiz-adv-x="950" 
d="M492 -61l-222 880q-4 17 -6.5 25t-8.5 22.5t-12 20.5t-17.5 11.5t-24.5 2t-32 -13.5t-42 -29l-29 43q51 47 110.5 69.5t113.5 22.5q77 0 121.5 -42t64.5 -144l129 -645q86 140 151.5 296t65.5 257q0 64 -24.5 105t-63.5 54q29 78 67.5 119t79.5 41q45 0 66.5 -40
t21.5 -91q0 -64 -43.5 -194t-114 -285t-165.5 -319t-192.5 -297.5t-201 -219.5t-184.5 -86q-24 0 -41.5 14.5t-24.5 40.5t-4 58.5t21.5 72.5t50.5 79q25 -15 50 -25.5t68 -13t84 13.5t92 65.5t96 131.5zM467 1143q-48 39 -92 121q60 73 127 118q49 -46 92 -118
q-52 -66 -127 -121zM823 1143q-52 42 -94 121q64 74 127 118q50 -45 94 -118q-52 -66 -127 -121z" />
    <glyph glyph-name="Amacron" unicode="&#x100;" horiz-adv-x="1353" 
d="M958 236l-30 155h-498l-78 -158q-47 -89 -22.5 -133.5t139.5 -44.5l-8 -55h-451l8 55q96 0 141 37.5t101 149.5l608 1212h76l264 -1212q13 -60 23 -89.5t31 -55t52.5 -34t84.5 -8.5l-8 -55h-578l8 55q107 0 131.5 38.5t5.5 142.5zM784 1114l-317 -645h446zM1231 1729
l-14 -113h-582l14 113h582z" />
    <glyph glyph-name="amacron" unicode="&#x101;" horiz-adv-x="1058" 
d="M1040 956l-108 -770q-10 -74 32 -91.5t130 48.5l26 -41q-57 -60 -125 -91t-129 -31q-80 0 -126.5 53t-30.5 164l26 172q-206 -389 -377 -389q-92 0 -153.5 97t-61.5 242q0 97 18.5 189t65 183.5t116.5 159.5t182 110.5t253 42.5q109 0 244 -27q8 -2 13.5 -8t4.5 -13z
M754 516l61 420q-130 33 -231.5 -36.5t-156 -218t-54.5 -347.5q0 -89 27 -146t65 -57q53 0 138 116.5t151 268.5zM1004 1278l-15 -113h-581l14 113h582z" />
    <glyph glyph-name="Abreve" unicode="&#x102;" horiz-adv-x="1353" 
d="M958 236l-30 155h-498l-78 -158q-47 -89 -22.5 -133.5t139.5 -44.5l-8 -55h-451l8 55q96 0 141 37.5t101 149.5l608 1212h76l264 -1212q13 -60 23 -89.5t31 -55t52.5 -34t84.5 -8.5l-8 -55h-578l8 55q107 0 131.5 38.5t5.5 142.5zM784 1114l-317 -645h446zM678 1860h51
q5 -73 57 -123.5t136 -50.5q81 0 146 50.5t89 123.5h49q-18 -123 -109 -220.5t-196 -97.5q-100 0 -163.5 90t-59.5 228z" />
    <glyph glyph-name="abreve" unicode="&#x103;" horiz-adv-x="1058" 
d="M1040 956l-108 -770q-10 -74 32 -91.5t130 48.5l26 -41q-57 -60 -125 -91t-129 -31q-80 0 -126.5 53t-30.5 164l26 172q-206 -389 -377 -389q-92 0 -153.5 97t-61.5 242q0 97 18.5 189t65 183.5t116.5 159.5t182 110.5t253 42.5q109 0 244 -27q8 -2 13.5 -8t4.5 -13z
M754 516l61 420q-130 33 -231.5 -36.5t-156 -218t-54.5 -347.5q0 -89 27 -146t65 -57q53 0 138 116.5t151 268.5zM451 1409h51q5 -73 56.5 -123.5t135.5 -50.5q81 0 146.5 51t89.5 123h49q-18 -123 -109 -220t-196 -97q-100 0 -163.5 90t-59.5 227z" />
    <glyph glyph-name="Aogonek" unicode="&#x104;" horiz-adv-x="1353" 
d="M1391 0h-113q-157 -138 -169 -246q-7 -71 53 -95q66 -26 167 24l-10 -66q-109 -86 -197 -86q-66 0 -106.5 43.5t-40.5 110.5q0 174 231 315h-393l8 55q107 0 131.5 38.5t5.5 142.5l-30 155h-498l-78 -158q-47 -89 -22.5 -133.5t139.5 -44.5l-8 -55h-451l8 55
q96 0 141 37.5t101 149.5l608 1212h76l264 -1212q13 -60 23 -89.5t31 -55t52.5 -34t84.5 -8.5zM784 1114l-317 -645h446z" />
    <glyph glyph-name="aogonek" unicode="&#x105;" horiz-adv-x="1058" 
d="M1040 956l-108 -770q-10 -74 32 -91.5t130 48.5l26 -41q-73 -76 -164 -106q-154 -138 -164 -244q-6 -70 55 -93q66 -25 167 24l-10 -66q-109 -86 -197 -86q-67 0 -107.5 43.5t-40.5 110.5q0 161 199 295q-78 3 -121.5 56t-27.5 161l26 172q-206 -389 -377 -389
q-92 0 -153.5 97t-61.5 242q0 97 18.5 189t65 183.5t116.5 159.5t182 110.5t253 42.5q109 0 244 -27q8 -2 13.5 -8t4.5 -13zM754 516l61 420q-130 33 -231.5 -36.5t-156 -218t-54.5 -347.5q0 -89 27 -146t65 -57q53 0 138 116.5t151 268.5z" />
    <glyph glyph-name="Cacute" unicode="&#x106;" horiz-adv-x="1308" 
d="M164 592q0 135 26 251.5t71.5 203t108 156.5t133.5 116t151 77t157.5 44.5t155.5 13.5q129 0 250.5 -39t209.5 -108l-47 -367h-51q16 118 -7.5 205t-78 135t-123 70t-151.5 22q-159 0 -286.5 -106t-197 -285.5t-69.5 -396.5q0 -236 97 -379.5t273 -143.5q82 0 156.5 22.5
t142.5 70.5t116 135t65 205h51l-55 -367q-107 -69 -240 -108t-262 -39q-89 0 -171.5 19.5t-161 65t-136 114t-92.5 175t-35 238.5zM1135 1894l-318 -366h-41l185 346q43 28 94.5 33t79.5 -13z" />
    <glyph glyph-name="cacute" unicode="&#x107;" horiz-adv-x="890" 
d="M907 1444l-317 -367h-41l184 346q43 28 94.5 33.5t79.5 -12.5zM672 1004q40 0 77 -5.5t76 -21t67 -39.5t46 -65t18 -95q0 -28 -42 -56.5t-92 -37t-91 9.5q31 57 36.5 111.5t-22.5 93.5t-90 39q-59 0 -112.5 -51.5t-88 -129t-55 -165.5t-20.5 -164q0 -147 62 -230
t167.5 -82.5t243.5 85.5l18 -45q-117 -93 -228.5 -137t-200.5 -35t-156.5 58t-104.5 141t-37 214q0 115 33.5 215.5t88 171t124 121.5t142 75t141.5 24z" />
    <glyph glyph-name="Ccircumflex" unicode="&#x108;" horiz-adv-x="1308" 
d="M164 592q0 135 26 251.5t71.5 203t108 156.5t133.5 116t151 77t157.5 44.5t155.5 13.5q129 0 250.5 -39t209.5 -108l-47 -367h-51q16 118 -7.5 205t-78 135t-123 70t-151.5 22q-159 0 -286.5 -106t-197 -285.5t-69.5 -396.5q0 -236 97 -379.5t273 -143.5q82 0 156.5 22.5
t142.5 70.5t116 135t65 205h51l-55 -367q-107 -69 -240 -108t-262 -39q-89 0 -171.5 19.5t-161 65t-136 114t-92.5 175t-35 238.5zM1225 1528h-51l-203 213l-264 -213h-48l281 352h100z" />
    <glyph glyph-name="ccircumflex" unicode="&#x109;" horiz-adv-x="890" 
d="M942 1077h-51l-203 213l-264 -213h-47l280 353h101zM672 1004q40 0 77 -5.5t76 -21t67 -39.5t46 -65t18 -95q0 -28 -42 -56.5t-92 -37t-91 9.5q31 57 36.5 111.5t-22.5 93.5t-90 39q-59 0 -112.5 -51.5t-88 -129t-55 -165.5t-20.5 -164q0 -147 62 -230t167.5 -82.5
t243.5 85.5l18 -45q-117 -93 -228.5 -137t-200.5 -35t-156.5 58t-104.5 141t-37 214q0 115 33.5 215.5t88 171t124 121.5t142 75t141.5 24z" />
    <glyph glyph-name="Cdotaccent" unicode="&#x10a;" horiz-adv-x="1308" 
d="M950 1593q-48 39 -92 121q62 75 127 119q47 -45 92 -119q-52 -66 -127 -121zM164 592q0 135 26 251.5t71.5 203t108 156.5t133.5 116t151 77t157.5 44.5t155.5 13.5q129 0 250.5 -39t209.5 -108l-47 -367h-51q16 118 -7.5 205t-78 135t-123 70t-151.5 22
q-159 0 -286.5 -106t-197 -285.5t-69.5 -396.5q0 -236 97 -379.5t273 -143.5q82 0 156.5 22.5t142.5 70.5t116 135t65 205h51l-55 -367q-107 -69 -240 -108t-262 -39q-89 0 -171.5 19.5t-161 65t-136 114t-92.5 175t-35 238.5z" />
    <glyph glyph-name="cdotaccent" unicode="&#x10b;" horiz-adv-x="890" 
d="M672 1004q40 0 77 -5.5t76 -21t67 -39.5t46 -65t18 -95q0 -28 -42 -56.5t-92 -37t-91 9.5q31 57 36.5 111.5t-22.5 93.5t-90 39q-59 0 -112.5 -51.5t-88 -129t-55 -165.5t-20.5 -164q0 -147 62 -230t167.5 -82.5t243.5 85.5l18 -45q-117 -93 -228.5 -137t-200.5 -35
t-156.5 58t-104.5 141t-37 214q0 115 33.5 215.5t88 171t124 121.5t142 75t141.5 24zM657 1143q-48 39 -92 121q60 73 127 118q49 -46 92 -118q-52 -66 -127 -121z" />
    <glyph glyph-name="Ccaron" unicode="&#x10c;" horiz-adv-x="1308" 
d="M164 592q0 135 26 251.5t71.5 203t108 156.5t133.5 116t151 77t157.5 44.5t155.5 13.5q129 0 250.5 -39t209.5 -108l-47 -367h-51q16 118 -7.5 205t-78 135t-123 70t-151.5 22q-159 0 -286.5 -106t-197 -285.5t-69.5 -396.5q0 -236 97 -379.5t273 -143.5q82 0 156.5 22.5
t142.5 70.5t116 135t65 205h51l-55 -367q-107 -69 -240 -108t-262 -39q-89 0 -171.5 19.5t-161 65t-136 114t-92.5 175t-35 238.5zM1192 1880h51l-285 -352h-100l-180 352h49l201 -213z" />
    <glyph glyph-name="ccaron" unicode="&#x10d;" horiz-adv-x="890" 
d="M907 1430h51l-284 -353h-101l-180 353h49l201 -213zM672 1004q40 0 77 -5.5t76 -21t67 -39.5t46 -65t18 -95q0 -28 -42 -56.5t-92 -37t-91 9.5q31 57 36.5 111.5t-22.5 93.5t-90 39q-59 0 -112.5 -51.5t-88 -129t-55 -165.5t-20.5 -164q0 -147 62 -230t167.5 -82.5
t243.5 85.5l18 -45q-117 -93 -228.5 -137t-200.5 -35t-156.5 58t-104.5 141t-37 214q0 115 33.5 215.5t88 171t124 121.5t142 75t141.5 24z" />
    <glyph glyph-name="Dcaron" unicode="&#x10e;" horiz-adv-x="1492" 
d="M1116 1880h51l-284 -352h-101l-180 352h49l201 -213zM61 0l9 55q64 0 102.5 9.5t59.5 36t28.5 54t15.5 83.5l136 958q9 65 5 105.5t-40.5 58.5t-120.5 18l6 56h551q78 0 125 -1.5t132 -12.5t139.5 -32t122 -63.5t107 -102t67.5 -153.5t28 -213q0 -138 -25 -254
t-63.5 -198.5t-100 -148.5t-118.5 -107.5t-136 -71.5t-135.5 -44t-134.5 -22t-115 -9t-94 -1h-551zM625 80q46 0 97.5 7.5t117 30t125.5 57.5t119 95t102 137.5t69.5 190.5t26.5 248q0 96 -19.5 175t-50.5 130.5t-75 90.5t-86 59.5t-92 33t-85 16t-71 3.5h-137l-156 -1106
q-25 -168 115 -168z" />
    <glyph glyph-name="dcaron" unicode="&#x10f;" horiz-adv-x="1064" 
d="M1262 1016h-97l21 438h178zM825 987l35 236q4 31 6 47t2.5 36t-1.5 28.5t-8 19.5t-14.5 14.5t-23.5 7.5t-33 5t-45 1l9 52l352 20q8 0 13.5 -6.5t4.5 -13.5l-178 -1248q-11 -73 31.5 -91t130.5 48l24 -41q-57 -60 -127 -91t-131 -31q-80 0 -126.5 53t-30.5 164l26 178
q-205 -395 -383 -395q-92 0 -153.5 97t-61.5 242q0 89 18 179.5t61.5 183t108 163t166.5 115t228 44.5q44 0 100 -17zM373 334q0 -89 27 -146t65 -57q54 0 140 116.5t155 268.5l57 412q-43 14 -90 14q-152 0 -253 -168t-101 -440z" />
    <glyph glyph-name="Dcroat" unicode="&#x110;" horiz-adv-x="1492" 
d="M158 678l10 78h180l64 440q9 65 5 105.5t-40.5 58.5t-120.5 18l6 56h551q78 0 125 -1.5t132 -12.5t139.5 -32t122 -63.5t107 -102t67.5 -153.5t28 -213q0 -138 -25 -254t-63.5 -198.5t-100 -148.5t-118.5 -107.5t-136 -71.5t-135.5 -44t-134.5 -22t-115 -9t-94 -1h-551
l9 55q64 0 102.5 9.5t59.5 36t28.5 54t15.5 83.5l62 440h-180zM625 80q46 0 97.5 7.5t117 30t125.5 57.5t119 95t102 137.5t69.5 190.5t26.5 248q0 96 -19.5 175t-50.5 130.5t-75 90.5t-86 59.5t-92 33t-85 16t-71 3.5h-137l-86 -598h208l-10 -78h-209l-59 -430
q-25 -168 115 -168z" />
    <glyph glyph-name="dcroat" unicode="&#x111;" horiz-adv-x="1064" 
d="M713 1174l10 75h139q11 89 -8 111t-111 22l9 52l352 20q8 0 13.5 -6.5t4.5 -13.5l-26 -185h112l-10 -75h-113l-141 -988q-11 -73 31.5 -91t130.5 48l24 -41q-57 -60 -127 -91t-131 -31q-80 0 -126.5 53t-30.5 164l26 178q-205 -395 -383 -395q-92 0 -153.5 97t-61.5 242
q0 89 18 179.5t61.5 183t108 163t166.5 115t228 44.5q44 0 100 -17l27 187h-139zM373 334q0 -89 27 -146t65 -57q54 0 140 116.5t155 268.5l57 412q-43 14 -90 14q-152 0 -253 -168t-101 -440z" />
    <glyph glyph-name="Emacron" unicode="&#x112;" horiz-adv-x="1161" 
d="M1096 1729l-15 -113h-581l14 113h582zM61 0l9 55q63 0 101 9t59.5 34.5t29.5 54.5t16 85l136 958q10 66 5 106.5t-41 58t-120 17.5l6 56h998l-35 -312h-49q-1 57 -5 95t-16.5 64.5t-25.5 40.5t-42.5 21.5t-55.5 9t-75 1.5h-290l-80 -563h264q81 0 111 41t45 145h51
l-66 -459h-51q16 109 -2 151t-100 42h-265l-63 -463q-12 -83 12 -125.5t111 -42.5h227q113 0 168.5 54t101.5 210h52l-68 -344h-1053z" />
    <glyph glyph-name="emacron" unicode="&#x113;" horiz-adv-x="897" 
d="M948 782q0 -92 -71.5 -158.5t-193.5 -80.5t-284 51q-20 -94 -20 -182q0 -141 60.5 -220t169.5 -78t243 87l18 -45q-117 -93 -228.5 -137t-200.5 -35t-156.5 58t-104.5 141t-37 214q0 115 32 215.5t85.5 171t121.5 121t140.5 75t143.5 24.5q49 0 95 -11t90 -34.5t70.5 -69
t26.5 -107.5zM655 938q-83 0 -145 -83t-96 -210q135 -38 236.5 15t101.5 169q0 109 -97 109zM934 1278l-14 -113h-582l14 113h582z" />
    <glyph glyph-name="Ebreve" unicode="&#x114;" horiz-adv-x="1161" 
d="M537 1860h51q5 -73 56.5 -123.5t135.5 -50.5q81 0 146.5 51t89.5 123h49q-18 -123 -109 -220.5t-196 -97.5q-100 0 -163.5 90t-59.5 228zM61 0l9 55q63 0 101 9t59.5 34.5t29.5 54.5t16 85l136 958q10 66 5 106.5t-41 58t-120 17.5l6 56h998l-35 -312h-49q-1 57 -5 95
t-16.5 64.5t-25.5 40.5t-42.5 21.5t-55.5 9t-75 1.5h-290l-80 -563h264q81 0 111 41t45 145h51l-66 -459h-51q16 109 -2 151t-100 42h-265l-63 -463q-12 -83 12 -125.5t111 -42.5h227q113 0 168.5 54t101.5 210h52l-68 -344h-1053z" />
    <glyph glyph-name="ebreve" unicode="&#x115;" horiz-adv-x="897" 
d="M948 782q0 -92 -71.5 -158.5t-193.5 -80.5t-284 51q-20 -94 -20 -182q0 -141 60.5 -220t169.5 -78t243 87l18 -45q-117 -93 -228.5 -137t-200.5 -35t-156.5 58t-104.5 141t-37 214q0 115 32 215.5t85.5 171t121.5 121t140.5 75t143.5 24.5q49 0 95 -11t90 -34.5t70.5 -69
t26.5 -107.5zM655 938q-83 0 -145 -83t-96 -210q135 -38 236.5 15t101.5 169q0 109 -97 109zM397 1409h52q5 -73 56.5 -123.5t135.5 -50.5q81 0 146.5 51t89.5 123h49q-18 -123 -109 -220t-196 -97q-100 0 -164 90t-60 227z" />
    <glyph glyph-name="Edotaccent" unicode="&#x116;" horiz-adv-x="1161" 
d="M786 1593q-48 39 -92 121q62 75 127 119q47 -45 92 -119q-52 -66 -127 -121zM61 0l9 55q63 0 101 9t59.5 34.5t29.5 54.5t16 85l136 958q10 66 5 106.5t-41 58t-120 17.5l6 56h998l-35 -312h-49q-1 57 -5 95t-16.5 64.5t-25.5 40.5t-42.5 21.5t-55.5 9t-75 1.5h-290
l-80 -563h264q81 0 111 41t45 145h51l-66 -459h-51q16 109 -2 151t-100 42h-265l-63 -463q-12 -83 12 -125.5t111 -42.5h227q113 0 168.5 54t101.5 210h52l-68 -344h-1053z" />
    <glyph glyph-name="edotaccent" unicode="&#x117;" horiz-adv-x="897" 
d="M948 782q0 -92 -71.5 -158.5t-193.5 -80.5t-284 51q-20 -94 -20 -182q0 -141 60.5 -220t169.5 -78t243 87l18 -45q-117 -93 -228.5 -137t-200.5 -35t-156.5 58t-104.5 141t-37 214q0 115 32 215.5t85.5 171t121.5 121t140.5 75t143.5 24.5q49 0 95 -11t90 -34.5t70.5 -69
t26.5 -107.5zM655 938q-83 0 -145 -83t-96 -210q135 -38 236.5 15t101.5 169q0 109 -97 109zM643 1143q-48 39 -92 121q60 73 127 118q49 -46 92 -118q-52 -66 -127 -121z" />
    <glyph glyph-name="Eogonek" unicode="&#x118;" horiz-adv-x="1161" 
d="M61 0l9 55q63 0 101 9t59.5 34.5t29.5 54.5t16 85l136 958q10 66 5 106.5t-41 58t-120 17.5l6 56h998l-35 -312h-49q-1 57 -5 95t-16.5 64.5t-25.5 40.5t-42.5 21.5t-55.5 9t-75 1.5h-290l-80 -563h264q81 0 111 41t45 145h51l-66 -459h-51q16 109 -2 151t-100 42h-265
l-63 -463q-12 -83 12 -125.5t111 -42.5h227q113 0 168.5 54t101.5 210h52l-68 -344h-115q-157 -138 -168 -246q-8 -71 52 -95q66 -27 168 24l-11 -66q-109 -86 -196 -86q-67 0 -107.5 43.5t-40.5 110.5q0 173 232 315h-867z" />
    <glyph glyph-name="eogonek" unicode="&#x119;" horiz-adv-x="897" 
d="M948 782q0 -92 -71.5 -158.5t-193.5 -80.5t-284 51q-20 -94 -20 -182q0 -141 60.5 -220t169.5 -78t243 87l18 -45q-151 -122 -292 -158q-155 -137 -167 -244q-8 -71 52 -95q66 -27 168 24l-10 -66q-109 -86 -197 -86q-67 0 -107.5 43.5t-40.5 110.5q0 165 205 299
q-154 -5 -246 106t-92 307q0 115 32 215.5t85.5 171t121.5 121t140.5 75t143.5 24.5q49 0 95 -11t90 -34.5t70.5 -69t26.5 -107.5zM655 938q-83 0 -145 -83t-96 -210q135 -38 236.5 15t101.5 169q0 109 -97 109z" />
    <glyph glyph-name="Ecaron" unicode="&#x11a;" horiz-adv-x="1161" 
d="M1063 1880h51l-285 -352h-100l-180 352h49l201 -213zM61 0l9 55q63 0 101 9t59.5 34.5t29.5 54.5t16 85l136 958q10 66 5 106.5t-41 58t-120 17.5l6 56h998l-35 -312h-49q-1 57 -5 95t-16.5 64.5t-25.5 40.5t-42.5 21.5t-55.5 9t-75 1.5h-290l-80 -563h264q81 0 111 41
t45 145h51l-66 -459h-51q16 109 -2 151t-100 42h-265l-63 -463q-12 -83 12 -125.5t111 -42.5h227q113 0 168.5 54t101.5 210h52l-68 -344h-1053z" />
    <glyph glyph-name="ecaron" unicode="&#x11b;" horiz-adv-x="897" 
d="M909 1430h52l-285 -353h-101l-180 353h49l201 -213zM948 782q0 -92 -71.5 -158.5t-193.5 -80.5t-284 51q-20 -94 -20 -182q0 -141 60.5 -220t169.5 -78t243 87l18 -45q-117 -93 -228.5 -137t-200.5 -35t-156.5 58t-104.5 141t-37 214q0 115 32 215.5t85.5 171t121.5 121
t140.5 75t143.5 24.5q49 0 95 -11t90 -34.5t70.5 -69t26.5 -107.5zM655 938q-83 0 -145 -83t-96 -210q135 -38 236.5 15t101.5 169q0 109 -97 109z" />
    <glyph glyph-name="Gcircumflex" unicode="&#x11c;" horiz-adv-x="1452" 
d="M1346 377l-27 -205q-121 -86 -266.5 -139t-292.5 -53q-89 0 -171.5 19.5t-161 65t-136 114t-92.5 175t-35 238.5q0 135 26 251.5t71.5 203t108 156.5t133.5 116t151 77t157.5 44.5t155.5 13.5q129 0 250.5 -39t209.5 -108l-47 -367h-51q16 118 -7.5 205t-78 135t-123 70
t-151.5 22q-159 0 -286.5 -106t-197 -285.5t-69.5 -396.5q0 -236 97 -379.5t273 -143.5q88 0 160 26.5t139 90.5l29 199q10 65 2.5 105.5t-52 58.5t-144.5 18l8 55h596l-8 -55q-34 0 -58.5 -4t-42 -15t-28 -22.5t-19 -35.5t-12.5 -45t-10 -60zM1253 1528h-51l-203 213
l-264 -213h-47l281 352h100z" />
    <glyph glyph-name="gcircumflex" unicode="&#x11d;" horiz-adv-x="1028" 
d="M985 1077h-51l-203 213l-264 -213h-47l280 353h101zM698 66l43 303q-202 -389 -374 -389q-92 0 -153.5 97t-61.5 242q0 97 18.5 189t64.5 183.5t116 159.5t182 110.5t253 42.5q109 0 244 -27q8 -2 14 -8t5 -13l-125 -907q-19 -137 -73 -245t-128.5 -172t-158.5 -97
t-171 -33q-40 0 -77 5.5t-76 21t-67 39.5t-46 65t-18 95q0 28 42 56.5t92 37t91 -9.5q-22 -42 -31 -84.5t-3 -78.5t34 -58.5t74 -22.5q61 0 110.5 41t84 113.5t57.5 157.5t38 186zM381 334q0 -89 27 -146t65 -57q53 0 137.5 116t151.5 267l61 422q-130 33 -231.5 -36.5
t-156 -218t-54.5 -347.5z" />
    <glyph glyph-name="Gbreve" unicode="&#x11e;" horiz-adv-x="1452" 
d="M717 1860h51q5 -73 57 -123.5t136 -50.5q81 0 146 50.5t89 123.5h49q-18 -123 -109 -220.5t-196 -97.5q-100 0 -163.5 90t-59.5 228zM1346 377l-27 -205q-121 -86 -266.5 -139t-292.5 -53q-89 0 -171.5 19.5t-161 65t-136 114t-92.5 175t-35 238.5q0 135 26 251.5
t71.5 203t108 156.5t133.5 116t151 77t157.5 44.5t155.5 13.5q129 0 250.5 -39t209.5 -108l-47 -367h-51q16 118 -7.5 205t-78 135t-123 70t-151.5 22q-159 0 -286.5 -106t-197 -285.5t-69.5 -396.5q0 -236 97 -379.5t273 -143.5q88 0 160 26.5t139 90.5l29 199
q10 65 2.5 105.5t-52 58.5t-144.5 18l8 55h596l-8 -55q-34 0 -58.5 -4t-42 -15t-28 -22.5t-19 -35.5t-12.5 -45t-10 -60z" />
    <glyph glyph-name="gbreve" unicode="&#x11f;" horiz-adv-x="1028" 
d="M698 66l43 303q-202 -389 -374 -389q-92 0 -153.5 97t-61.5 242q0 97 18.5 189t64.5 183.5t116 159.5t182 110.5t253 42.5q109 0 244 -27q8 -2 14 -8t5 -13l-125 -907q-19 -137 -73 -245t-128.5 -172t-158.5 -97t-171 -33q-40 0 -77 5.5t-76 21t-67 39.5t-46 65t-18 95
q0 28 42 56.5t92 37t91 -9.5q-22 -42 -31 -84.5t-3 -78.5t34 -58.5t74 -22.5q61 0 110.5 41t84 113.5t57.5 157.5t38 186zM381 334q0 -89 27 -146t65 -57q53 0 137.5 116t151.5 267l61 422q-130 33 -231.5 -36.5t-156 -218t-54.5 -347.5zM430 1409h51q5 -73 57 -123.5
t136 -50.5q81 0 146 50.5t89 123.5h49q-18 -123 -109 -220t-196 -97q-100 0 -163.5 90t-59.5 227z" />
    <glyph glyph-name="Gdotaccent" unicode="&#x120;" horiz-adv-x="1452" 
d="M983 1593q-48 39 -92 121q62 75 127 119q47 -45 92 -119q-52 -66 -127 -121zM1346 377l-27 -205q-121 -86 -266.5 -139t-292.5 -53q-89 0 -171.5 19.5t-161 65t-136 114t-92.5 175t-35 238.5q0 135 26 251.5t71.5 203t108 156.5t133.5 116t151 77t157.5 44.5t155.5 13.5
q129 0 250.5 -39t209.5 -108l-47 -367h-51q16 118 -7.5 205t-78 135t-123 70t-151.5 22q-159 0 -286.5 -106t-197 -285.5t-69.5 -396.5q0 -236 97 -379.5t273 -143.5q88 0 160 26.5t139 90.5l29 199q10 65 2.5 105.5t-52 58.5t-144.5 18l8 55h596l-8 -55q-34 0 -58.5 -4
t-42 -15t-28 -22.5t-19 -35.5t-12.5 -45t-10 -60z" />
    <glyph glyph-name="gdotaccent" unicode="&#x121;" horiz-adv-x="1028" 
d="M698 66l43 303q-202 -389 -374 -389q-92 0 -153.5 97t-61.5 242q0 97 18.5 189t64.5 183.5t116 159.5t182 110.5t253 42.5q109 0 244 -27q8 -2 14 -8t5 -13l-125 -907q-19 -137 -73 -245t-128.5 -172t-158.5 -97t-171 -33q-40 0 -77 5.5t-76 21t-67 39.5t-46 65t-18 95
q0 28 42 56.5t92 37t91 -9.5q-22 -42 -31 -84.5t-3 -78.5t34 -58.5t74 -22.5q61 0 110.5 41t84 113.5t57.5 157.5t38 186zM381 334q0 -89 27 -146t65 -57q53 0 137.5 116t151.5 267l61 422q-130 33 -231.5 -36.5t-156 -218t-54.5 -347.5zM684 1143q-48 39 -92 121
q60 73 127 118q49 -46 92 -118q-52 -66 -127 -121z" />
    <glyph glyph-name="Gcommaaccent" unicode="&#x122;" horiz-adv-x="1452" 
d="M1346 377l-27 -205q-121 -86 -266.5 -139t-292.5 -53q-89 0 -171.5 19.5t-161 65t-136 114t-92.5 175t-35 238.5q0 135 26 251.5t71.5 203t108 156.5t133.5 116t151 77t157.5 44.5t155.5 13.5q129 0 250.5 -39t209.5 -108l-47 -367h-51q16 118 -7.5 205t-78 135t-123 70
t-151.5 22q-159 0 -286.5 -106t-197 -285.5t-69.5 -396.5q0 -236 97 -379.5t273 -143.5q88 0 160 26.5t139 90.5l29 199q10 65 2.5 105.5t-52 58.5t-144.5 18l8 55h596l-8 -55q-34 0 -58.5 -4t-42 -15t-28 -22.5t-19 -35.5t-12.5 -45t-10 -60zM616 -610l-26 35
q88 73 131 190q-56 53 -100 131q59 67 135 127q58 -52 102 -127q-26 -203 -242 -356z" />
    <glyph glyph-name="gcommaaccent" unicode="&#x123;" horiz-adv-x="1028" 
d="M811 1593l27 -37q-88 -68 -133 -188q53 -50 102 -131q-70 -76 -139 -129q-56 56 -99 129q26 200 242 356zM698 66l43 303q-202 -389 -374 -389q-92 0 -153.5 97t-61.5 242q0 97 18.5 189t64.5 183.5t116 159.5t182 110.5t253 42.5q109 0 244 -27q8 -2 14 -8t5 -13
l-125 -907q-19 -137 -73 -245t-128.5 -172t-158.5 -97t-171 -33q-40 0 -77 5.5t-76 21t-67 39.5t-46 65t-18 95q0 28 42 56.5t92 37t91 -9.5q-22 -42 -31 -84.5t-3 -78.5t34 -58.5t74 -22.5q61 0 110.5 41t84 113.5t57.5 157.5t38 186zM381 334q0 -89 27 -146t65 -57
q53 0 137.5 116t151.5 267l61 422q-130 33 -231.5 -36.5t-156 -218t-54.5 -347.5z" />
    <glyph glyph-name="Hcircumflex" unicode="&#x124;" horiz-adv-x="1576" 
d="M1530 0h-590l8 55q62 0 98.5 8.5t58 33.5t29.5 54t17 87l66 467h-644l-65 -467q-10 -67 -5 -107.5t40 -58t116 -17.5l-8 -55h-590l9 55q63 0 100 8.5t58.5 33.5t30 54t17.5 87l136 958q9 64 5.5 104.5t-40 59t-121.5 18.5l6 56h590l-6 -56q-37 0 -65 -4t-48 -9
t-34.5 -18.5t-23 -24.5t-15 -34t-9.5 -40.5t-8 -51.5l-59 -414h643l59 414q9 64 6.5 104.5t-38 59t-119.5 18.5l6 56h590l-7 -56q-43 0 -74 -4t-52.5 -15t-34.5 -23t-21.5 -36t-12.5 -45t-9 -59l-136 -958q-11 -67 -5.5 -107.5t41.5 -58t118 -17.5zM1296 1528h-51l-203 213
l-264 -213h-47l281 352h100z" />
    <glyph glyph-name="hcircumflex" unicode="&#x125;" horiz-adv-x="1107" 
d="M762 1493h-51l-203 213l-264 -213h-47l280 352h101zM387 0l-215 -18q-8 0 -13 5t-5 13l174 1223q6 40 8 60.5t0.5 42t-8 29.5t-22.5 16t-37 9.5t-56 1.5l6 52l352 20q7 0 13 -6t6 -14l-125 -861q58 109 125 202t151 161t156 68q92 0 131.5 -71t20.5 -198l-78 -549
q-11 -74 30 -91.5t129 48.5l29 -41q-52 -59 -122.5 -90.5t-131.5 -31.5q-81 0 -130.5 53.5t-33.5 163.5l72 514q10 69 1.5 103t-38.5 34q-52 0 -152.5 -123.5t-170.5 -255.5z" />
    <glyph glyph-name="Hbar" unicode="&#x126;" horiz-adv-x="1576" 
d="M1530 0h-590l8 55q62 0 98.5 8.5t58 33.5t29.5 54t17 87l66 467h-644l-65 -467q-10 -67 -5 -107.5t40 -58t116 -17.5l-8 -55h-590l9 55q63 0 100 8.5t58.5 33.5t30 54t17.5 87l109 770h-182l12 77h180l17 111q9 64 5.5 104.5t-40 59t-121.5 18.5l6 56h590l-6 -56
q-37 0 -65 -4t-48 -9t-34.5 -18.5t-23 -24.5t-15 -34t-9.5 -40.5t-8 -51.5l-16 -111h643l16 111q9 64 6.5 104.5t-38 59t-119.5 18.5l6 56h590l-7 -56q-43 0 -74 -4t-52.5 -15t-34.5 -23t-21.5 -36t-12.5 -45t-9 -59l-17 -111h180l-10 -77h-180l-109 -770
q-11 -67 -5.5 -107.5t41.5 -58t118 -17.5zM616 1008l-32 -226h643l33 226h-644z" />
    <glyph glyph-name="hbar" unicode="&#x127;" horiz-adv-x="1107" 
d="M193 1174l10 75h139q11 89 -8.5 111t-110.5 22l6 52l353 20q7 0 12.5 -6t5.5 -14l-27 -185h144l-10 -75h-144l-88 -601q42 80 91.5 153.5t106.5 137.5t118 102t116 38q91 0 130 -71t22 -198l-78 -549q-11 -73 30.5 -91t129.5 48l28 -41q-52 -59 -122.5 -90.5
t-131.5 -31.5q-81 0 -130 53.5t-33 163.5l71 514q10 69 1.5 103t-38.5 34q-52 0 -152.5 -123.5t-170.5 -255.5l-66 -469l-215 -18q-8 0 -13 5t-5 13l168 1174h-139z" />
    <glyph glyph-name="Itilde" unicode="&#x128;" 
d="M657 0h-596l9 55q63 0 100 8.5t58.5 33.5t30 54t17.5 87l136 958q9 64 5.5 104.5t-40 59t-121.5 18.5l6 56h596l-8 -56q-43 0 -74 -4t-53 -15t-35 -23t-22 -36t-13.5 -45t-9.5 -59l-135 -958q-11 -67 -4.5 -107.5t43 -58t119.5 -17.5zM313 1591l-28 31q109 162 202 162
q53 0 143.5 -33t137.5 -33q58 0 111 68l28 -31q-109 -162 -202 -162q-52 0 -143 33t-138 33q-56 0 -111 -68z" />
    <glyph glyph-name="itilde" unicode="&#x129;" horiz-adv-x="587" 
d="M530 776l-86 -590q-11 -73 31.5 -91t130.5 48l27 -41q-57 -60 -126 -91t-128 -31q-81 0 -130.5 53.5t-33.5 163.5l86 602q7 32 2.5 56.5t-16 39t-40.5 6t-71 -42.5l-26 43q98 92 215 92q81 0 131 -55t34 -162zM170 1141l-29 30q109 162 203 162q53 0 143.5 -32.5
t137.5 -32.5q58 0 110 67l29 -30q-109 -162 -203 -162q-52 0 -142.5 32.5t-137.5 32.5q-57 0 -111 -67z" />
    <glyph glyph-name="Imacron" unicode="&#x12a;" 
d="M657 0h-596l9 55q63 0 100 8.5t58.5 33.5t30 54t17.5 87l136 958q9 64 5.5 104.5t-40 59t-121.5 18.5l6 56h596l-8 -56q-43 0 -74 -4t-53 -15t-35 -23t-22 -36t-13.5 -45t-9.5 -59l-135 -958q-11 -67 -4.5 -107.5t43 -58t119.5 -17.5zM895 1729l-14 -113h-582l14 113h582
z" />
    <glyph glyph-name="imacron" unicode="&#x12b;" horiz-adv-x="587" 
d="M530 776l-86 -590q-11 -73 31.5 -91t130.5 48l27 -41q-57 -60 -126 -91t-128 -31q-81 0 -130.5 53.5t-33.5 163.5l86 602q7 32 2.5 56.5t-16 39t-40.5 6t-71 -42.5l-26 43q98 92 215 92q81 0 131 -55t34 -162zM762 1278l-14 -113h-582l14 113h582z" />
    <glyph glyph-name="Ibreve" unicode="&#x12c;" 
d="M657 0h-596l9 55q63 0 100 8.5t58.5 33.5t30 54t17.5 87l136 958q9 64 5.5 104.5t-40 59t-121.5 18.5l6 56h596l-8 -56q-43 0 -74 -4t-53 -15t-35 -23t-22 -36t-13.5 -45t-9.5 -59l-135 -958q-11 -67 -4.5 -107.5t43 -58t119.5 -17.5zM338 1860h51q5 -73 57 -123.5
t136 -50.5q81 0 146 50.5t89 123.5h49q-18 -123 -109 -220.5t-196 -97.5q-100 0 -163.5 90t-59.5 228z" />
    <glyph glyph-name="ibreve" unicode="&#x12d;" horiz-adv-x="587" 
d="M530 776l-86 -590q-11 -73 31.5 -91t130.5 48l27 -41q-57 -60 -126 -91t-128 -31q-81 0 -130.5 53.5t-33.5 163.5l86 602q7 32 2.5 56.5t-16 39t-40.5 6t-71 -42.5l-26 43q98 92 215 92q81 0 131 -55t34 -162zM213 1409h51q5 -73 57 -123.5t136 -50.5q81 0 146 50.5
t89 123.5h49q-18 -123 -109 -220t-196 -97q-100 0 -163.5 90t-59.5 227z" />
    <glyph glyph-name="Iogonek" unicode="&#x12e;" 
d="M657 0h-145q-157 -138 -169 -246q-7 -71 53 -95q66 -26 167 24l-10 -66q-109 -86 -197 -86q-66 0 -106.5 43.5t-40.5 110.5q0 174 231 315h-379l9 55q63 0 100 8.5t58.5 33.5t30 54t17.5 87l136 958q9 64 5.5 104.5t-40 59t-121.5 18.5l6 56h596l-8 -56q-43 0 -74 -4
t-53 -15t-35 -23t-22 -36t-13.5 -45t-9.5 -59l-135 -958q-11 -67 -4.5 -107.5t43 -58t119.5 -17.5z" />
    <glyph glyph-name="iogonek" unicode="&#x12f;" horiz-adv-x="587" 
d="M530 776l-86 -590q-11 -73 31.5 -91t130.5 48l27 -41q-75 -78 -170 -108q-152 -136 -161 -242q-6 -70 54 -93q66 -25 166 24l-10 -66q-109 -86 -197 -86q-66 0 -106.5 43.5t-40.5 110.5q0 161 199 295q-78 5 -123 58t-29 159l86 602q7 32 2.5 56.5t-16 39t-40.5 6
t-71 -42.5l-26 43q98 92 215 92q81 0 131 -55t34 -162zM455 1126q-78 67 -133 177q76 98 182 174q85 -79 137 -174q-78 -99 -186 -177z" />
    <glyph glyph-name="Idotaccent" unicode="&#x130;" 
d="M657 0h-596l9 55q63 0 100 8.5t58.5 33.5t30 54t17.5 87l136 958q9 64 5.5 104.5t-40 59t-121.5 18.5l6 56h596l-8 -56q-43 0 -74 -4t-53 -15t-35 -23t-22 -36t-13.5 -45t-9.5 -59l-135 -958q-11 -67 -4.5 -107.5t43 -58t119.5 -17.5zM580 1593q-50 40 -93 121
q62 75 127 119q50 -47 93 -119q-52 -66 -127 -121z" />
    <glyph glyph-name="dotlessi" unicode="&#x131;" horiz-adv-x="587" 
d="M530 776l-86 -590q-11 -73 31.5 -91t130.5 48l27 -41q-57 -60 -126 -91t-128 -31q-81 0 -130.5 53.5t-33.5 163.5l86 602q7 32 2.5 56.5t-16 39t-40.5 6t-71 -42.5l-26 43q98 92 215 92q81 0 131 -55t34 -162z" />
    <glyph glyph-name="Jcircumflex" unicode="&#x134;" horiz-adv-x="671" 
d="M633 1196l-158 -1114q-50 -349 -446 -574l-21 39q87 65 144.5 183.5t85.5 316.5l161 1149q10 64 6.5 104.5t-40 59t-121.5 18.5l8 56h596l-8 -56q-43 0 -74 -4t-53 -15t-35 -23t-22 -36t-13.5 -45t-9.5 -59zM850 1528h-51l-203 213l-264 -213h-47l280 352h101z" />
    <glyph glyph-name="jcircumflex" unicode="&#x135;" horiz-adv-x="561" 
d="M205 47l104 752q7 32 2.5 56.5t-16 39t-40.5 6t-71 -42.5l-28 43q100 92 215 92q82 0 132 -54.5t34 -162.5l-99 -696q-49 -356 -495 -572l-21 39q115 74 185 189.5t98 310.5zM741 1077h-51l-203 213l-262 -213h-49l281 353h100z" />
    <glyph glyph-name="Kcommaaccent" unicode="&#x136;" horiz-adv-x="1398" 
d="M633 0h-572l9 55q63 0 100 8.5t58.5 33.5t30 54t17.5 87l136 958q9 64 5.5 104.5t-40 59t-121.5 18.5l6 56h572l-9 -56q-37 0 -64 -4t-46 -15t-30.5 -23t-19.5 -36t-12.5 -45t-9.5 -59l-70 -498h43l555 545q63 61 42.5 98t-123.5 37l8 56h461l-7 -56q-37 0 -69.5 -7.5
t-52.5 -15.5t-47.5 -29.5t-38.5 -31.5t-41 -39l-486 -479q13 -134 61.5 -252t109 -194.5t126 -133t113.5 -81.5t71 -25q45 0 109 53l27 -41q-72 -69 -151 -104t-146 -35q-85 0 -163 40t-145 118t-111 208t-54 296h-101l-55 -387q-10 -67 -5 -107.5t36 -58t102 -17.5z
M545 -610l-27 35q88 73 131 190q-56 53 -100 131q59 67 135 127q58 -52 102 -127q-26 -203 -241 -356z" />
    <glyph glyph-name="kcommaaccent" unicode="&#x137;" horiz-adv-x="1062" 
d="M387 0l-215 -18q-8 0 -13 5t-5 13l174 1223q6 40 8 60.5t0.5 42t-8 29.5t-22.5 16t-37 9.5t-56 1.5l6 52l352 20q7 0 13 -6t6 -14l-135 -957q57 95 137.5 193t165 178.5t167 124.5t136.5 28q38 -10 49 -49.5t-14.5 -97.5t-87.5 -111q-34 36 -85 40.5t-120 -27t-144 -99.5
q4 -132 32 -237t65.5 -164.5t82 -99t77 -53t55.5 -13.5q44 0 108 53l27 -41q-56 -60 -124.5 -91t-129.5 -31q-33 0 -61.5 4t-64.5 17t-65 34.5t-58 60.5t-49 90.5t-32.5 128.5t-13.5 172l-66 -94zM356 -610l-26 35q88 73 131 190q-58 55 -101 131q57 64 136 127
q58 -52 102 -127q-26 -203 -242 -356z" />
    <glyph glyph-name="Lacute" unicode="&#x139;" horiz-adv-x="1161" 
d="M831 1894l-317 -366h-41l184 346q43 28 94.5 33t79.5 -13zM903 1434l-6 -56q-63 0 -104.5 -6t-68.5 -17.5t-43 -35t-23.5 -50.5t-14.5 -73l-133 -948q-12 -83 12 -125.5t111 -42.5h227q113 0 168.5 54t101.5 210h52l-68 -344h-1053l9 55q63 0 101 9t59.5 34.5t29.5 54.5
t16 85l136 958q10 66 5 106.5t-41 58t-120 17.5l6 56h641z" />
    <glyph glyph-name="lacute" unicode="&#x13a;" horiz-adv-x="546" 
d="M705 1872l-318 -367h-41l184 346q43 28 95 33.5t80 -12.5zM578 1434l-181 -1248q-10 -74 32 -91.5t130 48.5l27 -41q-56 -60 -124.5 -91t-129.5 -31q-81 0 -130.5 53.5t-33.5 163.5l145 1026q6 41 8 61t0.5 41.5t-8 29.5t-22 16t-36.5 9.5t-56 1.5l6 52l354 20q7 0 13 -6
t6 -14z" />
    <glyph glyph-name="Lcommaaccent" unicode="&#x13b;" horiz-adv-x="1161" 
d="M903 1434l-6 -56q-63 0 -104.5 -6t-68.5 -17.5t-43 -35t-23.5 -50.5t-14.5 -73l-133 -948q-12 -83 12 -125.5t111 -42.5h227q113 0 168.5 54t101.5 210h52l-68 -344h-1053l9 55q63 0 101 9t59.5 34.5t29.5 54.5t16 85l136 958q10 66 5 106.5t-41 58t-120 17.5l6 56h641z
M471 -610l-27 35q88 73 131 190q-56 53 -100 131q59 67 135 127q60 -54 103 -127q-26 -203 -242 -356z" />
    <glyph glyph-name="lcommaaccent" unicode="&#x13c;" horiz-adv-x="546" 
d="M578 1434l-181 -1248q-10 -74 32 -91.5t130 48.5l27 -41q-56 -60 -124.5 -91t-129.5 -31q-81 0 -130.5 53.5t-33.5 163.5l145 1026q6 41 8 61t0.5 41.5t-8 29.5t-22 16t-36.5 9.5t-56 1.5l6 52l354 20q7 0 13 -6t6 -14zM164 -610l-27 35q88 73 131 190q-56 53 -100 131
q59 67 135 127q60 -54 103 -127q-26 -203 -242 -356z" />
    <glyph glyph-name="Lcaron" unicode="&#x13d;" horiz-adv-x="1161" 
d="M1135 1151q-68 60 -115 152q69 83 162 151q68 -65 116 -151q-31 -231 -272 -406l-29 41q95 90 138 213zM903 1434l-6 -56q-63 0 -104.5 -6t-68.5 -17.5t-43 -35t-23.5 -50.5t-14.5 -73l-133 -948q-12 -83 12 -125.5t111 -42.5h227q113 0 168.5 54t101.5 210h52l-68 -344
h-1053l9 55q63 0 101 9t59.5 34.5t29.5 54.5t16 85l136 958q10 66 5 106.5t-41 58t-120 17.5l6 56h641z" />
    <glyph glyph-name="lcaron" unicode="&#x13e;" horiz-adv-x="546" 
d="M729 1192q-69 61 -115 151q71 86 162 152q69 -66 117 -152q-31 -230 -272 -405l-29 41q94 88 137 213zM578 1434l-181 -1248q-10 -74 32 -91.5t130 48.5l27 -41q-56 -60 -124.5 -91t-129.5 -31q-81 0 -130.5 53.5t-33.5 163.5l145 1026q6 41 8 61t0.5 41.5t-8 29.5
t-22 16t-36.5 9.5t-56 1.5l6 52l354 20q7 0 13 -6t6 -14z" />
    <glyph glyph-name="Lslash" unicode="&#x141;" horiz-adv-x="1161" 
d="M158 678l10 78h180l64 440q10 66 5 106.5t-41 58t-120 17.5l6 56h641l-6 -56q-63 0 -104.5 -6t-68.5 -17.5t-43 -35t-23.5 -50.5t-14.5 -73l-63 -440h247l-10 -78h-248l-59 -430q-12 -83 12 -125.5t111 -42.5h227q113 0 168.5 54t101.5 210h52l-68 -344h-1053l9 55
q63 0 101 9t59.5 34.5t29.5 54.5t16 85l62 440h-180z" />
    <glyph glyph-name="lslash" unicode="&#x142;" horiz-adv-x="546" 
d="M590 1434l-98 -678h139l-10 -78h-142l-69 -492q-10 -74 31.5 -91.5t129.5 48.5l27 -41q-56 -60 -124.5 -91t-129.5 -31q-80 0 -129 53.5t-33 163.5l68 481h-144l11 78h143l68 467q4 31 6 47t2.5 36t-1.5 28.5t-8 19.5t-14.5 14.5t-23.5 7.5t-33 5t-45 1l8 52l352 20
q7 0 13 -6t6 -14z" />
    <glyph glyph-name="Nacute" unicode="&#x143;" horiz-adv-x="1552" 
d="M1194 1894l-317 -366h-41l184 346q43 28 94.5 33t79.5 -13zM1321 406l111 790q14 108 -13.5 145t-134.5 37l8 56h437l-9 -56q-57 0 -92.5 -9t-57.5 -32.5t-32 -55t-16 -85.5l-172 -1206h-70l-784 1179l-129 -931q-14 -70 -5.5 -111t45 -56.5t121.5 -15.5l-8 -55h-459
l9 55q62 0 98.5 8t59.5 31t33 54.5t18 89.5l135 958q13 103 -19.5 142.5t-154.5 39.5l6 56h401z" />
    <glyph glyph-name="nacute" unicode="&#x144;" horiz-adv-x="1130" 
d="M864 1444l-317 -367h-41l184 346q43 28 94.5 33.5t79.5 -12.5zM520 776l-31 -203q56 109 123.5 202.5t151.5 161t156 67.5q91 0 129.5 -70.5t21.5 -198.5l-78 -549q-11 -73 31.5 -91t130.5 48l27 -41q-55 -60 -124.5 -91t-129.5 -31q-81 0 -130.5 53.5t-33.5 163.5
l72 514q10 69 1.5 103t-38.5 34q-52 0 -153 -124t-171 -255l-65 -469l-215 -18q-8 0 -13.5 5.5t-5.5 12.5l115 799q7 32 2.5 56.5t-16 39t-40.5 6t-71 -42.5l-27 43q98 92 215 92q81 0 131.5 -55t34.5 -162z" />
    <glyph glyph-name="Ncommaaccent" unicode="&#x145;" horiz-adv-x="1552" 
d="M1321 406l111 790q14 108 -13.5 145t-134.5 37l8 56h437l-9 -56q-57 0 -92.5 -9t-57.5 -32.5t-32 -55t-16 -85.5l-172 -1206h-70l-784 1179l-129 -931q-14 -70 -5.5 -111t45 -56.5t121.5 -15.5l-8 -55h-459l9 55q62 0 98.5 8t59.5 31t33 54.5t18 89.5l135 958
q13 103 -19.5 142.5t-154.5 39.5l6 56h401zM668 -610l-27 35q88 73 131 190q-56 53 -100 131q59 67 135 127q58 -52 102 -127q-26 -203 -241 -356z" />
    <glyph glyph-name="ncommaaccent" unicode="&#x146;" horiz-adv-x="1130" 
d="M520 776l-31 -203q56 109 123.5 202.5t151.5 161t156 67.5q91 0 129.5 -70.5t21.5 -198.5l-78 -549q-11 -73 31.5 -91t130.5 48l27 -41q-55 -60 -124.5 -91t-129.5 -31q-81 0 -130.5 53.5t-33.5 163.5l72 514q10 69 1.5 103t-38.5 34q-52 0 -153 -124t-171 -255l-65 -469
l-215 -18q-8 0 -13.5 5.5t-5.5 12.5l115 799q7 32 2.5 56.5t-16 39t-40.5 6t-71 -42.5l-27 43q98 92 215 92q81 0 131.5 -55t34.5 -162zM457 -610l-27 35q88 73 131 190q-56 53 -100 131q59 67 135 127q58 -52 102 -127q-26 -203 -241 -356z" />
    <glyph glyph-name="Ncaron" unicode="&#x147;" horiz-adv-x="1552" 
d="M1282 1880h51l-284 -352h-101l-180 352h49l201 -213zM1321 406l111 790q14 108 -13.5 145t-134.5 37l8 56h437l-9 -56q-57 0 -92.5 -9t-57.5 -32.5t-32 -55t-16 -85.5l-172 -1206h-70l-784 1179l-129 -931q-14 -70 -5.5 -111t45 -56.5t121.5 -15.5l-8 -55h-459l9 55
q62 0 98.5 8t59.5 31t33 54.5t18 89.5l135 958q13 103 -19.5 142.5t-154.5 39.5l6 56h401z" />
    <glyph glyph-name="ncaron" unicode="&#x148;" horiz-adv-x="1130" 
d="M940 1430h51l-284 -353h-101l-180 353h49l201 -213zM520 776l-31 -203q56 109 123.5 202.5t151.5 161t156 67.5q91 0 129.5 -70.5t21.5 -198.5l-78 -549q-11 -73 31.5 -91t130.5 48l27 -41q-55 -60 -124.5 -91t-129.5 -31q-81 0 -130.5 53.5t-33.5 163.5l72 514
q10 69 1.5 103t-38.5 34q-52 0 -153 -124t-171 -255l-65 -469l-215 -18q-8 0 -13.5 5.5t-5.5 12.5l115 799q7 32 2.5 56.5t-16 39t-40.5 6t-71 -42.5l-27 43q98 92 215 92q81 0 131.5 -55t34.5 -162z" />
    <glyph glyph-name="Eng" unicode="&#x14a;" horiz-adv-x="1574" 
d="M1321 406l111 790q14 108 -13.5 145t-134.5 37l8 56h437l-9 -56q-57 0 -92.5 -9t-57.5 -32.5t-32 -55t-16 -85.5l-160 -1114q-47 -347 -447 -574l-20 39q179 132 231 500l21 148l-651 974l-129 -931q-14 -70 -5.5 -111t45 -56.5t121.5 -15.5l-8 -55h-459l9 55
q62 0 98.5 8t59.5 31t33 54.5t18 89.5l135 958q13 103 -19.5 142.5t-154.5 39.5l6 56h401z" />
    <glyph glyph-name="eng" unicode="&#x14b;" horiz-adv-x="1138" 
d="M530 776l-30 -203q41 80 90.5 153.5t105.5 137.5t117 102t115 38q93 0 131.5 -70.5t21.5 -198.5l-92 -655q-50 -346 -446 -572l-21 39q89 64 146.5 183t85.5 317l92 664q10 69 1.5 103t-38.5 34q-52 0 -153 -124t-171 -255l-65 -469l-215 -18q-8 0 -13.5 5.5t-5.5 12.5
l115 799q7 32 2.5 56.5t-16 39t-40.5 6t-71 -42.5l-26 43q98 92 215 92q81 0 131 -55t34 -162z" />
    <glyph glyph-name="Omacron" unicode="&#x14c;" horiz-adv-x="1533" 
d="M1280 1729l-14 -113h-582l14 113h582zM764 -20q-93 0 -180 24t-163.5 75t-133.5 124t-90 176.5t-33 226.5q0 165 48 306t127.5 239t184.5 167.5t218.5 102.5t228.5 33q118 0 223.5 -39.5t190 -115t134.5 -197.5t50 -275q0 -138 -33.5 -260t-91.5 -213t-136 -163.5
t-168 -118t-185.5 -69t-190.5 -23.5zM776 61q110 0 210.5 63.5t173.5 169t116 249.5t43 299q0 150 -42.5 269.5t-125.5 190t-193 70.5q-148 0 -273.5 -107.5t-197 -286.5t-71.5 -386q0 -150 42.5 -270t125 -190.5t192.5 -70.5z" />
    <glyph glyph-name="omacron" unicode="&#x14d;" horiz-adv-x="991" 
d="M983 1278l-14 -113h-582l14 113h582zM664 1004q163 0 266.5 -119t103.5 -312q0 -129 -43.5 -241.5t-115.5 -188.5t-166.5 -119.5t-196.5 -43.5q-164 0 -266.5 117t-102.5 311q0 104 28 198t77.5 166t114.5 124.5t142.5 80t158.5 27.5zM526 45q71 0 127 61t87.5 156.5
t48 197.5t16.5 197q0 128 -36.5 204.5t-117.5 76.5q-71 0 -127 -61t-88 -156.5t-48.5 -197t-16.5 -195.5q0 -129 37 -206t118 -77z" />
    <glyph glyph-name="Obreve" unicode="&#x14e;" horiz-adv-x="1533" 
d="M745 1860h52q5 -73 56.5 -123.5t135.5 -50.5q81 0 146.5 51t89.5 123h49q-18 -123 -109 -220.5t-196 -97.5q-100 0 -164 90.5t-60 227.5zM764 -20q-93 0 -180 24t-163.5 75t-133.5 124t-90 176.5t-33 226.5q0 165 48 306t127.5 239t184.5 167.5t218.5 102.5t228.5 33
q118 0 223.5 -39.5t190 -115t134.5 -197.5t50 -275q0 -138 -33.5 -260t-91.5 -213t-136 -163.5t-168 -118t-185.5 -69t-190.5 -23.5zM776 61q110 0 210.5 63.5t173.5 169t116 249.5t43 299q0 150 -42.5 269.5t-125.5 190t-193 70.5q-148 0 -273.5 -107.5t-197 -286.5
t-71.5 -386q0 -150 42.5 -270t125 -190.5t192.5 -70.5z" />
    <glyph glyph-name="obreve" unicode="&#x14f;" horiz-adv-x="991" 
d="M664 1004q163 0 266.5 -119t103.5 -312q0 -129 -43.5 -241.5t-115.5 -188.5t-166.5 -119.5t-196.5 -43.5q-164 0 -266.5 117t-102.5 311q0 104 28 198t77.5 166t114.5 124.5t142.5 80t158.5 27.5zM526 45q71 0 127 61t87.5 156.5t48 197.5t16.5 197q0 128 -36.5 204.5
t-117.5 76.5q-71 0 -127 -61t-88 -156.5t-48.5 -197t-16.5 -195.5q0 -129 37 -206t118 -77zM424 1409h51q5 -73 57 -123.5t136 -50.5q81 0 146 50.5t89 123.5h49q-18 -123 -109 -220t-196 -97q-100 0 -163.5 90t-59.5 227z" />
    <glyph glyph-name="Ohungarumlaut" unicode="&#x150;" horiz-adv-x="1533" 
d="M764 -20q-93 0 -180 24t-163.5 75t-133.5 124t-90 176.5t-33 226.5q0 165 48 306t127.5 239t184.5 167.5t218.5 102.5t228.5 33q118 0 223.5 -39.5t190 -115t134.5 -197.5t50 -275q0 -138 -33.5 -260t-91.5 -213t-136 -163.5t-168 -118t-185.5 -69t-190.5 -23.5zM776 61
q110 0 210.5 63.5t173.5 169t116 249.5t43 299q0 150 -42.5 269.5t-125.5 190t-193 70.5q-148 0 -273.5 -107.5t-197 -286.5t-71.5 -386q0 -150 42.5 -270t125 -190.5t192.5 -70.5zM1069 1894l-317 -366h-41l184 346q43 28 94.5 33t79.5 -13zM1321 1894l-317 -366h-43
l186 346q43 28 94.5 33t79.5 -13z" />
    <glyph glyph-name="ohungarumlaut" unicode="&#x151;" horiz-adv-x="991" 
d="M782 1444l-317 -367h-41l184 346q43 28 94.5 33.5t79.5 -12.5zM1034 1444l-317 -367h-43l186 346q43 28 94.5 33.5t79.5 -12.5zM664 1004q163 0 266.5 -119t103.5 -312q0 -129 -43.5 -241.5t-115.5 -188.5t-166.5 -119.5t-196.5 -43.5q-164 0 -266.5 117t-102.5 311
q0 104 28 198t77.5 166t114.5 124.5t142.5 80t158.5 27.5zM526 45q71 0 127 61t87.5 156.5t48 197.5t16.5 197q0 128 -36.5 204.5t-117.5 76.5q-71 0 -127 -61t-88 -156.5t-48.5 -197t-16.5 -195.5q0 -129 37 -206t118 -77z" />
    <glyph glyph-name="OE" unicode="&#x152;" horiz-adv-x="1996" 
d="M1272 1384l6 50h817l-35 -312h-51q-1 57 -4.5 95t-15.5 64.5t-25 40.5t-41.5 21.5t-55 9t-75.5 1.5h-291l-78 -563h265q79 0 108.5 41.5t42.5 144.5h53l-65 -459h-51q15 109 -3.5 151t-97.5 42h-264l-63 -463q-7 -50 -4 -87t33 -59t89 -22h230q111 0 168 54.5t102 209.5
h49l-65 -344h-686q-116 0 -146 61q-169 -81 -354 -81q-93 0 -180 24t-163.5 75t-133.5 124t-90 176.5t-33 226.5q0 165 48 306t127.5 239t184.5 167.5t218.5 102.5t228.5 33q158 0 301 -70zM958 1372q-148 0 -273.5 -107.5t-197 -286.5t-71.5 -386q0 -150 42.5 -270
t125 -190.5t192.5 -70.5q95 0 182.5 48.5t157.5 136.5l125 923q-44 95 -116.5 149t-166.5 54z" />
    <glyph glyph-name="oe" unicode="&#x153;" horiz-adv-x="1542" 
d="M664 1004q94 0 170 -44t124 -122q73 80 167 123t186 43q49 0 95 -11t90 -34.5t70.5 -69t26.5 -107.5q0 -92 -71 -158.5t-192.5 -80.5t-282.5 51q-23 -108 -23 -182q0 -141 60.5 -220t169.5 -78t243 87l19 -45q-142 -113 -274.5 -151t-230.5 -3t-155 131
q-70 -73 -159 -113t-185 -40q-164 0 -266.5 117t-102.5 311q0 104 28 198t77.5 166t114.5 124.5t142.5 80t158.5 27.5zM526 45q71 0 127 61t87.5 156.5t48 197.5t16.5 197q0 128 -36.5 204.5t-117.5 76.5q-71 0 -127 -61t-88 -156.5t-48.5 -197t-16.5 -195.5q0 -129 37 -206
t118 -77zM1303 938q-84 0 -146 -82.5t-98 -210.5q135 -38 236.5 15t101.5 169q0 109 -94 109z" />
    <glyph glyph-name="Racute" unicode="&#x154;" horiz-adv-x="1318" 
d="M1270 1102q0 -150 -122.5 -272t-330.5 -189q25 -120 75.5 -220t105.5 -159t113.5 -100t100 -56.5t64.5 -15.5q41 0 108 53l27 -41q-73 -69 -152.5 -104t-146.5 -35q-57 0 -116 21t-119 69.5t-108 118.5t-82 177.5t-42 238.5h-88l-49 -350q-11 -69 -3 -110t45 -57t122 -16
l-8 -55h-603l9 55q43 0 73.5 4t52.5 15t35 23.5t22 36.5t13.5 45.5t9.5 58.5l136 958q8 62 5.5 102.5t-39.5 60t-122 19.5l6 56h529q232 0 355.5 -87t123.5 -245zM666 1354l-99 -695h105q160 58 254 174.5t94 268.5q0 124 -76.5 188t-220.5 64h-57zM973 1894l-318 -366h-41
l185 346q43 28 94.5 33t79.5 -13z" />
    <glyph glyph-name="racute" unicode="&#x155;" horiz-adv-x="811" 
d="M725 1444l-317 -367h-41l184 346q43 28 94.5 33.5t79.5 -12.5zM530 776l-34 -207q54 128 121.5 231t146 162.5t143.5 38.5q22 -6 35 -23.5t14.5 -43.5t-7.5 -56.5t-34 -66t-63 -68.5q-32 34 -75 36.5t-92 -27t-102.5 -105.5t-99.5 -190l-63 -457l-215 -18q-8 0 -13.5 5.5
t-5.5 12.5l115 799q7 32 2.5 56.5t-16 39t-40.5 6t-71 -42.5l-26 43q98 92 215 92q81 0 131.5 -55t33.5 -162z" />
    <glyph glyph-name="Rcommaaccent" unicode="&#x156;" horiz-adv-x="1318" 
d="M1270 1102q0 -150 -122.5 -272t-330.5 -189q25 -120 75.5 -220t105.5 -159t113.5 -100t100 -56.5t64.5 -15.5q41 0 108 53l27 -41q-73 -69 -152.5 -104t-146.5 -35q-57 0 -116 21t-119 69.5t-108 118.5t-82 177.5t-42 238.5h-88l-49 -350q-11 -69 -3 -110t45 -57t122 -16
l-8 -55h-603l9 55q43 0 73.5 4t52.5 15t35 23.5t22 36.5t13.5 45.5t9.5 58.5l136 958q8 62 5.5 102.5t-39.5 60t-122 19.5l6 56h529q232 0 355.5 -87t123.5 -245zM666 1354l-99 -695h105q160 58 254 174.5t94 268.5q0 124 -76.5 188t-220.5 64h-57zM526 -610l-26 35
q88 73 131 190q-58 55 -101 131q57 64 136 127q58 -52 102 -127q-26 -203 -242 -356z" />
    <glyph glyph-name="rcommaaccent" unicode="&#x157;" horiz-adv-x="811" 
d="M530 776l-34 -207q54 128 121.5 231t146 162.5t143.5 38.5q22 -6 35 -23.5t14.5 -43.5t-7.5 -56.5t-34 -66t-63 -68.5q-32 34 -75 36.5t-92 -27t-102.5 -105.5t-99.5 -190l-63 -457l-215 -18q-8 0 -13.5 5.5t-5.5 12.5l115 799q7 32 2.5 56.5t-16 39t-40.5 6t-71 -42.5
l-26 43q98 92 215 92q81 0 131.5 -55t33.5 -162zM158 -610l-27 35q88 73 131 190q-56 53 -100 131q59 67 135 127q58 -52 102 -127q-26 -203 -241 -356z" />
    <glyph glyph-name="Rcaron" unicode="&#x158;" horiz-adv-x="1318" 
d="M1036 1880h51l-284 -352h-101l-180 352h49l201 -213zM1270 1102q0 -150 -122.5 -272t-330.5 -189q25 -120 75.5 -220t105.5 -159t113.5 -100t100 -56.5t64.5 -15.5q41 0 108 53l27 -41q-73 -69 -152.5 -104t-146.5 -35q-57 0 -116 21t-119 69.5t-108 118.5t-82 177.5
t-42 238.5h-88l-49 -350q-11 -69 -3 -110t45 -57t122 -16l-8 -55h-603l9 55q43 0 73.5 4t52.5 15t35 23.5t22 36.5t13.5 45.5t9.5 58.5l136 958q8 62 5.5 102.5t-39.5 60t-122 19.5l6 56h529q232 0 355.5 -87t123.5 -245zM666 1354l-99 -695h105q160 58 254 174.5t94 268.5
q0 124 -76.5 188t-220.5 64h-57z" />
    <glyph glyph-name="rcaron" unicode="&#x159;" horiz-adv-x="811" 
d="M784 1430h52l-285 -353h-100l-181 353h49l201 -213zM530 776l-34 -207q54 128 121.5 231t146 162.5t143.5 38.5q22 -6 35 -23.5t14.5 -43.5t-7.5 -56.5t-34 -66t-63 -68.5q-32 34 -75 36.5t-92 -27t-102.5 -105.5t-99.5 -190l-63 -457l-215 -18q-8 0 -13.5 5.5t-5.5 12.5
l115 799q7 32 2.5 56.5t-16 39t-40.5 6t-71 -42.5l-26 43q98 92 215 92q81 0 131.5 -55t33.5 -162z" />
    <glyph glyph-name="Sacute" unicode="&#x15a;" horiz-adv-x="1007" 
d="M1059 1380l-49 -260h-49q10 66 -3.5 117t-44.5 80.5t-70 44t-85 14.5q-104 0 -186.5 -69t-82.5 -187q0 -55 27.5 -105t71.5 -90t97 -80t106 -83t97 -90.5t71.5 -111t27.5 -136.5q0 -199 -141 -323t-381 -124q-125 0 -209 30.5t-158 86.5l49 281h52q-7 -82 8 -142.5
t41.5 -93.5t68 -53t77.5 -25.5t79 -5.5q116 0 189 85.5t73 191.5q0 61 -27.5 115t-71 96.5t-96 83.5t-105.5 83.5t-96.5 89t-71 108t-27.5 132.5q0 109 43.5 191.5t117.5 129.5t160.5 70t183.5 23q186 0 314 -74zM932 1894l-318 -366h-41l185 346q43 28 94.5 33t79.5 -13z
" />
    <glyph glyph-name="sacute" unicode="&#x15b;" horiz-adv-x="811" 
d="M793 1444l-318 -367h-41l184 346q43 28 95 33.5t80 -12.5zM389 -20q-45 0 -90.5 11.5t-88.5 34.5t-70 66.5t-27 100.5q0 23 35 46.5t78 30.5t79 -8q-27 -48 -29 -97t28.5 -84.5t92.5 -35.5q82 0 131.5 50.5t49.5 123.5q0 47 -26.5 91.5t-66 78t-86 72.5t-86 75t-66 85.5
t-26.5 103.5q0 93 56 158t137 93t176 28q44 0 86.5 -11.5t80.5 -34.5t61.5 -62t23.5 -89q0 -22 -32.5 -44t-71.5 -28.5t-72 6.5q25 45 26.5 90.5t-23 76t-71.5 30.5q-57 0 -103 -44.5t-46 -107.5q0 -45 37.5 -90.5t91 -87.5t107 -87.5t91 -108t37.5 -131.5q0 -79 -40 -140
t-105 -94.5t-136 -50t-143 -16.5z" />
    <glyph glyph-name="Scircumflex" unicode="&#x15c;" horiz-adv-x="1007" 
d="M1059 1380l-49 -260h-49q10 66 -3.5 117t-44.5 80.5t-70 44t-85 14.5q-104 0 -186.5 -69t-82.5 -187q0 -55 27.5 -105t71.5 -90t97 -80t106 -83t97 -90.5t71.5 -111t27.5 -136.5q0 -199 -141 -323t-381 -124q-125 0 -209 30.5t-158 86.5l49 281h52q-7 -82 8 -142.5
t41.5 -93.5t68 -53t77.5 -25.5t79 -5.5q116 0 189 85.5t73 191.5q0 61 -27.5 115t-71 96.5t-96 83.5t-105.5 83.5t-96.5 89t-71 108t-27.5 132.5q0 109 43.5 191.5t117.5 129.5t160.5 70t183.5 23q186 0 314 -74zM975 1528h-51l-203 213l-264 -213h-47l280 352h101z" />
    <glyph glyph-name="scircumflex" unicode="&#x15d;" horiz-adv-x="811" 
d="M860 1077h-51l-203 213l-264 -213h-47l280 353h101zM389 -20q-45 0 -90.5 11.5t-88.5 34.5t-70 66.5t-27 100.5q0 23 35 46.5t78 30.5t79 -8q-27 -48 -29 -97t28.5 -84.5t92.5 -35.5q82 0 131.5 50.5t49.5 123.5q0 47 -26.5 91.5t-66 78t-86 72.5t-86 75t-66 85.5
t-26.5 103.5q0 93 56 158t137 93t176 28q44 0 86.5 -11.5t80.5 -34.5t61.5 -62t23.5 -89q0 -22 -32.5 -44t-71.5 -28.5t-72 6.5q25 45 26.5 90.5t-23 76t-71.5 30.5q-57 0 -103 -44.5t-46 -107.5q0 -45 37.5 -90.5t91 -87.5t107 -87.5t91 -108t37.5 -131.5q0 -79 -40 -140
t-105 -94.5t-136 -50t-143 -16.5z" />
    <glyph glyph-name="Scedilla" unicode="&#x15e;" horiz-adv-x="1007" 
d="M1059 1380l-49 -260h-49q10 66 -3.5 117t-44.5 80.5t-70 44t-85 14.5q-104 0 -186.5 -69t-82.5 -187q0 -55 27.5 -105t71.5 -90t97 -80t106 -83t97 -90.5t71.5 -111t27.5 -136.5q0 -191 -129.5 -313t-351.5 -134l-8 -47q-3 -22 13.5 -36t42.5 -22t53 -18t46 -32.5
t19 -57.5q0 -56 -55.5 -103.5t-133 -70.5t-147.5 -18v53q211 0 211 117q0 29 -13.5 45.5t-32 23.5t-35.5 15t-25 27t-1 53l13 71q-120 1 -201 31.5t-154 85.5l49 281h52q-7 -82 8 -142.5t41.5 -93.5t68 -53t77.5 -25.5t79 -5.5q116 0 189 85.5t73 191.5q0 61 -27.5 115
t-71 96.5t-96 83.5t-105.5 83.5t-96.5 89t-71 108t-27.5 132.5q0 109 43.5 191.5t117.5 129.5t160.5 70t183.5 23q186 0 314 -74z" />
    <glyph glyph-name="scedilla" unicode="&#x15f;" horiz-adv-x="811" 
d="M113 193q0 23 35 46.5t78 30.5t79 -8q-27 -48 -29 -97t28.5 -84.5t92.5 -35.5q82 0 131.5 50.5t49.5 123.5q0 47 -26.5 91.5t-66 78t-86 72.5t-86 75t-66 85.5t-26.5 103.5q0 93 56 158t137 93t176 28q44 0 86.5 -11.5t80.5 -34.5t61.5 -62t23.5 -89q0 -22 -32.5 -44
t-71.5 -28.5t-72 6.5q25 45 26.5 90.5t-23 76t-71.5 30.5q-57 0 -103 -44.5t-46 -107.5q0 -45 37.5 -90.5t91 -87.5t107 -87.5t91 -108t37.5 -131.5q0 -75 -35.5 -133t-94 -92t-123.5 -52t-136 -22l-8 -52q-3 -22 14 -36t43.5 -22t53.5 -18t46 -32.5t19 -57.5
q0 -56 -56 -103.5t-133.5 -70.5t-146.5 -18l-2 53q213 0 213 117q0 29 -13.5 45.5t-32 23.5t-35.5 15t-25 27t-1 53l13 74q-35 2 -69 9.5t-69.5 24t-61.5 39.5t-43 59.5t-17 80.5z" />
    <glyph glyph-name="Scaron" unicode="&#x160;" horiz-adv-x="1007" 
d="M1059 1380l-49 -260h-49q10 66 -3.5 117t-44.5 80.5t-70 44t-85 14.5q-104 0 -186.5 -69t-82.5 -187q0 -55 27.5 -105t71.5 -90t97 -80t106 -83t97 -90.5t71.5 -111t27.5 -136.5q0 -199 -141 -323t-381 -124q-125 0 -209 30.5t-158 86.5l49 281h52q-7 -82 8 -142.5
t41.5 -93.5t68 -53t77.5 -25.5t79 -5.5q116 0 189 85.5t73 191.5q0 61 -27.5 115t-71 96.5t-96 83.5t-105.5 83.5t-96.5 89t-71 108t-27.5 132.5q0 109 43.5 191.5t117.5 129.5t160.5 70t183.5 23q186 0 314 -74zM958 1880h52l-285 -352h-100l-181 352h50l200 -213z" />
    <glyph glyph-name="scaron" unicode="&#x161;" horiz-adv-x="811" 
d="M846 1430h51l-285 -353h-100l-180 353h49l201 -213zM389 -20q-45 0 -90.5 11.5t-88.5 34.5t-70 66.5t-27 100.5q0 23 35 46.5t78 30.5t79 -8q-27 -48 -29 -97t28.5 -84.5t92.5 -35.5q82 0 131.5 50.5t49.5 123.5q0 47 -26.5 91.5t-66 78t-86 72.5t-86 75t-66 85.5
t-26.5 103.5q0 93 56 158t137 93t176 28q44 0 86.5 -11.5t80.5 -34.5t61.5 -62t23.5 -89q0 -22 -32.5 -44t-71.5 -28.5t-72 6.5q25 45 26.5 90.5t-23 76t-71.5 30.5q-57 0 -103 -44.5t-46 -107.5q0 -45 37.5 -90.5t91 -87.5t107 -87.5t91 -108t37.5 -131.5q0 -79 -40 -140
t-105 -94.5t-136 -50t-143 -16.5z" />
    <glyph glyph-name="Tcommaaccent" unicode="&#x162;" horiz-adv-x="1314" 
d="M248 1434h1210l-33 -312h-51q0 57 -3.5 95t-16 64.5t-25.5 40.5t-42 21.5t-55 9t-75 1.5h-196l-158 -1116q-10 -65 -3 -105.5t51.5 -59t143.5 -18.5l-8 -55h-670l9 55q75 0 120 9t70.5 34.5t35 55t17.5 84.5l156 1116h-195q-49 0 -76 -1.5t-58.5 -9t-48.5 -21.5
t-37 -40.5t-34.5 -64.5t-31.5 -95h-49zM496 -610l-27 35q88 73 131 190q-56 53 -100 131q59 67 135 127q58 -52 102 -127q-26 -203 -241 -356z" />
    <glyph glyph-name="tcommaaccent" unicode="&#x163;" horiz-adv-x="655" 
d="M569 1231l-37 -248h236l-10 -78h-236l-80 -581q-14 -102 -1 -160t46.5 -76t78.5 -3t96 58l26 -41q-55 -52 -138 -87t-153 -35q-81 0 -128.5 46.5t-60 113.5t-1.5 151l84 614h-115l8 68q73 0 131 20t100 59t70 80t56 99h28zM217 -610l-27 35q90 75 132 190
q-58 55 -101 131q59 67 135 127q60 -54 103 -127q-26 -203 -242 -356z" />
    <glyph glyph-name="Tcaron" unicode="&#x164;" horiz-adv-x="1314" 
d="M1147 1880h51l-285 -352h-100l-180 352h49l201 -213zM248 1434h1210l-33 -312h-51q0 57 -3.5 95t-16 64.5t-25.5 40.5t-42 21.5t-55 9t-75 1.5h-196l-158 -1116q-10 -65 -3 -105.5t51.5 -59t143.5 -18.5l-8 -55h-670l9 55q75 0 120 9t70.5 34.5t35 55t17.5 84.5l156 1116
h-195q-49 0 -76 -1.5t-58.5 -9t-48.5 -21.5t-37 -40.5t-34.5 -64.5t-31.5 -95h-49z" />
    <glyph glyph-name="tcaron" unicode="&#x165;" horiz-adv-x="655" 
d="M799 1028h-97l21 438h178zM569 1231l-37 -248h236l-10 -78h-236l-80 -581q-14 -102 -1 -160t46.5 -76t78.5 -3t96 58l26 -41q-55 -52 -138 -87t-153 -35q-81 0 -128.5 46.5t-60 113.5t-1.5 151l84 614h-115l8 68q73 0 131 20t100 59t70 80t56 99h28z" />
    <glyph glyph-name="Tbar" unicode="&#x166;" horiz-adv-x="1314" 
d="M414 678l10 78h217l84 598h-195q-49 0 -76 -1.5t-58.5 -9t-48.5 -21.5t-37 -40.5t-34.5 -64.5t-31.5 -95h-49l53 312h1210l-33 -312h-51q0 57 -3.5 95t-16 64.5t-25.5 40.5t-42 21.5t-55 9t-75 1.5h-196l-87 -598h218l-11 -78h-217l-61 -440q-10 -65 -3 -105.5t51.5 -59
t143.5 -18.5l-8 -55h-670l9 55q75 0 120 9t70.5 34.5t35 55t17.5 84.5l62 440h-217z" />
    <glyph glyph-name="tbar" unicode="&#x167;" horiz-adv-x="655" 
d="M569 1231l-37 -248h236l-10 -78h-236l-41 -291h131l-10 -77h-131l-29 -213q-14 -102 -1 -160t46.5 -76t78.5 -3t96 58l26 -41q-55 -52 -138 -87t-153 -35q-81 0 -128.5 46.5t-60 113.5t-1.5 151l33 246h-115l8 77h117l41 291h-115l8 68q73 0 131 20t100 59t70 80t56 99
h28z" />
    <glyph glyph-name="Utilde" unicode="&#x168;" horiz-adv-x="1466" 
d="M756 1591l-29 31q109 162 203 162q53 0 143 -33t137 -33q58 0 111 68l29 -31q-109 -162 -203 -162q-52 0 -143 33t-138 33q-55 0 -110 -68zM1436 1196l-93 -655q-81 -559 -583 -561q-102 0 -182 21t-132 59t-88.5 91.5t-50.5 117t-17.5 136t9.5 148.5l92 643
q9 64 4.5 104.5t-42 59t-122.5 18.5l7 56h596l-9 -56q-42 0 -72.5 -4t-51.5 -15t-33.5 -23t-21 -36t-12.5 -45t-9 -59l-84 -586q-76 -536 274 -536q170 0 287.5 116t150.5 345l95 661q9 64 2 104.5t-48.5 59t-132.5 18.5l9 56h462l-8 -56q-59 0 -95 -9t-56.5 -33.5
t-29 -54.5t-15.5 -85z" />
    <glyph glyph-name="utilde" unicode="&#x169;" horiz-adv-x="1122" 
d="M530 776l-71 -504q-10 -69 -1.5 -103t38.5 -34q51 0 147 122t168 257l66 469l215 18q8 0 13 -5.5t5 -12.5l-115 -797q-10 -74 32 -91.5t130 48.5l27 -41q-56 -60 -124.5 -91t-129.5 -31q-81 0 -130.5 53.5t-33.5 163.5l33 213q-58 -111 -123 -203t-146.5 -159.5
t-152.5 -67.5q-93 0 -132 70.5t-20 197.5l76 551q7 32 2.5 56.5t-16 39t-40.5 6t-71 -42.5l-26 43q98 92 215 92q80 0 129.5 -54.5t35.5 -162.5zM471 1141l-29 30q109 162 203 162q53 0 143.5 -32.5t137.5 -32.5q58 0 110 67l29 -30q-109 -162 -203 -162q-52 0 -142.5 32.5
t-137.5 32.5q-57 0 -111 -67z" />
    <glyph glyph-name="Umacron" unicode="&#x16a;" horiz-adv-x="1466" 
d="M1327 1729l-14 -113h-582l14 113h582zM1436 1196l-93 -655q-81 -559 -583 -561q-102 0 -182 21t-132 59t-88.5 91.5t-50.5 117t-17.5 136t9.5 148.5l92 643q9 64 4.5 104.5t-42 59t-122.5 18.5l7 56h596l-9 -56q-42 0 -72.5 -4t-51.5 -15t-33.5 -23t-21 -36t-12.5 -45
t-9 -59l-84 -586q-76 -536 274 -536q170 0 287.5 116t150.5 345l95 661q9 64 2 104.5t-48.5 59t-132.5 18.5l9 56h462l-8 -56q-59 0 -95 -9t-56.5 -33.5t-29 -54.5t-15.5 -85z" />
    <glyph glyph-name="umacron" unicode="&#x16b;" horiz-adv-x="1122" 
d="M530 776l-71 -504q-10 -69 -1.5 -103t38.5 -34q51 0 147 122t168 257l66 469l215 18q8 0 13 -5.5t5 -12.5l-115 -797q-10 -74 32 -91.5t130 48.5l27 -41q-56 -60 -124.5 -91t-129.5 -31q-81 0 -130.5 53.5t-33.5 163.5l33 213q-58 -111 -123 -203t-146.5 -159.5
t-152.5 -67.5q-93 0 -132 70.5t-20 197.5l76 551q7 32 2.5 56.5t-16 39t-40.5 6t-71 -42.5l-26 43q98 92 215 92q80 0 129.5 -54.5t35.5 -162.5zM1032 1278l-14 -113h-582l15 113h581z" />
    <glyph glyph-name="Ubreve" unicode="&#x16c;" horiz-adv-x="1466" 
d="M774 1860h51q5 -73 57 -123.5t136 -50.5q81 0 146 50.5t89 123.5h50q-18 -123 -109.5 -220.5t-196.5 -97.5q-100 0 -163.5 90t-59.5 228zM1436 1196l-93 -655q-81 -559 -583 -561q-102 0 -182 21t-132 59t-88.5 91.5t-50.5 117t-17.5 136t9.5 148.5l92 643
q9 64 4.5 104.5t-42 59t-122.5 18.5l7 56h596l-9 -56q-42 0 -72.5 -4t-51.5 -15t-33.5 -23t-21 -36t-12.5 -45t-9 -59l-84 -586q-76 -536 274 -536q170 0 287.5 116t150.5 345l95 661q9 64 2 104.5t-48.5 59t-132.5 18.5l9 56h462l-8 -56q-59 0 -95 -9t-56.5 -33.5
t-29 -54.5t-15.5 -85z" />
    <glyph glyph-name="ubreve" unicode="&#x16d;" horiz-adv-x="1122" 
d="M530 776l-71 -504q-10 -69 -1.5 -103t38.5 -34q51 0 147 122t168 257l66 469l215 18q8 0 13 -5.5t5 -12.5l-115 -797q-10 -74 32 -91.5t130 48.5l27 -41q-56 -60 -124.5 -91t-129.5 -31q-81 0 -130.5 53.5t-33.5 163.5l33 213q-58 -111 -123 -203t-146.5 -159.5
t-152.5 -67.5q-93 0 -132 70.5t-20 197.5l76 551q7 32 2.5 56.5t-16 39t-40.5 6t-71 -42.5l-26 43q98 92 215 92q80 0 129.5 -54.5t35.5 -162.5zM481 1409h51q5 -73 57 -123.5t136 -50.5q81 0 146.5 51t89.5 123h49q-18 -123 -109 -220t-196 -97q-100 0 -164 90t-60 227z
" />
    <glyph glyph-name="Uring" unicode="&#x16e;" horiz-adv-x="1466" 
d="M1436 1196l-93 -655q-81 -559 -583 -561q-102 0 -182 21t-132 59t-88.5 91.5t-50.5 117t-17.5 136t9.5 148.5l92 643q9 64 4.5 104.5t-42 59t-122.5 18.5l7 56h596l-9 -56q-42 0 -72.5 -4t-51.5 -15t-33.5 -23t-21 -36t-12.5 -45t-9 -59l-84 -586q-76 -536 274 -536
q170 0 287.5 116t150.5 345l95 661q9 64 2 104.5t-48.5 59t-132.5 18.5l9 56h462l-8 -56q-59 0 -95 -9t-56.5 -33.5t-29 -54.5t-15.5 -85zM834 1686q0 99 69 172t160 73q73 0 121.5 -54.5t48.5 -133.5q0 -100 -70 -173t-162 -73q-73 0 -120 54.5t-47 134.5zM918 1698
q0 -46 27 -77.5t69 -31.5q52 0 92.5 42t40.5 98q0 46 -28 78t-70 32q-53 0 -92 -42t-39 -99z" />
    <glyph glyph-name="uring" unicode="&#x16f;" horiz-adv-x="1122" 
d="M567 1313q0 99 69.5 172.5t160.5 73.5q73 0 121.5 -55t48.5 -134q0 -100 -70 -173t-162 -73q-74 0 -121 54t-47 135zM651 1325q0 -46 27.5 -77t69.5 -31q52 0 92.5 41.5t40.5 97.5q0 46 -28.5 78t-70.5 32q-53 0 -92 -42t-39 -99zM530 776l-71 -504q-10 -69 -1.5 -103
t38.5 -34q51 0 147 122t168 257l66 469l215 18q8 0 13 -5.5t5 -12.5l-115 -797q-10 -74 32 -91.5t130 48.5l27 -41q-56 -60 -124.5 -91t-129.5 -31q-81 0 -130.5 53.5t-33.5 163.5l33 213q-58 -111 -123 -203t-146.5 -159.5t-152.5 -67.5q-93 0 -132 70.5t-20 197.5l76 551
q7 32 2.5 56.5t-16 39t-40.5 6t-71 -42.5l-26 43q98 92 215 92q80 0 129.5 -54.5t35.5 -162.5z" />
    <glyph glyph-name="Uhungarumlaut" unicode="&#x170;" horiz-adv-x="1466" 
d="M1436 1196l-93 -655q-81 -559 -583 -561q-102 0 -182 21t-132 59t-88.5 91.5t-50.5 117t-17.5 136t9.5 148.5l92 643q9 64 4.5 104.5t-42 59t-122.5 18.5l7 56h596l-9 -56q-42 0 -72.5 -4t-51.5 -15t-33.5 -23t-21 -36t-12.5 -45t-9 -59l-84 -586q-76 -536 274 -536
q170 0 287.5 116t150.5 345l95 661q9 64 2 104.5t-48.5 59t-132.5 18.5l9 56h462l-8 -56q-59 0 -95 -9t-56.5 -33.5t-29 -54.5t-15.5 -85zM1143 1894l-318 -366h-41l185 346q43 28 94.5 33t79.5 -13zM1395 1894l-318 -366h-43l187 346q43 28 94.5 33t79.5 -13z" />
    <glyph glyph-name="uhungarumlaut" unicode="&#x171;" horiz-adv-x="1122" 
d="M530 776l-71 -504q-10 -69 -1.5 -103t38.5 -34q51 0 147 122t168 257l66 469l215 18q8 0 13 -5.5t5 -12.5l-115 -797q-10 -74 32 -91.5t130 48.5l27 -41q-56 -60 -124.5 -91t-129.5 -31q-81 0 -130.5 53.5t-33.5 163.5l33 213q-58 -111 -123 -203t-146.5 -159.5
t-152.5 -67.5q-93 0 -132 70.5t-20 197.5l76 551q7 32 2.5 56.5t-16 39t-40.5 6t-71 -42.5l-26 43q98 92 215 92q80 0 129.5 -54.5t35.5 -162.5zM858 1444l-317 -367h-41l184 346q43 28 94.5 33.5t79.5 -12.5zM1110 1444l-317 -367h-43l186 346q43 28 94.5 33.5t79.5 -12.5z
" />
    <glyph glyph-name="Uogonek" unicode="&#x172;" horiz-adv-x="1466" 
d="M1436 1196l-93 -655q-71 -472 -434 -545q-153 -138 -163 -244q-6 -70 55 -93q66 -25 166 24l-11 -66q-109 -86 -196 -86q-67 0 -107.5 43.5t-40.5 110.5q0 163 201 297q-8 0 -26 -1t-27 -1q-102 0 -182 21t-132 59t-88.5 91.5t-50.5 117t-17.5 136t9.5 148.5l92 643
q9 64 4.5 104.5t-42 59t-122.5 18.5l7 56h596l-9 -56q-42 0 -72.5 -4t-51.5 -15t-33.5 -23t-21 -36t-12.5 -45t-9 -59l-84 -586q-76 -536 274 -536q170 0 287.5 116t150.5 345l95 661q9 64 2 104.5t-48.5 59t-132.5 18.5l9 56h462l-8 -56q-59 0 -95 -9t-56.5 -33.5
t-29 -54.5t-15.5 -85z" />
    <glyph glyph-name="uogonek" unicode="&#x173;" horiz-adv-x="1122" 
d="M530 776l-71 -504q-10 -69 -1.5 -103t38.5 -34q51 0 147 122t168 257l66 469l215 18q8 0 13 -5.5t5 -12.5l-115 -797q-10 -74 32 -91.5t130 48.5l27 -41q-74 -80 -164 -106q-153 -138 -163 -244q-7 -70 53 -93q66 -25 167 24l-10 -66q-109 -86 -197 -86
q-66 0 -106.5 43.5t-40.5 110.5q0 161 199 295q-79 3 -125.5 56.5t-30.5 160.5l33 213q-58 -111 -123 -203t-146.5 -159.5t-152.5 -67.5q-93 0 -132 70.5t-20 197.5l76 551q7 32 2.5 56.5t-16 39t-40.5 6t-71 -42.5l-26 43q98 92 215 92q80 0 129.5 -54.5t35.5 -162.5z" />
    <glyph glyph-name="Wcircumflex" unicode="&#x174;" horiz-adv-x="2058" 
d="M1333 1198l162 -868l408 872q21 46 28.5 74.5t0.5 53.5t-40 36.5t-94 11.5l6 56h443l-6 -56q-44 0 -78.5 -10t-56 -23t-43 -41.5t-32.5 -48.5t-32 -61l-580 -1204h-90l-184 862l-414 -862h-90l-254 1202q-6 28 -9 40.5t-10 35t-13 32.5t-16 26t-22 23t-29 15t-38.5 11
t-48.5 3l6 56h543l-7 -56q-60 0 -86.5 -25.5t-23.5 -65.5t12 -89l160 -868l311 661l-41 201q-12 51 -20.5 77.5t-28 55.5t-51.5 41t-82 12l6 56h567l-6 -56q-46 0 -75.5 -10.5t-43.5 -24.5t-17.5 -40.5t-0.5 -48t10 -56.5zM1546 1528h-51l-203 213l-264 -213h-47l281 352
h100z" />
    <glyph glyph-name="wcircumflex" unicode="&#x175;" horiz-adv-x="1464" 
d="M975 983l160 -803q65 105 108 182t84 181t41 172q0 64 -24.5 105t-63.5 54q29 78 67.5 119t79.5 41q45 0 67 -40t22 -91q0 -138 -132.5 -406t-298.5 -497l-110 -18q-8 0 -13.5 5.5t-5.5 12.5l-127 565q-7 -17 -44 -108.5t-53 -128t-48.5 -107t-63 -122.5t-63.5 -99
l-111 -18q-8 0 -13 5t-5 13l-164 819q-4 22 -7.5 35t-14 29t-24.5 18.5t-39 -7t-58 -36.5l-29 43q100 92 223 92q78 0 125.5 -42.5t61.5 -143.5l98 -625q79 148 168.5 388.5t128.5 398.5zM1206 1077h-51l-203 213l-264 -213h-47l281 353h100z" />
    <glyph glyph-name="Ycircumflex" unicode="&#x176;" horiz-adv-x="1325" 
d="M643 1210l180 -512l342 521q18 27 28 48.5t12.5 43t-8.5 35.5t-40 23t-76 9l6 56h437l-6 -56q-92 0 -147.5 -40.5t-121.5 -139.5l-391 -596l-49 -364q-12 -69 -0.5 -109.5t54.5 -57t136 -16.5l-8 -55h-667l8 55q93 0 142 18t69.5 54.5t31.5 110.5l50 360l-240 614
q-37 94 -74.5 130t-120.5 36l7 56h577l-8 -56q-100 0 -127.5 -40t4.5 -128zM1165 1528h-51l-203 213l-264 -213h-47l281 352h100z" />
    <glyph glyph-name="ycircumflex" unicode="&#x177;" horiz-adv-x="950" 
d="M492 -61l-222 880q-4 17 -6.5 25t-8.5 22.5t-12 20.5t-17.5 11.5t-24.5 2t-32 -13.5t-42 -29l-29 43q51 47 110.5 69.5t113.5 22.5q77 0 121.5 -42t64.5 -144l129 -645q86 140 151.5 296t65.5 257q0 64 -24.5 105t-63.5 54q29 78 67.5 119t79.5 41q45 0 66.5 -40
t21.5 -91q0 -64 -43.5 -194t-114 -285t-165.5 -319t-192.5 -297.5t-201 -219.5t-184.5 -86q-24 0 -41.5 14.5t-24.5 40.5t-4 58.5t21.5 72.5t50.5 79q25 -15 50 -25.5t68 -13t84 13.5t92 65.5t96 131.5zM948 1077h-51l-203 213l-264 -213h-47l281 353h100z" />
    <glyph glyph-name="Ydieresis" unicode="&#x178;" horiz-adv-x="1325" 
d="M643 1210l180 -512l342 521q18 27 28 48.5t12.5 43t-8.5 35.5t-40 23t-76 9l6 56h437l-6 -56q-92 0 -147.5 -40.5t-121.5 -139.5l-391 -596l-49 -364q-12 -69 -0.5 -109.5t54.5 -57t136 -16.5l-8 -55h-667l8 55q93 0 142 18t69.5 54.5t31.5 110.5l50 360l-240 614
q-37 94 -74.5 130t-120.5 36l7 56h577l-8 -56q-100 0 -127.5 -40t4.5 -128zM719 1593q-48 39 -92 121q62 75 127 119q47 -45 92 -119q-52 -66 -127 -121zM1075 1593q-52 42 -94 121q66 76 127 119q49 -43 94 -119q-52 -66 -127 -121z" />
    <glyph glyph-name="Zacute" unicode="&#x179;" horiz-adv-x="1255" 
d="M1329 1434l43 -56l-995 -1276h510q75 0 124 12t86 44.5t61 80t50 128.5h52l-72 -367h-1086l-41 55l998 1276h-529q-33 0 -60 -3.5t-48.5 -12.5t-37 -17.5t-29.5 -27.5t-22.5 -32.5t-18.5 -41.5t-15.5 -45.5t-15.5 -54.5h-52l62 338h1036zM1034 1894l-317 -366h-41
l184 346q43 28 94.5 33t79.5 -13z" />
    <glyph glyph-name="zacute" unicode="&#x17a;" horiz-adv-x="835" 
d="M788 1444l-317 -367h-41l184 346q43 28 94.5 33.5t79.5 -12.5zM887 983l20 -35l-596 -735q71 5 143.5 -15.5t134.5 -43.5t101 -23q79 0 150 49l26 -41q-151 -164 -329 -164q-47 0 -134.5 13.5t-148.5 19t-170 -7.5l-21 37l599 747h-256q-76 0 -106 -21.5t-48 -94.5h-49
l57 295q2 8 9 14t16 6h602z" />
    <glyph glyph-name="Zdotaccent" unicode="&#x17b;" horiz-adv-x="1255" 
d="M815 1593q-48 39 -92 121q62 75 127 119q47 -45 92 -119q-52 -66 -127 -121zM1329 1434l43 -56l-995 -1276h510q75 0 124 12t86 44.5t61 80t50 128.5h52l-72 -367h-1086l-41 55l998 1276h-529q-33 0 -60 -3.5t-48.5 -12.5t-37 -17.5t-29.5 -27.5t-22.5 -32.5t-18.5 -41.5
t-15.5 -45.5t-15.5 -54.5h-52l62 338h1036z" />
    <glyph glyph-name="zdotaccent" unicode="&#x17c;" horiz-adv-x="835" 
d="M887 983l20 -35l-596 -735q71 5 143.5 -15.5t134.5 -43.5t101 -23q79 0 150 49l26 -41q-151 -164 -329 -164q-47 0 -134.5 13.5t-148.5 19t-170 -7.5l-21 37l599 747h-256q-76 0 -106 -21.5t-48 -94.5h-49l57 295q2 8 9 14t16 6h602zM575 1143q-48 39 -92 121
q60 73 127 118q49 -46 92 -118q-52 -66 -127 -121z" />
    <glyph glyph-name="Zcaron" unicode="&#x17d;" horiz-adv-x="1255" 
d="M1083 1880h52l-285 -352h-100l-181 352h49l201 -213zM1329 1434l43 -56l-995 -1276h510q75 0 124 12t86 44.5t61 80t50 128.5h52l-72 -367h-1086l-41 55l998 1276h-529q-33 0 -60 -3.5t-48.5 -12.5t-37 -17.5t-29.5 -27.5t-22.5 -32.5t-18.5 -41.5t-15.5 -45.5
t-15.5 -54.5h-52l62 338h1036z" />
    <glyph glyph-name="zcaron" unicode="&#x17e;" horiz-adv-x="835" 
d="M854 1430h51l-284 -353h-101l-180 353h49l201 -213zM887 983l20 -35l-596 -735q71 5 143.5 -15.5t134.5 -43.5t101 -23q79 0 150 49l26 -41q-151 -164 -329 -164q-47 0 -134.5 13.5t-148.5 19t-170 -7.5l-21 37l599 747h-256q-76 0 -106 -21.5t-48 -94.5h-49l57 295
q2 8 9 14t16 6h602z" />
    <glyph glyph-name="longs" unicode="&#x17f;" horiz-adv-x="595" 
d="M571 983l-106 -762q-13 -68 -4 -106t45.5 -51t126.5 -13l-8 -51h-570l6 51q52 0 81.5 6t48.5 27.5t27 50.5t15 86l113 789q16 112 93.5 223.5t184.5 181.5t203 70q45 0 61 -27.5t-1 -78t-66 -113.5q-34 52 -63 80t-64 28q-17 0 -31.5 -7.5t-25.5 -24.5t-19.5 -36t-15 -50
t-11 -57t-8.5 -67.5t-6.5 -71t-5.5 -77.5z" />
    <glyph glyph-name="florin" unicode="&#x192;" horiz-adv-x="851" 
d="M401 850h-131l23 78h133l23 71q33 112 124.5 218.5t205.5 171.5t212 65q62 0 60 -50q-3 -64 -101 -169q-24 51 -49.5 79.5t-60.5 28.5q-23 0 -43.5 -15.5t-38 -47t-32 -66t-29.5 -87t-25.5 -95t-24.5 -104.5h219l-22 -78h-221l-226 -756q-34 -113 -126.5 -224t-208 -181
t-212.5 -70q-62 0 -60 51q3 64 99 168q27 -52 51.5 -80t57.5 -28q23 0 43.5 15t38 46.5t32 65.5t29 87t25 95t24.5 104z" />
    <glyph glyph-name="Aringacute" unicode="&#x1fa;" horiz-adv-x="1353" 
d="M958 236l-30 155h-498l-78 -158q-47 -89 -22.5 -133.5t139.5 -44.5l-8 -55h-451l8 55q96 0 141 37.5t101 149.5l608 1212h76l264 -1212q13 -60 23 -89.5t31 -55t52.5 -34t84.5 -8.5l-8 -55h-578l8 55q107 0 131.5 38.5t5.5 142.5zM784 1114l-317 -645h446zM1227 2124
l-250 -238h-37l129 217q38 27 85 32t73 -11zM776 1647q0 75 52.5 129.5t121.5 54.5q55 0 90 -41t35 -100q0 -74 -52 -129.5t-120 -55.5q-56 0 -91.5 40.5t-35.5 101.5zM846 1657q0 -33 18.5 -54.5t50.5 -21.5q35 0 63 29t28 69q0 31 -19.5 52.5t-48.5 21.5q-37 0 -64.5 -29
t-27.5 -67z" />
    <glyph glyph-name="aringacute" unicode="&#x1fb;" horiz-adv-x="1058" 
d="M1040 956l-108 -770q-10 -74 32 -91.5t130 48.5l26 -41q-57 -60 -125 -91t-129 -31q-80 0 -126.5 53t-30.5 164l26 172q-206 -389 -377 -389q-92 0 -153.5 97t-61.5 242q0 97 18.5 189t65 183.5t116.5 159.5t182 110.5t253 42.5q109 0 244 -27q8 -2 13.5 -8t4.5 -13z
M754 516l61 420q-130 33 -231.5 -36.5t-156 -218t-54.5 -347.5q0 -89 27 -146t65 -57q53 0 138 116.5t151 268.5zM997 1683l-249 -237h-37l129 217q38 27 84.5 31.5t72.5 -11.5zM547 1206q0 75 52.5 130t121.5 55q55 0 90 -41t35 -101q0 -74 -52 -129t-120 -55
q-56 0 -91.5 40t-35.5 101zM616 1217q0 -33 19 -54.5t51 -21.5q35 0 62.5 29t27.5 69q0 31 -19 52.5t-48 21.5q-37 0 -65 -29t-28 -67z" />
    <glyph glyph-name="AEacute" unicode="&#x1fc;" horiz-adv-x="1783" 
d="M1477 1894l-318 -366h-41l185 346q43 28 94.5 33t79.5 -13zM1737 0h-688q-39 0 -67.5 8t-46.5 18t-28.5 31t-15 36.5t-3.5 46.5t2.5 47t6.5 51l23 153h-445l-94 -158q-22 -36 -34.5 -60.5t-17 -48t4.5 -37.5t33.5 -22t66.5 -8l-8 -57h-416l8 57q66 0 112.5 21.5t78.5 57
t76 106.5l739 1192h856l-33 -312h-51q-1 57 -4.5 95t-16 64.5t-25.5 40.5t-42 21.5t-55.5 9t-75.5 1.5h-289l-80 -563h265q80 0 110 41.5t43 144.5h51l-63 -459h-51q15 109 -4 151t-99 42h-262l-65 -463q-6 -50 -3 -87t33 -59t90 -22h230q112 0 168 54.5t100 209.5h51z
M524 469h406l119 858z" />
    <glyph glyph-name="aeacute" unicode="&#x1fd;" horiz-adv-x="1386" 
d="M1143 1444l-318 -367h-41l185 346q43 28 94.5 33.5t79.5 -12.5zM672 178q-74 -86 -166.5 -142t-183.5 -56q-92 0 -147.5 61t-55.5 166q0 51 22 90.5t68 65t88 42.5t112 27.5t107 14.5t106 9q9 1 13 1q1 25 45 305q24 178 -84 178q-64 0 -106 -42t-54.5 -93.5t-1.5 -93.5
q-93 -59 -156.5 -65t-66.5 52q0 77 70 149t174.5 114.5t206.5 42.5q174 0 221 -95q130 95 274 95q48 0 94 -11t90.5 -34.5t71.5 -69t27 -107.5q0 -92 -71.5 -158.5t-193.5 -80.5t-284 51q-21 -99 -21 -182q0 -141 60 -220t169 -78t244 87l19 -45q-94 -75 -185 -118
t-168.5 -52t-143.5 9.5t-115 65t-78 117.5zM422 80q46 0 113 41t120 104q-22 77 -22 170q-54 -3 -89.5 -7.5t-74 -15.5t-61.5 -27.5t-39 -44.5t-19 -67q-4 -153 72 -153zM1147 938q-83 0 -145.5 -83t-98.5 -210q136 -37 238 15.5t102 168.5q0 109 -96 109z" />
    <glyph glyph-name="Oslashacute" unicode="&#x1fe;" horiz-adv-x="1558" 
d="M238 -49l-48 49l144 160q-156 169 -156 446q0 165 48 306t127.5 239t184.5 167.5t218.5 102.5t228.5 33q224 0 389 -133l150 162l47 -49l-146 -162q158 -168 158 -445q0 -138 -33.5 -260t-91.5 -213t-136 -163.5t-168 -118t-185.5 -69t-190.5 -23.5q-232 0 -393 133z
M430 592q0 -155 47 -273l778 865q-101 188 -282 188q-148 0 -273.5 -107.5t-197.5 -286.5t-72 -386zM791 61q146 0 271.5 107t198 287t72.5 387q0 148 -49 274l-778 -868q47 -89 119.5 -138t165.5 -49zM1198 1894l-317 -366h-41l184 346q43 28 94.5 33t79.5 -13z" />
    <glyph glyph-name="oslashacute" unicode="&#x1ff;" horiz-adv-x="1024" 
d="M217 -43l-51 43l78 102q-99 120 -99 306q0 130 43 243t114.5 189.5t165.5 120t196 43.5q121 0 215 -72l73 94l49 -43l-73 -96q106 -118 106 -314q0 -129 -43.5 -241.5t-115.5 -188.5t-166 -119.5t-195 -43.5q-133 0 -223 75zM526 45q52 0 97.5 34t76 89.5t54.5 126.5
t34.5 146t15 147t-4.5 129l-410 -533q33 -139 137 -139zM651 938q-52 0 -96.5 -33t-74 -86.5t-53.5 -123t-34 -143t-15.5 -144.5t1.5 -129l407 530q-38 129 -135 129zM901 1444l-317 -367h-41l184 346q43 28 94.5 33.5t79.5 -12.5z" />
    <glyph glyph-name="Scommaaccent" unicode="&#x218;" horiz-adv-x="1007" 
d="M1059 1380l-49 -260h-49q10 66 -3.5 117t-44.5 80.5t-70 44t-85 14.5q-104 0 -186.5 -69t-82.5 -187q0 -55 27.5 -105t71.5 -90t97 -80t106 -83t97 -90.5t71.5 -111t27.5 -136.5q0 -199 -141 -323t-381 -124q-125 0 -209 30.5t-158 86.5l49 281h52q-7 -82 8 -142.5
t41.5 -93.5t68 -53t77.5 -25.5t79 -5.5q116 0 189 85.5t73 191.5q0 61 -27.5 115t-71 96.5t-96 83.5t-105.5 83.5t-96.5 89t-71 108t-27.5 132.5q0 109 43.5 191.5t117.5 129.5t160.5 70t183.5 23q186 0 314 -74zM395 -610l-26 35q88 73 131 190q-58 55 -101 131
q57 64 136 127q58 -52 102 -127q-26 -203 -242 -356z" />
    <glyph glyph-name="scommaaccent" unicode="&#x219;" horiz-adv-x="811" 
d="M389 -20q-45 0 -90.5 11.5t-88.5 34.5t-70 66.5t-27 100.5q0 23 35 46.5t78 30.5t79 -8q-27 -48 -29 -97t28.5 -84.5t92.5 -35.5q82 0 131.5 50.5t49.5 123.5q0 47 -26.5 91.5t-66 78t-86 72.5t-86 75t-66 85.5t-26.5 103.5q0 93 56 158t137 93t176 28q44 0 86.5 -11.5
t80.5 -34.5t61.5 -62t23.5 -89q0 -22 -32.5 -44t-71.5 -28.5t-72 6.5q25 45 26.5 90.5t-23 76t-71.5 30.5q-57 0 -103 -44.5t-46 -107.5q0 -45 37.5 -90.5t91 -87.5t107 -87.5t91 -108t37.5 -131.5q0 -79 -40 -140t-105 -94.5t-136 -50t-143 -16.5zM260 -610l-27 35
q90 75 132 190q-58 55 -101 131q59 67 135 127q60 -54 103 -127q-26 -203 -242 -356z" />
    <glyph glyph-name="circumflex" unicode="&#x2c6;" horiz-adv-x="751" 
d="M805 1077h-51l-203 213l-264 -213h-47l280 353h101z" />
    <glyph glyph-name="caron" unicode="&#x2c7;" horiz-adv-x="751" 
d="M803 1430h51l-285 -353h-100l-180 353h49l201 -213z" />
    <glyph glyph-name="breve" unicode="&#x2d8;" horiz-adv-x="712" 
d="M283 1409h51q5 -73 56.5 -123.5t135.5 -50.5q81 0 146.5 51t89.5 123h49q-18 -123 -109 -220t-196 -97q-100 0 -163.5 90t-59.5 227z" />
    <glyph glyph-name="dotaccent" unicode="&#x2d9;" horiz-adv-x="405" 
d="M358 1143q-48 39 -92 121q60 73 127 118q49 -46 92 -118q-52 -66 -127 -121z" />
    <glyph glyph-name="ring" unicode="&#x2da;" horiz-adv-x="581" 
d="M274 1313q0 99 69.5 172.5t160.5 73.5q73 0 121.5 -55t48.5 -134q0 -100 -70 -173t-162 -73q-74 0 -121 54t-47 135zM358 1325q0 -46 27.5 -77t69.5 -31q52 0 92.5 41.5t40.5 97.5q0 46 -28.5 78t-70.5 32q-53 0 -92 -42t-39 -99z" />
    <glyph glyph-name="ogonek" unicode="&#x2db;" horiz-adv-x="542" 
d="M283 0h71q-157 -138 -168 -246q-8 -71 52 -95q66 -27 168 24l-11 -66q-109 -86 -196 -86q-67 0 -107.5 43.5t-40.5 110.5q0 173 232 315z" />
    <glyph glyph-name="tilde" unicode="&#x2dc;" horiz-adv-x="790" 
d="M281 1141l-29 30q109 162 203 162q53 0 143 -32.5t137 -32.5q59 0 111 67l28 -30q-109 -162 -202 -162q-52 0 -143 32.5t-138 32.5q-56 0 -110 -67z" />
    <glyph glyph-name="hungarumlaut" unicode="&#x2dd;" horiz-adv-x="745" 
d="M598 1444l-317 -367h-41l184 346q43 28 94.5 33.5t79.5 -12.5zM850 1444l-318 -367h-43l187 346q43 28 94.5 33.5t79.5 -12.5z" />
    <glyph glyph-name="gravecomb" unicode="&#x300;" horiz-adv-x="493" 
d="M504 1251l-213 367q31 18 81.5 12.5t86.5 -33.5l86 -346h-41z" />
    <glyph glyph-name="acutecomb" unicode="&#x301;" horiz-adv-x="493" 
d="M598 1618l-317 -367h-41l184 346q43 28 94.5 33.5t79.5 -12.5z" />
    <glyph glyph-name="circumflexcomb" unicode="&#x302;" horiz-adv-x="751" 
d="M805 1251h-51l-203 213l-264 -213h-47l280 353h101z" />
    <glyph glyph-name="tildecomb" unicode="&#x303;" horiz-adv-x="790" 
d="M281 1315l-29 31q109 161 203 161q53 0 143 -32.5t137 -32.5q59 0 111 67l28 -30q-109 -162 -202 -162q-52 0 -143 32.5t-138 32.5q-56 0 -110 -67z" />
    <glyph glyph-name="macroncomb" unicode="&#x304;" horiz-adv-x="768" 
d="M848 1432l-14 -113h-582l14 113h582z" />
    <glyph glyph-name="brevecomb" unicode="&#x306;" horiz-adv-x="712" 
d="M283 1583h51q5 -73 56.5 -123.5t135.5 -50.5q81 0 146.5 51t89.5 123h49q-18 -123 -109 -220t-196 -97q-100 0 -163.5 90t-59.5 227z" />
    <glyph glyph-name="dotaccentcomb" unicode="&#x307;" horiz-adv-x="405" 
d="M358 1266q-52 42 -92 120q62 75 127 119q47 -45 92 -119q-45 -60 -127 -120z" />
    <glyph glyph-name="dieresiscomb" unicode="&#x308;" horiz-adv-x="761" 
d="M358 1266q-52 42 -92 120q62 75 127 119q47 -45 92 -119q-45 -60 -127 -120zM715 1266q-56 45 -94 120q66 76 127 119q49 -43 94 -119q-45 -60 -127 -120z" />
    <glyph glyph-name="Delta" unicode="&#x394;" horiz-adv-x="1249" 
d="M1147 0h-1045l707 1315zM346 143h594l-192 744z" />
    <glyph glyph-name="Delta" unicode="&#x2206;" horiz-adv-x="1249" 
d="M1147 0h-1045l707 1315zM346 143h594l-192 744z" />
    <glyph glyph-name="pi" unicode="&#x3c0;" horiz-adv-x="1261" 
d="M205 983h1124l-6 -51q-50 0 -77.5 -6t-45.5 -28t-25.5 -50t-15.5 -86l-76 -541q-12 -68 -6.5 -106t31.5 -51t90 -13l-6 -51h-514l6 51q35 0 58 2.5t41.5 11t28.5 19t18 32t12.5 44t9.5 61.5l76 541q13 68 7.5 106t-32 51t-94.5 13h-98q-49 0 -76 -6t-45 -27.5t-25.5 -50
t-15.5 -86.5l-76 -541q-12 -68 -6.5 -106t31.5 -51t90 -13l-8 -51h-512l6 51q35 0 58 2.5t41.5 11t28.5 19t18 32t12.5 44t9.5 61.5l75 541q13 68 8 106t-32 51t-94 13z" />
    <glyph glyph-name="Wgrave" unicode="&#x1e80;" horiz-adv-x="2058" 
d="M1243 1528l-213 366q31 18 81.5 13t86.5 -33l86 -346h-41zM1333 1198l162 -868l408 872q21 46 28.5 74.5t0.5 53.5t-40 36.5t-94 11.5l6 56h443l-6 -56q-44 0 -78.5 -10t-56 -23t-43 -41.5t-32.5 -48.5t-32 -61l-580 -1204h-90l-184 862l-414 -862h-90l-254 1202
q-6 28 -9 40.5t-10 35t-13 32.5t-16 26t-22 23t-29 15t-38.5 11t-48.5 3l6 56h543l-7 -56q-60 0 -86.5 -25.5t-23.5 -65.5t12 -89l160 -868l311 661l-41 201q-12 51 -20.5 77.5t-28 55.5t-51.5 41t-82 12l6 56h567l-6 -56q-46 0 -75.5 -10.5t-43.5 -24.5t-17.5 -40.5
t-0.5 -48t10 -56.5z" />
    <glyph glyph-name="wgrave" unicode="&#x1e81;" horiz-adv-x="1464" 
d="M975 983l160 -803q65 105 108 182t84 181t41 172q0 64 -24.5 105t-63.5 54q29 78 67.5 119t79.5 41q45 0 67 -40t22 -91q0 -138 -132.5 -406t-298.5 -497l-110 -18q-8 0 -13.5 5.5t-5.5 12.5l-127 565q-7 -17 -44 -108.5t-53 -128t-48.5 -107t-63 -122.5t-63.5 -99
l-111 -18q-8 0 -13 5t-5 13l-164 819q-4 22 -7.5 35t-14 29t-24.5 18.5t-39 -7t-58 -36.5l-29 43q100 92 223 92q78 0 125.5 -42.5t61.5 -143.5l98 -625q79 148 168.5 388.5t128.5 398.5zM942 1077l-213 367q31 18 81.5 12.5t86.5 -33.5l86 -346h-41z" />
    <glyph glyph-name="Wacute" unicode="&#x1e82;" horiz-adv-x="2058" 
d="M1481 1894l-318 -366h-41l185 346q43 28 94.5 33t79.5 -13zM1333 1198l162 -868l408 872q21 46 28.5 74.5t0.5 53.5t-40 36.5t-94 11.5l6 56h443l-6 -56q-44 0 -78.5 -10t-56 -23t-43 -41.5t-32.5 -48.5t-32 -61l-580 -1204h-90l-184 862l-414 -862h-90l-254 1202
q-6 28 -9 40.5t-10 35t-13 32.5t-16 26t-22 23t-29 15t-38.5 11t-48.5 3l6 56h543l-7 -56q-60 0 -86.5 -25.5t-23.5 -65.5t12 -89l160 -868l311 661l-41 201q-12 51 -20.5 77.5t-28 55.5t-51.5 41t-82 12l6 56h567l-6 -56q-46 0 -75.5 -10.5t-43.5 -24.5t-17.5 -40.5
t-0.5 -48t10 -56.5z" />
    <glyph glyph-name="wacute" unicode="&#x1e83;" horiz-adv-x="1464" 
d="M975 983l160 -803q65 105 108 182t84 181t41 172q0 64 -24.5 105t-63.5 54q29 78 67.5 119t79.5 41q45 0 67 -40t22 -91q0 -138 -132.5 -406t-298.5 -497l-110 -18q-8 0 -13.5 5.5t-5.5 12.5l-127 565q-7 -17 -44 -108.5t-53 -128t-48.5 -107t-63 -122.5t-63.5 -99
l-111 -18q-8 0 -13 5t-5 13l-164 819q-4 22 -7.5 35t-14 29t-24.5 18.5t-39 -7t-58 -36.5l-29 43q100 92 223 92q78 0 125.5 -42.5t61.5 -143.5l98 -625q79 148 168.5 388.5t128.5 398.5zM1178 1444l-318 -367h-41l185 346q43 28 94.5 33.5t79.5 -12.5z" />
    <glyph glyph-name="Wdieresis" unicode="&#x1e84;" horiz-adv-x="2058" 
d="M1067 1593q-48 39 -92 121q62 75 127 119q47 -45 92 -119q-52 -66 -127 -121zM1423 1593q-52 42 -94 121q66 76 127 119q49 -43 94 -119q-52 -66 -127 -121zM1333 1198l162 -868l408 872q21 46 28.5 74.5t0.5 53.5t-40 36.5t-94 11.5l6 56h443l-6 -56q-44 0 -78.5 -10
t-56 -23t-43 -41.5t-32.5 -48.5t-32 -61l-580 -1204h-90l-184 862l-414 -862h-90l-254 1202q-6 28 -9 40.5t-10 35t-13 32.5t-16 26t-22 23t-29 15t-38.5 11t-48.5 3l6 56h543l-7 -56q-60 0 -86.5 -25.5t-23.5 -65.5t12 -89l160 -868l311 661l-41 201q-12 51 -20.5 77.5
t-28 55.5t-51.5 41t-82 12l6 56h567l-6 -56q-46 0 -75.5 -10.5t-43.5 -24.5t-17.5 -40.5t-0.5 -48t10 -56.5z" />
    <glyph glyph-name="wdieresis" unicode="&#x1e85;" horiz-adv-x="1464" 
d="M975 983l160 -803q65 105 108 182t84 181t41 172q0 64 -24.5 105t-63.5 54q29 78 67.5 119t79.5 41q45 0 67 -40t22 -91q0 -138 -132.5 -406t-298.5 -497l-110 -18q-8 0 -13.5 5.5t-5.5 12.5l-127 565q-7 -17 -44 -108.5t-53 -128t-48.5 -107t-63 -122.5t-63.5 -99
l-111 -18q-8 0 -13 5t-5 13l-164 819q-4 22 -7.5 35t-14 29t-24.5 18.5t-39 -7t-58 -36.5l-29 43q100 92 223 92q78 0 125.5 -42.5t61.5 -143.5l98 -625q79 148 168.5 388.5t128.5 398.5zM1108 1143q-52 42 -94 121q64 74 127 118q50 -45 94 -118q-52 -66 -127 -121z
M752 1143q-50 40 -93 121q60 73 127 118q51 -48 93 -118q-52 -66 -127 -121z" />
    <glyph glyph-name="Ygrave" unicode="&#x1ef2;" horiz-adv-x="1325" 
d="M643 1210l180 -512l342 521q18 27 28 48.5t12.5 43t-8.5 35.5t-40 23t-76 9l6 56h437l-6 -56q-92 0 -147.5 -40.5t-121.5 -139.5l-391 -596l-49 -364q-12 -69 -0.5 -109.5t54.5 -57t136 -16.5l-8 -55h-667l8 55q93 0 142 18t69.5 54.5t31.5 110.5l50 360l-240 614
q-37 94 -74.5 130t-120.5 36l7 56h577l-8 -56q-100 0 -127.5 -40t4.5 -128zM956 1528l-213 366q31 18 81.5 13t86.5 -33l86 -346h-41z" />
    <glyph glyph-name="ygrave" unicode="&#x1ef3;" horiz-adv-x="950" 
d="M492 -61l-222 880q-4 17 -6.5 25t-8.5 22.5t-12 20.5t-17.5 11.5t-24.5 2t-32 -13.5t-42 -29l-29 43q51 47 110.5 69.5t113.5 22.5q77 0 121.5 -42t64.5 -144l129 -645q86 140 151.5 296t65.5 257q0 64 -24.5 105t-63.5 54q29 78 67.5 119t79.5 41q45 0 66.5 -40
t21.5 -91q0 -64 -43.5 -194t-114 -285t-165.5 -319t-192.5 -297.5t-201 -219.5t-184.5 -86q-24 0 -41.5 14.5t-24.5 40.5t-4 58.5t21.5 72.5t50.5 79q25 -15 50 -25.5t68 -13t84 13.5t92 65.5t96 131.5zM690 1077l-213 367q31 18 81.5 12.5t86.5 -33.5l86 -346h-41z" />
    <glyph glyph-name="endash" unicode="&#x2013;" horiz-adv-x="1267" 
d="M1161 428h-925l20 139h926z" />
    <glyph glyph-name="emdash" unicode="&#x2014;" horiz-adv-x="2252" 
d="M2146 428h-1904l18 139h1905z" />
    <glyph glyph-name="quoteleft" unicode="&#x2018;" horiz-adv-x="653" 
d="M522 1227q78 -68 144 -187q-93 -112 -201 -190q-85 76 -148 190q43 288 340 504l35 -49q-121 -113 -170 -268z" />
    <glyph glyph-name="quoteright" unicode="&#x2019;" horiz-adv-x="653" 
d="M489 1102q-84 73 -143 188q91 110 201 189q87 -81 147 -189q-43 -290 -340 -506l-37 50q117 109 172 268z" />
    <glyph glyph-name="quotesinglbase" unicode="&#x201a;" horiz-adv-x="665" 
d="M330 -37q-81 68 -146 189q89 108 201 188q87 -78 145 -188q-40 -292 -337 -506l-37 49q115 107 174 268z" />
    <glyph glyph-name="quotedblleft" unicode="&#x201c;" horiz-adv-x="1097" 
d="M522 1227q78 -68 144 -187q-93 -112 -201 -190q-85 76 -148 190q43 288 340 504l35 -49q-121 -113 -170 -268zM967 1227q80 -69 145 -187q-93 -112 -201 -190q-86 80 -147 190q43 288 338 504l37 -49q-118 -107 -172 -268z" />
    <glyph glyph-name="quotedblright" unicode="&#x201d;" horiz-adv-x="1099" 
d="M489 1102q-84 73 -143 188q91 110 201 189q87 -81 147 -189q-43 -290 -340 -506l-37 50q117 109 172 268zM936 1102q-82 69 -143 188q85 107 200 189q89 -83 148 -189q-43 -290 -340 -506l-37 50q122 114 172 268z" />
    <glyph glyph-name="quotedblbase" unicode="&#x201e;" horiz-adv-x="1112" 
d="M330 -37q-81 68 -146 189q89 108 201 188q87 -78 145 -188q-40 -292 -337 -506l-37 49q115 107 174 268zM776 -37q-84 71 -145 189q90 109 200 188q87 -78 148 -188q-43 -290 -338 -506l-39 49q120 112 174 268z" />
    <glyph glyph-name="dagger" unicode="&#x2020;" horiz-adv-x="1132" 
d="M709 1442h108l-35 -387l305 -25l-18 -117l-309 -24l-166 -1028h-107l121 1028l-301 24l17 117l311 25z" />
    <glyph glyph-name="daggerdbl" unicode="&#x2021;" horiz-adv-x="1107" 
d="M547 -248h-107l27 342l-303 23l16 119l312 24l63 336l31 338l-303 24l16 117l309 25l70 342h106l-26 -342l303 -25l-17 -117l-309 -24l-65 -338l-29 -336l303 -24l-18 -119l-310 -23z" />
    <glyph glyph-name="bullet" unicode="&#x2022;" horiz-adv-x="841" 
d="M246 698q0 123 86.5 214.5t197.5 91.5q93 0 153 -68t60 -168q0 -124 -86.5 -214.5t-201.5 -90.5q-91 0 -150 67.5t-59 167.5z" />
    <glyph glyph-name="ellipsis" unicode="&#x2026;" horiz-adv-x="1837" 
d="M326 -25q-88 74 -148 191q84 105 201 190q85 -82 145 -190q-82 -106 -198 -191zM903 -25q-86 73 -147 191q81 101 200 190q88 -84 146 -190q-81 -104 -199 -191zM1481 -25q-88 74 -148 191q86 105 201 190q90 -87 147 -190q-90 -112 -200 -191z" />
    <glyph glyph-name="perthousand" unicode="&#x2030;" horiz-adv-x="2213" 
d="M326 6l1009 1471l60 -43l-1008 -1471zM1415 379q0 -162 -108 -280.5t-248 -118.5q-113 0 -185.5 86t-72.5 215q0 162 107.5 280.5t248.5 118.5q112 0 185 -86.5t73 -214.5zM956 240q0 -195 111 -195q42 0 75 24t54 61.5t34.5 88t19 99.5t5.5 100q0 196 -108 196
q-56 0 -96.5 -38t-59.5 -99.5t-27 -119t-8 -117.5zM922 1153q0 -163 -108.5 -281t-248.5 -118q-113 0 -185.5 86t-72.5 215q0 163 108.5 281t248.5 118q112 0 185 -86.5t73 -214.5zM463 1014q0 -195 110 -195q53 0 92.5 36t60 95t29.5 119.5t9 124.5q0 88 -27 141.5
t-84 53.5q-44 0 -78.5 -25.5t-55 -64.5t-33.5 -91t-18 -99t-5 -95zM2087 379q0 -162 -108 -280.5t-248 -118.5q-113 0 -185.5 86t-72.5 215q0 162 108 280.5t248 118.5q113 0 185.5 -86t72.5 -215zM1630 240q0 -195 111 -195q42 0 75 24t54 61.5t34.5 88t19 99.5t5.5 100
q0 89 -26.5 142.5t-83.5 53.5q-58 0 -98 -39t-58.5 -102t-25.5 -119t-7 -114z" />
    <glyph glyph-name="guilsinglleft" unicode="&#x2039;" horiz-adv-x="792" 
d="M242 506l448 414l62 -46l-246 -329q-22 -33 -23.5 -42.5t13.5 -39.5l151 -328l-74 -47z" />
    <glyph glyph-name="guilsinglright" unicode="&#x203a;" horiz-adv-x="788" 
d="M369 920l333 -414l-452 -418l-60 47l246 328q21 30 22 39.5t-12 42.5l-151 329z" />
    <glyph glyph-name="fraction" unicode="&#x2044;" horiz-adv-x="847" 
d="M14 6l1012 1471l59 -43l-1007 -1471z" />
    <glyph glyph-name="zerosuperior" unicode="&#x2070;" horiz-adv-x="849" 
d="M334 1253q0 -102 22.5 -167.5t67.5 -65.5q50 0 91 59.5t65 147t36.5 173t12.5 150.5q0 103 -22.5 167.5t-69.5 64.5q-48 0 -89 -59t-64.5 -145t-36.5 -172.5t-13 -152.5zM799 1487q0 -135 -46 -251.5t-134.5 -189.5t-200.5 -73q-124 0 -190 97t-66 247q0 135 46 251.5
t135 189.5t202 73q122 0 188 -97t66 -247z" />
    <glyph glyph-name="foursuperior" unicode="&#x2074;" horiz-adv-x="819" 
d="M723 1192h-86l-10 -68q-10 -63 6.5 -83.5t93.5 -20.5l-6 -37h-393l6 37q74 0 96.5 20.5t32.5 83.5l10 68h-350l12 90l522 545h74l-80 -545h105zM207 1282h287l53 352z" />
    <glyph glyph-name="fivesuperior" unicode="&#x2075;" horiz-adv-x="784" 
d="M338 973q-98 0 -159.5 50.5t-49.5 121.5q6 34 34 45.5t61 2t57 -31.5q-27 -46 -8.5 -93.5t73.5 -47.5q27 0 55.5 12.5t56 37t45 70t17.5 103.5q0 100 -79 160t-208 74l72 344h449l-41 -107h-371l-33 -160q92 -2 163 -21.5t112.5 -47.5t68 -65.5t36 -71t9.5 -68.5
q0 -63 -24.5 -116.5t-63 -87.5t-87 -58t-95.5 -34.5t-90 -10.5z" />
    <glyph glyph-name="sixsuperior" unicode="&#x2076;" horiz-adv-x="788" 
d="M647 1831l15 -31q-98 -41 -181 -141.5t-131 -231.5q74 52 162 52t147.5 -57t59.5 -154q0 -88 -50.5 -157t-123.5 -103.5t-150 -34.5q-115 0 -179 71t-64 189q0 116 48.5 221.5t124.5 179.5t159 124t163 73zM449 1421q-53 0 -113 -43q-16 -45 -23.5 -106t-4 -120t29 -99.5
t70.5 -40.5q53 0 99 63.5t46 192.5q0 76 -28.5 114.5t-75.5 38.5z" />
    <glyph glyph-name="sevensuperior" unicode="&#x2077;" horiz-adv-x="724" 
d="M653 1714h-280q-30 0 -45.5 -1t-34.5 -5.5t-29.5 -14t-21 -26.5t-19.5 -43h-35l48 197h493l25 -33l-418 -805h-170z" />
    <glyph glyph-name="eightsuperior" unicode="&#x2078;" horiz-adv-x="811" 
d="M754 1661q0 -77 -64 -137t-151 -88q70 -25 119 -83.5t49 -133.5q0 -105 -88.5 -175.5t-231.5 -70.5q-246 0 -246 182q0 54 21.5 98.5t57.5 73.5t72.5 47.5t78.5 30.5q-61 31 -100.5 79.5t-39.5 110.5q0 59 27.5 105.5t72 74t95.5 42t104 14.5q94 0 159 -43.5t65 -126.5z
M397 1616q0 -36 16.5 -67.5t34 -47t46.5 -37.5q41 30 72.5 84t31.5 125q0 58 -24.5 84.5t-53.5 26.5q-15 0 -33.5 -8t-40 -25t-35.5 -52.5t-14 -82.5zM397 1020q53 0 95.5 53.5t42.5 124.5q0 54 -33 102.5t-84 73.5q-45 -33 -76 -92t-31 -127q0 -62 25 -98.5t61 -36.5z" />
    <glyph glyph-name="ninesuperior" unicode="&#x2079;" horiz-adv-x="784" 
d="M256 973l-14 28q97 41 179 141.5t130 233.5q-70 -51 -160 -51q-87 0 -147 57.5t-60 153.5q0 88 50.5 157t123.5 103.5t150 34.5q116 0 179 -71t63 -189q0 -116 -48.5 -221.5t-124.5 -179.5t-159 -124t-162 -73zM455 1382q53 0 110 43q17 45 25 106t4.5 120t-28.5 100
t-70 41q-53 0 -99.5 -63.5t-46.5 -190.5q0 -78 29 -117t76 -39z" />
    <glyph glyph-name="n.sups" unicode="&#x207f;" horiz-adv-x="843" 
d="M399 1430l-16 -109q49 96 122 173t138 77q59 0 83.5 -45t12.5 -119l-45 -305q-6 -48 20 -60t81 27l18 -27q-75 -69 -168 -69q-57 0 -91 32t-24 99l45 297q9 61 -20 61q-28 0 -84 -66.5t-96 -138.5l-43 -274l-156 -10q-10 0 -10 10l72 463q3 27 -1.5 43t-23.5 16.5
t-53 -26.5l-19 26q60 60 142 60q58 0 92.5 -34.5t23.5 -100.5z" />
    <glyph glyph-name="zeroinferior" unicode="&#x2080;" horiz-adv-x="849" 
d="M334 -139q0 -102 22.5 -168t67.5 -66q50 0 91 60t65 147.5t36.5 173t12.5 150.5q0 103 -22.5 167t-69.5 64q-48 0 -89 -58.5t-64.5 -144.5t-36.5 -172.5t-13 -152.5zM799 94q0 -135 -46 -251.5t-134.5 -189.5t-200.5 -73q-124 0 -190 97t-66 247q0 135 46 251.5
t135 189.5t202 73q122 0 188 -97t66 -247z" />
    <glyph glyph-name="oneinferior" unicode="&#x2081;" horiz-adv-x="593" 
d="M485 -410h-393l6 37q52 0 78 11t35 30.5t16 63.5l80 534q9 41 3.5 63.5t-26.5 30t-75 7.5l6 36l248 31h35l-105 -702q-10 -64 5.5 -84.5t90.5 -20.5z" />
    <glyph glyph-name="twoinferior" unicode="&#x2082;" horiz-adv-x="753" 
d="M119 -410l-13 29q172 142 249 221q200 206 200 371q0 67 -32.5 102t-88.5 35q-53 0 -106 -32.5t-92 -92.5l-27 17q131 198 309 198q96 0 153.5 -46.5t57.5 -137.5q0 -42 -17.5 -88.5t-42 -86t-68 -86.5t-76.5 -78.5t-87.5 -75.5t-81.5 -64.5t-77 -57.5q-18 -14 -27 -20
h438l-39 -107h-532z" />
    <glyph glyph-name="threeinferior" unicode="&#x2083;" horiz-adv-x="776" 
d="M512 438q103 0 156 -47.5t53 -114.5q0 -70 -71 -144.5t-187 -100.5v-4q105 -1 169 -55t64 -132q0 -72 -34 -125.5t-89.5 -81.5t-112.5 -40.5t-116 -12.5q-98 0 -160.5 51t-50.5 121q7 34 35 45.5t61 2.5t58 -31q-28 -46 -9.5 -94t72.5 -48q71 0 119.5 56t48.5 170
q0 68 -31.5 108.5t-93.5 40.5h-53l8 49h37q77 0 121.5 57.5t44.5 122.5q0 51 -30.5 84t-88.5 33t-111 -34.5t-92 -90.5l-24 17q129 198 307 198z" />
    <glyph glyph-name="fourinferior" unicode="&#x2084;" horiz-adv-x="819" 
d="M723 -201h-86l-10 -67q-10 -63 6.5 -84t93.5 -21l-6 -37h-393l6 37q51 0 77 11t35.5 31t16.5 63l10 67h-350l12 90l522 545h74l-80 -545h105zM207 -111h287l53 353z" />
    <glyph glyph-name="fiveinferior" unicode="&#x2085;" horiz-adv-x="784" 
d="M338 -420q-98 0 -159.5 50.5t-49.5 121.5q6 34 34 45.5t61 2.5t57 -31q-27 -46 -8.5 -94t73.5 -48q27 0 55.5 12.5t56 37t45 70t17.5 103.5q0 100 -79 160t-208 74l72 344h449l-41 -106h-371l-33 -160q91 -2 162.5 -21.5t113 -48t68 -65.5t36 -71t9.5 -69
q0 -63 -24.5 -116.5t-63 -87.5t-87 -58t-95.5 -34.5t-90 -10.5z" />
    <glyph glyph-name="sixinferior" unicode="&#x2086;" horiz-adv-x="788" 
d="M647 438l15 -30q-98 -41 -181 -141.5t-131 -231.5q73 51 162 51q88 0 147.5 -57t59.5 -154q0 -88 -50.5 -157t-123.5 -103.5t-150 -34.5q-115 0 -179 71t-64 189q0 116 48.5 221.5t124.5 179.5t159 124t163 73zM449 29q-53 0 -113 -43q-16 -45 -23.5 -106t-4 -120
t29 -100t70.5 -41q53 0 99 63.5t46 192.5q0 76 -28.5 115t-75.5 39z" />
    <glyph glyph-name="seveninferior" unicode="&#x2087;" horiz-adv-x="724" 
d="M653 322h-280q-71 0 -100.5 -15t-49.5 -76h-35l48 197h493l25 -33l-418 -805h-170z" />
    <glyph glyph-name="eightinferior" unicode="&#x2088;" horiz-adv-x="811" 
d="M754 268q0 -77 -64 -137t-151 -88q70 -25 119 -83.5t49 -133.5q0 -105 -88.5 -175.5t-231.5 -70.5q-246 0 -246 182q0 54 21.5 98.5t57.5 73.5t72.5 47.5t78.5 30.5q-61 30 -100.5 79.5t-39.5 111.5q0 59 27.5 105.5t72 74t95.5 41.5t104 14q94 0 159 -43.5t65 -126.5z
M397 223q0 -36 16.5 -67t33.5 -46.5t47 -37.5q41 30 72.5 84t31.5 125q0 58 -24.5 84t-53.5 26q-15 0 -33.5 -8t-40 -25t-35.5 -52.5t-14 -82.5zM397 -373q53 0 95.5 53.5t42.5 124.5q0 54 -33 103t-84 74q-45 -33 -76 -92.5t-31 -127.5q0 -62 25 -98.5t61 -36.5z" />
    <glyph glyph-name="nineinferior" unicode="&#x2089;" horiz-adv-x="784" 
d="M256 -420l-14 29q97 41 179 141.5t130 233.5q-72 -52 -160 -52q-87 0 -147 57.5t-60 153.5q0 88 50.5 157t123.5 103.5t150 34.5q116 0 179 -71t63 -189q0 -116 -48.5 -221.5t-124.5 -179.5t-159 -124t-162 -73zM455 -10q53 0 110 43q17 45 25 106t4.5 120t-28.5 99.5
t-70 40.5q-53 0 -99.5 -63.5t-46.5 -190.5q0 -78 29 -116.5t76 -38.5z" />
    <glyph glyph-name="Euro" unicode="&#x20ac;" horiz-adv-x="1419" 
d="M199 799l10 75h108q30 124 87.5 223.5t130 165t160.5 109.5t177 63t181 19q246 0 430 -147l-47 -367h-50q16 119 -3 205.5t-68 134.5t-114 70t-148 22q-183 0 -307.5 -136t-178.5 -362h355l-11 -75h-358q-12 -66 -16 -164h352l-10 -78h-344q0 -228 85 -362t250 -134
q82 0 153 22t133.5 70.5t106 135t60.5 205.5h49l-55 -367q-222 -147 -471 -147q-87 0 -165 18.5t-150 61.5t-125 108t-85.5 164.5t-35.5 224.5h-121l12 78h109q3 80 16 164h-102z" />
    <glyph glyph-name="litre" unicode="&#x2113;" horiz-adv-x="933" 
d="M836 322l34 -9q-124 -333 -335 -333q-277 0 -222 403l9 59l-162 -151l-31 33l205 198l69 500q11 82 36.5 153.5t65.5 131.5t101.5 94.5t136.5 34.5q81 0 126.5 -47.5t45.5 -126.5q0 -50 -14.5 -102.5t-45 -106.5t-61 -99t-79.5 -101.5t-81.5 -91.5t-85.5 -91
q-16 -17 -24 -25l-45 -328q-40 -272 103 -272q43 0 83.5 26.5t73 71.5t55 88t42.5 91zM588 1092l-51 -361q150 164 222 283.5t72 216.5q0 65 -25.5 103t-66.5 38q-30 0 -54 -16.5t-39 -41.5t-27 -64.5t-18.5 -74.5t-12.5 -83z" />
    <glyph glyph-name="trademark" unicode="&#x2122;" horiz-adv-x="2168" 
d="M332 1434h739l-24 -189h-54q11 71 0.5 93t-57.5 22h-162l-92 -658q-6 -49 8 -65t72 -16l-8 -56h-346l8 56q62 0 79 15.5t23 65.5l92 658h-164q-45 0 -62 -23.5t-26 -91.5h-51zM1698 565l8 56q63 0 83.5 21.5t27.5 72.5l71 506l-375 -656h-51l-194 660l-72 -510
q-8 -58 5 -76t77 -18l-8 -56h-256l8 56q64 0 81.5 16t26.5 78l80 571q6 34 4 54.5t-21 30t-63 9.5l7 54h245l189 -629l364 629h244l-6 -54q-48 0 -72 -11t-31 -28t-12 -55l-82 -571q-5 -35 -2.5 -57t23 -32t67.5 -10l-8 -51h-358z" />
    <glyph glyph-name="estimated" unicode="&#x212e;" horiz-adv-x="1480" 
d="M1481 709h-981l-66 -471q125 -152 316 -152q146 0 279 80.5t245 239.5l72 -48q-140 -188 -284.5 -278t-326.5 -90q-129 0 -234.5 49t-173.5 134t-104.5 196.5t-36.5 238.5q0 168 58.5 320.5t158.5 263.5t240 176.5t297 65.5q190 0 323.5 -92.5t190 -257.5t27.5 -375z
M514 807h678l53 379q-131 149 -321 149q-191 0 -357 -149z" />
    <glyph glyph-name="partialdiff" unicode="&#x2202;" horiz-adv-x="989" 
d="M547 1405l39 49q64 -20 127.5 -61.5t124.5 -108t108 -148.5t76 -191.5t29 -229.5q0 -198 -76 -366t-213.5 -268.5t-306.5 -100.5q-146 0 -250.5 96.5t-104.5 257.5q0 113 45 212t116.5 164t159.5 102.5t175 37.5q137 0 233 -105q10 246 -65 417t-217 243zM653 752
q-62 0 -121 -34.5t-106 -96.5t-75.5 -158t-28.5 -209q0 -108 40.5 -157.5t96.5 -49.5q62 0 119.5 45t98.5 115t73.5 154t49.5 162.5t21 140.5q-71 88 -168 88z" />
    <glyph glyph-name="product" unicode="&#x220f;" horiz-adv-x="1255" 
d="M221 1434h1143l-6 -52q-49 0 -76 -6t-45 -27.5t-25.5 -50t-15.5 -86.5l-139 -991q-12 -68 -7 -106t30.5 -51t90.5 -13l-8 -51h-512l6 51q35 0 58 2.5t41.5 11t28.5 19t18 32t12.5 44t9.5 61.5l140 991q13 68 8 106t-32 51t-95 13h-117q-49 0 -76 -6t-45 -27.5t-25.5 -50
t-15.5 -86.5l-139 -991q-12 -68 -6.5 -106t31.5 -51t90 -13l-8 -51h-515l9 51q51 0 79.5 6t46.5 27.5t25.5 50t14.5 86.5l139 991q13 68 8 106t-32 51t-95 13z" />
    <glyph glyph-name="summation" unicode="&#x2211;" horiz-adv-x="1251" 
d="M545 1331l309 -614l-481 -615h458q74 0 120 11t79.5 43.5t54 75.5t45.5 122h52l-70 -354h-993l-41 55l514 662l-330 661l60 58h993l-31 -355h-51q-2 78 -10.5 121.5t-33.5 75t-68 42.5t-117 11h-459z" />
    <glyph glyph-name="minus" unicode="&#x2212;" horiz-adv-x="1167" 
d="M260 750h815l-20 -136h-813z" />
    <glyph glyph-name="radical" unicode="&#x221a;" horiz-adv-x="1292" 
d="M213 752l63 149h353l94 -659l512 1206h149l-626 -1460h-148l-112 764h-285z" />
    <glyph glyph-name="infinity" unicode="&#x221e;" horiz-adv-x="1572" 
d="M1499 614q0 -75 -32 -128.5t-84.5 -78.5t-121 -28t-139 17.5t-141 64.5t-125.5 106q-54 -62 -124.5 -106t-141 -64.5t-138.5 -17.5t-120.5 28t-84.5 78.5t-32 128.5t32 128.5t84.5 79t120.5 28t138.5 -17.5t141 -64t124.5 -106q66 74 153 122.5t171 60t157 -6t117.5 -76
t44.5 -148.5zM276 614q0 -85 53 -129.5t136 -44.5q91 0 187.5 46t166.5 128q-69 84 -164.5 129t-189.5 45q-83 0 -136 -44.5t-53 -129.5zM1438 614q0 85 -53 129.5t-136 44.5q-91 0 -187.5 -46t-166.5 -128q69 -84 164.5 -129t189.5 -45q83 0 136 44.5t53 129.5z" />
    <glyph glyph-name="integral" unicode="&#x222b;" horiz-adv-x="641" 
d="M172 35l137 975q16 113 89 224t176 181t200 70q44 0 59.5 -27.5t-1 -78t-64.5 -113.5q-70 108 -129 108q-33 0 -55.5 -29.5t-35 -87t-19 -119.5t-13.5 -149v-6l-135 -975q-16 -113 -88.5 -223.5t-175.5 -181t-201 -70.5q-44 0 -59.5 27.5t1.5 78t66 113.5
q33 -51 62.5 -78.5t64.5 -27.5q17 0 31.5 7.5t25.5 25t19 35t14.5 50t10.5 56.5t8 67.5t6.5 70.5t5.5 77z" />
    <glyph glyph-name="approxequal" unicode="&#x2248;" horiz-adv-x="1277" 
d="M1171 829l62 -47l-37.5 -52.5t-46.5 -57.5t-61 -61.5t-65.5 -40.5t-74.5 -19q-87 0 -246 35t-239 35t-146 -78l-61 47q153 231 283 231q87 0 245.5 -34.5t239.5 -34.5q76 0 147 77zM1122 475l60 -47q-21 -31 -36 -52t-47 -58.5t-60 -60.5t-66 -41.5t-74 -18.5
q-87 0 -245.5 34.5t-239.5 34.5q-80 0 -146 -78l-63 48q27 39 48.5 66.5t62 71t85 67.5t88.5 24q87 0 246 -34t240 -34q77 0 147 78z" />
    <glyph glyph-name="notequal" unicode="&#x2260;" horiz-adv-x="1185" 
d="M831 879h283l-18 -134h-322l-110 -262h395l-19 -133h-434l-90 -211h-117l88 211h-262l19 133h301l112 262h-376l20 134h414l84 204h119z" />
    <glyph glyph-name="lessequal" unicode="&#x2264;" horiz-adv-x="1089" 
d="M954 330l-22 -166l-674 352l23 166l772 350l-23 -164l-622 -270zM207 147h723l-23 -147h-723z" />
    </font>
</defs>
</svg>
