<?xml version="1.0" encoding="UTF-8"?>
<!-- Generated by Pixelmator Pro 3.4.1 -->
<svg width="500" height="300" viewBox="0 0 500 300" xmlns="http://www.w3.org/2000/svg">
    <g id="CDU-flag">
        <path id="rectangleturquoise" fill="#52b7c1" stroke="none" d="M -0.00336 -15.995453 L 499.990326 -15.995453 L 499.990326 317.000336 L -0.00336 317.000336 Z"/>
        <g id="CDULogo2023">
            <g id="Group">
                <path id="Path" fill="#ffffff" stroke="none" d="M 105.042732 192 L 394.789795 192 L 394.789795 108.908493 L 105.042732 108.908493 Z"/>
                <path id="path1" fill="#f7991c" stroke="none" d="M 173.402588 138.54126 L 173.402588 178.624023 L 156.56398 178.624023 L 156.56398 150.451416 C 158.809326 149.160706 161.006638 147.793732 163.150299 146.347687 C 163.508987 146.10762 163.864853 145.864716 164.217896 145.621826 C 164.573761 145.376114 164.926804 145.130402 165.277023 144.881866 C 165.539673 144.69545 165.805161 144.506226 166.065002 144.317001 C 166.886871 143.729538 167.700287 143.125137 168.502396 142.512253 C 168.765045 142.308899 169.02771 142.108368 169.287552 141.905029 C 169.346863 141.859833 169.406174 141.814651 169.462662 141.766632 C 169.784637 141.515274 170.106598 141.261078 170.425751 141.006897 C 170.708191 140.780945 170.990616 140.554993 171.270233 140.32341 C 171.363434 140.252792 171.453796 140.179367 171.544174 140.100281 C 171.837906 139.860214 172.128815 139.617325 172.419724 139.374435 C 172.719101 139.123077 173.015656 138.871704 173.31221 138.617523 C 173.343277 138.594925 173.371521 138.569504 173.402588 138.54126 Z"/>
                <path id="path2" fill="#c21d28" stroke="none" d="M 153.889359 151.937012 L 153.889359 178.624023 L 137.053574 178.624023 L 137.053574 159.251999 C 142.90274 157.277802 148.528793 154.823471 153.889359 151.937012 Z"/>
            </g>
            <g id="g1">
                <path id="path3" fill="#151518" stroke="none" d="M 134.376129 160.116241 L 134.376129 178.624023 L 117.537239 178.624023 L 117.537239 163.889542 C 123.307327 163.067657 128.930557 161.799545 134.376129 160.116241 Z"/>
                <path id="path4" fill="#151518" fill-rule="evenodd" stroke="none" d="M 283.658417 122.278824 C 301.621643 122.278824 311.645447 132.818619 309.685364 150.279419 C 307.763153 167.405258 298.496277 178.621475 276.951508 178.621475 L 242.568222 178.621475 L 251.206131 122.279099 Z M 277.465515 134.319473 C 281.860443 134.319473 284.512482 135.006622 286.526215 136.66394 C 289.875885 139.419907 291.238892 144.577682 290.368988 150.282806 C 289.091003 158.644211 285.555237 166.227798 273.69165 166.227798 L 263.407166 166.227798 L 268.294952 134.318619 Z"/>
                <path id="path5" fill="#151518" stroke="none" d="M 339.845428 122.278824 L 335.000885 153.877319 C 333.918884 160.939529 337.815613 166.206329 345.368378 166.206329 C 351.803314 166.206329 357.222107 161.876923 358.4487 153.875916 L 363.293793 122.280243 L 382.300934 122.280243 L 377.748962 151.96666 C 375.241241 168.329086 366.115601 179.593887 344.015289 179.593887 C 329.331055 179.593887 321.185455 174.280487 317.671997 167.435181 C 315.042267 162.312149 314.924774 156.286179 315.700897 151.231216 L 320.137878 122.279099 Z"/>
                <path id="path6" fill="#151518" stroke="none" d="M 237.48642 163.621231 C 234.648544 164.499878 228.145828 165.246902 221.67305 165.246902 C 207.073013 165.246902 202.019455 158.382965 202.558044 150.280548 C 203.157944 141.255722 210.949951 134.879242 226.092255 134.879242 C 232.197876 134.879242 238.730255 136.446457 240.315826 136.93988 L 242.354416 123.697205 C 239.545914 122.910339 231.540085 121.306686 220.574112 121.306686 C 193.645905 121.306686 184.431274 136.191422 182.680206 147.084549 C 180.215698 162.403946 189.989548 179.595306 215.945053 179.595306 C 224.214661 179.595306 232.667572 178.369537 235.399246 177.10199 Z"/>
            </g>
        </g>
    </g>
</svg>
