<?xml version="1.0" standalone="no"?>
<!DOCTYPE svg PUBLIC "-//W3C//DTD SVG 1.1//EN" "http://www.w3.org/Graphics/SVG/1.1/DTD/svg11.dtd">
<svg xmlns="http://www.w3.org/2000/svg">
  <defs>
    <font id="Questrial" horiz-adv-x="544">
      <font-face font-family="Questrial" units-per-em="1000" panose-1="0 0 0 0 0 0 0 0 0 0" ascent="820" descent="-210" alphabetic="0" />
      <glyph unicode=" " glyph-name="space" horiz-adv-x="213" />
      <glyph unicode="!" glyph-name="exclam" horiz-adv-x="221" d="M83,183L64,662h93L138,183H83ZM62,0V102h97V0H62Z" />
      <glyph unicode="&quot;" glyph-name="quotedbl" horiz-adv-x="317" d="M66,443L47,662h89L117,443H66Zm134,0L181,662h89L251,443H200Z" />
      <glyph unicode="#" glyph-name="numbersign" horiz-adv-x="581" d="M128,25l20,143H45v65H157l20,144H75v65H186l21,143h65L251,442H367l21,143h65L432,442H536V377H423L403,233H506V168H394L374,25H309l20,143H213L193,25H128Zm94,208H338l20,144H242L222,233Z" />
      <glyph unicode="$" glyph-name="dollar" horiz-adv-x="615" d="M279,746h66V668q73-7 120-34.5T536,566t27-85H486q-5,43-39,75.5T345,597V366q44-10 85.5-24T506,308t54-50.5T580,183q0-87-62.5-136T345-7V-87H279V-7Q195-1 142,26.5t-79,72T32,198h78q3-63 51-94.5T279,65V309q-43,11-83.5,24t-73,33T71,415T52,487q0,77 56.5,127.5T279,670v76ZM125,488q0-30 21-49.5T202,406t77-24V599q-65-3-98-22t-44.5-43.5T125,488ZM505,180q0,32-22,53t-58,35t-80,25V64q74,3 117,32t43,84Z" />
      <glyph unicode="%" glyph-name="percent" horiz-adv-x="845" d="M161-12L620,670h63L224-12H161Zm31,300q-70,0-110,48.5T42,477q0,93 40,141.5T192,667q54-1 87-28t48-70t15-92q0-92-40.5-140.5T192,288Zm0,57q34,1 53,21t27,50.5t8,60.5q0,66-23.5,99T192,609q-42,0-65.5-33T103,477t23.5-99T192,345ZM653-8Q583-8 543,40.5T503,181q0,93 40,141.5T653,371q54-1 87-28t48-70t15-92q0-92-40.5-140.5T653-8Zm0,57q34,1 53,21t27,50.5t8,60.5q0,66-23.5,99T653,313q-42,0-65.5-33T564,181t23.5-99T653,49Z" />
      <glyph unicode="&amp;" glyph-name="ampersand" horiz-adv-x="580" d="M269-8Q207-8 154,17T69,86.5T37,190q0,53 32,95.5T159,350q-22,7-45.5,27.5T74.5,427T59,489q0,77 56,129t164,52q68,0 112-20.5t67.5-52T489,532H410q-7,24-40.5,47T277,602q-74,0-108.5-33.5T134,488q0-56 39-83t91-27H425v44h70V378h65V311H495V184q0-85-60-138.5T269-8Zm0,67q79,0 117.5,36.5T425,178V311H255q-42,0-74.5-17T130,249.5T112,188t19.5-63.5t55-47.5T269,59Z" />
      <glyph unicode="&apos;" glyph-name="quotesingle" horiz-adv-x="183" d="M66,443L47,662h89L117,443H66Z" />
      <glyph unicode="(" glyph-name="parenleft" horiz-adv-x="245" d="M163-138Q100-40 67.5,64.5T35,281q0,111 32.5,216.5T163,700h68q-57-91-88.5-197.5T111,281T142.5,59.5T231-138H163Z" />
      <glyph unicode=")" glyph-name="parenright" horiz-adv-x="245" d="M14-138Q71-47 102.5,59.5T134,281T102.5,502.5T14,700H82q63-97 95.5-202.5T210,281q0-112-32.5-216.5T82-138H14Z" />
      <glyph unicode="*" glyph-name="asterisk" horiz-adv-x="373" d="M132,397L81,434l74,81L48,538l19,60l100-45L155,662h63L206,553l100,45l19-60L218,516l74-82l-51-37l-54,95l-55-95Z" />
      <glyph unicode="+" glyph-name="plus" horiz-adv-x="550" d="M242,0V203H50v65H242V471h65V268H500V203H307V0H242Z" />
      <glyph unicode="," glyph-name="comma" horiz-adv-x="220" d="M11-111L69,102h98L79-111H11Z" />
      <glyph unicode="-" glyph-name="hyphen" horiz-adv-x="360" d="M55,259v73H305V259H55Z" />
      <glyph unicode="." glyph-name="period" horiz-adv-x="203" d="M53,0V102h97V0H53Z" />
      <glyph unicode="/" glyph-name="slash" horiz-adv-x="371" d="M36-32L265,680h70L106-32H36Z" />
      <glyph unicode="0" glyph-name="zero" horiz-adv-x="550" d="M275-8Q158-8 100.5,78.5T43,331t57.5,252.5T275,670q68-1 113-29.5T459,564t37-108t11-125q0-166-57.5-252.5T275-8Zm0,73q51,1 82,25t47.5,63t22,85.5T432,331q0,133-37,199.5T275,597q-82,0-119.5-66.5T118,331t37.5-199.5T275,65Z" />
      <glyph unicode="1" glyph-name="one" horiz-adv-x="550" d="M275,0V590H135v72H350V0H275Z" />
      <glyph unicode="2" glyph-name="two" horiz-adv-x="550" d="M52,0V41q0,49 27,89.5T148,206t90,67.5T328,337t69,64.5T424,473q0,58-38.5,91T275,597q-66,0-107.5-29.5T118,482H43q6,57 37.5,99.5T162,647t111,23q72,0 122.5-26t77-70T499,475q0-46-25-86t-65-75t-84.5-66T239,187.5t-68-58T141,72H497V0H52Z" />
      <glyph unicode="3" glyph-name="three" horiz-adv-x="550" d="M277-8Q215-8 163.5,16.5T79,82T41,175h76q5-31 28-56t57.5-39.5T277,65q71,0 110.5,36T427,188q0,34-18.5,62.5t-50.5,46T284,314H208v69h67q35,0 64.5,13.5t47.5,38T405,491q0,47-33.5,76.5T273,597q-61,0-97.5-28T132,503H59q5,41 30.5,79T161,645t110,25q98,0 153.5-49.5T480,494q0-33-15.5-62.5T426,381t-46-28q58-22 90-66t32-97q0-59-30-103.5T391,17T277-8Z" />
      <glyph unicode="4" glyph-name="four" horiz-adv-x="550" d="M347,0V169H31v73L309,662H422V236h89V169H422V0H347ZM101,236H347V598L101,236Z" />
      <glyph unicode="5" glyph-name="five" horiz-adv-x="550" d="M280-8Q216-8 172.5,9.5T102.5,54t-41,57T42,166h77q8-24 26-47.5T195.5,80T277,65q45,0 78.5,19.5t52.5,53T427,212q0,66-41.5,106.5T279,359q-44,0-79-16.5T148,306L79,348l45,314H469V590H192L162,398q23,14 55,22.5t62,8.5q67,0 117-28t78-76.5T502,212q0-61-29.5-111T393,21.5T280-8Z" />
      <glyph unicode="6" glyph-name="six" horiz-adv-x="550" d="M288-8Q167-8 105,80T43,331q0,157 63,248t188,91q64,0 105.5-24T465,585t32-77H413q-7,22-20.5,42t-37,33.5T294,597q-61,0-100-36t-57.5-97T118,328q24,41 71,67.5T291,422q63,0 114-27.5t81-76T516,207q0-62-31-110.5T402.5,20T288-8Zm0,73q42,0 77,18t55.5,50.5T441,207t-20.5,73.5T365,332t-77,19t-76.5-17.5t-55.5-49T135,212q0-44 20.5-77t55-51.5T288,65Z" />
      <glyph unicode="7" glyph-name="seven" horiz-adv-x="550" d="M143,0L429,590H47v72H506V577L230,0H143Z" />
      <glyph unicode="8" glyph-name="eight" horiz-adv-x="550" d="M275-8Q162-8 100,47T38,190q0,57 34.5,104.5T165,364q-22,8-45.5,25.5T80,435.5T64,503q0,74 54.5,120.5T275,670t156.5-46.5T486,503q0-39-16-67.5t-39.5-46T385,364q59-22 93-69.5T512,190q0-88-62-143T275-8Zm0,404q31,0 62.5,10.5T390,440t21,59q0,47-38,73t-98,26t-98-26t-38-73q0-36 21-59t52.5-33.5T275,396Zm0-332q74,0 118,34.5T437,191q0,43-22,73.5T356.5,311T275,327q-44,0-81-16t-59-46.5T113,191q0-58 44-92.5T275,64Z" />
      <glyph unicode="9" glyph-name="nine" horiz-adv-x="550" d="M256-8Q193-8 151,16T85.5,77.5T53,154h84q7-21 20.5-41.5t37.5-34T256,65q62,0 100.5,36t57,97T432,334q-24-41-70.5-67.5T259,240q-62,0-113.5,27.5T64,343.5T34,455q0,62 31,110.5T148,642t114,28q121,0 183-88t62-251q0-157-63-248T256-8Zm6,319q42,0 77,17.5t55.5,49T415,450q0,44-20.5,77t-55,51.5T262,597q-42,0-76.5-18T130,529t-21-74q0-41 21-73.5T185.5,330T262,311Z" />
      <glyph unicode=":" glyph-name="colon" horiz-adv-x="203" d="M53,398V500h97V398H53ZM53,0V102h97V0H53Z" />
      <glyph unicode=";" glyph-name="semicolon" horiz-adv-x="245" d="M80,398V500h97V398H80ZM25-133L83,80h98L93-133H25Z" />
      <glyph unicode="&lt;" glyph-name="less" horiz-adv-x="550" d="M507,8L26,220v63L507,496V418L102,252L507,86V8Z" />
      <glyph unicode="=" glyph-name="equal" horiz-adv-x="550" d="M57,301v67H493V301H57Zm0-198v67H493V103H57Z" />
      <glyph unicode="&gt;" glyph-name="greater" horiz-adv-x="550" d="M42,8V86L447,252L42,418v78L523,283V220L42,8Z" />
      <glyph unicode="?" glyph-name="question" horiz-adv-x="510" d="M227,183q0,49 17,83.5t42,60t49.5,49t41.5,50T394,489q0,25-11.5,51T343,583.5T266,601t-82.5-19t-52-50T110,466H39q3,55 30.5,101.5t76,74.5T260,670q72,0 117.5-26.5t66.5-68T465,489q0-47-16.5-78.5t-41-56T358,307t-41.5-52.5T300,183H227ZM215,0V102h97V0H215Z" />
      <glyph unicode="@" glyph-name="at" horiz-adv-x="852" d="M392-100q-75,0-137.5,27T146,0.5t-71,108T50,239q0,82 33.5,157T175,529.5T308.5,622T468,656q68,0 129.5-25.5T707,559t75.5-107.5T810,318q0-85-27-139T713.5,99T624,73q-34,0-53,10.5T543.5,108T533,132.5T531,143q-26-32-61-51T386,73q-85,0-127.5,48T216,239q0,73 30.5,127.5t82,85T443,482q50,0 82-19t49-51l10,64h60L597,184q0,0-0.5-3.5T596,171q0-9 3.5-21.5t15-22T649,118q56,0 90,47t34,149q0,65-23.5,120.5t-65.5,97T587,596T468,619q-75,0-143.5-30t-122-83T118,384.5T87,239q0-64 23.5-119.5t65.5-96T273-40T392-63q69,0 121.5,18.5T612,11l22-30Q582-61 519-80.5T392-100Zm10,227q49,0 84,25.5t53.5,67T558,308q0,50-29,85.5T443,429q-73,0-120-50.5T276,245q0-51 31-84.5T402,127Z" />
      <glyph unicode="A" glyph-name="A" horiz-adv-x="662" d="M3,0L284,662h94L659,0H576L495,192H167L86,0H3ZM196,261H466L331,584L196,261Z" />
      <glyph unicode="B" glyph-name="B" horiz-adv-x="662" d="M81,0V662H378q78,0 123.5-27T567,567.5T587,487q0-64-27-98.5T498,338q28-9 56.5-28.5T602,257t19-83q0-74-56.5-124T395,0H81Zm75,366H378q35,0 65.5,12T493,415.5T512,481q0,28-12.5,53t-40,41T386,591H156V366Zm0-295H403q68,0 105.5,28.5T546,180q0,47-36,82.5T395,298H156V71Z" />
      <glyph unicode="C" glyph-name="C" horiz-adv-x="690" d="M359-8Q260-8 188,37.5T77.5,160T39,331T77.5,502T188,624.5T359,670q75,0 135-26.5T596,571t63-107H580q-25,61-79,97T365,597q-80,0-136.5-35.5T143,466T114,331q0-74 29-134.5t85.5-96T365,65q82,0 136,36t79,97h79q-21-60-63-106.5t-102-73T359-8Z" />
      <glyph unicode="D" glyph-name="D" horiz-adv-x="703" d="M81,0V662H360q59,0 113.5-22.5T571,574t68-104t25-139T639,192T571,88T473.5,22.5T360,0H81Zm75,71H357q71,0 123,36t80.5,95T589,331q0,71-28.5,130T480,555.5T357,591H156V71Z" />
      <glyph unicode="E" glyph-name="E" horiz-adv-x="608" d="M81,0V662H568V590H156V368H524V295H156V72H568V0H81Z" />
      <glyph unicode="F" glyph-name="F" horiz-adv-x="583" d="M81,0V662H559V590H156V360H515V287H156V0H81Z" />
      <glyph unicode="G" glyph-name="G" horiz-adv-x="723" d="M363-8Q262-8 189.5,37.5T78,160T39,331T79,502T192.5,624.5T365,670q107,0 185.5-52.5T666,482H584q-30,53-83.5,84T371,597q-80,0-138-35.5T144.5,466T114,331q0-74 30-134.5t87.5-96T369,65q60,0 113.5,26t87,75T603,284H361v68H672V0H603V117q-21-32-54-60.5T469.5,10T363-8Z" />
      <glyph unicode="H" glyph-name="H" horiz-adv-x="697" d="M81,0V662h75V368H541V662h75V0H541V295H156V0H81Z" />
      <glyph unicode="I" glyph-name="I" horiz-adv-x="237" d="M81,0V662h75V0H81Z" />
      <glyph unicode="J" glyph-name="J" horiz-adv-x="527" d="M236-8Q165-8 117.5,19.5T45,89.5T15,177H93q4-26 21-52t48-43t78-17q45,0 72.5,14.5t41,38.5T372,169.5t5,52.5V662h75V219q0-58-20.5-110t-68-84.5T236-8Z" />
      <glyph unicode="K" glyph-name="K" horiz-adv-x="641" d="M81,0V662h75V317L524,662H630L348,396L646,0H552L293,345L156,217V0H81Z" />
      <glyph unicode="L" glyph-name="L" horiz-adv-x="533" d="M81,0V662h75V72H517V0H81Z" />
      <glyph unicode="M" glyph-name="M" horiz-adv-x="806" d="M81,0V662h87L405,348L638,662h87V0H650V548L405,233L156,548V0H81Z" />
      <glyph unicode="N" glyph-name="N" horiz-adv-x="733" d="M81,0V662h87L577,105V662h75V0H565L156,559V0H81Z" />
      <glyph unicode="O" glyph-name="O" horiz-adv-x="750" d="M375-8Q300-8 238,18T131.5,91T63,199.5T39,331q0,71 24,132t68.5,108T238,644t137,26t137-26t106.5-73T687,463t24-132q0-70-24-131.5T618.5,91T512,18T375-8Zm0,73q81,0 139.5,35.5t90,96T636,331q0,75-31.5,135t-90,95.5T375,597q-80,0-139-35.5T145.5,466T114,331q0-74 31.5-134.5t90.5-96T375,65Z" />
      <glyph unicode="P" glyph-name="P" horiz-adv-x="628" d="M81,0V662H379q106,0 167-57.5T607,449T546,293.5T379,236H156V0H81Zm75,306H374q78,0 118,38t40,105q0,66-40,104T374,591H156V306Z" />
      <glyph unicode="Q" glyph-name="Q" horiz-adv-x="750" d="M596-157q-49,0-95,19T419-85T361-7Q265-4 192.5,42T79.5,163.5T39,331q0,71 24,132t68.5,108T238,644t137,26t137-26t106.5-73T687,463t24-132q0-84-34.5-154.5T580.5,59T437-2q10-18 30-39.5T519-78t78-15q36,0 65.5,12T718-48l40-54q-35-28-74.5-41.5T596-157ZM375,65q81,0 139.5,35.5t90,96T636,331q0,75-31.5,135t-90,95.5T375,597q-80,0-139-35.5T145.5,466T114,331q0-74 31.5-134.5t90.5-96T375,65Z" />
      <glyph unicode="R" glyph-name="R" horiz-adv-x="669" d="M81,0V662H398q102,0 162.5-56T621,455q0-64-24.5-102T535,295.5T461,267L635,0H546L386,254H156V0H81Zm75,325H385q36,0 73,11t62.5,39.5T546,455q0,63-43,99.5T389,591H156V325Z" />
      <glyph unicode="S" glyph-name="S" horiz-adv-x="615" d="M318-8Q220-8 159,18.5T67.5,92T32,198h78q3-48 32-77.5T218.5,77T323,63q84,0 133,29.5T505,180q0,35-24.5,56.5t-65,35.5T327,297.5T230.5,322t-89,33t-65,51.5T52,487q0,81 62.5,132T301,670q88,0 145-26.5T531.5,574T563,481H486q-6,50-50,84.5T301,600q-56,0-91-11t-53.5-28.5t-25-36.5T125,488q0-33 24.5-53.5t65-34T304,376t97.5-24.5t89-34t65-52.5T580,183q0-92-70-141.5T318-8Z" />
      <glyph unicode="T" glyph-name="T" horiz-adv-x="565" d="M245,0V591H14v71H551V591H320V0H245Z" />
      <glyph unicode="U" glyph-name="U" horiz-adv-x="709" d="M354-8Q272-8 208.5,28.5T109,131T73,285V662h75V283q0-77 29.5-125t77-70.5T354,65q53,0 100,22.5T531,158t30,125V662h75V285q0-87-36-153T500.5,29T354-8Z" />
      <glyph unicode="V" glyph-name="V" horiz-adv-x="628" d="M271,0L3,662H85L314,85L543,662h82L357,0H271Z" />
      <glyph unicode="W" glyph-name="W" horiz-adv-x="958" d="M215,0L9,662H88L258,106L436,662h86L700,106L870,662h79L743,0H658L479,556L300,0H215Z" />
      <glyph unicode="X" glyph-name="X" horiz-adv-x="613" d="M-3,0L261,342L15,662h95L306,402L503,662h95L352,342L616,0H521L306,284L92,0H-3Z" />
      <glyph unicode="Y" glyph-name="Y" horiz-adv-x="636" d="M281,0V262L3,662H94L318,340L542,662h91L356,262V0H281Z" />
      <glyph unicode="Z" glyph-name="Z" horiz-adv-x="584" d="M29,0V71L461,592H35v70H553V590L121,70H553V0H29Z" />
      <glyph unicode="[" glyph-name="bracketleft" horiz-adv-x="280" d="M66-133V679H253V617H132V-71H253v-62H66Z" />
      <glyph unicode="\" glyph-name="backslash" horiz-adv-x="371" d="M265-32L36,680h70L335-32H265Z" />
      <glyph unicode="]" glyph-name="bracketright" horiz-adv-x="280" d="M27-133v62H148V617H27v62H214V-133H27Z" />
      <glyph unicode="^" glyph-name="asciicircum" horiz-adv-x="509" d="M75,355L224,668h61L434,355H364L255,570L145,355H75Z" />
      <glyph unicode="_" glyph-name="underscore" horiz-adv-x="600" d="M50-128v55H550v-55H50Z" />
      <glyph unicode="`" glyph-name="grave" horiz-adv-x="340" d="M200,570L93,675H200l61-105H200Z" />
      <glyph unicode="a" glyph-name="a" horiz-adv-x="595" d="M276-8Q203-8 148.5,26.5T64,120T34,250q0,72 30,130.5t84.5,93T276,508q62,0 106.5-24T455,419v81h75V0H455V80q-28-40-72.5-64T276-8Zm10,68q56,0 94.5,26T439,155.5T459,250q0,52-20,95t-58.5,69T286,440q-55,0-95-26t-61-69t-21-95q0-51 21-94.5T191,86t95-26Z" />
      <glyph unicode="b" glyph-name="b" horiz-adv-x="595" d="M319-8Q257-8 212.5,16T140,80V0H65V700h75V419q28,41 72.5,65T319,508q73,0 127.5-34.5t84.5-93T561,250q0-71-30-130T446.5,26.5T319-8ZM309,60q56,0 95.5,26T465,155.5T486,250q0,52-21,95t-60.5,69T309,440q-55,0-94-26t-59-69t-20-95q0-51 20-94.5T215,86t94-26Z" />
      <glyph unicode="c" glyph-name="c" horiz-adv-x="544" d="M280-8Q205-8 150,26.5T64.5,120T34,250q0,72 30.5,130.5t85.5,93T280,508q89,0 151.5-46T516,343H435q-17,43-54.5,70T290,440q-55,0-96-26t-63-69t-22-95q0-51 22-94.5T194,86t96-26q53,0 90.5,27T435,157h81Q494,84 431.5,38T280-8Z" />
      <glyph unicode="d" glyph-name="d" horiz-adv-x="595" d="M276-8Q203-8 148.5,26.5T64,120T34,250q0,72 30,130.5t84.5,93T276,508q62,0 106.5-24T455,419V700h75V0H455V80q-28-40-72.5-64T276-8Zm10,68q56,0 94.5,26T439,155.5T459,250q0,52-20,95t-58.5,69T286,440q-55,0-95-26t-61-69t-21-95q0-51 21-94.5T191,86t95-26Z" />
      <glyph unicode="e" glyph-name="e" horiz-adv-x="557" d="M287-8Q211-8 154,26.5T65.5,120T34,250q0,72 30,130.5t86,93T282,508q77,0 132.5-34.5t85.5-93T530,250V220H111q6-44 28.5-80.5t60.5-58T288,60q53,0 89,23.5T433,144h82Q489,77 432.5,34.5T287-8ZM112,290H452q-10,64-54,107T282,440T166.5,397T112,290Z" />
      <glyph unicode="f" glyph-name="f" horiz-adv-x="307" d="M99,0V434H13v66H99v44q0,82 49.5,123T284,708h6V637H280q-52,0-79-23.5T174,538V500H290V434H174V0H99Z" />
      <glyph unicode="g" glyph-name="g" horiz-adv-x="595" d="M294-206q-94,0-153,40.5T61-60h83q15-37 52-57.5T290-138q86,0 125.5,40.5T455,20V89q-28-40-72.5-64.5T276,0Q203,0 148.5,33.5T64,125T34,254q0,72 30,129.5t84.5,91T276,508q62,0 106.5-23.5T455,420v80h75V15q0-107-61.5-164T294-206ZM286,68q55,0 93.5,25t59,67.5T459,254q0,52-20.5,94t-59,67T286,440t-95-25t-61-67t-21-94q0-51 21-93.5T191,93t95-25Z" />
      <glyph unicode="h" glyph-name="h" horiz-adv-x="566" d="M65,0V700h75V422q27,36 66,61t100,25q52,0 97.5-24.5t74-73T506,291V0H431V289q0,68-39,109.5T291,440q-42,0-76-19t-54.5-53.5T140,288V0H65Z" />
      <glyph unicode="i" glyph-name="i" horiz-adv-x="205" d="M62,584v98h81V584H62ZM65,0V500h75V0H65Z" />
      <glyph unicode="j" glyph-name="j" horiz-adv-x="205" d="M62,584v98h81V584H62Zm3-782V500h75V-198H65Z" />
      <glyph unicode="k" glyph-name="k" horiz-adv-x="502" d="M65,0V700h75V252L381,500H486L285,303L501,0H409L234,251l-94-93V0H65Z" />
      <glyph unicode="l" glyph-name="l" horiz-adv-x="205" d="M65,0V700h75V0H65Z" />
      <glyph unicode="m" glyph-name="m" horiz-adv-x="868" d="M65,0V500h75V424q17,30 54,57t98,27q50,0 92.5-26.5T451,407q10,17 31.5,41T539,490t84,18q48,0 90-25t68.5-71.5T808,302V0H733V300q0,63-35.5,101.5T609,440q-55,0-95-37T474,299V0H399V300q0,63-35.5,101.5T275,440q-55,0-95-37T140,299V0H65Z" />
      <glyph unicode="n" glyph-name="n" horiz-adv-x="566" d="M65,0V500h75V422q27,36 66,61t100,25q52,0 97.5-24.5t74-73T506,291V0H431V289q0,68-39,109.5T291,440q-42,0-76-19t-54.5-53.5T140,288V0H65Z" />
      <glyph unicode="o" glyph-name="o" horiz-adv-x="564" d="M282-8Q206-8 150,26.5T64,120T34,250q0,72 30,130.5t86,93T282,508q77,0 132.5-34.5t85.5-93T530,250q0-71-30-130T414.5,26.5T282-8Zm0,68q56,0 94.5,26T435,155.5T455,250q0,52-20,95t-58.5,69T282,440q-55,0-94-26t-59-69t-20-95q0-51 20-94.5T188,86t94-26Z" />
      <glyph unicode="p" glyph-name="p" horiz-adv-x="595" d="M65-198V500h75V420q28,41 72.5,64.5T319,508q73,0 127.5-34.5t84.5-93T561,250q0-71-30-130T446.5,26.5T319-8Q257-8 212.5,16.5T140,81V-198H65ZM309,60q56,0 95.5,26T465,155.5T486,250q0,52-21,95t-60.5,69T309,440q-55,0-94-26t-59-69t-20-95q0-51 20-94.5T215,86t94-26Z" />
      <glyph unicode="q" glyph-name="q" horiz-adv-x="595" d="M455-198V81q-28-40-72.5-64.5T276-8Q203-8 148.5,26.5T64,120T34,250q0,72 30,130.5t84.5,93T276,508q62,0 106.5-23.5T455,420v80h75V-198H455ZM286,60q56,0 94.5,26T439,155.5T459,250q0,52-20,95t-58.5,69T286,440q-55,0-95-26t-61-69t-21-95q0-51 21-94.5T191,86t95-26Z" />
      <glyph unicode="r" glyph-name="r" horiz-adv-x="345" d="M65,0V500h75V377q4,13 15.5,34.5T189,455t55.5,37.5T324,508h5V433h-9q-56,0-96.5-30.5t-62-79T140,220V0H65Z" />
      <glyph unicode="s" glyph-name="s" horiz-adv-x="482" d="M247-8Q178-8 130.5,15T58,75.5T30,157h78q3-25 17.5-48.5t44.5-38T248,56q15,0 37,3t42.5,11T362,94t14,41q0,31-24,48t-62,26.5T209.5,228T129,251.5t-62,41T43,365q0,68 49.5,105.5T239,508q66,0 107.5-20.5t63-52.5T435,366H359q-4,32-31.5,55T237,444q-119,0-119-72q0-30 24-46t62-25.5t80.5-18T365,259t62-42.5T451,142q0-73-55.5-111.5T247-8Z" />
      <glyph unicode="t" glyph-name="t" horiz-adv-x="326" d="M119,0V434H17v66H119V679h75V500H309V434H194V0H119Z" />
      <glyph unicode="u" glyph-name="u" horiz-adv-x="566" d="M260-8q-51,0-97,24.5t-74.5,73T60,209V500h75V211q0-68 39.5-109.5T275,60q42,0 76,19.5T405.5,133T426,212V500h75V0H426V78q-27-36-66-61T260-8Z" />
      <glyph unicode="v" glyph-name="v" horiz-adv-x="489" d="M201,0L5,500H87L245,80L402,500h82L289,0H201Z" />
      <glyph unicode="w" glyph-name="w" horiz-adv-x="746" d="M162,0L5,500H85L205,93L332,500h82L541,93L661,500h80L584,0H498L373,399L248,0H162Z" />
      <glyph unicode="x" glyph-name="x" horiz-adv-x="482" d="M4,0L197,258L16,500h96L241,311L369,500h96L284,258L478,0H382L241,204L99,0H4Z" />
      <glyph unicode="y" glyph-name="y" horiz-adv-x="497" d="M117-198L208,7L4,500H87L248,90L412,500h82L198-198H117Z" />
      <glyph unicode="z" glyph-name="z" horiz-adv-x="458" d="M31,0V71L330,431H35v69H425V430L125,70H425V0H31Z" />
      <glyph unicode="{" glyph-name="braceleft" horiz-adv-x="294" d="M269-133q-36,0-66.5,4T149-111.5T113-69T100,11V155q0,33-13.5,54T55,240T21,250v46q16,0 34,10t31.5,31T100,391V535q0,51 13,80t36,42.5T202.5,675t66.5,4V625q-60-1-81.5-19.5T166,534V402q0-56-21-85.5T96,273q28-13 49-43t21-86V12q0-52 21.5-71T269-79v-54Z" />
      <glyph unicode="|" glyph-name="bar" horiz-adv-x="191" d="M65-179V748h61V-179H65Z" />
      <glyph unicode="}" glyph-name="braceright" horiz-adv-x="294" d="M25-133v54q60,1 81.5,20T128,12V144q0,56 21,86t49,43q-28,14-49,43.5T128,402V534q0,53-21.5,71.5T25,625v54q36,0 66.5-4T145,657.5T181,615t13-80V391q0-33 13.5-54t32-31T273,296V250q-15,0-33.5-10t-32-31T194,155V11q0-51-13-80t-36-42.5T91.5-129T25-133Z" />
      <glyph unicode="~" glyph-name="asciitilde" horiz-adv-x="524" d="M48,215q2,18 7.5,41T73,300.5t33,35T160,349q26,0 55.5-9T274,318.5T328.5,297t42.5-9q30,0 45,14.5t21.5,32T446,360h32q-3-18-8.5-41t-17-44.5t-32-35T367,226q-26,0-56,9t-59,21t-54.5,21T155,286q-31,0-46-14T88,241t-9-26H48Z" />
      <glyph unicode="&#xa0;" glyph-name="uni00A0" horiz-adv-x="213" />
      <glyph unicode="&#xa1;" glyph-name="exclamdown" horiz-adv-x="207" d="M76,317L57-162h93L131,317H76ZM55,500V398h97V500H55Z" />
      <glyph unicode="&#xa2;" glyph-name="cent" horiz-adv-x="574" d="M280-101V-8Q209-4 157,31T76.5,123.5T48,250T76.5,376.5t80.5,93T280,508v87h36V507q80-6 137-51t77-113H449q-16,41-50,67t-83,30V60q49,4 83,30.5T449,157h81Q510,89 453,44T316-7v-94H280Zm0,162V439q-48-6-83.5-33T142,338.5T123,250q0-47 19-88t54.5-68T280,61Z" />
      <glyph unicode="&#xa3;" glyph-name="sterling" horiz-adv-x="575" d="M48,0V61l80,9V319H57v58h71v72q0,58 20,108.5T213,639t120,31q63,0 103.5-21.5t63.5-56T531,518H460q-10,32-39,56.5T336,599q-45,0-72-14t-40.5-37t-18-49.5T201,446V377H349V319H201V70H504V0H48Z" />
      <glyph unicode="&#xa4;" glyph-name="currency" horiz-adv-x="567" d="M93,88L48,133l64,64q-19,27-30,59T71,324q0,71 41,126L48,515l45,45l64-65q27,20 59,30.5T284,536q71,0 126-41l65,65l44-45l-64-65q41-55 41-126q0-36-10.5-68T455,197l64-64L475,88l-65,65q-54-42-126-42q-71,0-127,42L93,88Zm191,84q42,0 76.5,20.5t55,55T436,324t-20.5,76.5t-55,55T284,476t-76.5-20.5t-55-55T132,324t20.5-76.5t55-55T284,172Z" />
      <glyph unicode="&#xa5;" glyph-name="yen" horiz-adv-x="657" d="M291,0V125H98v65H291v72l-17,27H98v65H232L37,662h91L328,340L529,662h91L424,354H559V289H383l-17-27V190H559V125H366V0H291Z" />
      <glyph unicode="&#xa6;" glyph-name="brokenbar" horiz-adv-x="191" d="M65,393V748h61V393H65Zm61-216V-179H65V177h61Z" />
      <glyph unicode="&#xa7;" glyph-name="section" horiz-adv-x="519" d="M250-178q-55,0-98,22T83-98T53-19h69q6-34 41-63t90-29q46,0 77.5,20T362-33q0,32-23,57.5t-58.5,49t-76,46.5T128,169T69.5,226.5T47,298q0,45 20,74t57,44q-17,21-27.5,45.5T86,516q0,47 18,77t45.5,46.5t59,23T267,669q55,0 97-22t67-58t29-79H391q-6,35-38.5,63.5T264,602q-46,0-75.5-20T159,524q0-31 22.5-57T240,417.5T316.5,371t76-49T451,264.5T474,193q0-46-20-75T396,74q18-20 28.5-44.5T435-25q0-47-18.5-77t-47-46.5t-60.5-23T250-178ZM360,109q19,9 30,25t11,41q0,35-24,61.5t-61,49T237.5,331T161,382q-19-10-30-26t-11-40q0-35 24-61.5T205,205t78.5-45.5T360,109Z" />
      <glyph unicode="&#xa8;" glyph-name="dieresis" horiz-adv-x="246" d="M0,579v83H89V579H0Zm157,0v83h89V579H157Z" />
      <glyph unicode="&#xa9;" glyph-name="copyright" horiz-adv-x="779" d="M389-13q-71,0-133,26.5T147,87T73.5,196T47,329T73.5,462.5T147,572t109,73.5T389,672t133-26.5T631.5,572t74-109.5T732,329T705.5,196t-74-109T522,13.5T389-13Zm0,49q61,0 114,23t93.5,63.5T660,216t23,113q0,61-23,114t-63.5,93.5T503,600T389,623T275,600t-93.5-63.5t-63-93.5T96,329q0-60 22.5-113t63-93.5T275,59T389,36Zm0,97q-58,0-100,25.5t-64.5,70T202,329q0,57 22.5,101T289,499t100,25q68,0 118.5-35T569,382H502q-7,37-35.5,58T394,461q-58,0-91-36.5T270,329q0-58 33-95t91-37q44,0 72.5,21T502,276h67q-11-73-61.5-108T389,133Z" />
      <glyph unicode="&#xaa;" glyph-name="ordfeminine" horiz-adv-x="371" d="M167,392q-60,0-95,40T37,529t35,97t95,40q33,0 56.5-13T262,619v43h52V396H262v43q-15-22-38.5-34.5T167,392Zm10,48q40,0 63,25.5T263,529t-23,63.5T177,618q-43,0-65.5-25.5T89,529q0-39 22.5-64T177,440Z" />
      <glyph unicode="&#xab;" glyph-name="guillemotleft" horiz-adv-x="487" d="M169,57L39,259L169,461h89L121,259L258,57H169Zm184,0L223,259L353,461h89L305,259L442,57H353Z" />
      <glyph unicode="&#xac;" glyph-name="logicalnot" horiz-adv-x="593" d="M457,186V321H62v68H529V186H457Z" />
      <glyph unicode="&#xad;" glyph-name="uni00AD" horiz-adv-x="356" d="M55,259v73H305V259H55Z" />
      <glyph unicode="&#xae;" glyph-name="registered" horiz-adv-x="779" d="M389-13q-71,0-133,26.5T147,87T73.5,196T47,329T73.5,462.5T147,572t109,73.5T389,672t133-26.5T631.5,572t74-109.5T732,329T705.5,196t-74-109T522,13.5T389-13Zm0,49q61,0 114,23t93.5,63.5T660,216t23,113q0,61-23,114t-63.5,93.5T503,600T389,623T275,600t-93.5-63.5t-63-93.5T96,329q0-60 22.5-113t63-93.5T275,59T389,36ZM240,138V520H402q81,0 118.5-31.5T558,407q0-34-20-60.5T483,309q29-8 44-30t20.5-48t5.5-46V138H484v38q0,19-3.5,42.5T461,260t-54,18H310V138H240Zm70,200h87q41,0 66.5,16T489,400q0,28-20.5,44.5T395,461H310V338Z" />
      <glyph unicode="&#xaf;" glyph-name="macron" horiz-adv-x="382" d="M57,582v60H321V582H57Z" />
      <glyph unicode="&#xb0;" glyph-name="degree" horiz-adv-x="333" d="M166,406q-36,0-65.5,17.5t-47,47T36,536t17.5,66t47,47.5T166,667t66-17.5T279.5,602T297,536t-17.5-65.5t-47.5-47T166,406Zm0,57q31,0 52.5,21.5T240,536q0,31-21.5,52.5T166,610q-30,0-51.5-21.5T93,536q0-30 21.5-51.5T166,463Z" />
      <glyph unicode="&#xb1;" glyph-name="plusminus" horiz-adv-x="550" d="M242,122V276H50v65H242V495h65V341H500V276H307V122H242ZM50,0V62H500V0H50Z" />
      <glyph unicode="&#xb2;" glyph-name="uni00B2" horiz-adv-x="357" d="M50,449v33q0,41 28.5,73.5T174,632q29,22 48,46t19,49q0,26-16.5,40.5T178,782q-28,0-50-19t-22-51H43q0,42 20.5,70t52,42.5T178,839q50,0 88-27.5T304,728q0-49-32-84.5T194,576q-28-18-51.5-34T112,509H306V449H50Z" />
      <glyph unicode="&#xb3;" glyph-name="uni00B3" horiz-adv-x="366" d="M184,443q-40,0-72.5,16T60,502T41,562h62q0-29 25-44.5T183,502q28,0 51,14.5T257,561q0,26-20.5,43.5T193,622H139v60h48q21,0 38.5,13.5T243,731q0,24-16.5,37T182,781q-31,0-50.5-14.5T112,729H52q0,47 37,78.5T181,839t90-29t35-77q0-22-13-44t-33-35q58-30 58-92q0-33-18-60t-48-43t-68-16Z" />
      <glyph unicode="&#xb4;" glyph-name="acute" horiz-adv-x="349" d="M86,570l61,105H254L147,570H86Z" />
      <glyph unicode="&#xb5;" glyph-name="uni00B5" horiz-adv-x="564" d="M72-198V500h75V211q0-68 39.5-109.5T287,60q42,0 76,19.5T417.5,133T438,212V500h75V0H438V78q-27-36-64-61T276-8Q197-8 147,46V-198H72Z" />
      <glyph unicode="&#xb6;" glyph-name="paragraph" horiz-adv-x="565" d="M276-141V335H203q-46,0-84,22.5T58.5,418T36,502q0,47 22.5,85T119,647.5T203,670H509V616H466V-141H407V616H335V-141H276Z" />
      <glyph unicode="&#xb7;" glyph-name="periodcentered" horiz-adv-x="203" d="M53,242V344h97V242H53Z" />
      <glyph unicode="&#xb8;" glyph-name="cedilla" horiz-adv-x="300" d="M151-206q-38,0-68.5,12.5T33-165l19,33q16-11 37-20.5t48-9.5q23,0 39,8t16,28q0,15-16,24t-37,9q-18,0-35-5L83-81L152,27h43L151-50q12,2 22,2q38,0 65-20.5T265-125q0-42-34-61.5T151-206Z" />
      <glyph unicode="&#xb9;" glyph-name="uni00B9" horiz-adv-x="319" d="M137,449V775H55v60H199V449H137Z" />
      <glyph unicode="&#xba;" glyph-name="ordmasculine" horiz-adv-x="342" d="M171,392q-61,0-97.5,39.5T37,529q0,59 36.5,98T171,666t97.5-39T305,529q0-58-36.5-97.5T171,392Zm0,60q33,0 52,22.5T242,529q0,31-18,54t-53,23t-53-23t-18-54t18-54t53-23Z" />
      <glyph unicode="&#xbb;" glyph-name="guillemotright" horiz-adv-x="487" d="M45,57L182,259L45,461h89L264,259L134,57H45Zm184,0L366,259L229,461h89L448,259L318,57H229Z" />
      <glyph unicode="&#xbc;" glyph-name="onequarter" horiz-adv-x="729" d="M137,276V602H55v60H199V276H137ZM111-14L531,674h64L175-14H111ZM633,151h52V93H633V-5H571V93H387v55L553,381h80V151Zm-184,0H571V322L449,151Z" />
      <glyph unicode="&#xbd;" glyph-name="onehalf" horiz-adv-x="753" d="M457,0V33q0,41 28.5,73.5T581,183q29,22 48,46t19,49q0,26-16.5,40.5T585,333q-28,0-50-19t-22-51H450q0,42 20.5,70t52,42.5T585,390q50,0 88-27.5T711,279q0-49-32-84.5T601,127q-28-18-51.5-34T519,60H713V0H457ZM137,276V602H55v60H199V276H137ZM111-14L531,674h64L175-14H111Z" />
      <glyph unicode="&#xbe;" glyph-name="threequarters" horiz-adv-x="792" d="M185,270q-40,0-72.5,16T61,329T42,389h62q0-29 25-44.5T184,329q28,0 51,14.5T258,388q0,26-20.5,43.5T194,449H140v60h48q21,0 38.5,13.5T244,558q0,24-16.5,37T183,608q-31,0-50.5-14.5T113,556H53q0,47 37,78.5T182,666t90-29t35-77q0-22-13-44t-33-35q58-30 58-92q0-33-18-60t-48-43t-68-16ZM174-14L594,674h64L238-14H174ZM696,156h52V98H696V0H634V98H450v55L616,386h80V156Zm-184,0H634V327L512,156Z" />
      <glyph unicode="&#xbf;" glyph-name="questiondown" horiz-adv-x="510" d="M283,317q0-49-17-83.5t-42-60t-49.5-49T133,74.5T116,11q0-25 11.5-51T167-83.5T244-101t82.5,19t52,50T400,34h71q-3-55-30.5-101.5t-76-74.5T250-170q-72,0-117.5,26.5T66-75.5T45,11q0,47 16.5,78.5t41,56T152,193t41.5,52.5T210,317h73Zm12,183V398H198V500h97Z" />
      <glyph unicode="&#xc0;" glyph-name="Agrave" horiz-adv-x="662" d="M3,0L284,662h94L659,0H576L495,192H167L86,0H3ZM196,261H466L331,584L196,261ZM304,725L197,830H304l61-105H304Z" />
      <glyph unicode="&#xc1;" glyph-name="Aacute" horiz-adv-x="662" d="M3,0L284,662h94L659,0H576L495,192H167L86,0H3ZM196,261H466L331,584L196,261ZM297,725l61,105H465L358,725H297Z" />
      <glyph unicode="&#xc2;" glyph-name="Acircumflex" horiz-adv-x="662" d="M3,0L284,662h94L659,0H576L495,192H167L86,0H3ZM196,261H466L331,584L196,261Zm-6,464l98,105h87l97-105H390l-59,54l-59-54H190Z" />
      <glyph unicode="&#xc3;" glyph-name="Atilde" horiz-adv-x="662" d="M3,0L284,662h94L659,0H576L495,192H167L86,0H3ZM196,261H466L331,584L196,261ZM401,723q-33,0-54.5,10t-40,20T265,763t-34-13t-16-26H184q5,37 26.5,67.5T281,822q32,0 53.5-10t40-20.5T416,781q22,0 33.5,13.5T465,821h32q-5-37-26.5-67.5T401,723Z" />
      <glyph unicode="&#xc4;" glyph-name="Adieresis" horiz-adv-x="662" d="M3,0L284,662h94L659,0H576L495,192H167L86,0H3ZM196,261H466L331,584L196,261Zm12,469v83h89V730H208Zm157,0v83h89V730H365Z" />
      <glyph unicode="&#xc5;" glyph-name="Aring" horiz-adv-x="662" d="M3,0L284,662h94L659,0H576L495,192H167L86,0H3ZM196,261H466L331,584L196,261ZM330,635q-37,0-63,26t-26,63q0,38 26,64t63,26q38,0 64.5-26T421,724q0-37-26.5-63T330,635Zm0,45q19,0 32,13t13,31q0,19-13,32t-32,13q-17,0-30-13t-13-32q0-18 13-31t30-13Z" />
      <glyph unicode="&#xc6;" glyph-name="AE" horiz-adv-x="1022" d="M-3,0L450,662H983V590H596V368H939V295H596V72H983V0H521V185H212L87,0H-3ZM259,254H521V590H487L259,254Z" />
      <glyph unicode="&#xc7;" glyph-name="Ccedilla" horiz-adv-x="690" d="M365,65q82,0 136,36t79,97h79Q628,110 553.5,53T372-8L348-50q12,2 22,2q38,0 65-20.5T462-125q0-42-34-61.5T348-206q-38,0-68.5,12.5T230-165l19,33q16-11 37-20.5t48-9.5q23,0 39,8t16,28q0,15-16,24t-37,9q-18,0-35-5L280-81L327-7Q237,1 172.5,47.5T73.5,168T39,331q0,94 38.5,171T188,624.5T359,670q75,0 135-26.5T596,571t63-107H580q-25,61-79,97T365,597q-80,0-136.5-35.5T143,466T114,331q0-74 29-134.5t85.5-96T365,65Z" />
      <glyph unicode="&#xc8;" glyph-name="Egrave" horiz-adv-x="608" d="M81,0V662H568V590H156V368H524V295H156V72H568V0H81ZM307,725L200,830H307l61-105H307Z" />
      <glyph unicode="&#xc9;" glyph-name="Eacute" horiz-adv-x="608" d="M81,0V662H568V590H156V368H524V295H156V72H568V0H81ZM300,725l61,105H468L361,725H300Z" />
      <glyph unicode="&#xca;" glyph-name="Ecircumflex" horiz-adv-x="608" d="M81,0V662H568V590H156V368H524V295H156V72H568V0H81ZM193,725l98,105h87l97-105H393l-59,54l-59-54H193Z" />
      <glyph unicode="&#xcb;" glyph-name="Edieresis" horiz-adv-x="608" d="M81,0V662H568V590H156V368H524V295H156V72H568V0H81ZM211,730v83h89V730H211Zm157,0v83h89V730H368Z" />
      <glyph unicode="&#xcc;" glyph-name="Igrave" horiz-adv-x="237" d="M81,0V662h75V0H81ZM92,725L-15,830H92l61-105H92Z" />
      <glyph unicode="&#xcd;" glyph-name="Iacute" horiz-adv-x="237" d="M81,0V662h75V0H81Zm4,725l61,105H253L146,725H85Z" />
      <glyph unicode="&#xce;" glyph-name="Icircumflex" horiz-adv-x="237" d="M81,0V662h75V0H81ZM-22,725L76,830h87l97-105H178l-59,54L60,725H-22Z" />
      <glyph unicode="&#xcf;" glyph-name="Idieresis" horiz-adv-x="237" d="M81,0V662h75V0H81ZM-4,730v83H85V730H-4Zm157,0v83h89V730H153Z" />
      <glyph unicode="&#xd0;" glyph-name="Eth" horiz-adv-x="703" d="M81,0V298H7v65H81V662H360q59,0 113.5-22.5T571,574t68-104t25-139T639,192T571,88T473.5,22.5T360,0H81Zm75,71H357q71,0 123,36t80.5,95T589,331q0,71-28.5,130T480,555.5T357,591H156V363H355V298H156V71Z" />
      <glyph unicode="&#xd1;" glyph-name="Ntilde" horiz-adv-x="733" d="M81,0V662h87L577,105V662h75V0H565L156,559V0H81ZM437,723q-33,0-54.5,10t-40,20T301,763t-34-13t-16-26H220q5,37 26.5,67.5T317,822q32,0 53.5-10t40-20.5T452,781q22,0 33.5,13.5T501,821h32q-5-37-26.5-67.5T437,723Z" />
      <glyph unicode="&#xd2;" glyph-name="Ograve" horiz-adv-x="750" d="M375-8Q300-8 238,18T131.5,91T63,199.5T39,331q0,71 24,132t68.5,108T238,644t137,26t137-26t106.5-73T687,463t24-132q0-70-24-131.5T618.5,91T512,18T375-8Zm0,73q81,0 139.5,35.5t90,96T636,331q0,75-31.5,135t-90,95.5T375,597q-80,0-139-35.5T145.5,466T114,331q0-74 31.5-134.5t90.5-96T375,65ZM348,725L241,830H348l61-105H348Z" />
      <glyph unicode="&#xd3;" glyph-name="Oacute" horiz-adv-x="750" d="M375-8Q300-8 238,18T131.5,91T63,199.5T39,331q0,71 24,132t68.5,108T238,644t137,26t137-26t106.5-73T687,463t24-132q0-70-24-131.5T618.5,91T512,18T375-8Zm0,73q81,0 139.5,35.5t90,96T636,331q0,75-31.5,135t-90,95.5T375,597q-80,0-139-35.5T145.5,466T114,331q0-74 31.5-134.5t90.5-96T375,65ZM341,725l61,105H509L402,725H341Z" />
      <glyph unicode="&#xd4;" glyph-name="Ocircumflex" horiz-adv-x="750" d="M375-8Q300-8 238,18T131.5,91T63,199.5T39,331q0,71 24,132t68.5,108T238,644t137,26t137-26t106.5-73T687,463t24-132q0-70-24-131.5T618.5,91T512,18T375-8Zm0,73q81,0 139.5,35.5t90,96T636,331q0,75-31.5,135t-90,95.5T375,597q-80,0-139-35.5T145.5,466T114,331q0-74 31.5-134.5t90.5-96T375,65ZM234,725l98,105h87l97-105H434l-59,54l-59-54H234Z" />
      <glyph unicode="&#xd5;" glyph-name="Otilde" horiz-adv-x="750" d="M375-8Q300-8 238,18T131.5,91T63,199.5T39,331q0,71 24,132t68.5,108T238,644t137,26t137-26t106.5-73T687,463t24-132q0-70-24-131.5T618.5,91T512,18T375-8Zm0,73q81,0 139.5,35.5t90,96T636,331q0,75-31.5,135t-90,95.5T375,597q-80,0-139-35.5T145.5,466T114,331q0-74 31.5-134.5t90.5-96T375,65Zm70,658q-33,0-54.5,10t-40,20T309,763t-34-13t-16-26H228q5,37 26.5,67.5T325,822q32,0 53.5-10t40-20.5T460,781q22,0 33.5,13.5T509,821h32q-5-37-26.5-67.5T445,723Z" />
      <glyph unicode="&#xd6;" glyph-name="Odieresis" horiz-adv-x="750" d="M375-8Q300-8 238,18T131.5,91T63,199.5T39,331q0,71 24,132t68.5,108T238,644t137,26t137-26t106.5-73T687,463t24-132q0-70-24-131.5T618.5,91T512,18T375-8Zm0,73q81,0 139.5,35.5t90,96T636,331q0,75-31.5,135t-90,95.5T375,597q-80,0-139-35.5T145.5,466T114,331q0-74 31.5-134.5t90.5-96T375,65ZM252,730v83h89V730H252Zm157,0v83h89V730H409Z" />
      <glyph unicode="&#xd7;" glyph-name="multiply" horiz-adv-x="550" d="M122,54L72,104L226,257L72,411l50,49L275,307L429,460l49-49L325,257L478,104L429,54L275,208L122,54Z" />
      <glyph unicode="&#xd8;" glyph-name="Oslash" horiz-adv-x="750" d="M122-40l54,93Q111,99 75,171.5T39,331q0,71 24,132t68.5,108T238,644t137,26q38,0 73.5-7T515,642l33,58h74l-51-89q66-45 103-118.5T711,331q0-70-24-131.5T618.5,91T512,18T375-8q-40,0-76,7.5T231,21L196-40H122Zm-8,371q0-67 25.5-122.5T212,117L478,579q-47,18-103,18q-80,0-139-35.5T145.5,466T114,331ZM375,65q81,0 139.5,35.5t90,96T636,331q0,68-26.5,124.5T534,548L268,85q49-20 107-20Z" />
      <glyph unicode="&#xd9;" glyph-name="Ugrave" horiz-adv-x="709" d="M354-8Q272-8 208.5,28.5T109,131T73,285V662h75V283q0-77 29.5-125t77-70.5T354,65q53,0 100,22.5T531,158t30,125V662h75V285q0-87-36-153T500.5,29T354-8ZM328,725L221,830H328l61-105H328Z" />
      <glyph unicode="&#xda;" glyph-name="Uacute" horiz-adv-x="709" d="M354-8Q272-8 208.5,28.5T109,131T73,285V662h75V283q0-77 29.5-125t77-70.5T354,65q53,0 100,22.5T531,158t30,125V662h75V285q0-87-36-153T500.5,29T354-8ZM321,725l61,105H489L382,725H321Z" />
      <glyph unicode="&#xdb;" glyph-name="Ucircumflex" horiz-adv-x="709" d="M354-8Q272-8 208.5,28.5T109,131T73,285V662h75V283q0-77 29.5-125t77-70.5T354,65q53,0 100,22.5T531,158t30,125V662h75V285q0-87-36-153T500.5,29T354-8ZM214,725l98,105h87l97-105H414l-59,54l-59-54H214Z" />
      <glyph unicode="&#xdc;" glyph-name="Udieresis" horiz-adv-x="709" d="M354-8Q272-8 208.5,28.5T109,131T73,285V662h75V283q0-77 29.5-125t77-70.5T354,65q53,0 100,22.5T531,158t30,125V662h75V285q0-87-36-153T500.5,29T354-8ZM232,730v83h89V730H232Zm157,0v83h89V730H389Z" />
      <glyph unicode="&#xdd;" glyph-name="Yacute" horiz-adv-x="636" d="M281,0V262L3,662H94L318,340L542,662h91L356,262V0H281Zm4,725l61,105H453L346,725H285Z" />
      <glyph unicode="&#xde;" glyph-name="Thorn" horiz-adv-x="628" d="M81,0V662h75V565H379q106,0 167-57.5T607,352T546,196.5T379,139H156V0H81Zm75,209H374q78,0 118,38t40,105q0,66-40,104T374,494H156V209Z" />
      <glyph unicode="&#xdf;" glyph-name="germandbls" horiz-adv-x="557" d="M65,0V514q0,91 57,142.5T279,708q55,0 103-19t77.5-61T489,518q0-51-16.5-83.5T431,384t-50-27q29-7 62-27t56.5-57.5T523,175q0-84-61.5-129.5T293,0H205V66h89q68,0 110.5,29T447,186T396.5,286T253,324v55q68,0 114.5,34.5T414,509q0,62-33.5,97T278,641q-40,0-71-11.5T158,590t-18-80V0H65Z" />
      <glyph unicode="&#xe0;" glyph-name="agrave" horiz-adv-x="595" d="M276-8Q203-8 148.5,26.5T64,120T34,250q0,72 30,130.5t84.5,93T276,508q62,0 106.5-24T455,419v81h75V0H455V80q-28-40-72.5-64T276-8Zm10,68q56,0 94.5,26T439,155.5T459,250q0,52-20,95t-58.5,69T286,440q-55,0-95-26t-61-69t-21-95q0-51 21-94.5T191,86t95-26Zm35,510L214,675H321l61-105H321Z" />
      <glyph unicode="&#xe1;" glyph-name="aacute" horiz-adv-x="595" d="M276-8Q203-8 148.5,26.5T64,120T34,250q0,72 30,130.5t84.5,93T276,508q62,0 106.5-24T455,419v81h75V0H455V80q-28-40-72.5-64T276-8Zm10,68q56,0 94.5,26T439,155.5T459,250q0,52-20,95t-58.5,69T286,440q-55,0-95-26t-61-69t-21-95q0-51 21-94.5T191,86t95-26ZM244,570l61,105H412L305,570H244Z" />
      <glyph unicode="&#xe2;" glyph-name="acircumflex" horiz-adv-x="595" d="M276-8Q203-8 148.5,26.5T64,120T34,250q0,72 30,130.5t84.5,93T276,508q62,0 106.5-24T455,419v81h75V0H455V80q-28-40-72.5-64T276-8Zm10,68q56,0 94.5,26T439,155.5T459,250q0,52-20,95t-58.5,69T286,440q-55,0-95-26t-61-69t-21-95q0-51 21-94.5T191,86t95-26ZM157,570l98,105h87l97-105H357l-59,54l-59-54H157Z" />
      <glyph unicode="&#xe3;" glyph-name="atilde" horiz-adv-x="595" d="M276-8Q203-8 148.5,26.5T64,120T34,250q0,72 30,130.5t84.5,93T276,508q62,0 106.5-24T455,419v81h75V0H455V80q-28-40-72.5-64T276-8Zm10,68q56,0 94.5,26T439,155.5T459,250q0,52-20,95t-58.5,69T286,440q-55,0-95-26t-61-69t-21-95q0-51 21-94.5T191,86t95-26Zm73,509q-33,0-54.5,10t-40,20T223,609t-34-13t-16-26H142q5,37 26.5,67.5T239,668q32,0 53.5-10t40-20.5T374,627q22,0 33.5,13.5T423,667h32q-5-37-26.5-67.5T359,569Z" />
      <glyph unicode="&#xe4;" glyph-name="adieresis" horiz-adv-x="595" d="M276-8Q203-8 148.5,26.5T64,120T34,250q0,72 30,130.5t84.5,93T276,508q62,0 106.5-24T455,419v81h75V0H455V80q-28-40-72.5-64T276-8Zm10,68q56,0 94.5,26T439,155.5T459,250q0,52-20,95t-58.5,69T286,440q-55,0-95-26t-61-69t-21-95q0-51 21-94.5T191,86t95-26ZM176,579v83h89V579H176Zm157,0v83h89V579H333Z" />
      <glyph unicode="&#xe5;" glyph-name="aring" horiz-adv-x="595" d="M276-8Q203-8 148.5,26.5T64,120T34,250q0,72 30,130.5t84.5,93T276,508q62,0 106.5-24T455,419v81h75V0H455V80q-28-40-72.5-64T276-8Zm10,68q56,0 94.5,26T439,155.5T459,250q0,52-20,95t-58.5,69T286,440q-55,0-95-26t-61-69t-21-95q0-51 21-94.5T191,86t95-26Zm11,496q-37,0-63,26t-26,63q0,38 26,64t63,26q38,0 64.5-26T388,645q0-37-26.5-63T297,556Zm0,45q19,0 32,13t13,31q0,19-13,32t-32,13q-17,0-30-13t-13-32q0-18 13-31t30-13Z" />
      <glyph unicode="&#xe6;" glyph-name="ae" horiz-adv-x="977" d="M276-8Q203-8 148.5,26.5T64,120T34,250q0,72 30,130.5t84.5,93T276,508q62,0 106.5-24T455,419v81h75V428q27,37 70,58.5T702,508q77,0 132.5-34.5t85.5-93T950,250V220H531q6-44 28-80.5t60-58T708,60q56,0 93,27t56,70h80Q913,84 851.5,38T702-8Q643-8 600,13T530,71V0H455V80q-28-40-72.5-64T276-8Zm10,68q56,0 94.5,26T439,155.5T459,250q0,52-20,95t-58.5,69T286,440q-55,0-95-26t-61-69t-21-95q0-51 21-94.5T191,86t95-26ZM532,290H872q-10,64-54,107T702,440T586.5,397T532,290Z" />
      <glyph unicode="&#xe7;" glyph-name="ccedilla" horiz-adv-x="544" d="M290,60q53,0 90.5,27T435,157h81Q496,88 438.5,43T299-7L275-50q12,2 22,2q38,0 65-20.5T389-125q0-42-34-61.5T275-206q-38,0-68.5,12.5T157-165l19,33q16-11 37-20.5t48-9.5q23,0 39,8t16,28q0,15-16,24t-37,9q-18,0-35-5L207-81L254-7Q187-1 137.5,34.5T61,126.5T34,250q0,72 30.5,130.5t85.5,93T280,508q89,0 151.5-46T516,343H435q-17,43-54.5,70T290,440q-55,0-96-26t-63-69t-22-95q0-51 22-94.5T194,86t96-26Z" />
      <glyph unicode="&#xe8;" glyph-name="egrave" horiz-adv-x="557" d="M287-8Q211-8 154,26.5T65.5,120T34,250q0,72 30,130.5t86,93T282,508q77,0 132.5-34.5t85.5-93T530,250V220H111q6-44 28.5-80.5t60.5-58T288,60q53,0 89,23.5T433,144h82Q489,77 432.5,34.5T287-8ZM112,290H452q-10,64-54,107T282,440T166.5,397T112,290ZM302,570L195,675H302l61-105H302Z" />
      <glyph unicode="&#xe9;" glyph-name="eacute" horiz-adv-x="557" d="M287-8Q211-8 154,26.5T65.5,120T34,250q0,72 30,130.5t86,93T282,508q77,0 132.5-34.5t85.5-93T530,250V220H111q6-44 28.5-80.5t60.5-58T288,60q53,0 89,23.5T433,144h82Q489,77 432.5,34.5T287-8ZM112,290H452q-10,64-54,107T282,440T166.5,397T112,290ZM225,570l61,105H393L286,570H225Z" />
      <glyph unicode="&#xea;" glyph-name="ecircumflex" horiz-adv-x="557" d="M287-8Q211-8 154,26.5T65.5,120T34,250q0,72 30,130.5t86,93T282,508q77,0 132.5-34.5t85.5-93T530,250V220H111q6-44 28.5-80.5t60.5-58T288,60q53,0 89,23.5T433,144h82Q489,77 432.5,34.5T287-8ZM112,290H452q-10,64-54,107T282,440T166.5,397T112,290Zm26,280l98,105h87l97-105H338l-59,54l-59-54H138Z" />
      <glyph unicode="&#xeb;" glyph-name="edieresis" horiz-adv-x="557" d="M287-8Q211-8 154,26.5T65.5,120T34,250q0,72 30,130.5t86,93T282,508q77,0 132.5-34.5t85.5-93T530,250V220H111q6-44 28.5-80.5t60.5-58T288,60q53,0 89,23.5T433,144h82Q489,77 432.5,34.5T287-8ZM112,290H452q-10,64-54,107T282,440T166.5,397T112,290Zm45,289v83h89V579H157Zm157,0v83h89V579H314Z" />
      <glyph unicode="&#xec;" glyph-name="igrave" horiz-adv-x="205" d="M65,0V500h75V0H65Zm61,570L19,675H126l61-105H126Z" />
      <glyph unicode="&#xed;" glyph-name="iacute" horiz-adv-x="205" d="M65,0V500h75V0H65ZM49,570l61,105H217L110,570H49Z" />
      <glyph unicode="&#xee;" glyph-name="icircumflex" horiz-adv-x="205" d="M65,0V500h75V0H65ZM-38,570L60,675h87l97-105H162l-59,54L44,570H-38Z" />
      <glyph unicode="&#xef;" glyph-name="idieresis" horiz-adv-x="205" d="M65,0V500h75V0H65ZM-19,579v83H70V579H-19Zm157,0v83h89V579H138Z" />
      <glyph unicode="&#xf0;" glyph-name="eth" horiz-adv-x="563" d="M286-8Q204-8 147.5,28t-85,95.5T34,253q0,72 28,131t79.5,94.5T263,514q47,0 84-15.5T409,455q-23,46-60,75t-71,52l-56-37l-32,38l43,28q-16,9-31.5,17.5T169,644l27,71q53-25 104-59l75,50l32-38l-65-43q54-42 96.5-92t67-114T530,269q0-53-16.5-102.5t-48-89T389,15T286-8Zm-4,67q56,0 94.5,27.5T435,158t20,95t-22,95.5T370.5,420T274,447q-53,0-90-26.5T128,350t-19-97q0-51 20-95t59-71.5T282,59Z" />
      <glyph unicode="&#xf1;" glyph-name="ntilde" horiz-adv-x="566" d="M65,0V500h75V422q27,36 66,61t100,25q52,0 97.5-24.5t74-73T506,291V0H431V289q0,68-39,109.5T291,440q-42,0-76-19t-54.5-53.5T140,288V0H65ZM344,569q-33,0-54.5,10t-40,20T208,609t-34-13t-16-26H127q5,37 26.5,67.5T224,668q32,0 53.5-10t40-20.5T359,627q22,0 33.5,13.5T408,667h32q-5-37-26.5-67.5T344,569Z" />
      <glyph unicode="&#xf2;" glyph-name="ograve" horiz-adv-x="564" d="M282-8Q206-8 150,26.5T64,120T34,250q0,72 30,130.5t86,93T282,508q77,0 132.5-34.5t85.5-93T530,250q0-71-30-130T414.5,26.5T282-8Zm0,68q56,0 94.5,26T435,155.5T455,250q0,52-20,95t-58.5,69T282,440q-55,0-94-26t-59-69t-20-95q0-51 20-94.5T188,86t94-26Zm23,510L198,675H305l61-105H305Z" />
      <glyph unicode="&#xf3;" glyph-name="oacute" horiz-adv-x="564" d="M282-8Q206-8 150,26.5T64,120T34,250q0,72 30,130.5t86,93T282,508q77,0 132.5-34.5t85.5-93T530,250q0-71-30-130T414.5,26.5T282-8Zm0,68q56,0 94.5,26T435,155.5T455,250q0,52-20,95t-58.5,69T282,440q-55,0-94-26t-59-69t-20-95q0-51 20-94.5T188,86t94-26ZM228,570l61,105H396L289,570H228Z" />
      <glyph unicode="&#xf4;" glyph-name="ocircumflex" horiz-adv-x="564" d="M282-8Q206-8 150,26.5T64,120T34,250q0,72 30,130.5t86,93T282,508q77,0 132.5-34.5t85.5-93T530,250q0-71-30-130T414.5,26.5T282-8Zm0,68q56,0 94.5,26T435,155.5T455,250q0,52-20,95t-58.5,69T282,440q-55,0-94-26t-59-69t-20-95q0-51 20-94.5T188,86t94-26ZM141,570l98,105h87l97-105H341l-59,54l-59-54H141Z" />
      <glyph unicode="&#xf5;" glyph-name="otilde" horiz-adv-x="564" d="M282-8Q206-8 150,26.5T64,120T34,250q0,72 30,130.5t86,93T282,508q77,0 132.5-34.5t85.5-93T530,250q0-71-30-130T414.5,26.5T282-8Zm0,68q56,0 94.5,26T435,155.5T455,250q0,52-20,95t-58.5,69T282,440q-55,0-94-26t-59-69t-20-95q0-51 20-94.5T188,86t94-26Zm61,509q-33,0-54.5,10t-40,20T207,609t-34-13t-16-26H126q5,37 26.5,67.5T223,668q32,0 53.5-10t40-20.5T358,627q22,0 33.5,13.5T407,667h32q-5-37-26.5-67.5T343,569Z" />
      <glyph unicode="&#xf6;" glyph-name="odieresis" horiz-adv-x="564" d="M282-8Q206-8 150,26.5T64,120T34,250q0,72 30,130.5t86,93T282,508q77,0 132.5-34.5t85.5-93T530,250q0-71-30-130T414.5,26.5T282-8Zm0,68q56,0 94.5,26T435,155.5T455,250q0,52-20,95t-58.5,69T282,440q-55,0-94-26t-59-69t-20-95q0-51 20-94.5T188,86t94-26ZM160,579v83h89V579H160Zm157,0v83h89V579H317Z" />
      <glyph unicode="&#xf7;" glyph-name="divide" horiz-adv-x="550" d="M231,359v93h88V359H231ZM38,200v69H512V200H38ZM231,17v93h88V17H231Z" />
      <glyph unicode="&#xf8;" glyph-name="oslash" horiz-adv-x="564" d="M96-16l33,57Q83,76 58.5,131T34,250q0,72 30,130.5t86,93T282,508q56,0 104-20l21,37h74l-41-71q43-35 66.5-88T530,250q0-71-30-130T414.5,26.5T282-8q-52,0-97,18L170-16H96Zm13,266q0-43 14.5-81T165,104L351,427q-32,13-69,13q-55,0-94-26t-59-69t-20-95ZM282,60q56,0 94.5,26T435,155t20,95q0,41-13,77.5T404,391L220,70q28-10 62-10Z" />
      <glyph unicode="&#xf9;" glyph-name="ugrave" horiz-adv-x="566" d="M260-8q-51,0-97,24.5t-74.5,73T60,209V500h75V211q0-68 39.5-109.5T275,60q42,0 76,19.5T405.5,133T426,212V500h75V0H426V78q-27-36-66-61T260-8Zm46,578L199,675H306l61-105H306Z" />
      <glyph unicode="&#xfa;" glyph-name="uacute" horiz-adv-x="566" d="M260-8q-51,0-97,24.5t-74.5,73T60,209V500h75V211q0-68 39.5-109.5T275,60q42,0 76,19.5T405.5,133T426,212V500h75V0H426V78q-27-36-66-61T260-8ZM229,570l61,105H397L290,570H229Z" />
      <glyph unicode="&#xfb;" glyph-name="ucircumflex" horiz-adv-x="566" d="M260-8q-51,0-97,24.5t-74.5,73T60,209V500h75V211q0-68 39.5-109.5T275,60q42,0 76,19.5T405.5,133T426,212V500h75V0H426V78q-27-36-66-61T260-8ZM142,570l98,105h87l97-105H342l-59,54l-59-54H142Z" />
      <glyph unicode="&#xfc;" glyph-name="udieresis" horiz-adv-x="566" d="M260-8q-51,0-97,24.5t-74.5,73T60,209V500h75V211q0-68 39.5-109.5T275,60q42,0 76,19.5T405.5,133T426,212V500h75V0H426V78q-27-36-66-61T260-8ZM161,579v83h89V579H161Zm157,0v83h89V579H318Z" />
      <glyph unicode="&#xfd;" glyph-name="yacute" horiz-adv-x="497" d="M117-198L208,7L4,500H87L248,90L412,500h82L198-198H117Zm78,768l61,105H363L256,570H195Z" />
      <glyph unicode="&#xfe;" glyph-name="thorn" horiz-adv-x="594" d="M65-198V700h75V419q28,41 72.5,65T319,508q73,0 127.5-34.5t84.5-93T561,250q0-71-30-130T446.5,26.5T319-8Q257-8 212.5,16T140,80V-198H65ZM309,60q56,0 95.5,26T465,155.5T486,250q0,52-21,95t-60.5,69T309,440q-55,0-94-26t-59-69t-20-95q0-51 20-94.5T215,86t94-26Z" />
      <glyph unicode="&#xff;" glyph-name="ydieresis" horiz-adv-x="497" d="M117-198L208,7L4,500H87L248,90L412,500h82L198-198H117Zm10,777v83h89V579H127Zm157,0v83h89V579H284Z" />
      <glyph unicode="&#x2013;" glyph-name="endash" horiz-adv-x="610" d="M55,262v67H555V262H55Z" />
      <glyph unicode="&#x2014;" glyph-name="emdash" horiz-adv-x="1110" d="M55,262v67H1055V262H55Z" />
      <glyph unicode="&#x2018;" glyph-name="quoteleft" horiz-adv-x="218" d="M36,475l88,213h68L134,475H36Z" />
      <glyph unicode="&#x2019;" glyph-name="quoteright" horiz-adv-x="211" d="M196,688L108,475H40L98,688h98Z" />
      <glyph unicode="&#x201a;" glyph-name="quotesinglbase" horiz-adv-x="220" d="M11-111L69,102h98L79-111H11Z" />
      <glyph unicode="&#x201c;" glyph-name="quotedblleft" horiz-adv-x="369" d="M187,475l88,213h68L285,475H187ZM36,477l88,213h68L134,477H36Z" />
      <glyph unicode="&#x201d;" glyph-name="quotedblright" horiz-adv-x="361" d="M346,688L258,475H190l58,213h98Zm-150,0L108,475H40L98,688h98Z" />
      <glyph unicode="&#x201e;" glyph-name="quotedblbase" horiz-adv-x="370" d="M161-111l58,213h98L229-111H161ZM11-111L69,102h98L79-111H11Z" />
      <glyph unicode="&#x2022;" glyph-name="bullet" horiz-adv-x="340" d="M170,186q-37,0-67.5,18T54,252.5T36,320t18,67.5T102.5,436T170,454t67.5-18T286,387.5T304,320t-18-67.5T237.5,204T170,186Z" />
      <glyph unicode="&#x2039;" glyph-name="guilsinglleft" horiz-adv-x="303" d="M169,57L39,259L169,461h89L121,259L258,57H169Z" />
      <glyph unicode="&#x203a;" glyph-name="guilsinglright" horiz-adv-x="303" d="M45,57L182,259L45,461h89L264,259L134,57H45Z" />
    </font>
</defs>
</svg>
